<?xml version="1.0" encoding="UTF-8"?>
<svg width="23px" height="31px" viewBox="0 0 23 31" version="1.1" xmlns="http://www.w3.org/2000/svg" xmlns:xlink="http://www.w3.org/1999/xlink">
    <!-- Generator: Sketch 51.2 (57519) - http://www.bohemiancoding.com/sketch -->
    <title>01</title>
    <desc>Created with Sketch.</desc>
    <defs>
        <polygon id="path-1" points="0.0002 0.59 22.982 0.59 22.982 29.6387 0.0002 29.6387"></polygon>
    </defs>
    <g id="Page-1" stroke="none" stroke-width="1" fill="none" fill-rule="evenodd">
        <g id="Tunnel-de-commande03_design@2x" transform="translate(-1063.000000, -389.000000)">
            <g id="01" transform="translate(1063.000000, 389.000000)">
                <polygon id="Fill-1" fill="#17E0AB" points="4.6368 26.6826 8.3638 30.4106 21.9758 16.7986 22.6658 9.1896 22.5598 8.7586"></polygon>
                <g id="Group-9" stroke-width="1" transform="translate(0.000000, -0.589600)">
                    <path d="M17.9732,10.8536 C17.7652,10.8536 17.5562,10.9326 17.3982,11.0906 C17.0812,11.4086 17.0812,11.9236 17.3982,12.2406 C17.7142,12.5556 18.2302,12.5576 18.5472,12.2406 C18.8642,11.9236 18.8642,11.4086 18.5472,11.0906 C18.3892,10.9326 18.1812,10.8536 17.9732,10.8536 M17.9732,13.7616 C17.4352,13.7616 16.8992,13.5576 16.4902,13.1486 C15.6732,12.3306 15.6732,11.0006 16.4902,10.1836 C17.3072,9.3656 18.6382,9.3646 19.4552,10.1836 C20.2722,11.0006 20.2722,12.3306 19.4552,13.1486 C19.0472,13.5576 18.5102,13.7616 17.9732,13.7616" id="Fill-2" fill="#22232B"></path>
                    <g id="Group-6">
                        <mask id="mask-2" fill="white">
                            <use xlink:href="#path-1"></use>
                        </mask>
                        <g id="Clip-5"></g>
                        <path d="M21.1292,15.0567 L8.3642,27.8217 L1.8162,21.2747 L14.5822,8.5097 L16.5112,8.3337 C16.8142,9.3737 17.1222,10.2107 17.2642,10.5817 L18.4642,10.1207 C18.2422,9.5437 18.0232,8.8907 17.8242,8.2147 L20.2932,7.9907 L21.6482,9.3457 L21.1292,15.0567 Z M17.4442,2.1277 C17.7272,1.8267 18.2492,1.7937 18.9912,2.0277 C18.9962,2.0297 19.5442,2.2337 19.8362,2.9177 C20.1062,3.5477 20.2072,4.7327 19.2722,6.7937 L17.4872,6.9557 C16.9872,4.8727 16.7892,2.8237 17.4442,2.1277 Z M20.7762,6.6567 L20.7242,6.6617 C21.3892,4.9517 21.4922,3.5237 21.0172,2.4117 C20.4972,1.1977 19.5012,0.8437 19.3832,0.8057 C18.1262,0.4097 17.1572,0.5587 16.5082,1.2487 C15.4092,2.4167 15.6712,4.9237 16.1792,7.0747 L14.0022,7.2727 L0.0002,21.2747 L8.3642,29.6387 L22.2012,15.8007 L22.3662,15.6367 L22.9822,8.8627 L20.7762,6.6567 Z" id="Fill-4" fill="#22232B" mask="url(#mask-2)"></path>
                    </g>
                    <path d="M12.1824,15.8581 C12.3754,15.8581 12.5604,15.8841 12.7374,15.9361 C12.9154,15.9881 13.1064,16.0591 13.3114,16.1511 L13.7464,15.1201 C13.2604,14.8771 12.7394,14.7561 12.1824,14.7561 C11.4624,14.7561 10.8624,14.9641 10.3824,15.3801 C9.9024,15.7971 9.6074,16.3631 9.4984,17.0801 L8.9074,17.0801 L8.9074,17.8621 L9.4224,17.8621 L9.4134,18.0981 C9.4134,18.2131 9.4194,18.3051 9.4314,18.3731 L8.9074,18.3731 L8.9074,19.1641 L9.5164,19.1641 C9.6374,19.8611 9.9324,20.4061 10.4004,20.8001 C10.8684,21.1941 11.4654,21.3911 12.1914,21.3911 C12.7154,21.3911 13.1494,21.3031 13.4934,21.1291 L13.4934,19.9911 C13.1024,20.1601 12.6954,20.2441 12.2714,20.2441 C11.4714,20.2441 10.9954,19.8841 10.8444,19.1641 L12.3464,19.1641 L12.3464,18.3731 L10.7694,18.3731 L10.7604,18.2271 L10.7604,18.0181 L10.7694,17.8621 L12.6264,17.8621 L12.6264,17.0801 L10.8354,17.0801 C10.9044,16.6831 11.0554,16.3801 11.2894,16.1711 C11.5234,15.9621 11.8214,15.8581 12.1824,15.8581" id="Fill-7" fill="#22232B"></path>
                </g>
            </g>
        </g>
    </g>
</svg>