<?xml version="1.0" encoding="UTF-8"?>
<svg width="18px" height="27px" viewBox="0 0 18 27" version="1.1" xmlns="http://www.w3.org/2000/svg" xmlns:xlink="http://www.w3.org/1999/xlink">
    <!-- Generator: Sketch 51.2 (57519) - http://www.bohemiancoding.com/sketch -->
    <title>02</title>
    <desc>Created with Sketch.</desc>
    <defs>
        <polygon id="path-1" points="0 0.589 16.8779 0.589 16.8779 23.415 0 23.415"></polygon>
    </defs>
    <g id="Page-1" stroke="none" stroke-width="1" fill="none" fill-rule="evenodd">
        <g id="Tunnel-de-commande03_design@2x" transform="translate(-1065.000000, -448.000000)">
            <g id="02" transform="translate(1065.000000, 448.000000)">
                <path d="M10.045,23.5232 C16.026,17.5422 17.841,14.3492 17.841,10.0432 C17.841,5.7362 14.35,0.6412 10.045,0.6412 L10.045,23.5232 Z" id="Fill-1" fill="#17E0AB"></path>
                <g id="Group-5" stroke-width="1" transform="translate(0.000000, -0.589300)">
                    <mask id="mask-2" fill="white">
                        <use xlink:href="#path-1"></use>
                    </mask>
                    <g id="Clip-4"></g>
                    <path d="M8.4399,1.873 C12.3849,1.873 15.5949,5.082 15.5949,9.028 C15.5949,13.07 13.9099,16.061 8.4399,21.597 C3.1679,16.25 1.2839,12.918 1.2839,9.028 C1.2839,5.082 4.4939,1.873 8.4399,1.873 Z M8.4399,23.415 L8.8939,22.961 C14.9389,16.917 16.8779,13.532 16.8779,9.028 C16.8779,4.375 13.0929,0.589 8.4399,0.589 C3.7859,0.589 -0.0001,4.375 -0.0001,9.028 C-0.0001,13.42 2.0889,17.067 7.9859,22.961 L8.4399,23.415 Z" id="Fill-3" fill="#22232B" mask="url(#mask-2)"></path>
                </g>
                <path d="M8.4391,10.4744 C7.2411,10.4744 6.2671,9.5004 6.2671,8.3024 C6.2671,7.1054 7.2411,6.1314 8.4391,6.1314 C9.6371,6.1314 10.6111,7.1054 10.6111,8.3024 C10.6111,9.5004 9.6371,10.4744 8.4391,10.4744 M11.8941,8.3024 C11.8941,6.3974 10.3441,4.8474 8.4391,4.8474 C6.5341,4.8474 4.9841,6.3974 4.9841,8.3024 C4.9841,10.2084 6.5341,11.7584 8.4391,11.7584 C10.3441,11.7584 11.8941,10.2084 11.8941,8.3024" id="Fill-6" fill="#22232B"></path>
                <path d="M13.2928,20.8862 L13.0048,22.1372 C14.9428,22.5842 15.5958,23.1892 15.5958,23.3982 C15.5958,23.9152 13.1608,25.1272 8.4388,25.1272 C3.7188,25.1272 1.2848,23.9152 1.2848,23.3982 C1.2848,23.1892 1.9368,22.5832 3.8728,22.1372 L3.5848,20.8862 C1.2398,21.4252 0.0008,22.2942 0.0008,23.3982 C0.0008,25.4682 4.3748,26.4102 8.4388,26.4102 C12.5038,26.4102 16.8788,25.4682 16.8788,23.3982 C16.8788,22.2942 15.6388,21.4262 13.2928,20.8862" id="Fill-8" fill="#22232B"></path>
            </g>
        </g>
    </g>
</svg>