<?xml version="1.0" encoding="UTF-8"?>
<svg width="28px" height="28px" viewBox="0 0 28 28" version="1.1" xmlns="http://www.w3.org/2000/svg" xmlns:xlink="http://www.w3.org/1999/xlink">
    <!-- Generator: Sketch 51.2 (57519) - http://www.bohemiancoding.com/sketch -->
    <title>03</title>
    <desc>Created with Sketch.</desc>
    <defs></defs>
    <g id="Page-1" stroke="none" stroke-width="1" fill="none" fill-rule="evenodd">
        <g id="Tunnel-de-commande03_design@2x" transform="translate(-1060.000000, -506.000000)">
            <g id="03" transform="translate(1060.000000, 506.000000)">
                <polygon id="Fill-1" fill="#17E0AB" points="17.99 18.7749 27.821 18.7749 27.821 1.7519 17.99 1.7519"></polygon>
                <path d="M20.7585,-3.55271368e-15 L20.7585,1.753 L14.3255,1.753 L14.3255,-3.55271368e-15 L13.0415,-3.55271368e-15 L13.0415,1.753 L8.2255,1.753 L8.2255,11.239 L6.0995,11.239 L6.0995,9.485 L4.8155,9.485 L4.8155,11.239 L0.0005,11.239 L0.0005,27.298 L18.6315,27.298 L18.6315,17.812 L26.8575,17.812 L26.8575,1.753 L22.0415,1.753 L22.0415,-3.55271368e-15 L20.7585,-3.55271368e-15 Z M22.0415,4.815 L22.0415,3.037 L25.5735,3.037 L25.5735,6.822 L9.5095,6.822 L9.5095,3.037 L13.0415,3.037 L13.0415,4.815 L14.3255,4.815 L14.3255,3.037 L20.7585,3.037 L20.7585,4.815 L22.0415,4.815 Z M9.5095,8.106 L25.5735,8.106 L25.5735,16.528 L18.6315,16.528 L18.6315,11.239 L13.8155,11.239 L13.8155,9.485 L12.5325,9.485 L12.5325,11.239 L9.5095,11.239 L9.5095,8.106 Z M13.8155,14.301 L13.8155,12.523 L17.3475,12.523 L17.3475,16.308 L1.2835,16.308 L1.2835,12.523 L4.8155,12.523 L4.8155,14.301 L6.0995,14.301 L6.0995,12.523 L12.5325,12.523 L12.5325,14.301 L13.8155,14.301 Z M1.2835,26.014 L17.3475,26.014 L17.3475,17.591 L1.2835,17.591 L1.2835,26.014 Z" id="Fill-2" fill="#22232B"></path>
            </g>
        </g>
    </g>
</svg>