<?xml version="1.0" encoding="UTF-8"?>
<svg width="30px" height="31px" viewBox="0 0 30 31" version="1.1" xmlns="http://www.w3.org/2000/svg" xmlns:xlink="http://www.w3.org/1999/xlink">
    <!-- Generator: Sketch 51.2 (57519) - http://www.bohemiancoding.com/sketch -->
    <title>04</title>
    <desc>Created with Sketch.</desc>
    <defs>
        <polygon id="path-1" points="0 0.7941 29.8177 0.7941 29.8177 31 0 31"></polygon>
    </defs>
    <g id="Page-1" stroke="none" stroke-width="1" fill="none" fill-rule="evenodd">
        <g id="Tunnel-de-commande03_design@2x" transform="translate(-1059.000000, -574.000000)">
            <g id="04" transform="translate(1059.000000, 574.000000)">
                <polygon id="Fill-1" fill="#17E0AB" points="15.321 19.7242 22.11 19.7242 22.11 9.7642 15.321 9.7642"></polygon>
                <polygon id="Fill-2" fill="#22232B" points="22.7147 13.0748 22.7147 20.3278 9.9117 20.3278 9.9117 21.4328 23.8197 21.4328 23.8197 13.0748"></polygon>
                <polygon id="Fill-3" fill="#22232B" points="22.4388 11.6938 21.3338 11.6938 21.3338 18.9468 8.5308 18.9468 8.5308 20.0518 22.4388 20.0518"></polygon>
                <path d="M7.703,17.5662 L19.953,17.5662 L19.953,10.8652 L7.703,10.8652 L7.703,17.5662 Z M6.597,18.6712 L21.058,18.6712 L21.058,9.7602 L6.597,9.7602 L6.597,18.6712 Z" id="Fill-4" fill="#22232B"></path>
                <g id="Group-10" stroke-width="1" transform="translate(0.000000, -0.793800)">
                    <path d="M13.8273,13.7259 C14.5353,13.7259 15.1113,14.3019 15.1113,15.0099 C15.1113,15.7169 14.5353,16.2929 13.8273,16.2929 C13.1193,16.2929 12.5443,15.7169 12.5443,15.0099 C12.5443,14.3019 13.1193,13.7259 13.8273,13.7259 M13.8273,17.3989 C15.1443,17.3989 16.2163,16.3269 16.2163,15.0099 C16.2163,13.6919 15.1443,12.6209 13.8273,12.6209 C12.5103,12.6209 11.4393,13.6919 11.4393,15.0099 C11.4393,16.3269 12.5103,17.3989 13.8273,17.3989" id="Fill-5" fill="#22232B"></path>
                    <g id="Group-9">
                        <mask id="mask-2" fill="white">
                            <use xlink:href="#path-1"></use>
                        </mask>
                        <g id="Clip-8"></g>
                        <path d="M23.4257,4.6301 L23.3747,4.6281 L23.4287,4.5551 L23.4257,4.6301 Z M28.7127,16.0911 C28.7127,23.7031 22.5207,29.8951 14.9087,29.8951 C7.2977,29.8951 1.1047,23.7031 1.1047,16.0911 C1.1047,8.4801 7.2977,2.2871 14.9087,2.2871 C17.6517,2.2871 20.2687,3.0881 22.5307,4.5921 L19.5897,4.4691 L19.5427,5.5741 L24.4837,5.7791 L24.6907,0.8401 L23.5857,0.7941 L23.4567,3.8871 C20.9437,2.1231 17.9997,1.1821 14.9087,1.1821 C6.6887,1.1821 -0.0003,7.8711 -0.0003,16.0911 C-0.0003,24.3121 6.6887,31.0001 14.9087,31.0001 C23.1297,31.0001 29.8177,24.3121 29.8177,16.0911 L28.7127,16.0911 Z" id="Fill-7" fill="#22232B" mask="url(#mask-2)"></path>
                    </g>
                </g>
            </g>
        </g>
    </g>
</svg>