<?xml version="1.0" encoding="UTF-8"?>
<svg width="32px" height="24px" viewBox="0 0 32 24" version="1.1" xmlns="http://www.w3.org/2000/svg" xmlns:xlink="http://www.w3.org/1999/xlink">
    <!-- Generator: Sketch 51.2 (57519) - http://www.bohemiancoding.com/sketch -->
    <title>05</title>
    <desc>Created with Sketch.</desc>
    <defs>
        <polygon id="path-1" points="0 24 31.017 24 31.017 0.615 0 0.615"></polygon>
    </defs>
    <g id="Page-1" stroke="none" stroke-width="1" fill="none" fill-rule="evenodd">
        <g id="Tunnel-de-commande03_design@2x" transform="translate(-1059.000000, -644.000000)">
            <g id="05" transform="translate(1059.000000, 644.000000)">
                <polygon id="Fill-1" fill="#17E0AB" points="12.835 14.1204 18.985 14.1204 18.985 -0.0006 12.835 -0.0006"></polygon>
                <polygon id="Fill-2" fill="#17E0AB" points="24.3117 5.551 24.3117 18.901 31.0177 23.385 31.0177 5.551"></polygon>
                <path d="M0,0.0061 L0,17.3521 L5.953,13.3841 L12.033,13.3841 L12.033,18.9021 L24.328,18.9021 L30.28,22.8711 L30.28,5.5241 L18.247,5.5241 L18.247,0.0061 L0,0.0061 Z M0.983,0.9891 L17.265,0.9891 L17.265,12.4011 L5.655,12.4011 L0.983,15.5151 L0.983,0.9891 Z M13.016,13.3841 L18.247,13.3841 L18.247,6.5071 L29.297,6.5071 L29.297,21.0331 L24.626,17.9191 L13.016,17.9191 L13.016,13.3841 Z" id="Fill-3" fill="#22232B"></path>
                <g id="Group-9" stroke-width="1" transform="translate(0.000000, -0.614600)">
                    <path d="M19.2042,14.2618 L19.7652,14.2618 C19.8772,14.9038 20.1492,15.4068 20.5812,15.7698 C21.0122,16.1328 21.5632,16.3148 22.2322,16.3148 C22.7152,16.3148 23.1162,16.2338 23.4332,16.0728 L23.4332,15.0238 C23.0722,15.1798 22.6962,15.2578 22.3062,15.2578 C21.5682,15.2578 21.1302,14.9258 20.9902,14.2618 L22.3752,14.2618 L22.3752,13.5328 L20.9212,13.5328 L20.9132,13.3968 L20.9132,13.2048 L20.9212,13.0608 L22.6342,13.0608 L22.6342,12.3398 L20.9822,12.3398 C21.0452,11.9738 21.1842,11.6948 21.4002,11.5018 C21.6162,11.3098 21.8912,11.2138 22.2242,11.2138 C22.4012,11.2138 22.5722,11.2368 22.7362,11.2848 C22.9002,11.3328 23.0762,11.3988 23.2642,11.4838 L23.6662,10.5328 C23.2182,10.3088 22.7372,10.1968 22.2242,10.1968 C21.5602,10.1968 21.0072,10.3888 20.5642,10.7728 C20.1222,11.1568 19.8502,11.6788 19.7492,12.3398 L19.2042,12.3398 L19.2042,13.0608 L19.6792,13.0608 L19.6712,13.2788 C19.6712,13.3848 19.6772,13.4698 19.6882,13.5328 L19.2042,13.5328 L19.2042,14.2618 Z" id="Fill-4" fill="#22232B"></path>
                    <mask id="mask-2" fill="white">
                        <use xlink:href="#path-1"></use>
                    </mask>
                    <g id="Clip-7"></g>
                    <polygon id="Fill-6" fill="#22232B" mask="url(#mask-2)" points="1.643 12.988 2.626 12.988 2.626 2.851 1.643 2.851"></polygon>
                    <path d="M9.5191,10.1882 C8.1161,10.1882 6.9751,9.0472 6.9751,7.6442 C6.9751,6.2412 8.1161,5.1002 9.5191,5.1002 C9.8421,5.1002 10.1521,5.1662 10.4451,5.2812 L9.7301,5.4632 L10.0031,6.5332 L12.2881,5.9522 L12.1171,3.4922 L11.0151,3.5692 L11.0691,4.3482 C10.5871,4.1212 10.0641,3.9952 9.5191,3.9952 C7.5071,3.9952 5.8701,5.6322 5.8701,7.6442 C5.8701,9.6562 7.5071,11.2932 9.5191,11.2932 C11.5311,11.2932 13.1681,9.6562 13.1681,7.6442 L12.0631,7.6442 C12.0631,9.0472 10.9221,10.1882 9.5191,10.1882" id="Fill-8" fill="#22232B" mask="url(#mask-2)"></path>
                </g>
            </g>
        </g>
    </g>
</svg>