<?xml version="1.0" encoding="UTF-8"?>
<svg width="1159px" height="612px" viewBox="0 0 1159 612" version="1.1" xmlns="http://www.w3.org/2000/svg" xmlns:xlink="http://www.w3.org/1999/xlink">
    <!-- Generator: Sketch 50.2 (55047) - http://www.bohemiancoding.com/sketch -->
    <title>404-bg</title>
    <desc>Created with Sketch.</desc>
    <defs>
        <path d="M1050.95763,173.771585 L627.82146,173.771585 C609.953216,172.681658 595.836989,159.50946 595.836989,143.408465 C595.836989,127.468392 609.672306,114.397967 627.287142,113.081008 L737.307672,113.081008 C772.566809,113.081008 801.150892,87.7673895 801.150892,56.540504 C801.150892,25.3144884 772.566809,0 737.307672,0 L181.543599,0 C146.284462,0 117.700379,25.3144884 117.700379,56.540504 C117.700379,87.7673895 146.284462,113.081008 181.543599,113.081008 L229.298328,113.081008 L233.351881,113.081008 C250.505081,114.792881 263.839475,127.677157 263.839475,143.326698 C263.839475,160.140974 248.448347,173.771585 229.462356,173.771585 L108.042373,173.771585 C48.3725347,173.771585 0,216.61102 0,269.455515 C0,322.30001 48.3725347,365.139445 108.042373,365.139445 L270.196295,365.139445 C294.606996,365.139445 314.395447,382.664392 314.395447,404.282871 C314.395447,425.90135 294.606996,443.426297 270.196295,443.426297 L255.372881,443.426297 C206.55148,443.426297 166.974576,478.47619 166.974576,521.713148 C166.974576,564.950107 206.55148,600 255.372881,600 L952.737288,600 C1001.55869,600 1041.13559,564.950107 1041.13559,521.713148 C1041.13559,478.47619 1001.55869,443.426297 952.737288,443.426297 L885.456356,443.426297 C861.045655,443.426297 841.257203,425.90135 841.257203,404.282871 C841.257203,382.664392 861.045655,365.139445 885.456356,365.139445 L1050.95763,365.139445 C1110.62747,365.139445 1159,322.30001 1159,269.455515 C1159,216.61102 1110.62747,173.771585 1050.95763,173.771585" id="path-1"></path>
        <polygon id="path-3" points="0.000218181818 0.000436363636 23.8047273 0.000436363636 23.8047273 23.8040727 0.000218181818 23.8040727"></polygon>
        <polygon id="path-5" points="0 -3.55271368e-15 11.9021455 -3.55271368e-15 11.9021455 11.9022545 0 11.9022545"></polygon>
        <polygon id="path-7" points="0.0002 0.0004 21.821 0.0004 21.821 21.8204 0.0002 21.8204"></polygon>
        <polygon id="path-9" points="0.0002 0.0004 21.821 0.0004 21.821 21.8204 0.0002 21.8204"></polygon>
        <polygon id="path-11" points="0 -3.55271368e-15 15.8695273 -3.55271368e-15 15.8695273 15.8696727 0 15.8696727"></polygon>
    </defs>
    <g id="Page-1" stroke="none" stroke-width="1" fill="none" fill-rule="evenodd">
        <g id="Page-404_design@2x" transform="translate(-141.000000, -219.000000)">
            <g id="Group-2" transform="translate(141.000000, 219.000000)">
                <g id="404-bg">
                    <g id="FOND-SLIDER4">
                        <mask id="mask-2" fill="white">
                            <use xlink:href="#path-1"></use>
                        </mask>
                        <use id="Mask" fill="#FBF7F7" xlink:href="#path-1"></use>
                    </g>
                    <g id="Page-1" transform="translate(807.000000, 588.000000)">
                        <mask id="mask-4" fill="white">
                            <use xlink:href="#path-3"></use>
                        </mask>
                        <g id="Clip-2"></g>
                        <path d="M11.9020364,4.80043636 C7.98567273,4.80043636 4.80021818,7.98589091 4.80021818,11.9022545 C4.80021818,15.8186182 7.98567273,19.0040727 11.9020364,19.0040727 C15.8184,19.0040727 19.0038545,15.8186182 19.0038545,11.9022545 C19.0038545,7.98589091 15.8184,4.80043636 11.9020364,4.80043636 M11.9020364,23.8040727 C5.33912727,23.8040727 0.000218181818,18.4651636 0.000218181818,11.9022545 C0.000218181818,5.33934545 5.33912727,0.000436363636 11.9020364,0.000436363636 C18.4649455,0.000436363636 23.8049455,5.33934545 23.8049455,11.9022545 C23.8049455,18.4651636 18.4649455,23.8040727 11.9020364,23.8040727" id="Fill-1" fill="#6B6BED" mask="url(#mask-4)"></path>
                    </g>
                    <g id="Page-1" transform="translate(746.000000, 547.000000)">
                        <mask id="mask-6" fill="white">
                            <use xlink:href="#path-5"></use>
                        </mask>
                        <g id="Clip-2"></g>
                        <path d="M10.7021455,4.75090909 L7.15123636,4.75090909 L7.15123636,1.2 C7.15123636,0.537272727 6.61341818,-3.55271368e-15 5.95123636,-3.55271368e-15 C5.28850909,-3.55271368e-15 4.75069091,0.537272727 4.75069091,1.2 L4.75069091,4.75090909 L1.20032727,4.75090909 C0.5376,4.75090909 -0.000218181818,5.28818182 -0.000218181818,5.95090909 C-0.000218181818,6.61363636 0.5376,7.15090909 1.20032727,7.15090909 L4.75069091,7.15090909 L4.75069091,10.7023636 C4.75069091,11.3645455 5.28850909,11.9023636 5.95123636,11.9023636 C6.61341818,11.9023636 7.15123636,11.3645455 7.15123636,10.7023636 L7.15123636,7.15090909 L10.7021455,7.15090909 C11.3648727,7.15090909 11.9021455,6.61363636 11.9021455,5.95090909 C11.9021455,5.28818182 11.3648727,4.75090909 10.7021455,4.75090909" id="Fill-1" fill="#17E0AB" mask="url(#mask-6)"></path>
                    </g>
                    <g id="Page-1-Copy-7" transform="translate(974.000000, 300.000000)">
                        <mask id="mask-8" fill="white">
                            <use xlink:href="#path-7"></use>
                        </mask>
                        <g id="Clip-2"></g>
                        <path d="M10.9102,4.4004 C7.3202,4.4004 4.4002,7.3204 4.4002,10.9104 C4.4002,14.5004 7.3202,17.4204 10.9102,17.4204 C14.5002,17.4204 17.4202,14.5004 17.4202,10.9104 C17.4202,7.3204 14.5002,4.4004 10.9102,4.4004 M10.9102,21.8204 C4.8942,21.8204 0.0002,16.9264 0.0002,10.9104 C0.0002,4.8944 4.8942,0.0004 10.9102,0.0004 C16.9262,0.0004 21.8212,4.8944 21.8212,10.9104 C21.8212,16.9264 16.9262,21.8204 10.9102,21.8204" id="Fill-1" fill="#17E0AB" mask="url(#mask-8)"></path>
                    </g>
                    <g id="Group-6" transform="translate(208.000000, 74.000000)">
                        <g id="Page-1" transform="translate(0.000000, 31.000000)">
                            <mask id="mask-10" fill="white">
                                <use xlink:href="#path-9"></use>
                            </mask>
                            <g id="Clip-2"></g>
                            <path d="M10.9102,4.4004 C7.3202,4.4004 4.4002,7.3204 4.4002,10.9104 C4.4002,14.5004 7.3202,17.4204 10.9102,17.4204 C14.5002,17.4204 17.4202,14.5004 17.4202,10.9104 C17.4202,7.3204 14.5002,4.4004 10.9102,4.4004 M10.9102,21.8204 C4.8942,21.8204 0.0002,16.9264 0.0002,10.9104 C0.0002,4.8944 4.8942,0.0004 10.9102,0.0004 C16.9262,0.0004 21.8212,4.8944 21.8212,10.9104 C21.8212,16.9264 16.9262,21.8204 10.9102,21.8204" id="Fill-1" fill="#6B6BED" mask="url(#mask-10)"></path>
                        </g>
                        <g id="Page-1" transform="translate(47.000000, 0.000000)">
                            <mask id="mask-12" fill="white">
                                <use xlink:href="#path-11"></use>
                            </mask>
                            <g id="Clip-2"></g>
                            <path d="M14.2695273,6.33454545 L9.53498182,6.33454545 L9.53498182,1.6 C9.53498182,0.716363636 8.81789091,-3.55271368e-15 7.93498182,-3.55271368e-15 C7.05134545,-3.55271368e-15 6.33425455,0.716363636 6.33425455,1.6 L6.33425455,6.33454545 L1.60043636,6.33454545 C0.7168,6.33454545 -0.000290909091,7.05090909 -0.000290909091,7.93454545 C-0.000290909091,8.81818182 0.7168,9.53454545 1.60043636,9.53454545 L6.33425455,9.53454545 L6.33425455,14.2698182 C6.33425455,15.1527273 7.05134545,15.8698182 7.93498182,15.8698182 C8.81789091,15.8698182 9.53498182,15.1527273 9.53498182,14.2698182 L9.53498182,9.53454545 L14.2695273,9.53454545 C15.1531636,9.53454545 15.8695273,8.81818182 15.8695273,7.93454545 C15.8695273,7.05090909 15.1531636,6.33454545 14.2695273,6.33454545" id="Fill-1" fill="#17E0AB" mask="url(#mask-12)"></path>
                        </g>
                    </g>
                </g>
            </g>
        </g>
    </g>
</svg>