<?xml version="1.0" encoding="UTF-8"?>
<svg width="492px" height="47px" viewBox="0 0 492 47" version="1.1" xmlns="http://www.w3.org/2000/svg" xmlns:xlink="http://www.w3.org/1999/xlink">
    <!-- Generator: Sketch 50.2 (55047) - http://www.bohemiancoding.com/sketch -->
    <title>icon-service-title</title>
    <desc>Created with Sketch.</desc>
    <defs>
        <polygon id="path-1" points="0 0 18 0 18 18 0 18"></polygon>
        <polygon id="path-3" points="0 -3.55271368e-15 11.9021455 -3.55271368e-15 11.9021455 11.9022545 0 11.9022545"></polygon>
        <polygon id="path-5" points="0.000127272727 0.000254545455 13.8860909 0.000254545455 13.8860909 13.8857091 0.000127272727 13.8857091"></polygon>
    </defs>
    <g id="Page-1" stroke="none" stroke-width="1" fill="none" fill-rule="evenodd">
        <g id="Homepage---PlusDePoint@2x" transform="translate(-465.000000, -859.000000)">
            <g id="icon-service-title" transform="translate(465.000000, 859.000000)">
                <g id="Page-1-Copy-6" transform="translate(14.000000, 29.000000)">
                    <mask id="mask-2" fill="white">
                        <use xlink:href="#path-1"></use>
                    </mask>
                    <g id="Clip-2"></g>
                    <path d="M16.1852344,7.18482196 L10.815178,7.18482196 L10.815178,1.81476559 C10.815178,0.812520049 10.0018331,0 9.00041245,0 C7.9981669,0 7.18482196,0.812520049 7.18482196,1.81476559 L7.18482196,7.18482196 L1.81559049,7.18482196 C0.813344943,7.18482196 0,7.99734201 0,8.99958755 C0,10.0018331 0.813344943,10.8143531 1.81559049,10.8143531 L7.18482196,10.8143531 L7.18482196,16.1852344 C7.18482196,17.1866551 7.9981669,18 9.00041245,18 C10.0018331,18 10.815178,17.1866551 10.815178,16.1852344 L10.815178,10.8143531 L16.1852344,10.8143531 C17.18748,10.8143531 18,10.0018331 18,8.99958755 C18,7.99734201 17.18748,7.18482196 16.1852344,7.18482196" id="Fill-1" fill="#17E0AB" mask="url(#mask-2)"></path>
                </g>
                <g id="Page-1-Copy-6" transform="translate(0.000000, 18.000000)">
                    <mask id="mask-4" fill="white">
                        <use xlink:href="#path-3"></use>
                    </mask>
                    <g id="Clip-2"></g>
                    <path d="M10.7021455,4.75090909 L7.15123636,4.75090909 L7.15123636,1.2 C7.15123636,0.537272727 6.61341818,-3.55271368e-15 5.95123636,-3.55271368e-15 C5.28850909,-3.55271368e-15 4.75069091,0.537272727 4.75069091,1.2 L4.75069091,4.75090909 L1.20032727,4.75090909 C0.5376,4.75090909 -0.000218181818,5.28818182 -0.000218181818,5.95090909 C-0.000218181818,6.61363636 0.5376,7.15090909 1.20032727,7.15090909 L4.75069091,7.15090909 L4.75069091,10.7023636 C4.75069091,11.3645455 5.28850909,11.9023636 5.95123636,11.9023636 C6.61341818,11.9023636 7.15123636,11.3645455 7.15123636,10.7023636 L7.15123636,7.15090909 L10.7021455,7.15090909 C11.3648727,7.15090909 11.9021455,6.61363636 11.9021455,5.95090909 C11.9021455,5.28818182 11.3648727,4.75090909 10.7021455,4.75090909" id="Fill-1" fill="#17E0AB" mask="url(#mask-4)"></path>
                </g>
                <g id="Page-1" transform="translate(478.000000, 0.000000)">
                    <mask id="mask-6" fill="white">
                        <use xlink:href="#path-5"></use>
                    </mask>
                    <g id="Clip-2"></g>
                    <path d="M6.94285455,2.80025455 C4.65830909,2.80025455 2.80012727,4.65843636 2.80012727,6.94298182 C2.80012727,9.22752727 4.65830909,11.0857091 6.94285455,11.0857091 C9.2274,11.0857091 11.0855818,9.22752727 11.0855818,6.94298182 C11.0855818,4.65843636 9.2274,2.80025455 6.94285455,2.80025455 M6.94285455,13.8857091 C3.11449091,13.8857091 0.000127272727,10.7713455 0.000127272727,6.94298182 C0.000127272727,3.11461818 3.11449091,0.000254545455 6.94285455,0.000254545455 C10.7712182,0.000254545455 13.8862182,3.11461818 13.8862182,6.94298182 C13.8862182,10.7713455 10.7712182,13.8857091 6.94285455,13.8857091" id="Fill-1" fill="#17E0AB" mask="url(#mask-6)"></path>
                </g>
            </g>
        </g>
    </g>
</svg>