<?xml version="1.0" encoding="UTF-8"?>
<svg width="78px" height="34px" viewBox="0 0 78 34" version="1.1" xmlns="http://www.w3.org/2000/svg" xmlns:xlink="http://www.w3.org/1999/xlink">
    <!-- Generator: Sketch 50.2 (55047) - http://www.bohemiancoding.com/sketch -->
    <title>Page 1</title>
    <desc>Created with Sketch.</desc>
    <defs>
        <polygon id="path-1" points="0 33.7295 77.529 33.7295 77.529 0.0005 0 0.0005"></polygon>
    </defs>
    <g id="Page-1" stroke="none" stroke-width="1" fill="none" fill-rule="evenodd">
        <g id="Homepage---PlusDePoint@2x" transform="translate(-681.000000, -194.000000)">
            <g id="Group-3" transform="translate(400.000000, 194.000000)">
                <g id="Page-1" transform="translate(281.000000, 0.000000)">
                    <path d="M76.6448,25.2235 L74.3728,18.6345 C71.9088,18.5805 66.8098,17.7885 65.5208,12.3495 L18.5878,12.3495 C16.9338,16.9305 14.1058,17.7655 12.3528,17.7965 L11.0308,25.4645 C10.8678,26.4075 11.5948,27.2705 12.5518,27.2705 L18.7278,27.2705 C18.7738,24.2315 21.2498,21.7815 24.2998,21.7815 C27.3498,21.7815 29.8258,24.2315 29.8718,27.2705 L51.8838,27.2705 C51.9298,24.2315 54.4058,21.7815 57.4558,21.7815 C60.5048,21.7815 62.9818,24.2315 63.0278,27.2705 L75.1858,27.2705 C76.2458,27.2705 76.9908,26.2255 76.6448,25.2235" id="Fill-1" fill="#17E0AB"></path>
                    <path d="M75.1855,28.0703 L62.9435,28.0703 L62.9435,26.4703 L75.1855,26.4703 C75.4285,26.4703 75.6495,26.3563 75.7905,26.1583 C75.9325,25.9603 75.9675,25.7153 75.8885,25.4843 L73.6015,18.8523 C72.4255,15.4403 69.2105,13.1483 65.6025,13.1483 L18.4935,13.1483 C15.8705,13.1483 13.6425,15.0253 13.1965,17.6103 L11.8195,25.6003 C11.7685,25.8973 11.8995,26.1073 11.9835,26.2063 C12.0665,26.3043 12.2505,26.4703 12.5515,26.4703 L18.7805,26.4703 L18.7805,28.0703 L12.5515,28.0703 C11.8585,28.0703 11.2065,27.7663 10.7595,27.2373 C10.3125,26.7073 10.1245,26.0113 10.2425,25.3293 L11.6195,17.3393 C12.1985,13.9833 15.0885,11.5493 18.4935,11.5493 L65.6025,11.5493 C69.8935,11.5493 73.7155,14.2743 75.1145,18.3313 L77.4005,24.9633 C77.6475,25.6773 77.5325,26.4713 77.0935,27.0873 C76.6545,27.7033 75.9415,28.0703 75.1855,28.0703" id="Fill-3" fill="#22232B"></path>
                    <mask id="mask-2" fill="white">
                        <use xlink:href="#path-1"></use>
                    </mask>
                    <g id="Clip-6"></g>
                    <polygon id="Fill-5" fill="#36363C" mask="url(#mask-2)" points="29.871 27.9145 51.881 27.9145 51.881 26.6275 29.871 26.6275"></polygon>
                    <path d="M57.4556,22.582 C54.8236,22.582 52.6816,24.724 52.6816,27.356 C52.6816,29.988 54.8236,32.13 57.4556,32.13 C60.0876,32.13 62.2296,29.988 62.2296,27.356 C62.2296,24.724 60.0876,22.582 57.4556,22.582 M57.4556,33.729 C53.9406,33.729 51.0816,30.871 51.0816,27.356 C51.0816,23.842 53.9406,20.982 57.4556,20.982 C60.9706,20.982 63.8296,23.842 63.8296,27.356 C63.8296,30.871 60.9706,33.729 57.4556,33.729" id="Fill-7" fill="#22232B" mask="url(#mask-2)"></path>
                    <path d="M57.4556,30.6094 C55.6616,30.6094 54.2026,29.1504 54.2026,27.3564 L55.8026,27.3564 C55.8026,28.2674 56.5436,29.0094 57.4556,29.0094 C58.3676,29.0094 59.1086,28.2674 59.1086,27.3564 C59.1086,27.0054 59.0006,26.6714 58.7966,26.3884 L60.0926,25.4514 C60.4956,26.0074 60.7086,26.6674 60.7086,27.3564 C60.7086,29.1504 59.2496,30.6094 57.4556,30.6094" id="Fill-8" fill="#22232B" mask="url(#mask-2)"></path>
                    <path d="M56.4463,26.0469 L55.4673,24.7809 C56.0413,24.3379 56.7293,24.1039 57.4553,24.1039 L57.4553,25.7029 C57.0863,25.7029 56.7373,25.8219 56.4463,26.0469" id="Fill-9" fill="#22232B" mask="url(#mask-2)"></path>
                    <path d="M24.2998,22.4258 C21.5808,22.4258 19.3688,24.6378 19.3688,27.3568 C19.3688,30.0748 21.5808,32.2858 24.2998,32.2858 C27.0188,32.2858 29.2308,30.0748 29.2308,27.3568 C29.2308,24.6378 27.0188,22.4258 24.2998,22.4258 M24.2998,33.5728 C20.8718,33.5728 18.0828,30.7838 18.0828,27.3568 C18.0828,23.9278 20.8718,21.1388 24.2998,21.1388 C27.7278,21.1388 30.5168,23.9278 30.5168,27.3568 C30.5168,30.7838 27.7278,33.5728 24.2998,33.5728" id="Fill-10" fill="#36363C" mask="url(#mask-2)"></path>
                    <path d="M21.4731,28.9668 C21.1941,28.4788 21.0471,27.9208 21.0471,27.3568 C21.0471,25.5628 22.5061,24.1038 24.3001,24.1038 C26.0941,24.1038 27.5531,25.5628 27.5531,27.3568 L25.9531,27.3568 C25.9531,26.4458 25.2111,25.7028 24.3001,25.7028 C23.3881,25.7028 22.6461,26.4458 22.6461,27.3568 C22.6461,27.6438 22.7211,27.9258 22.8631,28.1738 L21.4731,28.9668 Z" id="Fill-11" fill="#22232B" mask="url(#mask-2)"></path>
                    <path d="M24.2998,30.6094 C23.8628,30.6094 23.4368,30.5234 23.0338,30.3534 L23.6568,28.8794 C23.8618,28.9654 24.0778,29.0094 24.2998,29.0094 L24.2998,30.6094 Z" id="Fill-12" fill="#22232B" mask="url(#mask-2)"></path>
                    <path d="M19.7256,11.5488 L53.3866,11.5488 L48.2816,3.9098 C47.3146,2.4638 45.6986,1.5998 43.9576,1.5998 L27.5336,1.5998 C25.4826,1.5998 23.6186,2.8108 22.7836,4.6838 L19.7256,11.5488 Z M56.3796,13.1488 L17.2606,13.1488 L21.3216,4.0328 C22.4136,1.5828 24.8516,-0.0002 27.5336,-0.0002 L43.9576,-0.0002 C46.2336,-0.0002 48.3476,1.1288 49.6116,3.0218 L56.3796,13.1488 Z" id="Fill-13" fill="#22232B" mask="url(#mask-2)"></path>
                    <polygon id="Fill-14" fill="#22232B" mask="url(#mask-2)" points="33.845 16.5525 35.445 16.5525 35.445 0.7995 33.845 0.7995"></polygon>
                    <path d="M13.2749,18.4092 C12.6229,18.4092 12.1879,18.2482 12.1119,18.2182 L12.6929,16.7272 C12.8129,16.7682 15.6029,17.7082 17.7449,12.0642 L19.2409,12.6332 C18.1699,15.4542 16.7489,17.2692 15.0179,18.0302 C14.3559,18.3212 13.7559,18.4092 13.2749,18.4092" id="Fill-15" fill="#22232B" mask="url(#mask-2)"></path>
                    <path d="M74.3579,19.3916 C71.8549,19.3916 69.7609,18.8296 68.1339,17.7186 L69.0349,16.3966 C70.3919,17.3226 72.1829,17.7916 74.3579,17.7916 L74.3579,19.3916 Z" id="Fill-16" fill="#22232B" mask="url(#mask-2)"></path>
                    <path d="M65.5034,14.6748 C64.9104,13.4608 64.8094,12.4668 64.8054,12.4248 L66.3984,12.2688 C66.3994,12.2768 66.4834,13.0348 66.9404,13.9738 L65.5034,14.6748 Z" id="Fill-17" fill="#22232B" mask="url(#mask-2)"></path>
                    <polygon id="Fill-18" fill="#22232B" mask="url(#mask-2)" points="39.104 16.2695 42.877 16.2695 42.877 14.6695 39.104 14.6695"></polygon>
                    <polygon id="Fill-19" fill="#22232B" mask="url(#mask-2)" points="50.166 33.7295 61.952 33.7295 61.952 32.1295 50.166 32.1295"></polygon>
                    <polygon id="Fill-20" fill="#22232B" mask="url(#mask-2)" points="63.802 33.7295 66.117 33.7295 66.117 32.1295 63.802 32.1295"></polygon>
                    <polygon id="Fill-21" fill="#22232B" mask="url(#mask-2)" points="48.331 33.7295 49.36 33.7295 49.36 32.1295 48.331 32.1295"></polygon>
                    <polygon id="Fill-22" fill="#22232B" mask="url(#mask-2)" points="40.969 33.7295 46.629 33.7295 46.629 32.1295 40.969 32.1295"></polygon>
                    <polygon id="Fill-23" fill="#22232B" mask="url(#mask-2)" points="31.172 33.7295 33.487 33.7295 33.487 32.1295 31.172 32.1295"></polygon>
                    <polygon id="Fill-24" fill="#22232B" mask="url(#mask-2)" points="0 33.7295 3.345 33.7295 3.345 32.1295 0 32.1295"></polygon>
                    <polygon id="Fill-25" fill="#22232B" mask="url(#mask-2)" points="5.831 33.7295 29.068 33.7295 29.068 32.1295 5.831 32.1295"></polygon>
                </g>
            </g>
        </g>
    </g>
</svg>