<?xml version="1.0" encoding="UTF-8"?>
<svg width="32px" height="37px" viewBox="0 0 32 37" version="1.1" xmlns="http://www.w3.org/2000/svg" xmlns:xlink="http://www.w3.org/1999/xlink">
    <!-- Generator: Sketch 51 (57462) - http://www.bohemiancoding.com/sketch -->
    <title>Telephone</title>
    <desc>Created with Sketch.</desc>
    <defs>
        <polygon id="path-1" points="0 36.244898 31.2632381 36.244898 31.2632381 0.633530612 0 0.633530612"></polygon>
    </defs>
    <g id="Page-1" stroke="none" stroke-width="1" fill="none" fill-rule="evenodd">
        <g id="résultat-de-recherche_design@2x" transform="translate(-1070.000000, -1185.000000)">
            <g id="Telephone" transform="translate(1070.000000, 1185.000000)">
                <polygon id="Fill-1" fill="#17E0AB" points="12.3126857 0.761218367 12.3126857 36.3665449 22.3279238 36.3665449 22.3279238 18.2101163 20.3675429 18.2101163 15.7968762 21.2433612 15.7968762 18.2101163 15.7968762 7.59489184 22.3279238 7.59489184 22.3279238 0.761218367"></polygon>
                <polygon id="Fill-2" fill="#22232B" points="2.28571429 30.3255776 3.5047619 30.3255776 3.5047619 5.88972041 2.28571429 5.88972041"></polygon>
                <g id="Group-14" stroke-width="1" transform="translate(0.000000, 0.121496)">
                    <path d="M10.706819,31.0029041 C10.2230095,31.0029041 9.82910476,30.6125163 9.82910476,30.1330265 C9.82910476,29.6527816 10.2230095,29.2616388 10.706819,29.2616388 C11.1913905,29.2616388 11.5852952,29.6527816 11.5852952,30.1330265 C11.5852952,30.6125163 11.1913905,31.0029041 10.706819,31.0029041 M10.706819,28.0542306 C9.55024762,28.0542306 8.61005714,28.9860265 8.61005714,30.1330265 C8.61005714,31.2785163 9.55024762,32.2110673 10.706819,32.2110673 C11.8633905,32.2110673 12.803581,31.2785163 12.803581,30.1330265 C12.803581,28.9860265 11.8633905,28.0542306 10.706819,28.0542306" id="Fill-3" fill="#22232B"></path>
                    <mask id="mask-2" fill="white">
                        <use xlink:href="#path-1"></use>
                    </mask>
                    <g id="Clip-6"></g>
                    <polygon id="Fill-5" fill="#22232B" mask="url(#mask-2)" points="9.95352381 4.86210204 13.1024762 4.86210204 13.1024762 3.65393878 9.95352381 3.65393878"></polygon>
                    <polygon id="Fill-7" fill="#22232B" mask="url(#mask-2)" points="8.31161905 4.86210204 9.17485714 4.86210204 9.17485714 3.65393878 8.31161905 3.65393878"></polygon>
                    <path d="M30.0442667,17.5607286 L20.1836952,17.5607286 L16.4061714,20.0563408 L16.4061714,8.19746327 L30.0442667,8.19746327 L30.0442667,17.5607286 Z M1.21912381,34.1306878 L1.21912381,1.84176939 L20.1951238,1.84176939 L20.1951238,6.9893 L15.1871238,6.9893 L15.1871238,22.3140959 L20.1951238,19.0044837 L20.1951238,34.1306878 L1.21912381,34.1306878 Z M31.2633143,6.9893 L21.4141714,6.9893 L21.4141714,0.633606122 L7.61904762e-05,0.633606122 L7.61904762e-05,35.338851 L21.4141714,35.338851 L21.4141714,18.7688918 L31.2633143,18.7688918 L31.2633143,6.9893 Z" id="Fill-8" fill="#22232B" mask="url(#mask-2)"></path>
                    <polygon id="Fill-9" fill="#22232B" mask="url(#mask-2)" points="18.8441905 11.2177959 21.5108571 11.2177959 21.5108571 10.0096327 18.8441905 10.0096327"></polygon>
                    <polygon id="Fill-10" fill="#22232B" mask="url(#mask-2)" points="23.415619 11.2177959 27.6060952 11.2177959 27.6060952 10.0096327 23.415619 10.0096327"></polygon>
                    <polygon id="Fill-11" fill="#22232B" mask="url(#mask-2)" points="18.8441905 13.483102 27.6060952 13.483102 27.6060952 12.2749388 18.8441905 12.2749388"></polygon>
                    <polygon id="Fill-12" fill="#22232B" mask="url(#mask-2)" points="18.8441905 15.7484082 23.7965714 15.7484082 23.7965714 14.5402449 18.8441905 14.5402449"></polygon>
                    <polygon id="Fill-13" fill="#22232B" mask="url(#mask-2)" points="24.9394286 15.7484082 27.6060952 15.7484082 27.6060952 14.5402449 24.9394286 14.5402449"></polygon>
                </g>
            </g>
        </g>
    </g>
</svg>