<?xml version="1.0" encoding="UTF-8"?>
<svg width="273px" height="1px" viewBox="0 0 273 1" version="1.1" xmlns="http://www.w3.org/2000/svg" xmlns:xlink="http://www.w3.org/1999/xlink">
    <!-- Generator: Sketch 51 (57462) - http://www.bohemiancoding.com/sketch -->
    <title>Group 10 Copy</title>
    <desc>Created with Sketch.</desc>
    <defs></defs>
    <g id="Page-1" stroke="none" stroke-width="1" fill="none" fill-rule="evenodd" stroke-linecap="square">
        <g id="résultat-de-recherche---PlusDePoint---responsive" transform="translate(-24.000000, -721.000000)" stroke="#E3EBF3">
            <g id="Group-10-Copy" transform="translate(160.500000, 721.500000) rotate(-90.000000) translate(-160.500000, -721.500000) translate(159.000000, 585.000000)">
                <path d="M1.5,0.5 L1.5,5.5" id="Line-12"></path>
                <path d="M1.5,10.7692308 L1.5,15.7692308" id="Line-12"></path>
                <path d="M1.5,21.0384615 L1.5,26.0384615" id="Line-12"></path>
                <path d="M1.5,31.3076923 L1.5,36.3076923" id="Line-12"></path>
                <path d="M1.5,41.5769231 L1.5,46.5769231" id="Line-12"></path>
                <path d="M1.5,51.8461538 L1.5,56.8461538" id="Line-12"></path>
                <path d="M1.5,62.1153846 L1.5,67.1153846" id="Line-12"></path>
                <path d="M1.5,72.3846154 L1.5,77.3846154" id="Line-12"></path>
                <path d="M1.5,82.6538462 L1.5,87.6538462" id="Line-12"></path>
                <path d="M1.5,92.9230769 L1.5,97.9230769" id="Line-12"></path>
                <path d="M1.5,103.192308 L1.5,108.192308" id="Line-12"></path>
                <path d="M1.5,113.461538 L1.5,118.461538" id="Line-12"></path>
                <path d="M1.5,123.730769 L1.5,128.730769" id="Line-12"></path>
                <path d="M1.5,134 L1.5,139" id="Line-12"></path>
                <path d="M1.5,144.269231 L1.5,149.269231" id="Line-12"></path>
                <path d="M1.5,154.538462 L1.5,159.538462" id="Line-12"></path>
                <path d="M1.5,164.807692 L1.5,169.807692" id="Line-12"></path>
                <path d="M1.5,175.076923 L1.5,180.076923" id="Line-12"></path>
                <path d="M1.5,185.346154 L1.5,190.346154" id="Line-12"></path>
                <path d="M1.5,195.615385 L1.5,200.615385" id="Line-12"></path>
                <path d="M1.5,205.884615 L1.5,210.884615" id="Line-12"></path>
                <path d="M1.5,216.153846 L1.5,221.153846" id="Line-12"></path>
                <path d="M1.5,226.423077 L1.5,231.423077" id="Line-12"></path>
                <path d="M1.5,236.692308 L1.5,241.692308" id="Line-12"></path>
                <path d="M1.5,246.961538 L1.5,251.961538" id="Line-12"></path>
                <path d="M1.5,257.230769 L1.5,262.230769" id="Line-12"></path>
                <path d="M1.5,267.5 L1.5,272.5" id="Line-12"></path>
            </g>
        </g>
    </g>
</svg>