<?xml version="1.0" encoding="utf-8"?>
<!-- Generator: Adobe Illustrator 23.0.1, SVG Export Plug-In . SVG Version: 6.00 Build 0)  -->
<svg version="1.1" id="Calque_1" xmlns="http://www.w3.org/2000/svg" xmlns:xlink="http://www.w3.org/1999/xlink" x="0px" y="0px"
	 viewBox="0 0 28 25" style="enable-background:new 0 0 28 25;" xml:space="preserve">
<style type="text/css">
	.st0{opacity:0.2;}
	.st1{fill-rule:evenodd;clip-rule:evenodd;fill:#17E0AB;}
	.st2{filter:url(#Adobe_OpacityMaskFilter);}
	.st3{fill-rule:evenodd;clip-rule:evenodd;fill:#FFFFFF;}
	.st4{mask:url(#mask-2_1_);fill-rule:evenodd;clip-rule:evenodd;fill:#17E0AB;}
</style>
<title>Page 1</title>
<desc>Created with Sketch.</desc>
<g transform="translate(-11.000000, -234.000000)">
	<g id="Page-1" transform="translate(11.000000, 234.000000)">
		<g id="Group-5" transform="translate(3.000000, 3.000000)" class="st0">
			<path id="Fill-1" class="st1" d="M14.8,6.6c0-3.3-2.7-6-6-6c-3.3,0-6,2.7-6,6s2.7,6,6,6C12.1,12.6,14.8,9.9,14.8,6.6"/>
			<path id="Fill-3" class="st1" d="M0.6,22h16.3c0-7.8-3.9-9.4-8.2-9.4C4.5,12.6,0.6,14.2,0.6,22"/>
		</g>
		<path id="Fill-6" class="st1" d="M4.9,18c-1.1,1-1,3.5-0.9,4l1.4,0c-0.1-1,0-2.7,0.5-3.1L4.9,18z"/>
		<path id="Fill-8" class="st1" d="M12,18.9c0.5,0.5,0.6,2.1,0.5,3.1l1.5,0c0-0.5,0.2-3-0.9-4L12,18.9z"/>
		<g id="Group-12">
			<g id="Clip-11">
			</g>
			<defs>
				<filter id="Adobe_OpacityMaskFilter" filterUnits="userSpaceOnUse" x="0" y="0.1" width="27.3" height="22.1">
					<feColorMatrix  type="matrix" values="1 0 0 0 0  0 1 0 0 0  0 0 1 0 0  0 0 0 1 0"/>
				</filter>
			</defs>
			<mask maskUnits="userSpaceOnUse" x="0" y="0.1" width="27.3" height="22.1" id="mask-2_1_">
				<g class="st2">
					<polygon id="path-1_1_" class="st3" points="0,0.1 27.3,0.1 27.3,22.1 0,22.1 					"/>
				</g>
			</mask>
			<path id="Fill-10" class="st4" d="M17.3,11.3c0-2,1.6-3.7,3.7-3.7c2,0,3.7,1.6,3.7,3.7s-1.6,3.7-3.7,3.7
				C18.9,14.9,17.3,13.3,17.3,11.3 M3.3,6.7c0-3,2.4-5.4,5.4-5.4s5.4,2.4,5.4,5.4s-2.4,5.4-5.4,5.4S3.3,9.7,3.3,6.7 M23.6,15.3
				c1.3-0.9,2.2-2.4,2.2-4.1c0-2.7-2.2-4.9-4.9-4.9c-2.7,0-4.9,2.2-4.9,4.9c0,1.7,0.9,3.2,2.2,4c-0.6,0.2-1.2,0.5-1.8,1
				c-1-2.3-2.7-3.3-4.5-3.8c2-1.1,3.4-3.3,3.4-5.8c0-3.7-3-6.6-6.6-6.6S2.1,3,2.1,6.7c0,2.5,1.4,4.7,3.4,5.8C2.7,13.3,0,15.6,0,22.1
				h1.2c0-7.7,3.8-8.8,7.6-8.8c3.7,0,7.6,1,7.6,8.8h1.2c0-1.8-0.2-3.3-0.6-4.5c0.8-1,2.1-1.5,4-1.5c2.5,0,5.1,0.7,5.1,6h1.2
				C27.3,18.4,26.1,16.2,23.6,15.3"/>
		</g>
		<path id="Fill-13" class="st1" d="M23,19.9c0.2,0.3,0.2,1.3,0.2,2.1l0.8,0c0-0.4,0.1-2.2-0.4-3L23,19.9z"/>
	</g>
</g>
</svg>
