<?xml version="1.0" encoding="UTF-8"?>
<svg width="1345px" height="540px" viewBox="0 0 1345 540" version="1.1" xmlns="http://www.w3.org/2000/svg" xmlns:xlink="http://www.w3.org/1999/xlink">
    <!-- Generator: Sketch 50.2 (55047) - http://www.bohemiancoding.com/sketch -->
    <title>icon-news-bg</title>
    <desc>Created with Sketch.</desc>
    <defs>
        <polygon id="path-1" points="0.0002 0.0004 21.821 0.0004 21.821 21.8204 0.0002 21.8204"></polygon>
        <polygon id="path-3" points="0.000145454545 0.000290909091 15.8698182 0.000290909091 15.8698182 15.8693818 0.000145454545 15.8693818"></polygon>
        <polygon id="path-5" points="0 -3.55271368e-15 21.8206 -3.55271368e-15 21.8206 21.8208 0 21.8208"></polygon>
        <polygon id="path-7" points="0 -3.55271368e-15 13.8858364 -3.55271368e-15 13.8858364 13.8859636 0 13.8859636"></polygon>
    </defs>
    <g id="Page-1" stroke="none" stroke-width="1" fill="none" fill-rule="evenodd">
        <g id="Homepage---PlusDePoint@2x" transform="translate(-55.000000, -3655.000000)">
            <g id="icon-news-bg" transform="translate(55.000000, 3655.000000)">
                <g id="Page-1" transform="translate(0.000000, 158.000000)">
                    <mask id="mask-2" fill="white">
                        <use xlink:href="#path-1"></use>
                    </mask>
                    <g id="Clip-2"></g>
                    <path d="M10.9102,4.4004 C7.3202,4.4004 4.4002,7.3204 4.4002,10.9104 C4.4002,14.5004 7.3202,17.4204 10.9102,17.4204 C14.5002,17.4204 17.4202,14.5004 17.4202,10.9104 C17.4202,7.3204 14.5002,4.4004 10.9102,4.4004 M10.9102,21.8204 C4.8942,21.8204 0.0002,16.9264 0.0002,10.9104 C0.0002,4.8944 4.8942,0.0004 10.9102,0.0004 C16.9262,0.0004 21.8212,4.8944 21.8212,10.9104 C21.8212,16.9264 16.9262,21.8204 10.9102,21.8204" id="Fill-1" fill="#17E0AB" mask="url(#mask-2)"></path>
                </g>
                <g id="Page-1" transform="translate(774.000000, 0.000000)">
                    <mask id="mask-4" fill="white">
                        <use xlink:href="#path-3"></use>
                    </mask>
                    <g id="Clip-2"></g>
                    <path d="M7.93469091,3.20029091 C5.32378182,3.20029091 3.20014545,5.32392727 3.20014545,7.93483636 C3.20014545,10.5457455 5.32378182,12.6693818 7.93469091,12.6693818 C10.5456,12.6693818 12.6692364,10.5457455 12.6692364,7.93483636 C12.6692364,5.32392727 10.5456,3.20029091 7.93469091,3.20029091 M7.93469091,15.8693818 C3.55941818,15.8693818 0.000145454545,12.3101091 0.000145454545,7.93483636 C0.000145454545,3.55956364 3.55941818,0.000290909091 7.93469091,0.000290909091 C12.3099636,0.000290909091 15.8699636,3.55956364 15.8699636,7.93483636 C15.8699636,12.3101091 12.3099636,15.8693818 7.93469091,15.8693818" id="Fill-1" fill="#6B6BED" mask="url(#mask-4)"></path>
                </g>
                <g id="Page-1" transform="translate(1302.000000, 489.000000)">
                    <mask id="mask-6" fill="white">
                        <use xlink:href="#path-5"></use>
                    </mask>
                    <g id="Clip-2"></g>
                    <path d="M19.6206,8.71 L13.1106,8.71 L13.1106,2.2 C13.1106,0.985 12.1246,-3.55271368e-15 10.9106,-3.55271368e-15 C9.6956,-3.55271368e-15 8.7096,0.985 8.7096,2.2 L8.7096,8.71 L2.2006,8.71 C0.9856,8.71 -0.0004,9.695 -0.0004,10.91 C-0.0004,12.125 0.9856,13.11 2.2006,13.11 L8.7096,13.11 L8.7096,19.621 C8.7096,20.835 9.6956,21.821 10.9106,21.821 C12.1246,21.821 13.1106,20.835 13.1106,19.621 L13.1106,13.11 L19.6206,13.11 C20.8356,13.11 21.8206,12.125 21.8206,10.91 C21.8206,9.695 20.8356,8.71 19.6206,8.71" id="Fill-1" fill="#6B6BED" mask="url(#mask-6)"></path>
                </g>
                <g id="Page-1" transform="translate(1331.000000, 526.000000)">
                    <mask id="mask-8" fill="white">
                        <use xlink:href="#path-7"></use>
                    </mask>
                    <g id="Clip-2"></g>
                    <path d="M12.4858364,5.54272727 L8.34310909,5.54272727 L8.34310909,1.4 C8.34310909,0.626818182 7.71565455,-3.55271368e-15 6.94310909,-3.55271368e-15 C6.16992727,-3.55271368e-15 5.54247273,0.626818182 5.54247273,1.4 L5.54247273,5.54272727 L1.40038182,5.54272727 C0.6272,5.54272727 -0.000254545455,6.16954545 -0.000254545455,6.94272727 C-0.000254545455,7.71590909 0.6272,8.34272727 1.40038182,8.34272727 L5.54247273,8.34272727 L5.54247273,12.4860909 C5.54247273,13.2586364 6.16992727,13.8860909 6.94310909,13.8860909 C7.71565455,13.8860909 8.34310909,13.2586364 8.34310909,12.4860909 L8.34310909,8.34272727 L12.4858364,8.34272727 C13.2590182,8.34272727 13.8858364,7.71590909 13.8858364,6.94272727 C13.8858364,6.16954545 13.2590182,5.54272727 12.4858364,5.54272727" id="Fill-1" fill="#17E0AB" mask="url(#mask-8)"></path>
                </g>
            </g>
        </g>
    </g>
</svg>