<?xml version="1.0" encoding="UTF-8"?>
<svg width="185px" height="353px" viewBox="0 0 185 353" version="1.1" xmlns="http://www.w3.org/2000/svg" xmlns:xlink="http://www.w3.org/1999/xlink">
    <!-- Generator: Sketch 50.2 (55047) - http://www.bohemiancoding.com/sketch -->
    <title>icon-test-xs-bg</title>
    <desc>Created with Sketch.</desc>
    <defs>
        <polygon id="path-1" points="0 -3.55271368e-15 17.8532182 -3.55271368e-15 17.8532182 17.8533818 0 17.8533818"></polygon>
        <polygon id="path-3" points="0.000218181818 0.000436363636 23.8047273 0.000436363636 23.8047273 23.8040727 0.000218181818 23.8040727"></polygon>
        <polygon id="path-5" points="0 -3.55271368e-15 15.8695273 -3.55271368e-15 15.8695273 15.8696727 0 15.8696727"></polygon>
    </defs>
    <g id="Page-1" stroke="none" stroke-width="1" fill="none" fill-rule="evenodd">
        <g id="Homepage---PlusDePoint---responsive" transform="translate(-101.000000, -3474.000000)">
            <g id="icon-test-xs-bg" transform="translate(101.000000, 3474.000000)">
                <g id="Page-1">
                    <mask id="mask-2" fill="white">
                        <use xlink:href="#path-1"></use>
                    </mask>
                    <g id="Clip-2"></g>
                    <path d="M16.0532182,7.12636364 L10.7268545,7.12636364 L10.7268545,1.8 C10.7268545,0.805909091 9.92012727,-3.55271368e-15 8.92685455,-3.55271368e-15 C7.93276364,-3.55271368e-15 7.12603636,0.805909091 7.12603636,1.8 L7.12603636,7.12636364 L1.80049091,7.12636364 C0.8064,7.12636364 -0.000327272727,7.93227273 -0.000327272727,8.92636364 C-0.000327272727,9.92045455 0.8064,10.7263636 1.80049091,10.7263636 L7.12603636,10.7263636 L7.12603636,16.0535455 C7.12603636,17.0468182 7.93276364,17.8535455 8.92685455,17.8535455 C9.92012727,17.8535455 10.7268545,17.0468182 10.7268545,16.0535455 L10.7268545,10.7263636 L16.0532182,10.7263636 C17.0473091,10.7263636 17.8532182,9.92045455 17.8532182,8.92636364 C17.8532182,7.93227273 17.0473091,7.12636364 16.0532182,7.12636364" id="Fill-1" fill="#17E0AB" mask="url(#mask-2)"></path>
                </g>
                <g id="Page-1-Copy-8" transform="translate(161.000000, 304.000000)">
                    <mask id="mask-4" fill="white">
                        <use xlink:href="#path-3"></use>
                    </mask>
                    <g id="Clip-2"></g>
                    <path d="M11.9020364,4.80043636 C7.98567273,4.80043636 4.80021818,7.98589091 4.80021818,11.9022545 C4.80021818,15.8186182 7.98567273,19.0040727 11.9020364,19.0040727 C15.8184,19.0040727 19.0038545,15.8186182 19.0038545,11.9022545 C19.0038545,7.98589091 15.8184,4.80043636 11.9020364,4.80043636 M11.9020364,23.8040727 C5.33912727,23.8040727 0.000218181818,18.4651636 0.000218181818,11.9022545 C0.000218181818,5.33934545 5.33912727,0.000436363636 11.9020364,0.000436363636 C18.4649455,0.000436363636 23.8049455,5.33934545 23.8049455,11.9022545 C23.8049455,18.4651636 18.4649455,23.8040727 11.9020364,23.8040727" id="Fill-1" fill="#6B6BED" mask="url(#mask-4)"></path>
                </g>
                <g id="Page-1" transform="translate(137.000000, 337.000000)">
                    <mask id="mask-6" fill="white">
                        <use xlink:href="#path-5"></use>
                    </mask>
                    <g id="Clip-2"></g>
                    <path d="M14.2695273,6.33454545 L9.53498182,6.33454545 L9.53498182,1.6 C9.53498182,0.716363636 8.81789091,-3.55271368e-15 7.93498182,-3.55271368e-15 C7.05134545,-3.55271368e-15 6.33425455,0.716363636 6.33425455,1.6 L6.33425455,6.33454545 L1.60043636,6.33454545 C0.7168,6.33454545 -0.000290909091,7.05090909 -0.000290909091,7.93454545 C-0.000290909091,8.81818182 0.7168,9.53454545 1.60043636,9.53454545 L6.33425455,9.53454545 L6.33425455,14.2698182 C6.33425455,15.1527273 7.05134545,15.8698182 7.93498182,15.8698182 C8.81789091,15.8698182 9.53498182,15.1527273 9.53498182,14.2698182 L9.53498182,9.53454545 L14.2695273,9.53454545 C15.1531636,9.53454545 15.8695273,8.81818182 15.8695273,7.93454545 C15.8695273,7.05090909 15.1531636,6.33454545 14.2695273,6.33454545" id="Fill-1" fill="#17E0AB" mask="url(#mask-6)"></path>
                </g>
            </g>
        </g>
    </g>
</svg>