<?xml version="1.0" encoding="UTF-8"?>
<svg width="1px" height="147px" viewBox="0 0 1 147" version="1.1" xmlns="http://www.w3.org/2000/svg" xmlns:xlink="http://www.w3.org/1999/xlink">
    <!-- Generator: Sketch 51 (57462) - http://www.bohemiancoding.com/sketch -->
    <title>Group 10</title>
    <desc>Created with Sketch.</desc>
    <defs></defs>
    <g id="Page-1" stroke="none" stroke-width="1" fill="none" fill-rule="evenodd" stroke-linecap="square">
        <g id="résultat-de-recherche_design@2x" transform="translate(-728.000000, -1231.000000)" stroke="#F3F6F7">
            <g id="Group-10" transform="translate(727.000000, 1231.000000)">
                <path d="M1.5,0.5 L1.5,5.5" id="Line-12"></path>
                <path d="M1.5,10.5714286 L1.5,15.5714286" id="Line-12"></path>
                <path d="M1.5,20.6428571 L1.5,25.6428571" id="Line-12"></path>
                <path d="M1.5,30.7142857 L1.5,35.7142857" id="Line-12"></path>
                <path d="M1.5,40.7857143 L1.5,45.7857143" id="Line-12"></path>
                <path d="M1.5,50.8571429 L1.5,55.8571429" id="Line-12"></path>
                <path d="M1.5,60.9285714 L1.5,65.9285714" id="Line-12"></path>
                <path d="M1.5,71 L1.5,76" id="Line-12"></path>
                <path d="M1.5,81.0714286 L1.5,86.0714286" id="Line-12"></path>
                <path d="M1.5,91.1428571 L1.5,96.1428571" id="Line-12"></path>
                <path d="M1.5,101.214286 L1.5,106.214286" id="Line-12"></path>
                <path d="M1.5,111.285714 L1.5,116.285714" id="Line-12"></path>
                <path d="M1.5,121.357143 L1.5,126.357143" id="Line-12"></path>
                <path d="M1.5,131.428571 L1.5,136.428571" id="Line-12"></path>
                <path d="M1.5,141.5 L1.5,146.5" id="Line-12"></path>
            </g>
        </g>
    </g>
</svg>