<?xml version="1.0" encoding="utf-8"?>
<!-- Generator: Adobe Illustrator 23.0.1, SVG Export Plug-In . SVG Version: 6.00 Build 0)  -->
<svg version="1.1" id="Calque_1" xmlns="http://www.w3.org/2000/svg" xmlns:xlink="http://www.w3.org/1999/xlink" x="0px" y="0px"
	 viewBox="0 0 949 807" style="enable-background:new 0 0 949 807;" xml:space="preserve">
<style type="text/css">
	.st0{filter:url(#Adobe_OpacityMaskFilter);}
	.st1{fill-rule:evenodd;clip-rule:evenodd;fill:#FFFFFF;}
	.st2{mask:url(#mask-2_1_);fill-rule:evenodd;clip-rule:evenodd;fill:#17E0AB;}
	.st3{filter:url(#Adobe_OpacityMaskFilter_1_);}
	.st4{mask:url(#mask-4_1_);fill-rule:evenodd;clip-rule:evenodd;fill:#6C6BF5;}
	.st5{filter:url(#Adobe_OpacityMaskFilter_2_);}
	.st6{mask:url(#mask-6_1_);fill-rule:evenodd;clip-rule:evenodd;fill:#17E0AB;}
	.st7{filter:url(#Adobe_OpacityMaskFilter_3_);}
	.st8{mask:url(#mask-8_1_);fill-rule:evenodd;clip-rule:evenodd;fill:#6C6BF5;}
</style>
<title>icon-content-default-bg</title>
<desc>Created with Sketch.</desc>
<g>
	<g transform="translate(-27.000000, -548.000000)">
		<g id="icon-content-default-bg" transform="translate(27.000000, 548.000000)">
			<g id="Page-1-Copy-8" transform="translate(0.000000, 170.000000)">
				<g id="Clip-2">
				</g>
				<defs>
					<filter id="Adobe_OpacityMaskFilter" filterUnits="userSpaceOnUse" x="0" y="0" width="21.8" height="21.8">
						<feColorMatrix  type="matrix" values="1 0 0 0 0  0 1 0 0 0  0 0 1 0 0  0 0 0 1 0"/>
					</filter>
				</defs>
				<mask maskUnits="userSpaceOnUse" x="0" y="0" width="21.8" height="21.8" id="mask-2_1_">
					<g class="st0">
						<polygon id="path-1_1_" class="st1" points="0,0 21.8,0 21.8,21.8 0,21.8 						"/>
					</g>
				</mask>
				<path id="Fill-1" class="st2" d="M10.9,4.4c-3.6,0-6.5,2.9-6.5,6.5s2.9,6.5,6.5,6.5s6.5-2.9,6.5-6.5S14.5,4.4,10.9,4.4
					 M10.9,21.8C4.9,21.8,0,16.9,0,10.9S4.9,0,10.9,0s10.9,4.9,10.9,10.9S16.9,21.8,10.9,21.8"/>
			</g>
			<g id="Page-1-Copy-9" transform="translate(933.000000, 0.000000)">
				<defs>
					<filter id="Adobe_OpacityMaskFilter_1_" filterUnits="userSpaceOnUse" x="0" y="0" width="15.9" height="15.9">
						<feColorMatrix  type="matrix" values="1 0 0 0 0  0 1 0 0 0  0 0 1 0 0  0 0 0 1 0"/>
					</filter>
				</defs>
				<mask maskUnits="userSpaceOnUse" x="0" y="0" width="15.9" height="15.9" id="mask-4_1_">
					<g class="st3">
						<polygon id="path-3_1_" class="st1" points="0,0 15.9,0 15.9,15.9 0,15.9 						"/>
					</g>
				</mask>
				<path class="st4" d="M7.9,3.2c-2.6,0-4.7,2.1-4.7,4.7s2.1,4.7,4.7,4.7s4.7-2.1,4.7-4.7S10.5,3.2,7.9,3.2 M7.9,15.9
					C3.6,15.9,0,12.3,0,7.9S3.6,0,7.9,0s7.9,3.6,7.9,7.9S12.3,15.9,7.9,15.9"/>
			</g>
			<g id="Page-1" transform="translate(901.000000, 330.000000)">
				<defs>
					<filter id="Adobe_OpacityMaskFilter_2_" filterUnits="userSpaceOnUse" x="0" y="0" width="19.4" height="19.4">
						<feColorMatrix  type="matrix" values="1 0 0 0 0  0 1 0 0 0  0 0 1 0 0  0 0 0 1 0"/>
					</filter>
				</defs>
				<mask maskUnits="userSpaceOnUse" x="0" y="0" width="19.4" height="19.4" id="mask-6_1_">
					<g class="st5">
						<polygon id="path-5_1_" class="st1" points="0,0 22,0 22,22 0,22 						"/>
					</g>
				</mask>
				<path class="st6" d="M17.4,7.7h-5.8V2c0-1.1-0.9-2-2-2c-1.1,0-2,0.9-2,2v5.8H2c-1.1,0-2,0.9-2,2s0.9,2,2,2h5.8v5.8
					c0,1.1,0.9,2,2,2c1.1,0,2-0.9,2-2v-5.8h5.8c1.1,0,2-0.9,2-2S18.5,7.7,17.4,7.7"/>
			</g>
			<g id="Page-1-Copy-2" transform="translate(42.000000, 787.000000)">
				<defs>
					<filter id="Adobe_OpacityMaskFilter_3_" filterUnits="userSpaceOnUse" x="0" y="0" width="19.4" height="19.4">
						<feColorMatrix  type="matrix" values="1 0 0 0 0  0 1 0 0 0  0 0 1 0 0  0 0 0 1 0"/>
					</filter>
				</defs>
				<mask maskUnits="userSpaceOnUse" x="0" y="0" width="19.4" height="19.4" id="mask-8_1_">
					<g class="st7">
						<polygon id="path-7_1_" class="st1" points="0,0 22,0 22,22 0,22 						"/>
					</g>
				</mask>
				<path class="st8" d="M17.4,7.7h-5.8V2c0-1.1-0.9-2-2-2c-1.1,0-2,0.9-2,2v5.8H2c-1.1,0-2,0.9-2,2s0.9,2,2,2h5.8v5.8
					c0,1.1,0.9,2,2,2c1.1,0,2-0.9,2-2v-5.8h5.8c1.1,0,2-0.9,2-2S18.5,7.7,17.4,7.7"/>
			</g>
		</g>
		<rect x="27" y="804" class="st1" width="947" height="550"/>
	</g>
</g>
</svg>
