<?xml version="1.0" encoding="UTF-8"?>
<svg width="210px" height="1082px" viewBox="0 0 210 1082" version="1.1" xmlns="http://www.w3.org/2000/svg" xmlns:xlink="http://www.w3.org/1999/xlink">
    <!-- Generator: Sketch 50.2 (55047) - http://www.bohemiancoding.com/sketch -->
    <title>icon-service-xs-bg</title>
    <desc>Created with Sketch.</desc>
    <defs>
        <polygon id="path-1" points="0.0002 0.0004 21.821 0.0004 21.821 21.8204 0.0002 21.8204"></polygon>
        <polygon id="path-3" points="0.000127272727 0.000254545455 13.8860909 0.000254545455 13.8860909 13.8857091 0.000127272727 13.8857091"></polygon>
        <polygon id="path-5" points="0 -3.55271368e-15 17.8532182 -3.55271368e-15 17.8532182 17.8533818 0 17.8533818"></polygon>
        <polygon id="path-7" points="0 -3.55271368e-15 11.9021455 -3.55271368e-15 11.9021455 11.9022545 0 11.9022545"></polygon>
    </defs>
    <g id="Page-1" stroke="none" stroke-width="1" fill="none" fill-rule="evenodd">
        <g id="Homepage---PlusDePoint---responsive" transform="translate(-59.000000, -1379.000000)">
            <g id="icon-service-xs-bg" transform="translate(59.000000, 1379.000000)">
                <g id="Page-1" transform="translate(174.000000, 1060.000000)">
                    <mask id="mask-2" fill="white">
                        <use xlink:href="#path-1"></use>
                    </mask>
                    <g id="Clip-2"></g>
                    <path d="M10.9102,4.4004 C7.3202,4.4004 4.4002,7.3204 4.4002,10.9104 C4.4002,14.5004 7.3202,17.4204 10.9102,17.4204 C14.5002,17.4204 17.4202,14.5004 17.4202,10.9104 C17.4202,7.3204 14.5002,4.4004 10.9102,4.4004 M10.9102,21.8204 C4.8942,21.8204 0.0002,16.9264 0.0002,10.9104 C0.0002,4.8944 4.8942,0.0004 10.9102,0.0004 C16.9262,0.0004 21.8212,4.8944 21.8212,10.9104 C21.8212,16.9264 16.9262,21.8204 10.9102,21.8204" id="Fill-1" fill="#17E0AB" mask="url(#mask-2)"></path>
                </g>
                <g id="Page-1" transform="translate(196.000000, 0.000000)">
                    <mask id="mask-4" fill="white">
                        <use xlink:href="#path-3"></use>
                    </mask>
                    <g id="Clip-2"></g>
                    <path d="M6.94285455,2.80025455 C4.65830909,2.80025455 2.80012727,4.65843636 2.80012727,6.94298182 C2.80012727,9.22752727 4.65830909,11.0857091 6.94285455,11.0857091 C9.2274,11.0857091 11.0855818,9.22752727 11.0855818,6.94298182 C11.0855818,4.65843636 9.2274,2.80025455 6.94285455,2.80025455 M6.94285455,13.8857091 C3.11449091,13.8857091 0.000127272727,10.7713455 0.000127272727,6.94298182 C0.000127272727,3.11461818 3.11449091,0.000254545455 6.94285455,0.000254545455 C10.7712182,0.000254545455 13.8862182,3.11461818 13.8862182,6.94298182 C13.8862182,10.7713455 10.7712182,13.8857091 6.94285455,13.8857091" id="Fill-1" fill="#17E0AB" mask="url(#mask-4)"></path>
                </g>
                <g id="Page-1-Copy-6" transform="translate(14.000000, 88.000000)">
                    <mask id="mask-6" fill="white">
                        <use xlink:href="#path-5"></use>
                    </mask>
                    <g id="Clip-2"></g>
                    <path d="M16.0532182,7.12636364 L10.7268545,7.12636364 L10.7268545,1.8 C10.7268545,0.805909091 9.92012727,-3.55271368e-15 8.92685455,-3.55271368e-15 C7.93276364,-3.55271368e-15 7.12603636,0.805909091 7.12603636,1.8 L7.12603636,7.12636364 L1.80049091,7.12636364 C0.8064,7.12636364 -0.000327272727,7.93227273 -0.000327272727,8.92636364 C-0.000327272727,9.92045455 0.8064,10.7263636 1.80049091,10.7263636 L7.12603636,10.7263636 L7.12603636,16.0535455 C7.12603636,17.0468182 7.93276364,17.8535455 8.92685455,17.8535455 C9.92012727,17.8535455 10.7268545,17.0468182 10.7268545,16.0535455 L10.7268545,10.7263636 L16.0532182,10.7263636 C17.0473091,10.7263636 17.8532182,9.92045455 17.8532182,8.92636364 C17.8532182,7.93227273 17.0473091,7.12636364 16.0532182,7.12636364" id="Fill-1" fill="#17E0AB" mask="url(#mask-6)"></path>
                </g>
                <g id="Page-1-Copy-6" transform="translate(0.000000, 77.000000)">
                    <mask id="mask-8" fill="white">
                        <use xlink:href="#path-7"></use>
                    </mask>
                    <g id="Clip-2"></g>
                    <path d="M10.7021455,4.75090909 L7.15123636,4.75090909 L7.15123636,1.2 C7.15123636,0.537272727 6.61341818,-3.55271368e-15 5.95123636,-3.55271368e-15 C5.28850909,-3.55271368e-15 4.75069091,0.537272727 4.75069091,1.2 L4.75069091,4.75090909 L1.20032727,4.75090909 C0.5376,4.75090909 -0.000218181818,5.28818182 -0.000218181818,5.95090909 C-0.000218181818,6.61363636 0.5376,7.15090909 1.20032727,7.15090909 L4.75069091,7.15090909 L4.75069091,10.7023636 C4.75069091,11.3645455 5.28850909,11.9023636 5.95123636,11.9023636 C6.61341818,11.9023636 7.15123636,11.3645455 7.15123636,10.7023636 L7.15123636,7.15090909 L10.7021455,7.15090909 C11.3648727,7.15090909 11.9021455,6.61363636 11.9021455,5.95090909 C11.9021455,5.28818182 11.3648727,4.75090909 10.7021455,4.75090909" id="Fill-1" fill="#17E0AB" mask="url(#mask-8)"></path>
                </g>
            </g>
        </g>
    </g>
</svg>