<?xml version="1.0" encoding="UTF-8"?>
<svg width="32px" height="35px" viewBox="0 0 32 35" version="1.1" xmlns="http://www.w3.org/2000/svg" xmlns:xlink="http://www.w3.org/1999/xlink">
    <!-- Generator: Sketch 51 (57462) - http://www.bohemiancoding.com/sketch -->
    <title>Contact</title>
    <desc>Created with Sketch.</desc>
    <defs></defs>
    <g id="Page-1" stroke="none" stroke-width="1" fill="none" fill-rule="evenodd">
        <g id="résultat-de-recherche_design@2x" transform="translate(-1070.000000, -1262.000000)">
            <g id="Contact" transform="translate(1070.000000, 1262.000000)">
                <polygon id="Fill-1" fill="#17E0AB" points="19.06816 0.0205 19.06816 12.2255 19.06816 23.4690714 19.06816 34.8169286 31.8262044 34.8169286 31.8262044 14.6855 26.1366044 11.0690714 26.1366044 0.0205"></polygon>
                <path d="M5.69984,-7.14285714e-05 L5.69984,10.4756429 L0.000284444444,14.1427857 L0.0109511111,14.1499286 L0.0109511111,33.9599286 L30.9720178,33.9599286 L30.9720178,14.1427857 L30.9627733,14.1427857 L25.2831289,10.4842143 L25.2831289,-7.14285714e-05 L5.69984,-7.14285714e-05 Z M6.83690667,17.1835 L6.83690667,1.14207143 L24.1460622,1.14207143 L24.1460622,17.1756429 L18.6513067,20.7142143 L17.6457956,20.7142143 L17.6457956,21.3620714 L15.4911289,22.7499286 L14.10304,21.8570714 L16.1809067,21.8570714 L16.1809067,20.7142143 L12.3273956,20.7142143 L6.83690667,17.1835 Z M2.10944,14.1427857 L5.69984,11.8335 L5.69984,16.4520714 L2.10944,14.1427857 Z M25.2831289,11.8420714 L28.85504,14.1427857 L25.2831289,16.4427857 L25.2831289,11.8420714 Z M18.9855289,21.8570714 L19.0260622,21.8313571 L29.8349511,14.8692143 L29.8349511,32.8170714 L1.14801778,32.8170714 L1.14801778,14.8813571 L11.9569067,21.8342143 L11.9569067,21.8570714 L11.9938844,21.8570714 L15.49184,24.1070714 L18.9855289,21.8570714 Z" id="Fill-2" fill="#22232B"></path>
                <polygon id="Fill-3" fill="#22232B" points="11.2462222 6.14278571 13.3368889 6.14278571 13.3368889 4.99992857 11.2462222 4.99992857"></polygon>
                <polygon id="Fill-4" fill="#22232B" points="14.8017778 6.14278571 19.7368889 6.14278571 19.7368889 4.99992857 14.8017778 4.99992857"></polygon>
                <polygon id="Fill-5" fill="#22232B" points="11.2462222 9.28564286 19.7368889 9.28564286 19.7368889 8.14278571 11.2462222 8.14278571"></polygon>
                <polygon id="Fill-6" fill="#22232B" points="16.9351111 12.4285 19.7368889 12.4285 19.7368889 11.2856429 16.9351111 11.2856429"></polygon>
                <polygon id="Fill-7" fill="#22232B" points="11.2462222 12.4285 15.4702222 12.4285 15.4702222 11.2856429 11.2462222 11.2856429"></polygon>
                <polygon id="Fill-8" fill="#22232B" points="11.2462222 15.5706429 16.8924444 15.5706429 16.8924444 14.4277857 11.2462222 14.4277857"></polygon>
                <polygon id="Fill-9" fill="#22232B" points="18.3573333 15.5706429 19.7368889 15.5706429 19.7368889 14.4277857 18.3573333 14.4277857"></polygon>
                <polygon id="Fill-10" fill="#22232B" points="11.2462222 18.7142143 13.3368889 18.7142143 13.3368889 17.5713571 11.2462222 17.5713571"></polygon>
                <polygon id="Fill-11" fill="#22232B" points="14.0906667 18.7135 19.7368889 18.7135 19.7368889 17.5706429 14.0906667 17.5706429"></polygon>
            </g>
        </g>
    </g>
</svg>