<?xml version="1.0" encoding="UTF-8"?>
<svg width="34px" height="31px" viewBox="0 0 34 31" version="1.1" xmlns="http://www.w3.org/2000/svg" xmlns:xlink="http://www.w3.org/1999/xlink">
    <!-- Generator: Sketch 50.2 (55047) - http://www.bohemiancoding.com/sketch -->
    <title>icon-internships-xs-bg</title>
    <desc>Created with Sketch.</desc>
    <defs>
        <polygon id="path-1" points="0 -3.55271368e-15 13.8858364 -3.55271368e-15 13.8858364 13.8859636 0 13.8859636"></polygon>
        <polygon id="path-3" points="8.18181818e-05 0.000163636364 8.92677273 0.000163636364 8.92677273 8.92652727 8.18181818e-05 8.92652727"></polygon>
    </defs>
    <g id="Page-1" stroke="none" stroke-width="1" fill="none" fill-rule="evenodd">
        <g id="Homepage---PlusDePoint---responsive" transform="translate(-26.000000, -4282.000000)">
            <g id="icon-internships-xs-bg" transform="translate(26.000000, 4282.000000)">
                <g id="Page-1" transform="translate(20.000000, 17.000000)">
                    <mask id="mask-2" fill="white">
                        <use xlink:href="#path-1"></use>
                    </mask>
                    <g id="Clip-2"></g>
                    <path d="M12.4858364,5.54272727 L8.34310909,5.54272727 L8.34310909,1.4 C8.34310909,0.626818182 7.71565455,-3.55271368e-15 6.94310909,-3.55271368e-15 C6.16992727,-3.55271368e-15 5.54247273,0.626818182 5.54247273,1.4 L5.54247273,5.54272727 L1.40038182,5.54272727 C0.6272,5.54272727 -0.000254545455,6.16954545 -0.000254545455,6.94272727 C-0.000254545455,7.71590909 0.6272,8.34272727 1.40038182,8.34272727 L5.54247273,8.34272727 L5.54247273,12.4860909 C5.54247273,13.2586364 6.16992727,13.8860909 6.94310909,13.8860909 C7.71565455,13.8860909 8.34310909,13.2586364 8.34310909,12.4860909 L8.34310909,8.34272727 L12.4858364,8.34272727 C13.2590182,8.34272727 13.8858364,7.71590909 13.8858364,6.94272727 C13.8858364,6.16954545 13.2590182,5.54272727 12.4858364,5.54272727" id="Fill-1" fill="#6B6BED" mask="url(#mask-2)"></path>
                </g>
                <g id="Page-1">
                    <mask id="mask-4" fill="white">
                        <use xlink:href="#path-3"></use>
                    </mask>
                    <g id="Clip-2"></g>
                    <path d="M4.46326364,1.80016364 C2.99462727,1.80016364 1.80008182,2.99470909 1.80008182,4.46334545 C1.80008182,5.93198182 2.99462727,7.12652727 4.46326364,7.12652727 C5.9319,7.12652727 7.12644545,5.93198182 7.12644545,4.46334545 C7.12644545,2.99470909 5.9319,1.80016364 4.46326364,1.80016364 M4.46326364,8.92652727 C2.00217273,8.92652727 8.18181818e-05,6.92443636 8.18181818e-05,4.46334545 C8.18181818e-05,2.00225455 2.00217273,0.000163636364 4.46326364,0.000163636364 C6.92435455,0.000163636364 8.92685455,2.00225455 8.92685455,4.46334545 C8.92685455,6.92443636 6.92435455,8.92652727 4.46326364,8.92652727" id="Fill-1" fill="#17E0AB" mask="url(#mask-4)"></path>
                </g>
            </g>
        </g>
    </g>
</svg>