<?xml version="1.0" encoding="UTF-8"?>
<svg width="1346px" height="243px" viewBox="0 0 1346 243" version="1.1" xmlns="http://www.w3.org/2000/svg" xmlns:xlink="http://www.w3.org/1999/xlink">
    <!-- Generator: Sketch 50.2 (55047) - http://www.bohemiancoding.com/sketch -->
    <title>icon-service-bg</title>
    <desc>Created with Sketch.</desc>
    <defs>
        <polygon id="path-1" points="0.0002 0.0004 21.821 0.0004 21.821 21.8204 0.0002 21.8204"></polygon>
        <polygon id="path-3" points="0 -3.55271368e-15 21.8206 -3.55271368e-15 21.8206 21.8208 0 21.8208"></polygon>
    </defs>
    <g id="Page-1" stroke="none" stroke-width="1" fill="none" fill-rule="evenodd">
        <g id="Homepage---PlusDePoint@2x" transform="translate(-54.000000, -1013.000000)">
            <g id="icon-service-bg" transform="translate(54.000000, 1013.000000)">
                <g id="Page-1" transform="translate(1324.000000, 0.000000)">
                    <mask id="mask-2" fill="white">
                        <use xlink:href="#path-1"></use>
                    </mask>
                    <g id="Clip-2"></g>
                    <path d="M10.9102,4.4004 C7.3202,4.4004 4.4002,7.3204 4.4002,10.9104 C4.4002,14.5004 7.3202,17.4204 10.9102,17.4204 C14.5002,17.4204 17.4202,14.5004 17.4202,10.9104 C17.4202,7.3204 14.5002,4.4004 10.9102,4.4004 M10.9102,21.8204 C4.8942,21.8204 0.0002,16.9264 0.0002,10.9104 C0.0002,4.8944 4.8942,0.0004 10.9102,0.0004 C16.9262,0.0004 21.8212,4.8944 21.8212,10.9104 C21.8212,16.9264 16.9262,21.8204 10.9102,21.8204" id="Fill-1" fill="#17E0AB" mask="url(#mask-2)"></path>
                </g>
                <g id="Page-1" transform="translate(0.000000, 221.000000)">
                    <mask id="mask-4" fill="white">
                        <use xlink:href="#path-3"></use>
                    </mask>
                    <g id="Clip-2"></g>
                    <path d="M19.6206,8.71 L13.1106,8.71 L13.1106,2.2 C13.1106,0.985 12.1246,-3.55271368e-15 10.9106,-3.55271368e-15 C9.6956,-3.55271368e-15 8.7096,0.985 8.7096,2.2 L8.7096,8.71 L2.2006,8.71 C0.9856,8.71 -0.0004,9.695 -0.0004,10.91 C-0.0004,12.125 0.9856,13.11 2.2006,13.11 L8.7096,13.11 L8.7096,19.621 C8.7096,20.835 9.6956,21.821 10.9106,21.821 C12.1246,21.821 13.1106,20.835 13.1106,19.621 L13.1106,13.11 L19.6206,13.11 C20.8356,13.11 21.8206,12.125 21.8206,10.91 C21.8206,9.695 20.8356,8.71 19.6206,8.71" id="Fill-1" fill="#17E0AB" mask="url(#mask-4)"></path>
                </g>
            </g>
        </g>
    </g>
</svg>