<?xml version="1.0" encoding="UTF-8"?>
<svg width="168px" height="32px" viewBox="0 0 168 32" version="1.1" xmlns="http://www.w3.org/2000/svg" xmlns:xlink="http://www.w3.org/1999/xlink">
    <!-- Generator: Sketch 52.4 (67378) - http://www.bohemiancoding.com/sketch -->
    <title>sqdPage 1</title>
    <desc>Created with Sketch.</desc>
    <defs>
        <polygon id="path-1" points="0.000106382979 0.259733333 49.7570213 0.259733333 49.7570213 31.7332533 0.000106382979 31.7332533"></polygon>
        <polygon id="path-3" points="0.000106382979 0.259733333 49.7570213 0.259733333 49.7570213 31.7332533 0.000106382979 31.7332533"></polygon>
        <path d="M1.50053191,0.0888 C0.765957447,0.0888 0.170744681,0.685866667 0.170744681,1.4224 L0.170744681,26.3037333 C0.170744681,27.04 0.765957447,27.6370667 1.50053191,27.6370667 L44.5329787,27.6376 C45.2672872,27.6376 45.8630319,27.0405333 45.8630319,26.3042667 L45.8630319,1.4224 C45.8630319,0.685866667 45.2672872,0.0888 44.5329787,0.0888 L1.50053191,0.0888 Z" id="path-5"></path>
        <path d="M1.50053191,0.0888 C0.765957447,0.0888 0.170744681,0.685866667 0.170744681,1.4224 L0.170744681,26.3037333 C0.170744681,27.04 0.765957447,27.6370667 1.50053191,27.6370667 L44.5329787,27.6376 C45.2672872,27.6376 45.8630319,27.0405333 45.8630319,26.3042667 L45.8630319,1.4224 C45.8630319,0.685866667 45.2672872,0.0888 44.5329787,0.0888 L1.50053191,0.0888 Z" id="path-7"></path>
        <polygon id="path-9" points="0.000106382979 0.259733333 49.7570213 0.259733333 49.7570213 31.7332533 0.000106382979 31.7332533"></polygon>
    </defs>
    <g id="Page-1" stroke="none" stroke-width="1" fill="none" fill-rule="evenodd">
        <g id="résultat-de-recherche_design@2x" transform="translate(-1059.000000, -1126.000000)">
            <g id="Page-1" transform="translate(1059.000000, 1126.000000)">
                <g>
                    <g id="Group-3" transform="translate(0.000000, 0.006933)">
                        <mask id="mask-2" fill="white">
                            <use xlink:href="#path-1"></use>
                        </mask>
                        <g id="Clip-2"></g>
                        <path d="M46.1059574,0.825786667 C48.1009043,0.825786667 49.1171277,1.84472 49.1171277,3.84498667 L49.1171277,28.1481867 C49.1171277,30.16712 48.1009043,31.16712 46.1059574,31.16712 L3.65090426,31.16712 C2.69106383,31.16712 1.95728723,30.8841867 1.4112766,30.3180533 C0.846914894,29.7708533 0.564468085,29.0161867 0.564468085,28.1481867 L0.564468085,3.84498667 C0.564468085,1.84472 1.56207447,0.825786667 3.65090426,0.825786667 L46.1059574,0.825786667 Z M49.7570213,3.84498667 C49.7570213,1.44845333 48.515,0.259653333 46.1059574,0.259653333 L3.65090426,0.259653333 C2.44638298,0.259653333 1.56207447,0.580453333 0.97856383,1.24072 C0.320053191,1.90125333 0.000106382979,2.75032 0.000106382979,3.84498667 L0.000106382979,28.1481867 C0.000106382979,29.24232 0.320053191,30.07272 0.97856383,30.75192 C1.6562234,31.4121867 2.52191489,31.7332533 3.65090426,31.7332533 L46.1059574,31.7332533 C48.515,31.7332533 49.7570213,30.5257867 49.7570213,28.1481867 L49.7570213,3.84498667 Z" id="Fill-1" fill="#36363C" mask="url(#mask-2)"></path>
                    </g>
                    <path d="M3.98960106,2.22912 C3.18055851,2.22912 2.67231383,2.36112 2.39013298,2.64432 C2.14545213,2.96485333 2.03242021,3.49312 2.03242021,4.26698667 L2.03242021,9.53125333 L47.7247074,9.53125333 L47.7247074,4.26698667 C47.7247074,2.88938667 47.0470479,2.22912 45.6922606,2.22912 L3.98960106,2.22912 Z" id="Fill-4" fill="#133368"></path>
                    <path d="M2.0325,27.6644267 C2.0325,29.0606933 2.69101064,29.77776 3.98968085,29.77776 L45.6920745,29.77776 C47.0468617,29.77776 47.7245213,29.0606933 47.7245213,27.6644267 L47.7245213,22.40016 L2.0325,22.40016 L2.0325,27.6644267 Z" id="Fill-6" fill="#F79A10"></path>
                    <path d="M17.1628191,11.7768 C17.1628191,12.0221333 17.1253191,12.2106667 17.0311702,12.3429333 L13.7378191,18.0978667 L13.5309043,11.0786667 L8.26148936,11.0786667 L10.0306383,11.9277333 C10.538617,12.2485333 10.8021809,12.6634667 10.8021809,13.192 L11.2912766,20.6453333 L13.8694681,20.6453333 L20.0420745,11.0786667 L16.8806383,11.0786667 C17.0686702,11.2485333 17.1628191,11.5125333 17.1628191,11.7768" id="Fill-8" fill="#133368"></path>
                    <path d="M36.5085106,16.62608 L34.5515957,16.62608 L36.2260638,13.3994133 L36.5085106,16.62608 Z M38.4659574,11.3615467 L38.6726064,11.0786133 L35.4545213,11.0786133 C35.5675532,11.19168 35.6053191,11.24848 35.6053191,11.28608 C35.5675532,11.4370133 35.4922872,11.5314133 35.4545213,11.6447467 L30.768883,20.2111467 C30.656117,20.36208 30.5428191,20.49408 30.4114362,20.64528 L33.0646277,20.64528 L32.9329787,20.36208 C32.9329787,20.1167467 33.0646277,19.6639467 33.3468085,19.0226133 L33.9114362,17.9658133 L36.6401596,17.9658133 C36.7531915,18.8527467 36.8284574,19.58848 36.8659574,20.13568 L36.6401596,20.64528 L39.9335106,20.64528 L39.4444149,19.9282133 L38.4659574,11.3615467 Z" id="Fill-10" fill="#133368"></path>
                    <path d="M28.3786436,10.5879733 C27.3626862,10.5879733 26.4967287,10.8709067 25.7251862,11.43704 C24.8786436,11.9277067 24.4645479,12.5503733 24.4645479,13.3239733 C24.4645479,14.2109067 24.7656117,14.9845067 25.3677394,15.5693067 L27.1932713,16.8335733 C27.8517819,17.3053067 28.1717287,17.7205067 28.1717287,18.09784 C28.1717287,18.4565067 28.0023138,18.77704 27.682633,19.02264 C27.3626862,19.2677067 27.0049734,19.38104 26.5536436,19.38104 C25.8946011,19.38104 24.7656117,18.9093067 23.2036436,18.0413067 L23.2036436,19.79624 C24.4267819,20.5319733 25.6124202,20.9093067 26.7602926,20.9093067 C27.8517819,20.9093067 28.7738564,20.60744 29.5645479,19.92824 C30.4113564,19.3055733 30.8251862,18.5695733 30.8251862,17.7583733 C30.8251862,17.0789067 30.5241223,16.45624 29.8467287,15.7959733 L28.0964628,14.5317067 C27.5132181,14.0599733 27.1932713,13.6447733 27.1932713,13.3239733 C27.1932713,12.58824 27.62625,12.21064 28.5105585,12.21064 C29.1126862,12.21064 29.9972606,12.5503733 31.1828989,13.26744 L31.5403457,11.43704 C30.5427394,10.8709067 29.5078989,10.5879733 28.3786436,10.5879733" id="Fill-12" fill="#133368"></path>
                    <path d="M21.3782713,20.6452267 C21.3405053,20.24896 21.2652394,19.89056 21.2274734,19.5132267 L23.617633,11.7766933 L24.1822606,11.07856 L20.7383777,11.07856 C20.7761436,11.2484267 20.8136436,11.4748267 20.8514096,11.6446933 C20.8514096,11.81456 20.8514096,12.0220267 20.8136436,12.21056 L18.42375,19.8716267 L17.9343883,20.6452267 L21.3782713,20.6452267 Z" id="Fill-14" fill="#133368"></path>
                </g>
                <g transform="translate(60.000000, 0.000000)">
                    <g id="Group-3" transform="translate(0.000000, 0.006933)">
                        <mask id="mask-4" fill="white">
                            <use xlink:href="#path-3"></use>
                        </mask>
                        <g id="Clip-2"></g>
                        <path d="M46.1059574,0.825786667 C48.1009043,0.825786667 49.1171277,1.84472 49.1171277,3.84498667 L49.1171277,28.1481867 C49.1171277,30.16712 48.1009043,31.16712 46.1059574,31.16712 L3.65090426,31.16712 C2.69106383,31.16712 1.95728723,30.8841867 1.4112766,30.3180533 C0.846914894,29.7708533 0.564468085,29.0161867 0.564468085,28.1481867 L0.564468085,3.84498667 C0.564468085,1.84472 1.56207447,0.825786667 3.65090426,0.825786667 L46.1059574,0.825786667 Z M49.7570213,3.84498667 C49.7570213,1.44845333 48.515,0.259653333 46.1059574,0.259653333 L3.65090426,0.259653333 C2.44638298,0.259653333 1.56207447,0.580453333 0.97856383,1.24072 C0.320053191,1.90125333 0.000106382979,2.75032 0.000106382979,3.84498667 L0.000106382979,28.1481867 C0.000106382979,29.24232 0.320053191,30.07272 0.97856383,30.75192 C1.6562234,31.4121867 2.52191489,31.7332533 3.65090426,31.7332533 L46.1059574,31.7332533 C48.515,31.7332533 49.7570213,30.5257867 49.7570213,28.1481867 L49.7570213,3.84498667 Z" id="Fill-1" fill="#36363C" mask="url(#mask-4)"></path>
                    </g>
                    <g id="Group-251" transform="translate(1.861702, 2.140267)">
                        <g id="Group-6">
                            <mask id="mask-6" fill="white">
                                <use xlink:href="#path-5"></use>
                            </mask>
                            <g id="Clip-5"></g>
                            <path d="M45.8628723,0.08888 L0.170851064,0.08888 L45.8628723,0.08888 Z" id="Fill-4" fill="#0C022F" mask="url(#mask-6)"></path>
                        </g>
                        <mask id="mask-8" fill="white">
                            <use xlink:href="#path-7"></use>
                        </mask>
                        <g id="Clip-8"></g>
                        <polygon id="Fill-7" fill="#0C022F" mask="url(#mask-8)" points="0.170744681 9.77253333 45.862766 9.77253333 45.862766 0.0888 0.170744681 0.0888"></polygon>
                        <polygon id="Fill-9" fill="#0C022F" mask="url(#mask-8)" points="0.170744681 9.8658 45.862766 9.8658 45.862766 9.7728 0.170744681 9.7728"></polygon>
                        <polygon id="Fill-10" fill="#0C0330" mask="url(#mask-8)" points="0.170744681 9.9154 45.862766 9.9154 45.862766 9.8224 0.170744681 9.8224"></polygon>
                        <polygon id="Fill-11" fill="#0D0331" mask="url(#mask-8)" points="0.170744681 9.965 45.862766 9.965 45.862766 9.872 0.170744681 9.872"></polygon>
                        <polygon id="Fill-12" fill="#0D0432" mask="url(#mask-8)" points="0.170744681 10.0146 45.862766 10.0146 45.862766 9.9216 0.170744681 9.9216"></polygon>
                        <polygon id="Fill-13" fill="#0E0533" mask="url(#mask-8)" points="0.170744681 10.0642 45.862766 10.0642 45.862766 9.9712 0.170744681 9.9712"></polygon>
                        <polygon id="Fill-14" fill="#0E0534" mask="url(#mask-8)" points="0.170744681 10.1138 45.862766 10.1138 45.862766 10.0208 0.170744681 10.0208"></polygon>
                        <polygon id="Fill-15" fill="#0E0636" mask="url(#mask-8)" points="0.170744681 10.1634 45.862766 10.1634 45.862766 10.0704 0.170744681 10.0704"></polygon>
                        <polygon id="Fill-16" fill="#0F0737" mask="url(#mask-8)" points="0.170744681 10.2132667 45.862766 10.2132667 45.862766 10.1202667 0.170744681 10.1202667"></polygon>
                        <polygon id="Fill-17" fill="#0F0738" mask="url(#mask-8)" points="0.170744681 10.2628667 45.862766 10.2628667 45.862766 10.1698667 0.170744681 10.1698667"></polygon>
                        <polygon id="Fill-18" fill="#100839" mask="url(#mask-8)" points="0.170744681 10.3124667 45.862766 10.3124667 45.862766 10.2194667 0.170744681 10.2194667"></polygon>
                        <polygon id="Fill-19" fill="#10093A" mask="url(#mask-8)" points="0.170744681 10.3620667 45.862766 10.3620667 45.862766 10.2690667 0.170744681 10.2690667"></polygon>
                        <polygon id="Fill-20" fill="#11093B" mask="url(#mask-8)" points="0.170744681 10.4116667 45.862766 10.4116667 45.862766 10.3186667 0.170744681 10.3186667"></polygon>
                        <polygon id="Fill-21" fill="#110A3C" mask="url(#mask-8)" points="0.170744681 10.4612667 45.862766 10.4612667 45.862766 10.3682667 0.170744681 10.3682667"></polygon>
                        <polygon id="Fill-22" fill="#110B3D" mask="url(#mask-8)" points="0.170744681 10.5108667 45.862766 10.5108667 45.862766 10.4178667 0.170744681 10.4178667"></polygon>
                        <polygon id="Fill-23" fill="#120B3E" mask="url(#mask-8)" points="0.170744681 10.5607333 45.862766 10.5607333 45.862766 10.4677333 0.170744681 10.4677333"></polygon>
                        <polygon id="Fill-24" fill="#120C3F" mask="url(#mask-8)" points="0.170744681 10.6103333 45.862766 10.6103333 45.862766 10.5173333 0.170744681 10.5173333"></polygon>
                        <polygon id="Fill-25" fill="#130D40" mask="url(#mask-8)" points="0.170744681 10.6599333 45.862766 10.6599333 45.862766 10.5669333 0.170744681 10.5669333"></polygon>
                        <polygon id="Fill-26" fill="#130D41" mask="url(#mask-8)" points="0.170744681 10.7095333 45.862766 10.7095333 45.862766 10.6165333 0.170744681 10.6165333"></polygon>
                        <polygon id="Fill-27" fill="#130E42" mask="url(#mask-8)" points="0.170744681 10.7591333 45.862766 10.7591333 45.862766 10.6661333 0.170744681 10.6661333"></polygon>
                        <polygon id="Fill-28" fill="#140F44" mask="url(#mask-8)" points="0.170744681 10.8087333 45.862766 10.8087333 45.862766 10.7157333 0.170744681 10.7157333"></polygon>
                        <polygon id="Fill-29" fill="#140F45" mask="url(#mask-8)" points="0.170744681 10.8583333 45.862766 10.8583333 45.862766 10.7653333 0.170744681 10.7653333"></polygon>
                        <polygon id="Fill-30" fill="#151046" mask="url(#mask-8)" points="0.170744681 10.9082 45.862766 10.9082 45.862766 10.8152 0.170744681 10.8152"></polygon>
                        <polygon id="Fill-31" fill="#151147" mask="url(#mask-8)" points="0.170744681 10.9578 45.862766 10.9578 45.862766 10.8648 0.170744681 10.8648"></polygon>
                        <polygon id="Fill-32" fill="#151148" mask="url(#mask-8)" points="0.170744681 11.0074 45.862766 11.0074 45.862766 10.9144 0.170744681 10.9144"></polygon>
                        <polygon id="Fill-33" fill="#161249" mask="url(#mask-8)" points="0.170744681 11.057 45.862766 11.057 45.862766 10.964 0.170744681 10.964"></polygon>
                        <polygon id="Fill-34" fill="#16134A" mask="url(#mask-8)" points="0.170744681 11.1066 45.862766 11.1066 45.862766 11.0136 0.170744681 11.0136"></polygon>
                        <polygon id="Fill-35" fill="#17134B" mask="url(#mask-8)" points="0.170744681 11.1562 45.862766 11.1562 45.862766 11.0632 0.170744681 11.0632"></polygon>
                        <polygon id="Fill-36" fill="#17144C" mask="url(#mask-8)" points="0.170744681 11.2058 45.862766 11.2058 45.862766 11.1128 0.170744681 11.1128"></polygon>
                        <polygon id="Fill-37" fill="#17154D" mask="url(#mask-8)" points="0.170744681 11.2556667 45.862766 11.2556667 45.862766 11.1626667 0.170744681 11.1626667"></polygon>
                        <polygon id="Fill-38" fill="#18154E" mask="url(#mask-8)" points="0.170744681 11.3052667 45.862766 11.3052667 45.862766 11.2122667 0.170744681 11.2122667"></polygon>
                        <polygon id="Fill-39" fill="#18164F" mask="url(#mask-8)" points="0.170744681 11.3548667 45.862766 11.3548667 45.862766 11.2618667 0.170744681 11.2618667"></polygon>
                        <polygon id="Fill-40" fill="#191750" mask="url(#mask-8)" points="0.170744681 11.4044667 45.862766 11.4044667 45.862766 11.3114667 0.170744681 11.3114667"></polygon>
                        <polygon id="Fill-41" fill="#191751" mask="url(#mask-8)" points="0.170744681 11.4540667 45.862766 11.4540667 45.862766 11.3610667 0.170744681 11.3610667"></polygon>
                        <polygon id="Fill-42" fill="#191852" mask="url(#mask-8)" points="0.170744681 11.5036667 45.862766 11.5036667 45.862766 11.4106667 0.170744681 11.4106667"></polygon>
                        <polygon id="Fill-43" fill="#1A1953" mask="url(#mask-8)" points="0.170744681 11.5532667 45.862766 11.5532667 45.862766 11.4602667 0.170744681 11.4602667"></polygon>
                        <polygon id="Fill-44" fill="#1A1955" mask="url(#mask-8)" points="0.170744681 11.6031333 45.862766 11.6031333 45.862766 11.5101333 0.170744681 11.5101333"></polygon>
                        <polygon id="Fill-45" fill="#1B1A56" mask="url(#mask-8)" points="0.170744681 11.6527333 45.862766 11.6527333 45.862766 11.5597333 0.170744681 11.5597333"></polygon>
                        <polygon id="Fill-46" fill="#1B1B57" mask="url(#mask-8)" points="0.170744681 11.7023333 45.862766 11.7023333 45.862766 11.6093333 0.170744681 11.6093333"></polygon>
                        <polygon id="Fill-47" fill="#1B1B58" mask="url(#mask-8)" points="0.170744681 11.7519333 45.862766 11.7519333 45.862766 11.6589333 0.170744681 11.6589333"></polygon>
                        <polygon id="Fill-48" fill="#1C1C59" mask="url(#mask-8)" points="0.170744681 11.8015333 45.862766 11.8015333 45.862766 11.7085333 0.170744681 11.7085333"></polygon>
                        <polygon id="Fill-49" fill="#1C1D5A" mask="url(#mask-8)" points="0.170744681 11.8511333 45.862766 11.8511333 45.862766 11.7581333 0.170744681 11.7581333"></polygon>
                        <polygon id="Fill-50" fill="#1D1D5B" mask="url(#mask-8)" points="0.170744681 11.9007333 45.862766 11.9007333 45.862766 11.8077333 0.170744681 11.8077333"></polygon>
                        <polygon id="Fill-51" fill="#1D1E5C" mask="url(#mask-8)" points="0.170744681 11.9506 45.862766 11.9506 45.862766 11.8576 0.170744681 11.8576"></polygon>
                        <polygon id="Fill-52" fill="#1D1F5D" mask="url(#mask-8)" points="0.170744681 12.0002 45.862766 12.0002 45.862766 11.9072 0.170744681 11.9072"></polygon>
                        <polygon id="Fill-53" fill="#1E1F5E" mask="url(#mask-8)" points="0.170744681 12.0498 45.862766 12.0498 45.862766 11.9568 0.170744681 11.9568"></polygon>
                        <polygon id="Fill-54" fill="#1E205F" mask="url(#mask-8)" points="0.170744681 12.0994 45.862766 12.0994 45.862766 12.0064 0.170744681 12.0064"></polygon>
                        <polygon id="Fill-55" fill="#1F2060" mask="url(#mask-8)" points="0.170744681 12.149 45.862766 12.149 45.862766 12.056 0.170744681 12.056"></polygon>
                        <polygon id="Fill-56" fill="#1F2161" mask="url(#mask-8)" points="0.170744681 12.1986 45.862766 12.1986 45.862766 12.1056 0.170744681 12.1056"></polygon>
                        <polygon id="Fill-57" fill="#1F2262" mask="url(#mask-8)" points="0.170744681 12.2482 45.862766 12.2482 45.862766 12.1552 0.170744681 12.1552"></polygon>
                        <polygon id="Fill-58" fill="#202263" mask="url(#mask-8)" points="0.170744681 12.2978 45.862766 12.2978 45.862766 12.2048 0.170744681 12.2048"></polygon>
                        <polygon id="Fill-59" fill="#202364" mask="url(#mask-8)" points="0.170744681 12.3476667 45.862766 12.3476667 45.862766 12.2546667 0.170744681 12.2546667"></polygon>
                        <polygon id="Fill-60" fill="#212465" mask="url(#mask-8)" points="0.170744681 12.3972667 45.862766 12.3972667 45.862766 12.3042667 0.170744681 12.3042667"></polygon>
                        <polygon id="Fill-61" fill="#212466" mask="url(#mask-8)" points="0.170744681 12.4468667 45.862766 12.4468667 45.862766 12.3538667 0.170744681 12.3538667"></polygon>
                        <polygon id="Fill-62" fill="#212567" mask="url(#mask-8)" points="0.170744681 12.4964667 45.862766 12.4964667 45.862766 12.4034667 0.170744681 12.4034667"></polygon>
                        <polygon id="Fill-63" fill="#222668" mask="url(#mask-8)" points="0.170744681 12.5460667 45.862766 12.5460667 45.862766 12.4530667 0.170744681 12.4530667"></polygon>
                        <polygon id="Fill-64" fill="#222669" mask="url(#mask-8)" points="0.170744681 12.5956667 45.862766 12.5956667 45.862766 12.5026667 0.170744681 12.5026667"></polygon>
                        <polygon id="Fill-65" fill="#22276A" mask="url(#mask-8)" points="0.170744681 12.6452667 45.862766 12.6452667 45.862766 12.5522667 0.170744681 12.5522667"></polygon>
                        <polygon id="Fill-66" fill="#23286B" mask="url(#mask-8)" points="0.170744681 12.6951333 45.862766 12.6951333 45.862766 12.6021333 0.170744681 12.6021333"></polygon>
                        <polygon id="Fill-67" fill="#23286C" mask="url(#mask-8)" points="0.170744681 12.7447333 45.862766 12.7447333 45.862766 12.6517333 0.170744681 12.6517333"></polygon>
                        <polygon id="Fill-68" fill="#24296D" mask="url(#mask-8)" points="0.170744681 12.7943333 45.862766 12.7943333 45.862766 12.7013333 0.170744681 12.7013333"></polygon>
                        <polygon id="Fill-69" fill="#24296F" mask="url(#mask-8)" points="0.170744681 12.8439333 45.862766 12.8439333 45.862766 12.7509333 0.170744681 12.7509333"></polygon>
                        <polygon id="Fill-70" fill="#242A70" mask="url(#mask-8)" points="0.170744681 12.8935333 45.862766 12.8935333 45.862766 12.8005333 0.170744681 12.8005333"></polygon>
                        <polygon id="Fill-71" fill="#252B71" mask="url(#mask-8)" points="0.170744681 12.9431333 45.862766 12.9431333 45.862766 12.8501333 0.170744681 12.8501333"></polygon>
                        <polygon id="Fill-72" fill="#252B72" mask="url(#mask-8)" points="0.170744681 12.9927333 45.862766 12.9927333 45.862766 12.8997333 0.170744681 12.8997333"></polygon>
                        <polygon id="Fill-73" fill="#262C73" mask="url(#mask-8)" points="0.170744681 13.0426 45.862766 13.0426 45.862766 12.9496 0.170744681 12.9496"></polygon>
                        <polygon id="Fill-74" fill="#262D74" mask="url(#mask-8)" points="0.170744681 13.0922 45.862766 13.0922 45.862766 12.9992 0.170744681 12.9992"></polygon>
                        <polygon id="Fill-75" fill="#262D75" mask="url(#mask-8)" points="0.170744681 13.1418 45.862766 13.1418 45.862766 13.0488 0.170744681 13.0488"></polygon>
                        <polygon id="Fill-76" fill="#272E76" mask="url(#mask-8)" points="0.170744681 13.1914 45.862766 13.1914 45.862766 13.0984 0.170744681 13.0984"></polygon>
                        <polygon id="Fill-77" fill="#272F77" mask="url(#mask-8)" points="0.170744681 13.241 45.862766 13.241 45.862766 13.148 0.170744681 13.148"></polygon>
                        <polygon id="Fill-78" fill="#272F78" mask="url(#mask-8)" points="0.170744681 13.2906 45.862766 13.2906 45.862766 13.1976 0.170744681 13.1976"></polygon>
                        <polygon id="Fill-79" fill="#283079" mask="url(#mask-8)" points="0.170744681 13.3402 45.862766 13.3402 45.862766 13.2472 0.170744681 13.2472"></polygon>
                        <polygon id="Fill-80" fill="#28307A" mask="url(#mask-8)" points="0.170744681 13.3900667 45.862766 13.3900667 45.862766 13.2970667 0.170744681 13.2970667"></polygon>
                        <polygon id="Fill-81" fill="#29317B" mask="url(#mask-8)" points="0.170744681 13.4396667 45.862766 13.4396667 45.862766 13.3466667 0.170744681 13.3466667"></polygon>
                        <polygon id="Fill-82" fill="#29327C" mask="url(#mask-8)" points="0.170744681 13.4892667 45.862766 13.4892667 45.862766 13.3962667 0.170744681 13.3962667"></polygon>
                        <polygon id="Fill-83" fill="#29327D" mask="url(#mask-8)" points="0.170744681 13.5388667 45.862766 13.5388667 45.862766 13.4458667 0.170744681 13.4458667"></polygon>
                        <polygon id="Fill-84" fill="#2A337E" mask="url(#mask-8)" points="0.170744681 13.5884667 45.862766 13.5884667 45.862766 13.4954667 0.170744681 13.4954667"></polygon>
                        <polygon id="Fill-85" fill="#2A347F" mask="url(#mask-8)" points="0.170744681 13.6380667 45.862766 13.6380667 45.862766 13.5450667 0.170744681 13.5450667"></polygon>
                        <polygon id="Fill-86" fill="#2B3480" mask="url(#mask-8)" points="0.170744681 13.6876667 45.862766 13.6876667 45.862766 13.5946667 0.170744681 13.5946667"></polygon>
                        <polygon id="Fill-87" fill="#2B3581" mask="url(#mask-8)" points="0.170744681 13.7375333 45.862766 13.7375333 45.862766 13.6445333 0.170744681 13.6445333"></polygon>
                        <polygon id="Fill-88" fill="#2B3582" mask="url(#mask-8)" points="0.170744681 13.7871333 45.862766 13.7871333 45.862766 13.6941333 0.170744681 13.6941333"></polygon>
                        <polygon id="Fill-89" fill="#2C3683" mask="url(#mask-8)" points="0.170744681 13.8367333 45.862766 13.8367333 45.862766 13.7437333 0.170744681 13.7437333"></polygon>
                        <polygon id="Fill-90" fill="#2C3784" mask="url(#mask-8)" points="0.170744681 13.8863333 45.862766 13.8863333 45.862766 13.7933333 0.170744681 13.7933333"></polygon>
                        <polygon id="Fill-91" fill="#2C3785" mask="url(#mask-8)" points="0.170744681 13.9359333 45.862766 13.9359333 45.862766 13.8429333 0.170744681 13.8429333"></polygon>
                        <polygon id="Fill-92" fill="#2D3886" mask="url(#mask-8)" points="0.170744681 13.9855333 45.862766 13.9855333 45.862766 13.8925333 0.170744681 13.8925333"></polygon>
                        <polygon id="Fill-93" fill="#2D3887" mask="url(#mask-8)" points="0.170744681 14.0351333 45.862766 14.0351333 45.862766 13.9421333 0.170744681 13.9421333"></polygon>
                        <polygon id="Fill-94" fill="#2D3987" mask="url(#mask-8)" points="0.170744681 14.085 45.862766 14.085 45.862766 13.992 0.170744681 13.992"></polygon>
                        <polygon id="Fill-95" fill="#2E3A88" mask="url(#mask-8)" points="0.170744681 14.1346 45.862766 14.1346 45.862766 14.0416 0.170744681 14.0416"></polygon>
                        <polygon id="Fill-96" fill="#2E3A89" mask="url(#mask-8)" points="0.170744681 14.1842 45.862766 14.1842 45.862766 14.0912 0.170744681 14.0912"></polygon>
                        <polygon id="Fill-97" fill="#2F3B8A" mask="url(#mask-8)" points="0.170744681 14.2338 45.862766 14.2338 45.862766 14.1408 0.170744681 14.1408"></polygon>
                        <polygon id="Fill-98" fill="#2F3B8B" mask="url(#mask-8)" points="0.170744681 14.2834 45.862766 14.2834 45.862766 14.1904 0.170744681 14.1904"></polygon>
                        <polygon id="Fill-99" fill="#2F3C8C" mask="url(#mask-8)" points="0.170744681 14.333 45.862766 14.333 45.862766 14.24 0.170744681 14.24"></polygon>
                        <polygon id="Fill-100" fill="#303D8D" mask="url(#mask-8)" points="0.170744681 14.3826 45.862766 14.3826 45.862766 14.2896 0.170744681 14.2896"></polygon>
                        <polygon id="Fill-101" fill="#303D8E" mask="url(#mask-8)" points="0.170744681 14.4324667 45.862766 14.4324667 45.862766 14.3394667 0.170744681 14.3394667"></polygon>
                        <polygon id="Fill-102" fill="#303E8F" mask="url(#mask-8)" points="0.170744681 14.4820667 45.862766 14.4820667 45.862766 14.3890667 0.170744681 14.3890667"></polygon>
                        <polygon id="Fill-103" fill="#313E90" mask="url(#mask-8)" points="0.170744681 14.5316667 45.862766 14.5316667 45.862766 14.4386667 0.170744681 14.4386667"></polygon>
                        <polygon id="Fill-104" fill="#313F91" mask="url(#mask-8)" points="0.170744681 14.5812667 45.862766 14.5812667 45.862766 14.4882667 0.170744681 14.4882667"></polygon>
                        <polygon id="Fill-105" fill="#314092" mask="url(#mask-8)" points="0.170744681 14.6308667 45.862766 14.6308667 45.862766 14.5378667 0.170744681 14.5378667"></polygon>
                        <polygon id="Fill-106" fill="#324093" mask="url(#mask-8)" points="0.170744681 14.6804667 45.862766 14.6804667 45.862766 14.5874667 0.170744681 14.5874667"></polygon>
                        <polygon id="Fill-107" fill="#324194" mask="url(#mask-8)" points="0.170744681 14.7300667 45.862766 14.7300667 45.862766 14.6370667 0.170744681 14.6370667"></polygon>
                        <polygon id="Fill-108" fill="#324195" mask="url(#mask-8)" points="0.170744681 14.7796667 45.862766 14.7796667 45.862766 14.6866667 0.170744681 14.6866667"></polygon>
                        <polygon id="Fill-109" fill="#334296" mask="url(#mask-8)" points="0.170744681 14.8295333 45.862766 14.8295333 45.862766 14.7365333 0.170744681 14.7365333"></polygon>
                        <polygon id="Fill-110" fill="#334297" mask="url(#mask-8)" points="0.170744681 14.8791333 45.862766 14.8791333 45.862766 14.7861333 0.170744681 14.7861333"></polygon>
                        <polygon id="Fill-111" fill="#344397" mask="url(#mask-8)" points="0.170744681 14.9287333 45.862766 14.9287333 45.862766 14.8357333 0.170744681 14.8357333"></polygon>
                        <polygon id="Fill-112" fill="#344398" mask="url(#mask-8)" points="0.170744681 14.9783333 45.862766 14.9783333 45.862766 14.8853333 0.170744681 14.8853333"></polygon>
                        <polygon id="Fill-113" fill="#344499" mask="url(#mask-8)" points="0.170744681 15.0279333 45.862766 15.0279333 45.862766 14.9349333 0.170744681 14.9349333"></polygon>
                        <polygon id="Fill-114" fill="#34459A" mask="url(#mask-8)" points="0.170744681 15.0775333 45.862766 15.0775333 45.862766 14.9845333 0.170744681 14.9845333"></polygon>
                        <polygon id="Fill-115" fill="#35459B" mask="url(#mask-8)" points="0.170744681 15.1271333 45.862766 15.1271333 45.862766 15.0341333 0.170744681 15.0341333"></polygon>
                        <polygon id="Fill-116" fill="#35469C" mask="url(#mask-8)" points="0.170744681 15.177 45.862766 15.177 45.862766 15.084 0.170744681 15.084"></polygon>
                        <polygon id="Fill-117" fill="#35469D" mask="url(#mask-8)" points="0.170744681 15.2266 45.862766 15.2266 45.862766 15.1336 0.170744681 15.1336"></polygon>
                        <polygon id="Fill-118" fill="#36479D" mask="url(#mask-8)" points="0.170744681 15.2762 45.862766 15.2762 45.862766 15.1832 0.170744681 15.1832"></polygon>
                        <polygon id="Fill-119" fill="#36479E" mask="url(#mask-8)" points="0.170744681 15.3258 45.862766 15.3258 45.862766 15.2328 0.170744681 15.2328"></polygon>
                        <polygon id="Fill-120" fill="#36479E" mask="url(#mask-8)" points="0.170744681 15.4014 45.862766 15.4014 45.862766 15.2824 0.170744681 15.2824"></polygon>
                        <polygon id="Fill-121" fill="#36479E" mask="url(#mask-8)" points="0.170744681 15.4648667 45.862766 15.4648667 45.862766 15.3458667 0.170744681 15.3458667"></polygon>
                        <polygon id="Fill-122" fill="#36479E" mask="url(#mask-8)" points="0.170744681 15.5283333 45.862766 15.5283333 45.862766 15.4093333 0.170744681 15.4093333"></polygon>
                        <polygon id="Fill-123" fill="#36479E" mask="url(#mask-8)" points="0.170744681 15.5915333 45.862766 15.5915333 45.862766 15.4725333 0.170744681 15.4725333"></polygon>
                        <polygon id="Fill-124" fill="#36479E" mask="url(#mask-8)" points="0.170744681 15.655 45.862766 15.655 45.862766 15.536 0.170744681 15.536"></polygon>
                        <polygon id="Fill-125" fill="#36479E" mask="url(#mask-8)" points="0.170744681 15.7184667 45.862766 15.7184667 45.862766 15.5994667 0.170744681 15.5994667"></polygon>
                        <polygon id="Fill-126" fill="#36479E" mask="url(#mask-8)" points="0.170744681 15.7819333 45.862766 15.7819333 45.862766 15.6629333 0.170744681 15.6629333"></polygon>
                        <polygon id="Fill-127" fill="#36479E" mask="url(#mask-8)" points="0.170744681 15.8454 45.862766 15.8454 45.862766 15.7264 0.170744681 15.7264"></polygon>
                        <polygon id="Fill-128" fill="#36479E" mask="url(#mask-8)" points="0.170744681 15.9086 45.862766 15.9086 45.862766 15.7896 0.170744681 15.7896"></polygon>
                        <polygon id="Fill-129" fill="#36479D" mask="url(#mask-8)" points="0.170744681 15.9720667 45.862766 15.9720667 45.862766 15.8530667 0.170744681 15.8530667"></polygon>
                        <polygon id="Fill-130" fill="#36479D" mask="url(#mask-8)" points="0.170744681 16.0355333 45.862766 16.0355333 45.862766 15.9165333 0.170744681 15.9165333"></polygon>
                        <polygon id="Fill-131" fill="#36479D" mask="url(#mask-8)" points="0.170744681 16.099 45.862766 16.099 45.862766 15.98 0.170744681 15.98"></polygon>
                        <polygon id="Fill-132" fill="#36479D" mask="url(#mask-8)" points="0.170744681 16.1624667 45.862766 16.1624667 45.862766 16.0434667 0.170744681 16.0434667"></polygon>
                        <polygon id="Fill-133" fill="#36479D" mask="url(#mask-8)" points="0.170744681 16.2259333 45.862766 16.2259333 45.862766 16.1069333 0.170744681 16.1069333"></polygon>
                        <polygon id="Fill-134" fill="#36479D" mask="url(#mask-8)" points="0.170744681 16.2891333 45.862766 16.2891333 45.862766 16.1701333 0.170744681 16.1701333"></polygon>
                        <polygon id="Fill-135" fill="#36479D" mask="url(#mask-8)" points="0.170744681 16.3526 45.862766 16.3526 45.862766 16.2336 0.170744681 16.2336"></polygon>
                        <polygon id="Fill-136" fill="#36479C" mask="url(#mask-8)" points="0.170744681 16.4160667 45.862766 16.4160667 45.862766 16.2970667 0.170744681 16.2970667"></polygon>
                        <polygon id="Fill-137" fill="#36479C" mask="url(#mask-8)" points="0.170744681 16.4795333 45.862766 16.4795333 45.862766 16.3605333 0.170744681 16.3605333"></polygon>
                        <polygon id="Fill-138" fill="#36479C" mask="url(#mask-8)" points="0.170744681 16.543 45.862766 16.543 45.862766 16.424 0.170744681 16.424"></polygon>
                        <polygon id="Fill-139" fill="#36479C" mask="url(#mask-8)" points="0.170744681 16.6064667 45.862766 16.6064667 45.862766 16.4874667 0.170744681 16.4874667"></polygon>
                        <polygon id="Fill-140" fill="#36479B" mask="url(#mask-8)" points="0.170744681 16.6696667 45.862766 16.6696667 45.862766 16.5506667 0.170744681 16.5506667"></polygon>
                        <polygon id="Fill-141" fill="#35479B" mask="url(#mask-8)" points="0.170744681 16.7331333 45.862766 16.7331333 45.862766 16.6141333 0.170744681 16.6141333"></polygon>
                        <polygon id="Fill-142" fill="#35479B" mask="url(#mask-8)" points="0.170744681 16.7966 45.862766 16.7966 45.862766 16.6776 0.170744681 16.6776"></polygon>
                        <polygon id="Fill-143" fill="#35479A" mask="url(#mask-8)" points="0.170744681 16.8600667 45.862766 16.8600667 45.862766 16.7410667 0.170744681 16.7410667"></polygon>
                        <polygon id="Fill-144" fill="#35479A" mask="url(#mask-8)" points="0.170744681 16.9235333 45.862766 16.9235333 45.862766 16.8045333 0.170744681 16.8045333"></polygon>
                        <polygon id="Fill-145" fill="#35479A" mask="url(#mask-8)" points="0.170744681 16.9867333 45.862766 16.9867333 45.862766 16.8677333 0.170744681 16.8677333"></polygon>
                        <polygon id="Fill-146" fill="#354799" mask="url(#mask-8)" points="0.170744681 17.0502 45.862766 17.0502 45.862766 16.9312 0.170744681 16.9312"></polygon>
                        <polygon id="Fill-147" fill="#354799" mask="url(#mask-8)" points="0.170744681 17.1136667 45.862766 17.1136667 45.862766 16.9946667 0.170744681 16.9946667"></polygon>
                        <polygon id="Fill-148" fill="#354799" mask="url(#mask-8)" points="0.170744681 17.1771333 45.862766 17.1771333 45.862766 17.0581333 0.170744681 17.0581333"></polygon>
                        <polygon id="Fill-149" fill="#354798" mask="url(#mask-8)" points="0.170744681 17.2406 45.862766 17.2406 45.862766 17.1216 0.170744681 17.1216"></polygon>
                        <polygon id="Fill-150" fill="#354798" mask="url(#mask-8)" points="0.170744681 17.3040667 45.862766 17.3040667 45.862766 17.1850667 0.170744681 17.1850667"></polygon>
                        <polygon id="Fill-151" fill="#354797" mask="url(#mask-8)" points="0.170744681 17.3672667 45.862766 17.3672667 45.862766 17.2482667 0.170744681 17.2482667"></polygon>
                        <polygon id="Fill-152" fill="#354797" mask="url(#mask-8)" points="0.170744681 17.4307333 45.862766 17.4307333 45.862766 17.3117333 0.170744681 17.3117333"></polygon>
                        <polygon id="Fill-153" fill="#354796" mask="url(#mask-8)" points="0.170744681 17.4942 45.862766 17.4942 45.862766 17.3752 0.170744681 17.3752"></polygon>
                        <polygon id="Fill-154" fill="#354796" mask="url(#mask-8)" points="0.170744681 17.5576667 45.862766 17.5576667 45.862766 17.4386667 0.170744681 17.4386667"></polygon>
                        <polygon id="Fill-155" fill="#344795" mask="url(#mask-8)" points="0.170744681 17.6211333 45.862766 17.6211333 45.862766 17.5021333 0.170744681 17.5021333"></polygon>
                        <polygon id="Fill-156" fill="#344795" mask="url(#mask-8)" points="0.170744681 17.6846 45.862766 17.6846 45.862766 17.5656 0.170744681 17.5656"></polygon>
                        <polygon id="Fill-157" fill="#344794" mask="url(#mask-8)" points="0.170744681 17.7478 45.862766 17.7478 45.862766 17.6288 0.170744681 17.6288"></polygon>
                        <polygon id="Fill-158" fill="#344794" mask="url(#mask-8)" points="0.170744681 17.8112667 45.862766 17.8112667 45.862766 17.6922667 0.170744681 17.6922667"></polygon>
                        <polygon id="Fill-159" fill="#344793" mask="url(#mask-8)" points="0.170744681 17.8747333 45.862766 17.8747333 45.862766 17.7557333 0.170744681 17.7557333"></polygon>
                        <polygon id="Fill-160" fill="#344793" mask="url(#mask-8)" points="0.170744681 17.9382 45.862766 17.9382 45.862766 17.8192 0.170744681 17.8192"></polygon>
                        <polygon id="Fill-161" fill="#344792" mask="url(#mask-8)" points="0.170744681 18.0016667 45.862766 18.0016667 45.862766 17.8826667 0.170744681 17.8826667"></polygon>
                        <polygon id="Fill-162" fill="#344791" mask="url(#mask-8)" points="0.170744681 18.0648667 45.862766 18.0648667 45.862766 17.9458667 0.170744681 17.9458667"></polygon>
                        <polygon id="Fill-163" fill="#344791" mask="url(#mask-8)" points="0.170744681 18.1283333 45.862766 18.1283333 45.862766 18.0093333 0.170744681 18.0093333"></polygon>
                        <polygon id="Fill-164" fill="#344790" mask="url(#mask-8)" points="0.170744681 18.1918 45.862766 18.1918 45.862766 18.0728 0.170744681 18.0728"></polygon>
                        <polygon id="Fill-165" fill="#33478F" mask="url(#mask-8)" points="0.170744681 18.2552667 45.862766 18.2552667 45.862766 18.1362667 0.170744681 18.1362667"></polygon>
                        <polygon id="Fill-166" fill="#33478F" mask="url(#mask-8)" points="0.170744681 18.3187333 45.862766 18.3187333 45.862766 18.1997333 0.170744681 18.1997333"></polygon>
                        <polygon id="Fill-167" fill="#33478E" mask="url(#mask-8)" points="0.170744681 18.3822 45.862766 18.3822 45.862766 18.2632 0.170744681 18.2632"></polygon>
                        <polygon id="Fill-168" fill="#33478D" mask="url(#mask-8)" points="0.170744681 18.4454 45.862766 18.4454 45.862766 18.3264 0.170744681 18.3264"></polygon>
                        <polygon id="Fill-169" fill="#33478D" mask="url(#mask-8)" points="0.170744681 18.5088667 45.862766 18.5088667 45.862766 18.3898667 0.170744681 18.3898667"></polygon>
                        <polygon id="Fill-170" fill="#33478C" mask="url(#mask-8)" points="0.170744681 18.5723333 45.862766 18.5723333 45.862766 18.4533333 0.170744681 18.4533333"></polygon>
                        <polygon id="Fill-171" fill="#33478B" mask="url(#mask-8)" points="0.170744681 18.6358 45.862766 18.6358 45.862766 18.5168 0.170744681 18.5168"></polygon>
                        <polygon id="Fill-172" fill="#32478A" mask="url(#mask-8)" points="0.170744681 18.6992667 45.862766 18.6992667 45.862766 18.5802667 0.170744681 18.5802667"></polygon>
                        <polygon id="Fill-173" fill="#32478A" mask="url(#mask-8)" points="0.170744681 18.7627333 45.862766 18.7627333 45.862766 18.6437333 0.170744681 18.6437333"></polygon>
                        <polygon id="Fill-174" fill="#324789" mask="url(#mask-8)" points="0.170744681 18.8259333 45.862766 18.8259333 45.862766 18.7069333 0.170744681 18.7069333"></polygon>
                        <polygon id="Fill-175" fill="#324788" mask="url(#mask-8)" points="0.170744681 18.8894 45.862766 18.8894 45.862766 18.7704 0.170744681 18.7704"></polygon>
                        <polygon id="Fill-176" fill="#324787" mask="url(#mask-8)" points="0.170744681 18.9528667 45.862766 18.9528667 45.862766 18.8338667 0.170744681 18.8338667"></polygon>
                        <polygon id="Fill-177" fill="#324786" mask="url(#mask-8)" points="0.170744681 19.0163333 45.862766 19.0163333 45.862766 18.8973333 0.170744681 18.8973333"></polygon>
                        <polygon id="Fill-178" fill="#324785" mask="url(#mask-8)" points="0.170744681 19.0798 45.862766 19.0798 45.862766 18.9608 0.170744681 18.9608"></polygon>
                        <polygon id="Fill-179" fill="#314784" mask="url(#mask-8)" points="0.170744681 19.143 45.862766 19.143 45.862766 19.024 0.170744681 19.024"></polygon>
                        <polygon id="Fill-180" fill="#314783" mask="url(#mask-8)" points="0.170744681 19.2064667 45.862766 19.2064667 45.862766 19.0874667 0.170744681 19.0874667"></polygon>
                        <polygon id="Fill-181" fill="#314783" mask="url(#mask-8)" points="0.170744681 19.2699333 45.862766 19.2699333 45.862766 19.1509333 0.170744681 19.1509333"></polygon>
                        <polygon id="Fill-182" fill="#314782" mask="url(#mask-8)" points="0.170744681 19.3334 45.862766 19.3334 45.862766 19.2144 0.170744681 19.2144"></polygon>
                        <polygon id="Fill-183" fill="#314781" mask="url(#mask-8)" points="0.170744681 19.3968667 45.862766 19.3968667 45.862766 19.2778667 0.170744681 19.2778667"></polygon>
                        <polygon id="Fill-184" fill="#314780" mask="url(#mask-8)" points="0.170744681 19.4603333 45.862766 19.4603333 45.862766 19.3413333 0.170744681 19.3413333"></polygon>
                        <polygon id="Fill-185" fill="#30477F" mask="url(#mask-8)" points="0.170744681 19.5235333 45.862766 19.5235333 45.862766 19.4045333 0.170744681 19.4045333"></polygon>
                        <polygon id="Fill-186" fill="#30477E" mask="url(#mask-8)" points="0.170744681 19.587 45.862766 19.587 45.862766 19.468 0.170744681 19.468"></polygon>
                        <polygon id="Fill-187" fill="#30477D" mask="url(#mask-8)" points="0.170744681 19.6504667 45.862766 19.6504667 45.862766 19.5314667 0.170744681 19.5314667"></polygon>
                        <polygon id="Fill-188" fill="#30477C" mask="url(#mask-8)" points="0.170744681 19.7139333 45.862766 19.7139333 45.862766 19.5949333 0.170744681 19.5949333"></polygon>
                        <polygon id="Fill-189" fill="#30477A" mask="url(#mask-8)" points="0.170744681 19.7774 45.862766 19.7774 45.862766 19.6584 0.170744681 19.6584"></polygon>
                        <polygon id="Fill-190" fill="#2F4779" mask="url(#mask-8)" points="0.170744681 19.8408667 45.862766 19.8408667 45.862766 19.7218667 0.170744681 19.7218667"></polygon>
                        <polygon id="Fill-191" fill="#2F4778" mask="url(#mask-8)" points="0.170744681 19.9040667 45.862766 19.9040667 45.862766 19.7850667 0.170744681 19.7850667"></polygon>
                        <polygon id="Fill-192" fill="#2F4777" mask="url(#mask-8)" points="0.170744681 19.9675333 45.862766 19.9675333 45.862766 19.8485333 0.170744681 19.8485333"></polygon>
                        <polygon id="Fill-193" fill="#2F4776" mask="url(#mask-8)" points="0.170744681 20.031 45.862766 20.031 45.862766 19.912 0.170744681 19.912"></polygon>
                        <polygon id="Fill-194" fill="#2F4775" mask="url(#mask-8)" points="0.170744681 20.0944667 45.862766 20.0944667 45.862766 19.9754667 0.170744681 19.9754667"></polygon>
                        <polygon id="Fill-195" fill="#2E4774" mask="url(#mask-8)" points="0.170744681 20.1579333 45.862766 20.1579333 45.862766 20.0389333 0.170744681 20.0389333"></polygon>
                        <polygon id="Fill-196" fill="#2E4773" mask="url(#mask-8)" points="0.170744681 20.2211333 45.862766 20.2211333 45.862766 20.1021333 0.170744681 20.1021333"></polygon>
                        <polygon id="Fill-197" fill="#2E4771" mask="url(#mask-8)" points="0.170744681 20.2846 45.862766 20.2846 45.862766 20.1656 0.170744681 20.1656"></polygon>
                        <polygon id="Fill-198" fill="#2E4770" mask="url(#mask-8)" points="0.170744681 20.3480667 45.862766 20.3480667 45.862766 20.2290667 0.170744681 20.2290667"></polygon>
                        <polygon id="Fill-199" fill="#2E476F" mask="url(#mask-8)" points="0.170744681 20.4115333 45.862766 20.4115333 45.862766 20.2925333 0.170744681 20.2925333"></polygon>
                        <polygon id="Fill-200" fill="#2D476E" mask="url(#mask-8)" points="0.170744681 20.475 45.862766 20.475 45.862766 20.356 0.170744681 20.356"></polygon>
                        <polygon id="Fill-201" fill="#2D476C" mask="url(#mask-8)" points="0.170744681 20.5384667 45.862766 20.5384667 45.862766 20.4194667 0.170744681 20.4194667"></polygon>
                        <polygon id="Fill-202" fill="#2D476B" mask="url(#mask-8)" points="0.170744681 20.6016667 45.862766 20.6016667 45.862766 20.4826667 0.170744681 20.4826667"></polygon>
                        <polygon id="Fill-203" fill="#2D476A" mask="url(#mask-8)" points="0.170744681 20.6651333 45.862766 20.6651333 45.862766 20.5461333 0.170744681 20.5461333"></polygon>
                        <polygon id="Fill-204" fill="#2C4768" mask="url(#mask-8)" points="0.170744681 20.7286 45.862766 20.7286 45.862766 20.6096 0.170744681 20.6096"></polygon>
                        <polygon id="Fill-205" fill="#2C4767" mask="url(#mask-8)" points="0.170744681 20.7920667 45.862766 20.7920667 45.862766 20.6730667 0.170744681 20.6730667"></polygon>
                        <polygon id="Fill-206" fill="#2C4766" mask="url(#mask-8)" points="0.170744681 20.8555333 45.862766 20.8555333 45.862766 20.7365333 0.170744681 20.7365333"></polygon>
                        <polygon id="Fill-207" fill="#2C4764" mask="url(#mask-8)" points="0.170744681 20.919 45.862766 20.919 45.862766 20.8 0.170744681 20.8"></polygon>
                        <polygon id="Fill-208" fill="#2B4763" mask="url(#mask-8)" points="0.170744681 20.9822 45.862766 20.9822 45.862766 20.8632 0.170744681 20.8632"></polygon>
                        <polygon id="Fill-209" fill="#2B4762" mask="url(#mask-8)" points="0.170744681 21.0456667 45.862766 21.0456667 45.862766 20.9266667 0.170744681 20.9266667"></polygon>
                        <polygon id="Fill-210" fill="#2B4760" mask="url(#mask-8)" points="0.170744681 21.1091333 45.862766 21.1091333 45.862766 20.9901333 0.170744681 20.9901333"></polygon>
                        <polygon id="Fill-211" fill="#2B475F" mask="url(#mask-8)" points="0.170744681 21.1726 45.862766 21.1726 45.862766 21.0536 0.170744681 21.0536"></polygon>
                        <polygon id="Fill-212" fill="#2A475D" mask="url(#mask-8)" points="0.170744681 21.2360667 45.862766 21.2360667 45.862766 21.1170667 0.170744681 21.1170667"></polygon>
                        <polygon id="Fill-213" fill="#2A475C" mask="url(#mask-8)" points="0.170744681 21.2992667 45.862766 21.2992667 45.862766 21.1802667 0.170744681 21.1802667"></polygon>
                        <polygon id="Fill-214" fill="#2A475A" mask="url(#mask-8)" points="0.170744681 21.3627333 45.862766 21.3627333 45.862766 21.2437333 0.170744681 21.2437333"></polygon>
                        <polygon id="Fill-215" fill="#2A4759" mask="url(#mask-8)" points="0.170744681 21.4262 45.862766 21.4262 45.862766 21.3072 0.170744681 21.3072"></polygon>
                        <polygon id="Fill-216" fill="#294757" mask="url(#mask-8)" points="0.170744681 21.4896667 45.862766 21.4896667 45.862766 21.3706667 0.170744681 21.3706667"></polygon>
                        <polygon id="Fill-217" fill="#294756" mask="url(#mask-8)" points="0.170744681 21.5531333 45.862766 21.5531333 45.862766 21.4341333 0.170744681 21.4341333"></polygon>
                        <polygon id="Fill-218" fill="#294754" mask="url(#mask-8)" points="0.170744681 21.6166 45.862766 21.6166 45.862766 21.4976 0.170744681 21.4976"></polygon>
                        <polygon id="Fill-219" fill="#294753" mask="url(#mask-8)" points="0.170744681 21.6798 45.862766 21.6798 45.862766 21.5608 0.170744681 21.5608"></polygon>
                        <polygon id="Fill-220" fill="#284751" mask="url(#mask-8)" points="0.170744681 21.7432667 45.862766 21.7432667 45.862766 21.6242667 0.170744681 21.6242667"></polygon>
                        <polygon id="Fill-221" fill="#28474F" mask="url(#mask-8)" points="0.170744681 21.8067333 45.862766 21.8067333 45.862766 21.6877333 0.170744681 21.6877333"></polygon>
                        <polygon id="Fill-222" fill="#28474E" mask="url(#mask-8)" points="0.170744681 21.8702 45.862766 21.8702 45.862766 21.7512 0.170744681 21.7512"></polygon>
                        <polygon id="Fill-223" fill="#27474C" mask="url(#mask-8)" points="0.170744681 21.9336667 45.862766 21.9336667 45.862766 21.8146667 0.170744681 21.8146667"></polygon>
                        <polygon id="Fill-224" fill="#27474A" mask="url(#mask-8)" points="0.170744681 21.9971333 45.862766 21.9971333 45.862766 21.8781333 0.170744681 21.8781333"></polygon>
                        <polygon id="Fill-225" fill="#274749" mask="url(#mask-8)" points="0.170744681 22.0603333 45.862766 22.0603333 45.862766 21.9413333 0.170744681 21.9413333"></polygon>
                        <polygon id="Fill-226" fill="#264747" mask="url(#mask-8)" points="0.170744681 22.1238 45.862766 22.1238 45.862766 22.0048 0.170744681 22.0048"></polygon>
                        <polygon id="Fill-227" fill="#264745" mask="url(#mask-8)" points="0.170744681 22.1872667 45.862766 22.1872667 45.862766 22.0682667 0.170744681 22.0682667"></polygon>
                        <polygon id="Fill-228" fill="#264744" mask="url(#mask-8)" points="0.170744681 22.2507333 45.862766 22.2507333 45.862766 22.1317333 0.170744681 22.1317333"></polygon>
                        <polygon id="Fill-229" fill="#264742" mask="url(#mask-8)" points="0.170744681 22.3142 45.862766 22.3142 45.862766 22.1952 0.170744681 22.1952"></polygon>
                        <polygon id="Fill-230" fill="#254740" mask="url(#mask-8)" points="0.170744681 22.3774 45.862766 22.3774 45.862766 22.2584 0.170744681 22.2584"></polygon>
                        <polygon id="Fill-231" fill="#25473E" mask="url(#mask-8)" points="0.170744681 22.4408667 45.862766 22.4408667 45.862766 22.3218667 0.170744681 22.3218667"></polygon>
                        <polygon id="Fill-232" fill="#25473C" mask="url(#mask-8)" points="0.170744681 22.5043333 45.862766 22.5043333 45.862766 22.3853333 0.170744681 22.3853333"></polygon>
                        <polygon id="Fill-233" fill="#24473B" mask="url(#mask-8)" points="0.170744681 22.5678 45.862766 22.5678 45.862766 22.4488 0.170744681 22.4488"></polygon>
                        <polygon id="Fill-234" fill="#244739" mask="url(#mask-8)" points="0.170744681 22.6312667 45.862766 22.6312667 45.862766 22.5122667 0.170744681 22.5122667"></polygon>
                        <polygon id="Fill-235" fill="#244737" mask="url(#mask-8)" points="0.170744681 22.6947333 45.862766 22.6947333 45.862766 22.5757333 0.170744681 22.5757333"></polygon>
                        <polygon id="Fill-236" fill="#234735" mask="url(#mask-8)" points="0.170744681 22.7579333 45.862766 22.7579333 45.862766 22.6389333 0.170744681 22.6389333"></polygon>
                        <polygon id="Fill-237" fill="#234733" mask="url(#mask-8)" points="0.170744681 22.8214 45.862766 22.8214 45.862766 22.7024 0.170744681 22.7024"></polygon>
                        <polygon id="Fill-238" fill="#234731" mask="url(#mask-8)" points="0.170744681 22.8848667 45.862766 22.8848667 45.862766 22.7658667 0.170744681 22.7658667"></polygon>
                        <polygon id="Fill-239" fill="#22472F" mask="url(#mask-8)" points="0.170744681 22.9483333 45.862766 22.9483333 45.862766 22.8293333 0.170744681 22.8293333"></polygon>
                        <polygon id="Fill-240" fill="#22472D" mask="url(#mask-8)" points="0.170744681 23.0118 45.862766 23.0118 45.862766 22.8928 0.170744681 22.8928"></polygon>
                        <polygon id="Fill-241" fill="#22472B" mask="url(#mask-8)" points="0.170744681 23.0752667 45.862766 23.0752667 45.862766 22.9562667 0.170744681 22.9562667"></polygon>
                        <polygon id="Fill-242" fill="#214729" mask="url(#mask-8)" points="0.170744681 23.1384667 45.862766 23.1384667 45.862766 23.0194667 0.170744681 23.0194667"></polygon>
                        <polygon id="Fill-243" fill="#214727" mask="url(#mask-8)" points="0.170744681 23.2019333 45.862766 23.2019333 45.862766 23.0829333 0.170744681 23.0829333"></polygon>
                        <polygon id="Fill-244" fill="#204725" mask="url(#mask-8)" points="0.170744681 23.2654 45.862766 23.2654 45.862766 23.1464 0.170744681 23.1464"></polygon>
                        <polygon id="Fill-245" fill="#204723" mask="url(#mask-8)" points="0.170744681 23.3288667 45.862766 23.3288667 45.862766 23.2098667 0.170744681 23.2098667"></polygon>
                        <polygon id="Fill-246" fill="#204721" mask="url(#mask-8)" points="0.170744681 23.3923333 45.862766 23.3923333 45.862766 23.2733333 0.170744681 23.2733333"></polygon>
                        <polygon id="Fill-247" fill="#1F471F" mask="url(#mask-8)" points="0.170744681 23.4558 45.862766 23.4558 45.862766 23.3368 0.170744681 23.3368"></polygon>
                        <polygon id="Fill-248" fill="#1F471D" mask="url(#mask-8)" points="0.170744681 23.519 45.862766 23.519 45.862766 23.4 0.170744681 23.4"></polygon>
                        <polygon id="Fill-249" fill="#1F471D" mask="url(#mask-8)" points="0.170744681 27.6376 45.862766 27.6376 45.862766 23.4634667 0.170744681 23.4634667"></polygon>
                        <polygon id="Fill-250" fill="#1F471D" mask="url(#mask-8)" points="0.170744681 27.6376 45.862766 27.6376 45.862766 27.6376"></polygon>
                    </g>
                    <g id="Group-258" transform="translate(8.244681, 8.806933)" fill="#FFFFFF">
                        <path d="M8.66337766,6.60485333 L17.2282713,6.60485333 C17.1522074,4.90885333 16.7208245,3.15978667 15.4120479,2.03658667 C13.8535372,0.698186667 11.1242819,0.20192 8.68545213,0.20192 C6.14609043,0.20192 3.33864362,0.74672 1.77215426,2.18245333 C0.421356383,3.41872 0.128803191,5.40885333 0.128803191,7.19658667 C0.128803191,9.06938667 0.700611702,11.2472533 2.16630319,12.50272 C3.72481383,13.83712 6.25007979,14.1912533 8.68545213,14.1912533 C11.0511436,14.1912533 13.6136436,13.7917867 15.1625798,12.5237867 C16.7075266,11.2581867 17.2415691,9.12592 17.2415691,7.19658667 L17.2415691,7.18778667 L8.66337766,7.18778667 L8.66337766,6.60485333 Z" id="Fill-252"></path>
                        <path d="M17.8031383,7.18781333 L17.8031383,13.8790133 L29.7180319,13.8790133 L29.7180319,13.8702133 C31.461383,13.7830133 32.8480851,12.3427467 32.8480851,10.5739467 C32.8480851,8.80541333 31.461383,7.27288 29.7180319,7.18488 L29.7180319,7.18781333 L17.8031383,7.18781333 Z" id="Fill-254"></path>
                        <path d="M32.6301064,3.53752 C32.6301064,1.83352 31.2814362,0.482053333 29.5819681,0.482053333 C29.4649468,0.482053333 29.32,0.45992 29.2059043,0.472453333 L17.8032447,0.472453333 L17.8032447,6.60472 L29.8160106,6.60472 C31.3912766,6.46925333 32.6301064,5.15138667 32.6301064,3.53752" id="Fill-256"></path>
                    </g>
                </g>
                <g transform="translate(118.000000, 0.000000)">
                    <path d="M3.36603723,2.23754667 L46.3947606,2.23754667 C47.1293351,2.23754667 47.7245479,2.83461333 47.7245479,3.57088 L47.7245479,28.44448 C47.7245479,29.1810133 47.1293351,29.7778133 46.3947606,29.7778133 L3.36603723,29.7778133 C2.63172872,29.7778133 2.03625,29.1810133 2.03625,28.44448 L2.03625,3.57088 C2.03625,2.83461333 2.63172872,2.23754667 3.36603723,2.23754667" id="Fill-1" fill="#0C2E5B"></path>
                    <g id="Group-5" transform="translate(0.000000, 0.006933)">
                        <mask id="mask-10" fill="white">
                            <use xlink:href="#path-9"></use>
                        </mask>
                        <g id="Clip-4"></g>
                        <path d="M46.1059574,0.825786667 C48.1009043,0.825786667 49.1171277,1.84472 49.1171277,3.84498667 L49.1171277,28.1481867 C49.1171277,30.16712 48.1009043,31.16712 46.1059574,31.16712 L3.65090426,31.16712 C2.69106383,31.16712 1.95728723,30.8841867 1.4112766,30.3180533 C0.846914894,29.7708533 0.564468085,29.0161867 0.564468085,28.1481867 L0.564468085,3.84498667 C0.564468085,1.84472 1.56207447,0.825786667 3.65090426,0.825786667 L46.1059574,0.825786667 Z M49.7570213,3.84498667 C49.7570213,1.44845333 48.515,0.259653333 46.1059574,0.259653333 L3.65090426,0.259653333 C2.44638298,0.259653333 1.56207447,0.580453333 0.97856383,1.24072 C0.320053191,1.90125333 0.000106382979,2.75032 0.000106382979,3.84498667 L0.000106382979,28.1481867 C0.000106382979,29.24232 0.320053191,30.07272 0.97856383,30.75192 C1.6562234,31.4121867 2.52191489,31.7332533 3.65090426,31.7332533 L46.1059574,31.7332533 C48.515,31.7332533 49.7570213,30.5257867 49.7570213,28.1481867 L49.7570213,3.84498667 Z" id="Fill-3" fill="#36363C" mask="url(#mask-10)"></path>
                    </g>
                    <path d="M25.4861968,22.13272 C26.9840691,23.5009867 28.9978989,24.3353867 31.1782181,24.3353867 C35.8715691,24.3353867 39.66625,20.5308533 39.66625,15.82472 C39.66625,11.1356533 35.8715691,7.31405333 31.1782181,7.31405333 C28.9978989,7.31405333 26.9840691,8.14845333 25.4861968,9.51698667 C23.7718351,11.08552 22.6901862,13.3217867 22.6901862,15.82472 C22.6901862,18.32792 23.7718351,20.58072 25.4861968,22.13272" id="Fill-6" fill="#F1AC3D"></path>
                    <path d="M38.7675266,20.54744 L38.8007713,20.54744 L38.834016,20.54744 C38.8507713,20.54744 38.8507713,20.53064 38.8507713,20.5141067 C38.8507713,20.5141067 38.8507713,20.4973067 38.834016,20.4973067 L38.8007713,20.4973067 L38.7675266,20.4973067 L38.7675266,20.54744 Z M38.7675266,20.6975733 L38.7175266,20.6975733 L38.7175266,20.4471733 L38.8175266,20.4471733 C38.834016,20.4471733 38.8672606,20.4471733 38.884016,20.4639733 C38.9007713,20.4807733 38.9172606,20.4973067 38.9172606,20.5141067 C38.9172606,20.54744 38.9007713,20.5807733 38.8672606,20.5807733 L38.9172606,20.6975733 L38.8507713,20.6975733 L38.8175266,20.5975733 L38.7675266,20.5975733 L38.7675266,20.6975733 Z M38.8175266,20.78104 C38.9172606,20.78104 39.0172606,20.68104 39.0172606,20.5639733 C39.0172606,20.4471733 38.9172606,20.3639733 38.8175266,20.3639733 C38.7010372,20.3639733 38.6010372,20.4471733 38.6010372,20.5639733 C38.6010372,20.68104 38.7010372,20.78104 38.8175266,20.78104 Z M38.5345479,20.5639733 C38.5345479,20.41384 38.6510372,20.29704 38.8175266,20.29704 C38.9672606,20.29704 39.08375,20.41384 39.08375,20.5639733 C39.08375,20.7143733 38.9672606,20.8477067 38.8175266,20.8477067 C38.6510372,20.8477067 38.5345479,20.7143733 38.5345479,20.5639733 Z" id="Fill-8" fill="#F1AC3D"></path>
                    <path d="M28.2323138,14.9236533 C28.1990691,14.6233867 28.1490691,14.3228533 28.0825798,14.0225867 L22.8897606,14.0225867 C22.956516,13.7220533 23.0394947,13.4217867 23.1394947,13.12152 L27.8328457,13.12152 C27.7331117,12.8209867 27.6166223,12.52072 27.4833777,12.2201867 L23.4889628,12.2201867 C23.6386968,11.91992 23.8051862,11.6193867 23.9881649,11.31912 L26.9841755,11.31912 C26.8009309,11.0020533 26.5847074,10.7017867 26.3349734,10.4180533 L24.637367,10.4180533 C24.8871011,10.1009867 25.1865691,9.80045333 25.4863032,9.51698667 C23.9881649,8.14845333 21.9910904,7.31405333 19.7942819,7.31405333 C15.1006649,7.31405333 11.305984,11.1356533 11.305984,15.82472 C11.305984,20.5308533 15.1006649,24.3353867 19.7942819,24.3353867 C21.9910904,24.3353867 23.9881649,23.5009867 25.4863032,22.13272 C25.7857713,21.8489867 26.0852394,21.54872 26.3517287,21.2316533 L24.637367,21.2316533 C24.4043883,20.94792 24.1878989,20.6476533 23.9881649,20.3305867 L26.9841755,20.3305867 C27.1671543,20.0468533 27.3336436,19.74632 27.4833777,19.4292533 L23.4889628,19.4292533 C23.3557181,19.1457867 23.2392287,18.8452533 23.1394947,18.5281867 L27.8328457,18.5281867 C27.9328457,18.22792 28.0158245,17.9273867 28.0825798,17.62712 C28.1490691,17.3265867 28.1990691,17.02632 28.2323138,16.7260533 C28.2655585,16.42552 28.2823138,16.1252533 28.2823138,15.82472 C28.2823138,15.5244533 28.2655585,15.22392 28.2323138,14.9236533" id="Fill-10" fill="#D82332"></path>
                    <path d="M38.7675266,17.77728 L38.8007713,17.77728 L38.834016,17.77728 C38.8507713,17.77728 38.8507713,17.76048 38.8507713,17.7439467 C38.8507713,17.7439467 38.8507713,17.7271467 38.834016,17.7271467 L38.8007713,17.7271467 L38.7675266,17.7271467 L38.7675266,17.77728 Z M38.7675266,17.9274133 L38.7175266,17.9274133 L38.7175266,17.6770133 L38.8175266,17.6770133 C38.834016,17.6770133 38.8672606,17.6770133 38.884016,17.6938133 C38.9007713,17.7106133 38.9172606,17.7271467 38.9172606,17.7439467 C38.9172606,17.77728 38.9007713,17.8106133 38.8672606,17.8106133 L38.9172606,17.9274133 L38.8507713,17.9274133 L38.8175266,17.8274133 L38.7675266,17.8274133 L38.7675266,17.9274133 Z M38.8175266,18.01088 C38.9172606,18.01088 39.0172606,17.91088 39.0172606,17.7938133 C39.0172606,17.6770133 38.9172606,17.5938133 38.8175266,17.5938133 C38.7010372,17.5938133 38.6010372,17.6770133 38.6010372,17.7938133 C38.6010372,17.91088 38.7010372,18.01088 38.8175266,18.01088 Z M38.5345479,17.7938133 C38.5345479,17.64368 38.6510372,17.52688 38.8175266,17.52688 C38.9672606,17.52688 39.08375,17.64368 39.08375,17.7938133 C39.08375,17.9442133 38.9672606,18.0775467 38.8175266,18.0775467 C38.6510372,18.0775467 38.5345479,17.9442133 38.5345479,17.7938133 Z" id="Fill-12" fill="#FFFFFF"></path>
                    <path d="M22.6069149,18.2778933 C22.3239362,18.36136 22.1242021,18.3946933 21.9079787,18.3946933 C21.475266,18.3946933 21.2087766,18.12776 21.2087766,17.62696 C21.2087766,17.52696 21.2255319,17.4266933 21.2422872,17.3098933 L21.2920213,16.9762933 L21.3420213,16.69256 L21.7414894,14.2896267 L22.6234043,14.2896267 L22.5236702,14.8234933 L23.0728723,14.8234933 L22.9396277,15.7080267 L22.3904255,15.7080267 L22.1409574,17.1432267 C22.1409574,17.1930933 22.1242021,17.2432267 22.1242021,17.27656 C22.1242021,17.4602933 22.2242021,17.5434933 22.4404255,17.5434933 C22.5569149,17.5434933 22.6234043,17.52696 22.7234043,17.51016 L22.6069149,18.2778933 Z" id="Fill-14" fill="#0C2E5B"></path>
                    <path d="M24.9036436,16.15856 L24.9036436,15.9916267 C24.9036436,15.7078933 24.7371543,15.5412267 24.4709309,15.5412267 C24.1714628,15.5412267 23.9717287,15.7580267 23.888484,16.15856 L24.9036436,16.15856 Z M25.4528457,18.2444267 C25.1366223,18.3446933 24.8203989,18.3948267 24.5041755,18.3948267 C23.5222606,18.3948267 22.9398138,17.8606933 22.9398138,16.8260267 C22.9398138,15.6244267 23.6219947,14.72336 24.5541755,14.72336 C25.3031117,14.72336 25.7858245,15.22416 25.7858245,16.0084267 C25.7858245,16.25856 25.7525798,16.50896 25.6693351,16.87616 L23.838484,16.87616 L23.838484,16.97616 C23.838484,17.3934933 24.1047074,17.59376 24.6374202,17.59376 C24.970133,17.59376 25.269867,17.5268267 25.6025798,17.3766933 L25.4528457,18.2444267 Z" id="Fill-16" fill="#0C2E5B"></path>
                    <polygon id="Fill-18" fill="#0C2E5B" points="15.5668085 18.3279467 14.651383 18.3279467 15.1840957 15.0071467 14.0021809 18.3279467 13.37 18.3279467 13.3032447 15.02368 12.7375532 18.3279467 11.8553723 18.3279467 12.5710638 14.0058133 13.8856915 14.0058133 13.9356915 16.6759467 14.8178723 14.0058133 16.2825 14.0058133"></polygon>
                    <path d="M18.512633,18.3279467 L17.7136968,18.3279467 L17.7304521,17.9607467 C17.5307181,18.24448 17.2644947,18.3946133 16.7650266,18.3946133 C16.3158245,18.3946133 15.9496011,17.99408 15.9496011,17.42688 C15.9496011,17.2599467 15.9828457,17.1098133 16.0160904,16.9762133 C16.1658245,16.4255467 16.7152926,16.09168 17.5474734,16.0751467 C17.6472074,16.0751467 17.8136968,16.0751467 17.9466755,16.09168 C17.9799202,15.97488 17.9799202,15.9250133 17.9799202,15.85808 C17.9799202,15.62448 17.7969415,15.5578133 17.3642287,15.5578133 C17.0980053,15.5578133 16.8150266,15.6079467 16.5988032,15.65808 L16.4823138,15.7079467 L16.4155585,15.7079467 L16.5488032,14.92368 C16.981516,14.79008 17.280984,14.7402133 17.6139628,14.7402133 C18.4128989,14.7402133 18.8288564,15.0906133 18.8288564,15.77488 C18.8288564,15.9415467 18.8456117,16.0751467 18.7788564,16.45888 L18.5958777,17.7106133 L18.562633,17.9274133 L18.5293883,18.11088 L18.5293883,18.22768 L18.512633,18.3279467 Z M17.7804521,16.7594133 C17.6804521,16.7594133 17.6639628,16.7426133 17.5972074,16.7426133 C17.08125,16.7426133 16.8150266,16.94288 16.8150266,17.27648 C16.8150266,17.5103467 16.9482713,17.64368 17.1480053,17.64368 C17.5972074,17.64368 17.7636968,17.27648 17.7804521,16.7594133 Z" id="Fill-20" fill="#0C2E5B"></path>
                    <path d="M29.88,14.85696 C30.129734,14.85696 30.3627128,14.9236267 30.6954255,15.09056 L30.8451596,14.13936 C30.7621809,14.1060267 30.7454255,14.1060267 30.6289362,14.0558933 L30.2462234,13.9724267 C30.129734,13.9390933 29.9964894,13.92256 29.83,13.92256 C29.3807979,13.92256 29.1143085,13.92256 28.8313298,14.1060267 C28.6815957,14.1894933 28.498617,14.3228267 28.2823936,14.5566933 L28.1823936,14.5230933 L27.2337234,15.19056 L27.2837234,14.8236267 L26.3018085,14.8236267 L25.7523404,18.3278933 L26.667766,18.3278933 L27.0007447,16.4422933 C27.0007447,16.4422933 27.1337234,16.17536 27.2004787,16.0918933 C27.3669681,15.8748267 27.5167021,15.8748267 27.6996809,15.8748267 L27.7661702,15.8748267 C27.7496809,16.0750933 27.7329255,16.3086933 27.7329255,16.5422933 C27.7329255,17.69376 28.3821277,18.41136 29.3807979,18.41136 C29.630266,18.41136 29.8467553,18.3780267 30.1794681,18.2780267 L30.3459574,17.2932267 C30.0464894,17.4436267 29.7967553,17.5102933 29.5637766,17.5102933 C29.0310638,17.5102933 28.7148404,17.12656 28.7148404,16.4588267 C28.7148404,15.5244267 29.1810638,14.85696 29.88,14.85696" id="Fill-22" fill="#0C2E5B"></path>
                    <path d="M36.5373138,17.4935733 C36.2210904,17.4935733 36.0713564,17.2765067 36.0713564,16.8093067 C36.0713564,16.1253067 36.3543351,15.6245067 36.7870479,15.6245067 C37.1032713,15.6245067 37.2694947,15.8749067 37.2694947,16.3253067 C37.2694947,17.0095733 36.9700266,17.4935733 36.5373138,17.4935733 Z M37.6524734,14.00584 L37.4527394,15.2407733 C37.23625,14.9069067 36.9700266,14.7567733 36.6205585,14.7567733 C36.1378457,14.7567733 35.6883777,15.0237067 35.4056649,15.54104 L34.8229521,15.19064 L34.8729521,14.82344 L33.8910372,14.82344 L33.3250798,18.3279733 L34.2572606,18.3279733 L34.5567287,16.4421067 C34.5567287,16.4421067 34.7897074,16.1751733 34.8561968,16.0917067 C34.9894415,15.92504 35.1391755,15.8749067 35.2556649,15.8749067 C35.1559309,16.1751733 35.0891755,16.52584 35.0891755,16.9095733 C35.0891755,17.79384 35.5553989,18.3781067 36.2210904,18.3781067 C36.5538032,18.3781067 36.8202926,18.2613067 37.0697606,17.9775733 L37.0200266,18.3279733 L37.9019415,18.3279733 L38.6011436,14.00584 L37.6524734,14.00584 Z" id="Fill-24" fill="#0C2E5B"></path>
                    <path d="M33.0255851,18.3279467 L32.2266489,18.3279467 L32.2434043,17.9607467 C32.0436702,18.24448 31.7774468,18.3946133 31.2779787,18.3946133 C30.8287766,18.3946133 30.4293085,18.01088 30.4293085,17.42688 C30.4457979,16.59248 31.0617553,16.0751467 32.0601596,16.0751467 C32.1601596,16.0751467 32.3266489,16.0751467 32.4596277,16.09168 C32.4931383,15.97488 32.4931383,15.9250133 32.4931383,15.85808 C32.4931383,15.62448 32.3098936,15.5578133 31.8771809,15.5578133 C31.6109574,15.5578133 31.3112234,15.6079467 31.1114894,15.65808 L30.9785106,15.7079467 L30.9285106,15.7079467 L31.0617553,14.92368 C31.4944681,14.79008 31.7939362,14.7402133 32.1269149,14.7402133 C32.9255851,14.7402133 33.3418085,15.0906133 33.3418085,15.77488 C33.3418085,15.9415467 33.3585638,16.0751467 33.2918085,16.45888 L33.1088298,17.7106133 L33.0755851,17.9274133 L33.0423404,18.11088 L33.0255851,18.22768 L33.0255851,18.3279467 Z M32.2931383,16.7594133 C32.1934043,16.7594133 32.1766489,16.7426133 32.1101596,16.7426133 C31.5942021,16.7426133 31.3279787,16.94288 31.3279787,17.27648 C31.3279787,17.5103467 31.4612234,17.64368 31.6609574,17.64368 C32.1101596,17.64368 32.2766489,17.27648 32.2931383,16.7594133 Z" id="Fill-26" fill="#0C2E5B"></path>
                    <path d="M20.4266223,15.57448 C20.6096011,15.57448 20.8593351,15.59128 21.1255585,15.6246133 L21.2588032,14.8067467 C20.9925798,14.7734133 20.6431117,14.74008 20.4266223,14.74008 C19.4114628,14.74008 19.0619947,15.2907467 19.0619947,15.94168 C19.0619947,16.3587467 19.2614628,16.6758133 19.7441755,16.89288 C20.1271543,17.0763467 20.1936436,17.10968 20.1936436,17.26008 C20.1936436,17.47688 19.9939096,17.61048 19.6276862,17.61048 C19.3614628,17.61048 19.1117287,17.5603467 18.8122606,17.47688 L18.7122606,18.2779467 L18.729016,18.2779467 L18.8955053,18.31128 C18.9455053,18.32808 19.028484,18.3446133 19.128484,18.3446133 C19.3614628,18.3779467 19.5444415,18.3779467 19.6609309,18.3779467 C20.6763564,18.3779467 21.1090691,17.9942133 21.1090691,17.2099467 C21.1090691,16.7259467 20.8760904,16.4422133 20.410133,16.2419467 C20.0271543,16.05848 19.9771543,16.04168 19.9771543,15.8747467 C19.9771543,15.70808 20.1436436,15.57448 20.4266223,15.57448" id="Fill-28" fill="#0C2E5B"></path>
                    <path d="M31.0949734,13.8723733 L30.9452394,14.8067733 C30.6122606,14.6401067 30.3792819,14.5731733 30.1295479,14.5731733 C29.4306117,14.5731733 28.9478989,15.24064 28.9478989,16.19184 C28.9478989,16.8427733 29.2808777,17.2433067 29.8133245,17.2433067 C30.0463032,17.2433067 30.2960372,17.17664 30.5957713,17.02624 L30.4292819,18.01104 C30.0963032,18.09424 29.8800798,18.12784 29.6138564,18.12784 C28.6316755,18.12784 28.015984,17.4267733 28.015984,16.2753067 C28.015984,14.7233067 28.8646543,13.6553067 30.0798138,13.6553067 C30.2460372,13.6553067 30.3792819,13.6721067 30.4957713,13.6889067 L30.878484,13.7889067 C30.9949734,13.83904 31.0117287,13.83904 31.0949734,13.8723733" id="Fill-30" fill="#FFFFFF"></path>
                    <path d="M28.1490957,14.5231733 C28.1158511,14.5063733 28.0826064,14.5063733 28.0490957,14.5063733 C27.7496277,14.5063733 27.5831383,14.6567733 27.3004255,15.07384 L27.3834043,14.5399733 L26.534734,14.5399733 L25.9855319,18.06104 L26.9009574,18.06104 C27.2336702,15.90824 27.3169149,15.54104 27.766383,15.54104 L27.8328723,15.54104 C27.916117,15.1239733 28.0158511,14.8069067 28.1823404,14.5231733 L28.1490957,14.5231733 Z" id="Fill-32" fill="#FFFFFF"></path>
                    <path d="M22.8398936,18.0109067 C22.5901596,18.0943733 22.3904255,18.1277067 22.1742021,18.1277067 C21.7082447,18.1277067 21.4417553,17.8607733 21.4417553,17.3599733 C21.4417553,17.2599733 21.4585106,17.1597067 21.475266,17.0429067 L21.525,16.6925067 L21.575,16.4255733 L21.9744681,14.02264 L22.8898936,14.02264 L22.7898936,14.5399733 L23.2558511,14.5399733 L23.1228723,15.4077067 L22.6569149,15.4077067 L22.4071809,16.85944 C22.4071809,16.9261067 22.3904255,16.97624 22.3904255,17.0095733 C22.3904255,17.1933067 22.4904255,17.2765067 22.7066489,17.2765067 C22.8231383,17.2765067 22.8898936,17.2599733 22.956383,17.2431733 L22.8398936,18.0109067 Z" id="Fill-34" fill="#FFFFFF"></path>
                    <path d="M19.294867,15.6579467 C19.294867,16.0918133 19.5113564,16.40888 19.9938032,16.62568 C20.3767819,16.8094133 20.426516,16.8595467 20.426516,17.0262133 C20.426516,17.24328 20.2602926,17.34328 19.8940691,17.34328 C19.6278457,17.34328 19.3781117,17.2934133 19.0783777,17.1931467 L18.9453989,18.0110133 L18.9953989,18.0110133 L19.1616223,18.0443467 C19.2116223,18.06088 19.294867,18.07768 19.394867,18.07768 C19.6110904,18.0942133 19.7940691,18.1110133 19.9105585,18.1110133 C20.875984,18.1110133 21.3254521,17.7438133 21.3254521,16.9430133 C21.3254521,16.4590133 21.1422074,16.17528 20.67625,15.9582133 C20.2935372,15.7915467 20.2435372,15.7414133 20.2435372,15.59128 C20.2435372,15.3910133 20.3932713,15.2907467 20.6930053,15.2907467 C20.875984,15.2907467 21.1257181,15.32408 21.3586968,15.35768 L21.4916755,14.5398133 C21.2586968,14.50648 20.8927394,14.4731467 20.67625,14.4731467 C19.6443351,14.4731467 19.294867,15.0070133 19.294867,15.6579467" id="Fill-36" fill="#FFFFFF"></path>
                    <path d="M36.7703191,17.2265867 C37.2030319,17.2265867 37.5025,16.7425867 37.5025,16.0417867 C37.5025,15.60792 37.3362766,15.35752 37.0200532,15.35752 C36.6038298,15.35752 36.3043617,15.84152 36.3043617,16.54232 C36.3043617,16.9929867 36.4540957,17.2265867 36.7703191,17.2265867 Z M38.1349468,18.0609867 L37.2530319,18.0609867 L37.302766,17.7105867 C37.0532979,17.97752 36.7868085,18.09432 36.4540957,18.09432 C35.7884043,18.09432 35.3389362,17.5268533 35.3389362,16.6425867 C35.3389362,15.47432 36.021383,14.4897867 36.8368085,14.4897867 C37.2030319,14.4897867 37.4692553,14.63992 37.7189894,14.9737867 L37.9187234,13.7388533 L38.8341489,13.7388533 L38.1349468,18.0609867 Z" id="Fill-38" fill="#FFFFFF"></path>
                    <path d="M25.1366489,15.8915733 L25.1366489,15.7081067 C25.1366489,15.4243733 24.9869149,15.25744 24.7039362,15.25744 C24.4209574,15.25744 24.204734,15.49104 24.1214894,15.8915733 L25.1366489,15.8915733 Z M25.6526064,17.97744 C25.336383,18.0777067 25.0369149,18.12784 24.7039362,18.12784 C23.6720213,18.12784 23.1395745,17.5769067 23.1395745,16.55904 C23.1395745,15.3409067 23.8217553,14.4563733 24.7539362,14.4563733 C25.5028723,14.4563733 25.9855851,14.9571733 25.9855851,15.74144 C25.9855851,15.9915733 25.9520745,16.2419733 25.8855851,16.6091733 L24.055,16.6091733 C24.0382447,16.6593067 24.0382447,16.67584 24.0382447,16.7091733 C24.0382447,17.1097067 24.3044681,17.3267733 24.8536702,17.3267733 C25.1698936,17.3267733 25.4696277,17.25984 25.8023404,17.1097067 L25.6526064,17.97744 Z" id="Fill-40" fill="#FFFFFF"></path>
                    <polygon id="Fill-42" fill="#FFFFFF" points="15.7998138 18.06096 14.8843883 18.06096 15.4171011 14.74016 14.2351862 18.06096 13.6030053 18.06096 13.53625 14.7566933 12.9705585 18.06096 12.1216223 18.06096 12.8373138 13.7388267 14.1522074 13.7388267 14.2019415 16.40896 15.0841223 13.7388267 16.5155053 13.7388267"></polygon>
                    <path d="M18.7456649,18.06096 L17.9799734,18.06096 L17.9967287,17.69376 C17.76375,17.9774933 17.464016,18.1110933 17.0313032,18.1110933 C16.5321011,18.1110933 16.1991223,17.7270933 16.1991223,17.1598933 C16.1991223,16.3086933 16.7818351,15.80816 17.81375,15.80816 C17.913484,15.80816 18.0467287,15.80816 18.1797074,15.8246933 C18.2132181,15.7246933 18.2132181,15.67456 18.2132181,15.6078933 C18.2132181,15.3742933 18.0632181,15.2908267 17.6305053,15.2908267 C17.3642819,15.2908267 17.0645479,15.32416 16.8650798,15.3908267 L16.7318351,15.4244267 L16.6485904,15.44096 L16.7818351,14.6566933 C17.2477926,14.5230933 17.5472606,14.47296 17.8802394,14.47296 C18.6791755,14.47296 19.095133,14.8236267 19.095133,15.4910933 C19.095133,15.67456 19.0783777,15.80816 19.0118883,16.1918933 L18.8289096,17.4436267 L18.7956649,17.6604267 L18.7789096,17.8438933 L18.7624202,17.9606933 L18.7456649,18.06096 Z M18.0799734,16.4924267 C17.9799734,16.4756267 17.9302394,16.4756267 17.863484,16.4756267 C17.3475266,16.4756267 17.0813032,16.6590933 17.0813032,17.0094933 C17.0813032,17.22656 17.2145479,17.3766933 17.4142819,17.3766933 C17.7969947,17.3766933 18.0632181,17.0094933 18.0799734,16.4924267 Z" id="Fill-44" fill="#FFFFFF"></path>
                    <path d="M33.2585904,18.06096 L32.4928989,18.06096 L32.5096543,17.69376 C32.2766755,17.9774933 31.9604521,18.1110933 31.5442287,18.1110933 C31.0450266,18.1110933 30.6955585,17.7270933 30.6955585,17.1598933 C30.6955585,16.3086933 31.2947606,15.80816 32.3264096,15.80816 C32.4264096,15.80816 32.5596543,15.80816 32.692633,15.8246933 C32.7258777,15.7246933 32.7258777,15.67456 32.7258777,15.6078933 C32.7258777,15.3742933 32.5761436,15.2908267 32.1434309,15.2908267 C31.8772074,15.2908267 31.5777394,15.32416 31.3780053,15.3908267 L31.2447606,15.4244267 L31.161516,15.44096 L31.2947606,14.6566933 C31.7607181,14.5230933 32.0601862,14.47296 32.3931649,14.47296 C33.1921011,14.47296 33.6080585,14.8236267 33.6080585,15.4910933 C33.6080585,15.67456 33.5915691,15.80816 33.5248138,16.1918933 L33.3418351,17.4436267 L33.3085904,17.6604267 L33.2750798,17.8438933 L33.2585904,17.9606933 L33.2585904,18.06096 Z M32.5928989,16.4924267 C32.4928989,16.4756267 32.4431649,16.4756267 32.3764096,16.4756267 C31.8604521,16.4756267 31.5942287,16.6590933 31.5942287,17.0094933 C31.5942287,17.22656 31.7274734,17.3766933 31.9272074,17.3766933 C32.2931649,17.3766933 32.5761436,17.0094933 32.5928989,16.4924267 Z" id="Fill-46" fill="#FFFFFF"></path>
                    <path d="M35.7217819,14.5231733 C35.7052926,14.5063733 35.6717819,14.5063733 35.6385372,14.5063733 C35.3390691,14.5063733 35.1558245,14.6567733 34.8731117,15.07384 L34.9560904,14.5399733 L34.1241755,14.5399733 L33.5582181,18.06104 L34.490133,18.06104 C34.8063564,15.90824 34.9063564,15.54104 35.3390691,15.54104 L35.4055585,15.54104 C35.4888032,15.1239733 35.6052926,14.8069067 35.7550266,14.5231733 L35.7217819,14.5231733 Z" id="Fill-48" fill="#FFFFFF"></path>
                </g>
            </g>
        </g>
    </g>
</svg>