<?xml version="1.0" encoding="UTF-8"?>
<svg width="71px" height="869px" viewBox="0 0 71 869" version="1.1" xmlns="http://www.w3.org/2000/svg" xmlns:xlink="http://www.w3.org/1999/xlink">
    <!-- Generator: Sketch 51 (57462) - http://www.bohemiancoding.com/sketch -->
    <title>Group 6 Copy</title>
    <desc>Created with Sketch.</desc>
    <defs>
        <polygon id="path-1" points="0 0 22 0 22 22 0 22"></polygon>
        <polygon id="path-3" points="0 0 22 0 22 22 0 22"></polygon>
        <polygon id="path-5" points="0 -3.55271368e-15 17 -3.55271368e-15 17 17.0001558 0 17.0001558"></polygon>
        <polygon id="path-7" points="0 -3.55271368e-15 22 -3.55271368e-15 22 22.0002016 0 22.0002016"></polygon>
    </defs>
    <g id="Page-1" stroke="none" stroke-width="1" fill="none" fill-rule="evenodd">
        <g id="Tunnel-de-commande_design@2x" transform="translate(-1347.000000, -396.000000)">
            <g id="Group-6-Copy" transform="translate(1347.000000, 396.000000)">
                <g transform="translate(38.000000, 0.000000)" id="Page-1">
                    <g>
                        <mask id="mask-2" fill="white">
                            <use xlink:href="#path-1"></use>
                        </mask>
                        <g id="Clip-2"></g>
                        <path d="M10.9994959,4.43629698 C7.38004674,4.43629698 4.43609367,7.38038497 4.43609367,11 C4.43609367,14.619615 7.38004674,17.563703 10.9994959,17.563703 C14.6189451,17.563703 17.5628981,14.619615 17.5628981,11 C17.5628981,7.38038497 14.6189451,4.43629698 10.9994959,4.43629698 M10.9994959,22 C4.93414601,22 0,17.0656279 0,11 C0,4.93437214 4.93414601,0 10.9994959,0 C17.0648458,0 22,4.93437214 22,11 C22,17.0656279 17.0648458,22 10.9994959,22" id="Fill-1" fill="#6B6BED" mask="url(#mask-2)"></path>
                    </g>
                </g>
                <g id="Group-6-Copy-2" transform="translate(49.000000, 655.000000)">
                    <g id="Page-1">
                        <mask id="mask-4" fill="white">
                            <use xlink:href="#path-3"></use>
                        </mask>
                        <g id="Clip-2"></g>
                        <path d="M10.9994959,4.43629698 C7.38004674,4.43629698 4.43609367,7.38038497 4.43609367,11 C4.43609367,14.619615 7.38004674,17.563703 10.9994959,17.563703 C14.6189451,17.563703 17.5628981,14.619615 17.5628981,11 C17.5628981,7.38038497 14.6189451,4.43629698 10.9994959,4.43629698 M10.9994959,22 C4.93414601,22 0,17.0656279 0,11 C0,4.93437214 4.93414601,0 10.9994959,0 C17.0648458,0 22,4.93437214 22,11 C22,17.0656279 17.0648458,22 10.9994959,22" id="Fill-1" fill="#00E4A7" mask="url(#mask-4)"></path>
                    </g>
                </g>
                <g id="Page-1-Copy" transform="translate(0.000000, 417.000000)">
                    <mask id="mask-6" fill="white">
                        <use xlink:href="#path-5"></use>
                    </mask>
                    <g id="Clip-2"></g>
                    <path d="M13.4767758,5.98262626 L9.00526061,5.98262626 L9.00526061,1.51111111 C9.00526061,0.676565657 8.32800808,-3.55271368e-15 7.49414949,-3.55271368e-15 C6.65960404,-3.55271368e-15 5.98235152,0.676565657 5.98235152,1.51111111 L5.98235152,5.98262626 L1.51152323,5.98262626 C0.676977778,5.98262626 -0.000274747475,6.65919192 -0.000274747475,7.49373737 C-0.000274747475,8.32828283 0.676977778,9.00484848 1.51152323,9.00484848 L5.98235152,9.00484848 L5.98235152,13.4770505 C5.98235152,14.3109091 6.65960404,14.9881616 7.49414949,14.9881616 C8.32800808,14.9881616 9.00526061,14.3109091 9.00526061,13.4770505 L9.00526061,9.00484848 L13.4767758,9.00484848 C14.3113212,9.00484848 14.9878869,8.32828283 14.9878869,7.49373737 C14.9878869,6.65919192 14.3113212,5.98262626 13.4767758,5.98262626" id="Fill-1" fill="#17E0AB" mask="url(#mask-6)"></path>
                </g>
                <g id="Page-1-Copy-3" transform="translate(19.000000, 849.000000)">
                    <mask id="mask-8" fill="white">
                        <use xlink:href="#path-7"></use>
                    </mask>
                    <g id="Clip-2"></g>
                    <path d="M17.4405333,7.74222222 L11.6538667,7.74222222 L11.6538667,1.95555556 C11.6538667,0.875555556 10.7774222,-3.55271368e-15 9.69831111,-3.55271368e-15 C8.61831111,-3.55271368e-15 7.74186667,0.875555556 7.74186667,1.95555556 L7.74186667,7.74222222 L1.95608889,7.74222222 C0.876088889,7.74222222 -0.000355555556,8.61777778 -0.000355555556,9.69777778 C-0.000355555556,10.7777778 0.876088889,11.6533333 1.95608889,11.6533333 L7.74186667,11.6533333 L7.74186667,17.4408889 C7.74186667,18.52 8.61831111,19.3964444 9.69831111,19.3964444 C10.7774222,19.3964444 11.6538667,18.52 11.6538667,17.4408889 L11.6538667,11.6533333 L17.4405333,11.6533333 C18.5205333,11.6533333 19.3960889,10.7777778 19.3960889,9.69777778 C19.3960889,8.61777778 18.5205333,7.74222222 17.4405333,7.74222222" id="Fill-1" fill="#17E0AB" mask="url(#mask-8)"></path>
                </g>
            </g>
        </g>
    </g>
</svg>