<?xml version="1.0" encoding="UTF-8"?>
<svg width="105px" height="76px" viewBox="0 0 105 76" version="1.1" xmlns="http://www.w3.org/2000/svg" xmlns:xlink="http://www.w3.org/1999/xlink">
    <!-- Generator: Sketch 50.2 (55047) - http://www.bohemiancoding.com/sketch -->
    <title>icon-menu-mobile</title>
    <desc>Created with Sketch.</desc>
    <defs>
        <polygon id="path-1" points="0.197673613 0.792951994 64.1668778 0.792951994 64.1668778 16.7924145 0.197673613 16.7924145"></polygon>
        <polygon id="path-3" points="0 34.602554 73.6691403 34.602554 73.6691403 0.000484215922 0 0.000484215922"></polygon>
    </defs>
    <g id="Page-1" stroke="none" stroke-width="1" fill="none" fill-rule="evenodd">
        <g id="Homepage---PlusDePoint---responsive-Copy" transform="translate(-130.000000, -58.000000)">
            <g id="icon-menu-mobile" transform="translate(130.000000, 58.000000)">
                <ellipse id="Oval-6" fill="#FFFFFF" cx="37" cy="38" rx="37" ry="38"></ellipse>
                <g id="Page-1-Copy-2" stroke-width="1" transform="translate(30.882353, 21.402344)">
                    <path d="M72.8298054,26.3645885 L70.6708914,19.9835911 C68.3295339,19.9312958 63.4843303,19.1642978 62.2594887,13.896997 L17.6625204,13.896997 C16.0908462,18.3333832 13.4036063,19.1420238 11.7378597,19.1720452 L10.4816606,26.5979806 C10.3267738,27.5112118 11.0175882,28.3469685 11.9269548,28.3469685 L17.795552,28.3469685 C17.8392624,25.4039041 20.1920226,23.0312461 23.0902127,23.0312461 C25.9884027,23.0312461 28.3411629,25.4039041 28.3848733,28.3469685 L49.3012534,28.3469685 C49.3449638,25.4039041 51.697724,23.0312461 54.595914,23.0312461 C57.4931538,23.0312461 59.8468643,25.4039041 59.8905747,28.3469685 L71.4434253,28.3469685 C72.4506652,28.3469685 73.1585837,27.3349572 72.8298054,26.3645885" id="Fill-1" fill="#17E0AB"></path>
                    <g id="Group-5" transform="translate(9.502262, 12.328622)">
                        <mask id="mask-2" fill="white">
                            <use xlink:href="#path-1"></use>
                        </mask>
                        <g id="Clip-4"></g>
                        <path d="M61.9409729,16.7924145 L50.3083032,16.7924145 L50.3083032,15.2429235 L61.9409729,15.2429235 C62.1718778,15.2429235 62.3818778,15.1325223 62.5158597,14.9417412 C62.6507919,14.7499917 62.6840498,14.5117575 62.6089819,14.2880497 L60.4358145,7.86540975 C59.3183484,4.56208873 56.263371,2.34244294 52.8349548,2.34244294 L8.06979638,2.34244294 C5.57735294,2.34244294 3.4611991,4.15922108 3.03739819,6.6626174 L1.72893665,14.4003878 C1.68047511,14.6880121 1.80495475,14.8913828 1.88477376,14.9872575 C1.96364253,15.0821639 2.13848416,15.2429235 2.42450226,15.2429235 L8.34346154,15.2429235 L8.34346154,16.7924145 L2.42450226,16.7924145 C1.76599548,16.7924145 1.14644796,16.4980112 0.721696833,15.9857108 C0.296945701,15.4724419 0.118303167,14.7984133 0.230429864,14.1379428 L1.5388914,6.40017237 C2.0890724,3.15108353 4.83522624,0.792951994 8.06979638,0.792951994 L52.8349548,0.792951994 C56.9123756,0.792951994 60.5441403,3.43192877 61.8735068,7.36085676 L64.045724,13.7834967 C64.2804299,14.4749571 64.1711538,15.2448604 63.7540045,15.8414144 C63.3368552,16.437 62.6593439,16.7924145 61.9409729,16.7924145" id="Fill-3" fill="#22232B" mask="url(#mask-2)"></path>
                    </g>
                    <mask id="mask-4" fill="white">
                        <use xlink:href="#path-3"></use>
                    </mask>
                    <g id="Clip-7"></g>
                    <polygon id="Fill-6" fill="#36363C" mask="url(#mask-4)" points="28.3842081 28.9701544 49.2986878 28.9701544 49.2986878 27.7237826 28.3842081 27.7237826"></polygon>
                    <path d="M54.595819,23.8060884 C52.0948235,23.8060884 50.0594389,25.8804694 50.0594389,28.4293821 C50.0594389,30.9792631 52.0948235,33.0536441 54.595819,33.0536441 C57.0968145,33.0536441 59.1321991,30.9792631 59.1321991,28.4293821 C59.1321991,25.8804694 57.0968145,23.8060884 54.595819,23.8060884 M54.595819,34.6021666 C51.2557738,34.6021666 48.5390769,31.83342 48.5390769,28.4293821 C48.5390769,25.0263126 51.2557738,22.2565975 54.595819,22.2565975 C57.9358643,22.2565975 60.6525611,25.0263126 60.6525611,28.4293821 C60.6525611,31.83342 57.9358643,34.6021666 54.595819,34.6021666" id="Fill-8" fill="#22232B" mask="url(#mask-4)"></path>
                    <path d="M54.595819,31.5799814 C52.8911131,31.5799814 51.504733,30.1670393 51.504733,28.4296726 L53.025095,28.4296726 C53.025095,29.311914 53.7292127,30.0304904 54.595819,30.0304904 C55.4624253,30.0304904 56.166543,29.311914 56.166543,28.4296726 C56.166543,28.089753 56.0639186,27.7662968 55.8700724,27.493199 L57.1006154,26.5838415 C57.4845068,27.1222896 57.686905,27.7614546 57.686905,28.4296726 C57.686905,30.1670393 56.3005249,31.5799814 54.595819,31.5799814" id="Fill-9" fill="#22232B" mask="url(#mask-4)"></path>
                    <path d="M53.6367557,27.1615111 L52.7064842,25.9354764 C53.251914,25.5064611 53.9056697,25.279848 54.5955339,25.279848 L54.5955339,26.8283705 C54.2449005,26.8283705 53.9132715,26.9436139 53.6367557,27.1615111" id="Fill-10" fill="#22232B" mask="url(#mask-4)"></path>
                    <path d="M23.0903077,23.6547225 C20.5066425,23.6547225 18.4047421,25.7968938 18.4047421,28.43006 C18.4047421,31.0622577 20.5066425,33.2044289 23.0903077,33.2044289 C25.6739729,33.2044289 27.7758733,31.0622577 27.7758733,28.43006 C27.7758733,25.7968938 25.6739729,23.6547225 23.0903077,23.6547225 M23.0903077,34.4508007 C19.8329321,34.4508007 17.1827511,31.7498443 17.1827511,28.43006 C17.1827511,25.1093072 19.8329321,22.4083507 23.0903077,22.4083507 C26.3476833,22.4083507 28.9978643,25.1093072 28.9978643,28.43006 C28.9978643,31.7498443 26.3476833,34.4508007 23.0903077,34.4508007" id="Fill-11" fill="#36363C" mask="url(#mask-4)"></path>
                    <path d="M20.4047783,29.9902037 C20.1396652,29.5176089 19.9990317,28.9781924 19.9990317,28.43006 C19.9990317,26.6926932 21.3854118,25.2797512 23.0901176,25.2797512 C24.7948235,25.2797512 26.1812036,26.6926932 26.1812036,28.43006 L24.6608416,28.43006 C24.6608416,27.5478185 23.956724,26.8282737 23.0901176,26.8282737 C22.2244615,26.8282737 21.5193937,27.5478185 21.5193937,28.43006 C21.5193937,28.7089683 21.5906606,28.9820661 21.7246425,29.2203003 L20.4047783,29.9902037 Z" id="Fill-12" fill="#22232B" mask="url(#mask-4)"></path>
                    <path d="M23.0903077,31.5799814 C22.6731584,31.5799814 22.268362,31.4966962 21.886371,31.3330313 L22.478362,29.9055627 C22.6712579,29.9878794 22.877457,30.0304904 23.0903077,30.0304904 L23.0903077,31.5799814 Z" id="Fill-13" fill="#22232B" mask="url(#mask-4)"></path>
                    <path d="M18.6741312,13.1220578 L50.8430905,13.1220578 L46.2668009,4.93299813 C45.0999231,2.8460275 42.911552,1.54929726 40.554991,1.54929726 L27.5216878,1.54929726 C24.8087919,1.54929726 22.3391538,3.28666399 21.3756244,5.87140858 L18.6741312,13.1220578 Z M53.4590633,14.6715487 L16.4705566,14.6715487 L19.954086,5.32037086 C21.1399683,2.13810382 24.1806923,-0.000193686369 27.5216878,-0.000193686369 L40.554991,-0.000193686369 C43.4569819,-0.000193686369 46.1518235,1.59675042 47.5876154,4.16696854 L53.4590633,14.6715487 Z" id="Fill-14" fill="#22232B" mask="url(#mask-4)"></path>
                    <polygon id="Fill-15" fill="#22232B" mask="url(#mask-4)" points="32.1604072 20.8721273 33.6807692 20.8721273 33.6807692 0.774261259 32.1604072 0.774261259"></polygon>
                    <polygon id="Fill-16" fill="#22232B" mask="url(#mask-4)" points="32.1604072 24.443704 33.6807692 24.443704 33.6807692 22.2850694 32.1604072 22.2850694"></polygon>
                    <path d="M12.6146335,19.7649192 C11.9941357,19.7649192 11.5817376,19.6090017 11.5085701,19.5799487 L12.0616018,18.1360168 C12.1737285,18.176691 14.82581,19.0860485 16.8611946,13.6211876 L18.282733,14.1722253 C17.2650407,16.9032031 15.9157195,18.6609069 14.2708778,19.3978835 C13.6408778,19.6796972 13.0716923,19.7649192 12.6146335,19.7649192" id="Fill-17" fill="#22232B" mask="url(#mask-4)"></path>
                    <path d="M70.6568281,20.7163066 C68.2765113,20.7163066 66.2857873,20.1720479 64.7416697,19.0951517 L65.599724,17.8168217 C66.8863303,18.7126211 68.5881855,19.1668157 70.6568281,19.1668157 L70.6568281,20.7163066 Z" id="Fill-18" fill="#22232B" mask="url(#mask-4)"></path>
                    <path d="M62.2430498,16.1493757 C61.6805158,14.9736995 61.5835928,14.0110782 61.5797919,13.9704041 L63.0935023,13.8193287 C63.0944525,13.8270762 63.1742715,14.5611475 63.6085249,15.4685682 L62.2430498,16.1493757 Z" id="Fill-19" fill="#22232B" mask="url(#mask-4)"></path>
                    <polygon id="Fill-20" fill="#22232B" mask="url(#mask-4)" points="37.1576471 17.693734 40.7428507 17.693734 40.7428507 16.1442431 37.1576471 16.1442431"></polygon>
                    <polygon id="Fill-21" fill="#22232B" mask="url(#mask-4)" points="47.67 34.602554 58.8684163 34.602554 58.8684163 33.053063 47.67 33.053063"></polygon>
                    <polygon id="Fill-22" fill="#22232B" mask="url(#mask-4)" points="60.6263348 34.602554 62.8261086 34.602554 62.8261086 33.053063 60.6263348 33.053063"></polygon>
                    <polygon id="Fill-23" fill="#22232B" mask="url(#mask-4)" points="45.9253846 34.602554 46.9031674 34.602554 46.9031674 33.053063 45.9253846 33.053063"></polygon>
                    <polygon id="Fill-24" fill="#22232B" mask="url(#mask-4)" points="38.929819 34.602554 44.3080995 34.602554 44.3080995 33.053063 38.929819 33.053063"></polygon>
                    <polygon id="Fill-25" fill="#22232B" mask="url(#mask-4)" points="29.6204525 34.602554 31.8202262 34.602554 31.8202262 33.053063 29.6204525 33.053063"></polygon>
                    <polygon id="Fill-26" fill="#22232B" mask="url(#mask-4)" points="0 34.602554 3.17755656 34.602554 3.17755656 33.053063 0 33.053063"></polygon>
                    <polygon id="Fill-27" fill="#22232B" mask="url(#mask-4)" points="5.54076923 34.602554 27.6211765 34.602554 27.6211765 33.053063 5.54076923 33.053063"></polygon>
                </g>
            </g>
        </g>
    </g>
</svg>