<?xml version="1.0" encoding="UTF-8"?>
<svg width="380px" height="477px" viewBox="0 0 380 477" version="1.1" xmlns="http://www.w3.org/2000/svg" xmlns:xlink="http://www.w3.org/1999/xlink">
    <!-- Generator: Sketch 51 (57462) - http://www.bohemiancoding.com/sketch -->
    <title>Rectangle 24</title>
    <desc>Created with Sketch.</desc>
    <defs>
        <polygon id="path-1" points="0.000136363636 0.000272727273 14.8779545 0.000272727273 14.8779545 14.8775455 0.000136363636 14.8775455"></polygon>
        <polygon id="path-3" points="0 -3.55271368e-15 9.91845455 -3.55271368e-15 9.91845455 9.91854545 0 9.91854545"></polygon>
        <polygon id="path-5" points="0.000154545455 0.000309090909 16.8616818 0.000309090909 16.8616818 16.8612182 0.000154545455 16.8612182"></polygon>
        <polygon id="path-7" points="0 -3.55271368e-15 10.9103 -3.55271368e-15 10.9103 10.9104 0 10.9104"></polygon>
        <polygon id="path-9" points="0.000109090909 0.000218181818 11.9023636 0.000218181818 11.9023636 11.9020364 0.000109090909 11.9020364"></polygon>
    </defs>
    <g id="Page-1" stroke="none" stroke-width="1" fill="none" fill-rule="evenodd">
        <g id="MO---connexion_design" transform="translate(-530.000000, -246.000000)">
            <g id="Group" transform="translate(530.000000, 246.000000)">
                <g id="Rectangle-24">
                    <rect fill="#FFFFFF" x="0" y="0" width="380" height="477"></rect>
                    <g id="Page-1" stroke-width="1" transform="translate(345.000000, 67.000000)">
                        <mask id="mask-2" fill="white">
                            <use xlink:href="#path-1"></use>
                        </mask>
                        <g id="Clip-2"></g>
                        <path d="M7.43877273,3.00027273 C4.99104545,3.00027273 3.00013636,4.99118182 3.00013636,7.43890909 C3.00013636,9.88663636 4.99104545,11.8775455 7.43877273,11.8775455 C9.8865,11.8775455 11.8774091,9.88663636 11.8774091,7.43890909 C11.8774091,4.99118182 9.8865,3.00027273 7.43877273,3.00027273 M7.43877273,14.8775455 C3.33695455,14.8775455 0.000136363636,11.5407273 0.000136363636,7.43890909 C0.000136363636,3.33709091 3.33695455,0.000272727273 7.43877273,0.000272727273 C11.5405909,0.000272727273 14.8780909,3.33709091 14.8780909,7.43890909 C14.8780909,11.5407273 11.5405909,14.8775455 7.43877273,14.8775455" id="Fill-1" fill="#6B6BED" mask="url(#mask-2)"></path>
                    </g>
                    <g id="Page-1" stroke-width="1" transform="translate(319.000000, 41.000000)">
                        <mask id="mask-4" fill="white">
                            <use xlink:href="#path-3"></use>
                        </mask>
                        <g id="Clip-2"></g>
                        <path d="M8.91845455,3.95909091 L5.95936364,3.95909091 L5.95936364,1 C5.95936364,0.447727273 5.51118182,-3.55271368e-15 4.95936364,-3.55271368e-15 C4.40709091,-3.55271368e-15 3.95890909,0.447727273 3.95890909,1 L3.95890909,3.95909091 L1.00027273,3.95909091 C0.448,3.95909091 -0.000181818182,4.40681818 -0.000181818182,4.95909091 C-0.000181818182,5.51136364 0.448,5.95909091 1.00027273,5.95909091 L3.95890909,5.95909091 L3.95890909,8.91863636 C3.95890909,9.47045455 4.40709091,9.91863636 4.95936364,9.91863636 C5.51118182,9.91863636 5.95936364,9.47045455 5.95936364,8.91863636 L5.95936364,5.95909091 L8.91845455,5.95909091 C9.47072727,5.95909091 9.91845455,5.51136364 9.91845455,4.95909091 C9.91845455,4.40681818 9.47072727,3.95909091 8.91845455,3.95909091" id="Fill-1" fill="#17E0AB" mask="url(#mask-4)"></path>
                    </g>
                    <g id="Page-1-Copy-8" stroke-width="1" transform="translate(29.000000, 385.000000)">
                        <mask id="mask-6" fill="white">
                            <use xlink:href="#path-5"></use>
                        </mask>
                        <g id="Clip-2"></g>
                        <path d="M8.43060909,3.40030909 C5.65651818,3.40030909 3.40015455,5.65667273 3.40015455,8.43076364 C3.40015455,11.2048545 5.65651818,13.4612182 8.43060909,13.4612182 C11.2047,13.4612182 13.4610636,11.2048545 13.4610636,8.43076364 C13.4610636,5.65667273 11.2047,3.40030909 8.43060909,3.40030909 M8.43060909,16.8612182 C3.78188182,16.8612182 0.000154545455,13.0794909 0.000154545455,8.43076364 C0.000154545455,3.78203636 3.78188182,0.000309090909 8.43060909,0.000309090909 C13.0793364,0.000309090909 16.8618364,3.78203636 16.8618364,8.43076364 C16.8618364,13.0794909 13.0793364,16.8612182 8.43060909,16.8612182" id="Fill-1" fill="#6B6BED" mask="url(#mask-6)"></path>
                    </g>
                    <g id="Page-1" stroke-width="1" transform="translate(55.000000, 424.000000)">
                        <mask id="mask-8" fill="white">
                            <use xlink:href="#path-7"></use>
                        </mask>
                        <g id="Clip-2"></g>
                        <path d="M9.8103,4.355 L6.5553,4.355 L6.5553,1.1 C6.5553,0.4925 6.0623,-3.55271368e-15 5.4553,-3.55271368e-15 C4.8478,-3.55271368e-15 4.3548,0.4925 4.3548,1.1 L4.3548,4.355 L1.1003,4.355 C0.4928,4.355 -0.0002,4.8475 -0.0002,5.455 C-0.0002,6.0625 0.4928,6.555 1.1003,6.555 L4.3548,6.555 L4.3548,9.8105 C4.3548,10.4175 4.8478,10.9105 5.4553,10.9105 C6.0623,10.9105 6.5553,10.4175 6.5553,9.8105 L6.5553,6.555 L9.8103,6.555 C10.4178,6.555 10.9103,6.0625 10.9103,5.455 C10.9103,4.8475 10.4178,4.355 9.8103,4.355" id="Fill-1" fill="#17E0AB" mask="url(#mask-8)"></path>
                    </g>
                    <g id="Page-1" stroke-width="1" transform="translate(315.000000, 339.000000)">
                        <mask id="mask-10" fill="white">
                            <use xlink:href="#path-9"></use>
                        </mask>
                        <g id="Clip-2"></g>
                        <path d="M5.95101818,2.40021818 C3.99283636,2.40021818 2.40010909,3.99294545 2.40010909,5.95112727 C2.40010909,7.90930909 3.99283636,9.50203636 5.95101818,9.50203636 C7.9092,9.50203636 9.50192727,7.90930909 9.50192727,5.95112727 C9.50192727,3.99294545 7.9092,2.40021818 5.95101818,2.40021818 M5.95101818,11.9020364 C2.66956364,11.9020364 0.000109090909,9.23258182 0.000109090909,5.95112727 C0.000109090909,2.66967273 2.66956364,0.000218181818 5.95101818,0.000218181818 C9.23247273,0.000218181818 11.9024727,2.66967273 11.9024727,5.95112727 C11.9024727,9.23258182 9.23247273,11.9020364 5.95101818,11.9020364" id="Fill-1" fill="#17E0AB" mask="url(#mask-10)"></path>
                    </g>
                </g>
            </g>
        </g>
    </g>
</svg>