<?xml version="1.0" encoding="UTF-8"?>
<svg width="74px" height="42px" viewBox="0 0 74 42" version="1.1" xmlns="http://www.w3.org/2000/svg" xmlns:xlink="http://www.w3.org/1999/xlink">
    <!-- Generator: Sketch 50.2 (55047) - http://www.bohemiancoding.com/sketch -->
    <title>Fill 2</title>
    <desc>Created with Sketch.</desc>
    <defs></defs>
    <g id="Page-1" stroke="none" stroke-width="1" fill="none" fill-rule="evenodd">
        <g id="Homepage---PlusDePoint@2x" transform="translate(-1223.000000, -62.000000)">
            <g id="Page-1" transform="translate(1220.000000, 59.000000)">
                <g id="Fill-2" transform="translate(3.000000, 3.000000)">
                    <polygon fill="#1D297D" points="0.298969072 41.5360825 37 41.5360825 37 0.298969072 0.298969072 0.298969072"></polygon>
                    <polygon id="Fill-3" fill="#E43333" points="37 41.5360825 73.7010309 41.5360825 73.7010309 0.298969072 37 0.298969072"></polygon>
                    <path d="M26.5432577,24.2046186 C26.539134,24.2004948 26.5523299,24.2120412 26.5490309,24.2079175 L23.230268,21.3419381 C23.1172784,21.2446186 23.0438763,21.1093608 23.0240825,20.961732 L22.8030515,19.300701 C22.7816082,19.1423505 22.676866,19.0079175 22.5292371,18.9477113 L19.3416082,17.6644124 C19.3366598,17.6619381 19.3317113,17.6602887 19.3259381,17.6586392 L15.7844948,16.5749278 C15.5230515,16.4957526 15.4009897,16.1963711 15.5304742,15.9563711 L16.2859381,14.5633814 C16.4269691,14.3019381 16.3956289,13.9811134 16.2059381,13.7526598 L15.4339794,12.820701 C15.2945979,12.6524536 15.3762474,12.3976082 15.5865567,12.340701 L20.6323299,10.987299 C20.8632577,10.9254433 21.1090309,10.9897732 21.2789278,11.1571959 C21.6558351,11.5283299 22.3098557,12.2532784 22.5416082,12.5105979 C22.593567,12.5691546 22.6727423,12.5938969 22.7486186,12.5774021 C23.1428454,12.4883299 24.382433,12.2087423 25.0141856,12.0429691 C25.2269691,11.9868866 25.3581031,11.7749278 25.3127423,11.5596701 L24.5201649,7.78482474 C24.4550103,7.47554639 24.7049072,7.19018557 25.0207835,7.21410309 L27.2550103,7.38070103 C27.4628454,7.39637113 27.6492371,7.51265979 27.7531546,7.69245361 L28.2801649,8.5996701 C28.3816082,8.77534021 28.571299,8.88008247 28.7733608,8.87430928 L31.3597526,8.80008247 C31.582433,8.79348454 31.7745979,8.64008247 31.8298557,8.424 L32.3007835,6.57492784 C32.3354227,6.43802062 32.4352165,6.32668041 32.568,6.27719588 L35.9148041,5.02771134 C36.1482062,4.9411134 36.2867629,4.7011134 36.2455258,4.45616495 L35.8578969,2.13286598 C35.8183093,1.89616495 35.9436701,1.66193814 36.1622268,1.56296907 L38.7692371,0.382762887 C39.1016082,0.231835052 39.4933608,0.376164948 39.6492371,0.706886598 L40.3387216,2.17162887 C40.4508866,2.40915464 40.7576907,2.47430928 40.9564536,2.30358763 L41.3465567,1.96791753 C41.5115052,1.82523711 41.764701,1.86070103 41.8842887,2.04296907 L43.1997526,4.04956701 C43.2649072,4.14936082 43.3754227,4.20956701 43.4950103,4.20956701 L44.568,4.20956701 C44.7436701,4.20956701 44.9044948,4.30771134 44.9844948,4.46441237 L45.3383093,5.15884536 C45.4199588,5.3196701 45.5923299,5.41369072 45.7721237,5.39554639 L46.8038763,5.29245361 C46.9993402,5.27348454 47.1799588,5.39884536 47.2286186,5.58936082 L47.5354227,6.78358763 C47.5593402,6.87925773 47.6022268,6.96915464 47.6607835,7.04915464 L48.4310928,8.09987629 C48.5498557,8.26235052 48.7403711,8.35637113 48.9416082,8.35142268 L52.2570722,8.27142268 C52.4541856,8.26647423 52.6381031,8.37204124 52.7337732,8.54441237 L53.3803711,9.70812371 C53.4430515,9.81946392 53.5552165,9.89369072 53.6814021,9.9068866 L58.1622268,10.3753402 C58.5383093,10.4141031 58.7519175,10.8256495 58.568,11.1563711 L56.3692371,15.1085361 C56.2471753,15.3279175 56.1836701,15.5745155 56.1836701,15.8252371 L56.1836701,17.8854433 C56.1836701,18.2202887 55.8875876,18.478433 55.5552165,18.4330722 L53.9593402,18.2112165 C53.6459381,18.1683299 53.3416082,18.3390515 53.2162474,18.6293608 L51.9527423,21.5530722 C51.8504742,21.7889485 52.084701,22.0314227 52.324701,21.9365773 L53.0974845,21.6314227 C53.3069691,21.5489485 53.5428454,21.6644124 53.6055258,21.8804948 L54.244701,24.0825567 C54.3073814,24.2986392 54.2430515,24.5312165 54.0772784,24.6837938 L53.9469691,24.8042062 C53.8199588,24.9221443 53.7943918,25.1143093 53.8867629,25.2611134 L55.0364536,27.086268 C55.1964536,27.3411134 55.0793402,27.6792577 54.7948041,27.7798763 L53.6269691,28.1938969 C53.3836701,28.2804948 53.3341856,28.6021443 53.5395464,28.7580206 L54.251299,29.2974021 C54.4888247,29.4780206 54.6133608,29.7708041 54.5770722,30.0668866 L54.4038763,31.4936907 C54.3725361,31.7526598 54.5119175,32.0025567 54.7486186,32.1122474 L57.3861443,33.3303918 C57.6937732,33.4730722 57.7333608,33.8953402 57.4570722,34.0924536 L51.768,38.1576082 C51.5717113,38.2986392 51.3193402,38.3357526 51.0908866,38.2582268 L44.6249072,36.078433 C44.4393402,36.0157526 44.2348041,36.0446186 44.0748041,36.1576082 L41.9510928,37.6479175 C41.742433,37.7947216 41.6319175,38.0454433 41.665732,38.2986392 L41.9585155,40.4759588 C42.0030515,40.8066804 41.7630515,41.1068866 41.4306804,41.1365773 C40.1251134,41.2520412 37.1585155,41.5118351 36.9358351,41.5118351 C36.7123299,41.5118351 34.830268,40.318433 34.0170722,39.7963711 C33.8306804,39.6767835 33.5832577,39.7708041 33.5222268,39.9827629 L33.4669691,40.1765773 C33.4092371,40.3802887 33.1873814,40.4891546 32.9910928,40.4099794 L25.7358351,37.4903918 C25.4801649,37.3881237 25.3325361,37.1200825 25.3820206,36.8487423 L27.2970722,26.3844124 C27.339134,26.1477113 27.5214021,26.1996701 27.6715052,26.2813196 C27.684701,26.2887423 27.6987216,26.292866 27.7127423,26.2945155 C27.8042887,26.3077113 27.8636701,26.1971959 27.8125361,26.1196701 L26.5432577,24.2046186 Z" id="Fill-4" fill="#FFFFFF"></path>
                </g>
            </g>
        </g>
    </g>
</svg>