<?xml version="1.0" encoding="UTF-8"?>
<svg width="32px" height="20px" viewBox="0 0 32 20" version="1.1" xmlns="http://www.w3.org/2000/svg" xmlns:xlink="http://www.w3.org/1999/xlink">
    <!-- Generator: Sketch 51 (57462) - http://www.bohemiancoding.com/sketch -->
    <title>rayure</title>
    <desc>Created with Sketch.</desc>
    <defs>
        <polygon id="path-1" points="0.612109577 0.106666667 0.756837209 0.106666667 0.756837209 0.847185185 0.612109577 0.847185185"></polygon>
        <polygon id="path-3" points="0.251162791 0.607111111 0.756837209 0.607111111 0.756837209 1.34785185 0.251162791 1.34785185"></polygon>
        <polygon id="path-5" points="0.179051163 0.0264444444 0.923237209 0.0264444444 0.923237209 0.740740741 0.179051163 0.740740741"></polygon>
        <polygon id="path-7" points="0.420651792 0.637111111 27.4302602 0.637111111 27.4302602 17.7777778 0.420651792 17.7777778"></polygon>
    </defs>
    <g id="Page-1" stroke="none" stroke-width="1" fill="none" fill-rule="evenodd" opacity="0.800000012">
        <g id="résultat-de-recherche_design@2x" transform="translate(-825.000000, -402.000000)">
            <g id="Group-16-Copy" transform="translate(743.000000, 383.000000)">
                <g id="rayure" transform="translate(82.000000, 19.000000)">
                    <g id="Group-3" transform="translate(31.255814, -0.106815)">
                        <mask id="mask-2" fill="white">
                            <use xlink:href="#path-1"></use>
                        </mask>
                        <g id="Clip-2"></g>
                        <path d="M0.743739535,0.424962963 C0.804018605,0.423481481 0.638809302,0.159777778 0.618716279,0.106444444 C0.572576744,0.210148148 0.784669767,0.494592593 0.743739535,0.424962963" id="Fill-1" fill="#31E3B4" mask="url(#mask-2)"></path>
                    </g>
                    <g id="Group-6" transform="translate(31.255814, 0.633926)">
                        <mask id="mask-4" fill="white">
                            <use xlink:href="#path-3"></use>
                        </mask>
                        <g id="Clip-5"></g>
                        <polygon id="Fill-4" fill="#31E3B4" mask="url(#mask-4)" points="0.298046512 0.72637037 0.251162791 0.607111111 0.284651163 0.942666667"></polygon>
                    </g>
                    <g id="Group" transform="translate(0.000000, 0.740741)">
                        <path d="M30.8186791,1.00977778 C31.1409116,1.43718519 31.0434233,0.791259259 31.2637023,0.886074074 L31.3433302,0.980888889 L31.198214,0.574962963 C31.0717023,0.719407407 31.0010047,1.07940741 30.8186791,1.00977778" id="Fill-7" fill="#31E3B4"></path>
                        <path d="M29.880707,0.215703704 C30.0034977,0.383111111 29.880707,0.416444444 30.0027535,0.223111111 C29.9826605,0.207555556 29.9737302,0.197925926 29.9610791,0.186074074 C29.9469395,0.197185185 29.924614,0.208296296 29.880707,0.215703704" id="Fill-9" fill="#31E3B4"></path>
                        <path d="M29.9609302,0.185777778 C30.0308837,0.130962963 29.8277209,0.0613333333 29.9609302,0.185777778" id="Fill-11" fill="#31E3B4"></path>
                        <path d="M29.6612465,0.48162963 L29.6746419,0.265333333 C29.5957581,0.169777778 29.4915721,0.194222222 29.4826419,0.0986666667 C29.4268279,0.243851852 29.5064558,0.337925926 29.6612465,0.48162963" id="Fill-13" fill="#31E3B4"></path>
                        <path d="M29.7497302,0.872888889 L29.7653581,0.775851852 C29.7311256,0.736592593 29.7088,0.727703704 29.7497302,0.872888889" id="Fill-15" fill="#31E3B4"></path>
                        <path d="M29.7982512,0.571703704 L29.765507,0.776148148 C29.8205767,0.842814815 29.9046698,0.993185185 29.7878326,0.696148148 C29.8540651,0.839111111 29.8034605,0.694666667 29.7982512,0.571703704" id="Fill-17" fill="#31E3B4"></path>
                        <path d="M29.899907,0.608148148 C30.0122791,0.678518519 30.120186,0.702222222 30.1060465,0.918518519 C30.2653023,0.74962963 30.0591628,0.438518519 29.899907,0.608148148" id="Fill-19" fill="#31E3B4"></path>
                        <path d="M31.0432744,1.51074074 L31.1936,1.6062963 L31.1749953,1.41444444 C31.1839256,1.50925926 30.9591814,1.36777778 31.0432744,1.51074074" id="Fill-21" fill="#31E3B4"></path>
                        <path d="M28.8972651,0.582592593 C28.944893,0.684814815 29.0751256,0.827777778 29.1517767,0.950740741 L29.1644279,0.795925926 C29.0892651,0.749259259 28.9821023,0.726296296 28.8972651,0.582592593" id="Fill-23" fill="#31E3B4"></path>
                        <path d="M29.1516279,0.95037037 L29.1322791,1.18074074 C29.2431628,1.14666667 29.2171163,1.05555556 29.1516279,0.95037037" id="Fill-25" fill="#31E3B4"></path>
                        <polygon id="Fill-27" fill="#31E3B4" points="30.0127256 1.39859259 30.0030512 0.942296296 29.9799814 1.42303704"></polygon>
                        <polygon id="Fill-29" fill="#31E3B4" points="28.4617674 0.801703704 28.4007442 0.538740741 28.475907 0.945407407"></polygon>
                        <path d="M28.1991442,0.995333333 C28.142586,0.780518519 27.9595163,0.709407407 27.9461209,0.565703704 C27.8873302,0.641259259 27.9096558,0.839777778 27.930493,1.0182963 C27.9490977,0.902740741 28.0272372,0.887185185 28.1991442,0.995333333" id="Fill-31" fill="#31E3B4"></path>
                        <path d="M27.9466419,1.28525926 C27.9533395,1.22303704 27.9421767,1.12377778 27.9302698,1.01859259 C27.9205953,1.08007407 27.9220837,1.16081481 27.9466419,1.28525926" id="Fill-33" fill="#31E3B4"></path>
                        <path d="M28.9139349,1.23503704 C28.8722605,1.17948148 28.770307,1.03281481 28.6720744,1.00022222 L28.8677953,1.25503704 C28.8819349,1.24911111 28.8975628,1.2417037 28.9139349,1.23503704" id="Fill-35" fill="#31E3B4"></path>
                        <path d="M28.8738233,1.26266667 L28.8671256,1.25451852 C28.8157767,1.27451852 28.7793116,1.28562963 28.7636837,1.29081481 C28.7770791,1.28637037 28.8105674,1.27822222 28.8738233,1.26266667" id="Fill-37" fill="#31E3B4"></path>
                        <path d="M28.925693,1.23014815 C28.9212279,1.23162963 28.9182512,1.23311111 28.913786,1.23533333 C28.9331349,1.26051852 28.9405767,1.26792593 28.925693,1.23014815" id="Fill-39" fill="#31E3B4"></path>
                        <path d="M29.5813953,1.30592593 C29.6,1.49703704 29.5531163,1.73777778 29.815814,1.9037037 C29.7592558,1.68740741 29.6096744,1.59333333 29.5813953,1.30592593" id="Fill-41" fill="#31E3B4"></path>
                        <path d="M29.1700837,1.54837037 L29.3241302,1.54762963 C29.2817116,1.47577778 29.2013395,1.37948148 29.1924093,1.28466667 L29.1700837,1.54837037 Z" id="Fill-43" fill="#31E3B4"></path>
                        <polygon id="Fill-45" fill="#31E3B4" points="29.1598884 1.66844444 29.170307 1.54844444 29.1130047 1.54918519"></polygon>
                        <path d="M28.2929116,1.43555556 C28.3077953,1.58444444 28.2564465,1.62518519 28.2036093,1.67851852 C28.3018419,1.69703704 28.3881674,1.68888889 28.4544,1.65111111 C28.4164465,1.55925926 28.3606326,1.38592593 28.2929116,1.43555556" id="Fill-47" fill="#31E3B4"></path>
                        <path d="M28.5885023,1.376 C28.5885023,1.38414815 28.5855256,1.39007407 28.5855256,1.39822222 C28.6056186,1.41822222 28.615293,1.42192593 28.5885023,1.376" id="Fill-49" fill="#31E3B4"></path>
                        <path d="M27.5759628,2.01533333 C27.5878698,2.02866667 27.6012651,2.04644444 27.6139163,2.06051852 C27.6057302,2.04422222 27.5975442,2.02792593 27.5893581,2.01088889 L27.5759628,2.01533333 Z" id="Fill-51" fill="#31E3B4"></path>
                        <path d="M28.4944372,1.69703704 C28.5748093,1.72296296 28.5688558,1.63851852 28.5509953,1.53703704 C28.5279256,1.58518519 28.497414,1.62592593 28.4549953,1.65111111 C28.4721116,1.69333333 28.485507,1.72 28.4944372,1.69703704" id="Fill-53" fill="#31E3B4"></path>
                        <path d="M27.8427535,1.50977778 C27.9015442,1.55348148 27.9588465,1.58681481 28.0146605,1.61496296 C27.940986,1.54088889 27.812986,1.432 27.8427535,1.50977778" id="Fill-55" fill="#31E3B4"></path>
                        <path d="M28.5264372,1.3302963 C28.5264372,1.32437037 28.5264372,1.31844444 28.5271814,1.314 C28.4780651,1.26362963 28.4959256,1.29103704 28.5264372,1.3302963" id="Fill-57" fill="#31E3B4"></path>
                        <path d="M28.5264372,1.3302963 C28.5219721,1.38511111 28.5383442,1.46437037 28.5509953,1.5377037 C28.5703442,1.49844444 28.5829953,1.45251852 28.5859721,1.3977037 C28.5688558,1.38140741 28.545786,1.35548148 28.5264372,1.3302963" id="Fill-59" fill="#31E3B4"></path>
                        <path d="M28.3592186,3.904 C28.2274977,3.64103704 28.232707,3.32992593 28.4998698,3.544 C28.5088,3.28844444 27.9714977,2.48103704 27.6135442,2.0602963 C27.6708465,2.17511111 27.7281488,2.27881481 27.6931721,2.49511111 C27.8107535,2.61288889 28.1337302,2.68325926 28.1620093,2.96992593 C28.0779163,3.18696296 27.9841488,2.9477037 27.8338233,2.85214815 C28.0734512,3.13881481 27.8903814,3.42696296 28.1813581,3.88103704 L28.2274977,3.64103704 C28.2706605,3.71362963 28.2848,3.85733333 28.3592186,3.904" id="Fill-61" fill="#31E3B4"></path>
                        <path d="M27.8523535,1.96548148 L27.8836093,1.9077037 C27.8039814,1.89214815 27.7079814,1.81066667 27.5249116,1.6477037 C27.5130047,1.81733333 27.5487256,1.92251852 27.5896558,2.01066667 L27.8478884,1.91807407 L27.8523535,1.96548148 Z" id="Fill-63" fill="#31E3B4"></path>
                        <path d="M28.1005395,1.78874074 C28.2158884,2.08948148 28.1645395,2.27244444 28.4011907,2.53762963 C28.5329116,2.44059259 28.3729116,2.24874074 28.3915163,2.08133333 C28.2002605,2.27540741 28.3721674,1.88948148 28.1198884,1.81985185 C28.1392372,1.748 28.1712372,1.71096296 28.2032372,1.67911111 C28.1437023,1.66725926 28.0804465,1.64651852 28.0149581,1.61466667 C28.0201674,1.62059259 28.0246326,1.6242963 28.0298419,1.62948148 L28.030586,1.62874074 C28.0313302,1.63022222 28.0313302,1.63096296 28.0320744,1.63244444 C28.0610977,1.66207407 28.0767256,1.68207407 28.0544,1.668 C28.0551442,1.67096296 28.0529116,1.67392593 28.0529116,1.67614815 C28.0722605,1.71540741 28.0864,1.7517037 28.0997953,1.78725926 C28.0015628,1.76503704 28.0499349,1.72059259 28.0529116,1.67614815 C28.0454698,1.66133333 28.0402605,1.64725926 28.0320744,1.63244444 C28.0313302,1.63096296 28.030586,1.63022222 28.0298419,1.62948148 L27.8832372,1.90725926 C27.9531907,1.91985185 28.0097488,1.87911111 28.1005395,1.78874074" id="Fill-65" fill="#31E3B4"></path>
                        <path d="M30.0218047,2.57311111 C30.0009674,2.55237037 29.9905488,2.53162963 29.9786419,2.51162963 C29.983107,2.55459259 29.9898047,2.58051852 30.0218047,2.57311111" id="Fill-67" fill="#31E3B4"></path>
                        <path d="M29.8349395,2.45488889 C29.8304744,2.40674074 29.7835907,2.28748148 29.8535442,2.28674074 C29.9465674,2.34525926 29.9264744,2.42081481 29.9785674,2.51192593 C29.9711256,2.42007407 29.9837767,2.24896296 29.8066605,2.16748148 L29.8111256,2.21488889 C29.6660093,2.16822222 29.3564279,1.8822963 29.3519628,1.83488889 C29.5164279,2.07340741 29.6384744,2.24007407 29.8349395,2.45488889" id="Fill-69" fill="#31E3B4"></path>
                        <path d="M29.000186,2.19696296 L28.8833488,2.4377037 L29.1133023,2.62807407 L29.0292093,2.48511111 C29.1691163,2.48362963 29.047814,2.31622222 29.000186,2.19696296" id="Fill-71" fill="#31E3B4"></path>
                        <polygon id="Fill-73" fill="#31E3B4" points="27.4780279 1.8877037 27.3418419 1.57733333 27.4594233 2.05585185"></polygon>
                        <polygon id="Fill-75" fill="#31E3B4" points="27.2481488 2.05725926 27.1171721 1.79503704 27.1357767 1.98540741"></polygon>
                        <path d="M14.9422884,12.8377778 L14.9259163,12.9414815 C14.9400558,12.9044444 14.9437767,12.8703704 14.9422884,12.8377778" id="Fill-77" fill="#31E3B4"></path>
                        <path d="M15.3594047,12.6353333 L15.2998698,12.5027407 C15.3192186,12.5827407 15.3400558,12.639037 15.3594047,12.6353333" id="Fill-79" fill="#31E3B4"></path>
                        <path d="M21.1502884,5.38681481 C20.9374512,5.19051852 20.6420093,4.86681481 20.8101953,5.15125926 L20.9888,5.42014815 C21.0185674,5.33866667 21.0795907,5.34607407 21.1502884,5.38681481" id="Fill-81" fill="#31E3B4"></path>
                        <path d="M17.8819721,9.33385185 C17.9042977,9.35681481 17.9288558,9.382 17.9526698,9.40644444 C17.9199256,9.29903704 17.8901581,9.19977778 17.8611349,9.10644444 C17.8685767,9.17755556 17.8752744,9.25311111 17.8819721,9.33385185" id="Fill-83" fill="#31E3B4"></path>
                        <path d="M18.4610233,10.5339259 L18.2533953,10.4102222 C18.312186,10.4605926 18.3806512,10.5028148 18.4610233,10.5339259" id="Fill-85" fill="#31E3B4"></path>
                        <path d="M12.88,14.3388889 L12.9707907,14.6618519 C13.0727442,14.6048148 12.9484651,14.4840741 12.88,14.3388889" id="Fill-87" fill="#31E3B4"></path>
                        <path d="M24.7554233,3.53785185 C24.6244465,3.46525926 24.542586,3.4497037 24.4860279,3.4622963 C24.6594233,3.57859259 24.8610977,3.78525926 24.7554233,3.53785185" id="Fill-89" fill="#31E3B4"></path>
                        <path d="M13.4693953,9.75333333 C13.4626977,9.82296296 13.479814,9.88888889 13.5147907,9.95111111 C13.5237209,9.8837037 13.5147907,9.81851852 13.4693953,9.75333333" id="Fill-91" fill="#31E3B4"></path>
                        <path d="M24.2821953,3.57385185 C24.3097302,3.59533333 24.3298233,3.60274074 24.3558698,3.61977778 C24.3819163,3.54496296 24.4131721,3.47903704 24.4861023,3.46274074 C24.3573581,3.37607407 24.2442419,3.34051852 24.2821953,3.57385185" id="Fill-93" fill="#31E3B4"></path>
                        <g id="Group-97" transform="translate(4.465116, 18.411704)">
                            <mask id="mask-6" fill="white">
                                <use xlink:href="#path-5"></use>
                            </mask>
                            <g id="Clip-96"></g>
                            <path d="M0.215516279,0.0501481481 C0.202865116,0.0412592593 0.192446512,0.0382962963 0.179051163,0.0264444444 C0.197655814,0.0657037037 0.207330233,0.0634814815 0.215516279,0.0501481481" id="Fill-95" fill="#31E3B4" mask="url(#mask-6)"></path>
                        </g>
                        <path d="M0.776186047,16.8811111 C0.789581395,16.8507407 0.826790698,16.83 0.861023256,16.807037 C0.832744186,16.7966667 0.804465116,16.8144444 0.776186047,16.8811111" id="Fill-98" fill="#31E3B4"></path>
                        <path d="M26.1794977,2.47488889 C26.2219163,2.42748148 26.1713116,2.43933333 26.1794977,2.47488889" id="Fill-100" fill="#31E3B4"></path>
                        <path d="M27.0450605,3.45355556 C27.051014,3.49133333 27.0644093,3.53651852 27.0986419,3.60244444 C27.0658977,3.53207407 27.0502698,3.48466667 27.0450605,3.45355556" id="Fill-102" fill="#31E3B4"></path>
                        <path d="M24.7141953,5.61614815 C24.712707,5.61688889 24.7104744,5.61688889 24.708986,5.61762963 C24.7551256,5.6642963 24.7461953,5.65540741 24.7141953,5.61614815" id="Fill-104" fill="#31E3B4"></path>
                        <path d="M26.3289302,2.5602963 C26.2902326,2.53659259 26.2515349,2.51955556 26.215814,2.51288889 C26.2381395,2.52844444 26.2738605,2.54474074 26.3289302,2.5602963" id="Fill-106" fill="#31E3B4"></path>
                        <path d="M26.2454326,2.43259259 C26.2707349,2.43555556 26.2885953,2.43481481 26.3064558,2.43481481 C26.2878512,2.38444444 26.2655256,2.35777778 26.2454326,2.43259259" id="Fill-108" fill="#31E3B4"></path>
                        <path d="M26.114307,2.52985185 C26.1418419,2.50911111 26.1775628,2.50688889 26.2155163,2.51281481 C26.1946791,2.49948148 26.1820279,2.48614815 26.1797953,2.47503704 C26.1664,2.48762963 26.1477953,2.50466667 26.114307,2.52985185" id="Fill-110" fill="#31E3B4"></path>
                        <path d="M8.59348837,15.371037 C8.58530233,15.3643704 8.57786047,15.3606667 8.56744186,15.3502963 C8.57860465,15.496963 8.592,15.4658519 8.59348837,15.371037" id="Fill-112" fill="#31E3B4"></path>
                        <path d="M21.3743628,9.06214815 C21.375107,9.0577037 21.3728744,9.04955556 21.3736186,9.04585185 C21.3691535,9.04362963 21.3639442,9.04140741 21.3594791,9.03918519 L21.3743628,9.06214815 Z" id="Fill-114" fill="#31E3B4"></path>
                        <path d="M21.2993488,9.37474074 C21.1884651,8.97918519 21.2576744,8.9977037 21.3596279,9.03918519 L20.8535814,8.25918519 L21.2993488,9.37474074 Z" id="Fill-116" fill="#31E3B4"></path>
                        <g id="Group-120" transform="translate(0.000000, 1.374667)">
                            <mask id="mask-8" fill="white">
                                <use xlink:href="#path-7"></use>
                            </mask>
                            <g id="Clip-119"></g>
                            <path d="M6.87769302,12.1867407 L6.95732093,12.2497037 C6.92829767,12.383037 6.90522791,12.288963 6.87769302,12.1867407 M25.9928558,1.70822222 C25.9869023,1.65488889 25.9623442,1.61192593 25.9303442,1.57192593 C25.9616,1.65785185 25.9243907,1.68525926 25.8663442,1.68748148 C25.9236465,1.76303704 25.9779721,1.80748148 25.9928558,1.70822222 M25.7398326,1.66822222 C25.7413209,1.67414815 25.7420651,1.67859259 25.7442977,1.68525926 C25.5917395,1.6097037 25.6482977,1.64155556 25.7398326,1.66822222 M18.5041116,8.40525926 C18.5316465,8.52377778 18.4594605,8.49637037 18.3448558,8.40451852 C18.3671814,8.35933333 18.4140651,8.34822222 18.5041116,8.40525926 M15.8905302,10.7941481 C15.8875535,10.8808148 15.921786,11.126 15.7930419,10.9556296 C15.6404837,10.5719259 15.7684837,10.726 15.8905302,10.7941481 M14.0107163,12.0711852 L14.2823442,12.2534074 C14.3493209,12.7578519 14.1543442,12.6771111 14.4743442,12.966 C14.0107163,12.0711852 14.9424372,12.5963704 14.4795535,11.7022963 L14.6685767,11.8408148 C14.6388093,11.846 14.6626233,11.9000741 14.6336,11.9052593 C15.0347163,12.2363704 14.4118326,11.1971111 14.7005767,11.2037778 C14.813693,11.2304444 14.9372279,11.3297037 14.9424372,11.463037 L14.993786,11.1519259 C15.0533209,11.1422963 15.1247628,11.303037 15.0659721,11.3126667 L15.2877395,11.1015556 L15.3003907,11.1282222 C15.261693,10.9697037 15.2289488,10.7097037 15.2207628,10.5963704 C15.3562047,10.6874815 15.2386233,10.7082222 15.3152744,10.808963 L15.3428093,10.5171111 C15.5273674,10.7148889 15.5281116,11.0015556 15.4105302,11.0222963 C16.0267163,11.8326667 15.409786,10.7356296 15.9813209,11.0941481 L15.9061581,11.2800741 C16.2670884,11.7334074 16.2745302,11.4941481 16.5989953,11.7245185 C16.4732279,11.5808148 15.8607628,11.103037 15.8972279,10.7978519 C15.9783442,10.8408148 16.053507,10.8408148 16.0408558,10.6171111 C16.213507,10.9319259 16.253693,10.8097037 16.3467163,10.7363704 L16.5669953,11.1563704 C16.6131349,10.9763704 16.4888558,10.768963 16.4516465,10.546 C16.5989953,10.5200741 16.7999256,10.8282222 16.977786,11.0845185 C17.2129488,11.043037 16.5580651,10.6415556 16.7508093,10.4356296 C17.0038326,10.5052593 17.0269023,10.2726667 17.089414,9.91637037 C17.2836465,9.99785185 17.2084837,10.1822963 17.3149023,10.2785926 L17.2360186,9.89118519 C17.265786,9.88525926 17.313414,9.99192593 17.3372279,10.046 C17.3536,9.8697037 17.117693,9.62525926 17.1921116,9.43933333 C16.9785302,8.96007407 17.8365767,9.95859259 17.7212279,9.34674074 C17.8276465,9.4422963 17.8402977,9.61266667 17.9407628,9.76748148 C17.9861581,9.30081481 18.0040186,9.41192593 17.9429953,8.84896296 L18.2533209,9.03488889 C17.9645767,8.78674074 17.9147163,8.33488889 17.8819721,7.95933333 C17.757693,7.83118519 17.649786,7.71785185 17.5909953,7.66822222 L17.6810419,7.3297037 C17.7442977,7.38451852 17.8008558,7.53933333 17.8611349,7.73192593 C17.8566698,7.6897037 17.8514605,7.64822222 17.845507,7.61118519 C18.0047628,7.72377778 18.0970419,7.98525926 18.1692279,8.24748148 C18.0985302,8.17933333 18.0248558,8.106 17.9526698,8.03192593 C18.0382512,8.31340741 18.141693,8.62007407 18.2853209,8.85785185 C18.273414,8.8022963 18.2771349,8.74674074 18.293507,8.70748148 C18.3173209,8.78377778 18.3418791,8.8497037 18.3709023,8.88822222 C18.4021581,8.92822222 18.3738791,8.82377778 18.3508093,8.69859259 L18.6522047,9.13711111 L18.5636465,8.94674074 L18.9989953,9.08748148 C18.9431814,8.51266667 18.7407628,7.73118519 18.9521116,7.3697037 C19.0592744,7.75192593 19.2378791,7.93488889 19.453693,8.34007407 C19.1351814,7.95933333 19.3085767,8.65340741 19.0979721,8.65488889 C19.2073674,8.65414815 19.293693,8.85711111 19.3085767,8.93488889 L19.3882047,8.38896296 C19.5616,8.72303704 19.5846698,8.60303704 19.7349953,8.69859259 C19.3219721,8.07785185 19.7156465,8.14674074 19.7253209,7.88303704 C19.8518326,8.09785185 19.9456,8.33711111 19.7722047,8.3622963 C20.1993674,8.76748148 19.5608558,7.48525926 19.9448558,7.81785185 C19.9121116,7.8422963 19.8749023,7.81859259 19.921786,7.93785185 C19.8979721,7.69859259 20.1837395,7.74451852 20.2402977,7.96007407 L20.2075535,7.98377778 C20.4843907,7.93414815 20.9242047,7.60303704 20.6570419,7.03044444 C20.6987163,7.10081481 20.9904372,7.71488889 21.0365767,7.83414815 L20.4397395,5.74525926 C20.6622512,6.24081481 21.4205767,7.29637037 21.3729488,7.67118519 C21.4659721,7.70822222 21.5783442,7.75044444 21.6043907,7.51859259 C21.5292279,7.47118519 21.1348093,6.8822963 21.1630884,6.81044444 C21.5939721,7.26303704 21.4161116,7.04007407 21.8380651,7.39637037 C21.725693,7.326 21.3826233,6.54525926 21.4860651,6.52081481 C21.5329488,6.64007407 21.8946233,7.25266667 21.9042977,7.34822222 L21.729414,6.49488889 C21.7450419,6.65637037 22.0576,7.12081481 22.2213209,7.30081481 C22.1193674,7.1697037 22.4222512,7.20896296 22.4423442,7.10451852 L22.2548093,6.986 C22.5688558,6.96007407 21.9444837,5.82081481 22.2168558,5.72377778 C22.2689488,5.89118519 22.6484837,6.69488889 22.8270884,6.71785185 C22.6812279,6.31192593 22.1037395,4.77414815 22.1684837,4.36525926 L22.3284837,4.55711111 L22.365693,4.22007407 C22.5673674,4.8422963 22.9156465,6.19044444 23.0042047,6.74081481 C23.1917395,6.85933333 23.1686698,6.97933333 23.3003907,6.88303704 C23.4596465,7.05711111 23.3889488,7.2297037 23.3532279,7.26377778 L23.7550884,7.21488889 C23.5013209,6.78525926 23.7684837,6.63933333 23.5571349,6.28155556 L23.445507,6.92896296 C23.1924837,6.50007407 22.9759256,5.57488889 23.2520186,5.52525926 C23.4068093,5.66748148 23.6322977,6.32822222 23.7171349,6.47192593 C23.6650419,6.30525926 23.7826233,6.06377778 23.8622512,6.15933333 L23.8905302,6.44674074 C24.1100651,6.54081481 23.7870884,5.75192593 24.1718326,6.08525926 C24.2410419,6.08377778 24.6399256,6.56155556 24.5082047,6.29711111 C24.1480186,5.84525926 23.2892279,4.3097037 23.1433674,3.9022963 C23.1805767,3.926 23.6873674,4.22674074 23.8838326,4.44007407 C24.1867163,4.78377778 24.2589023,5.446 24.5178791,5.74155556 C24.4561116,5.62007407 24.4248558,5.446 24.4196465,5.38748148 C24.5320186,5.45859259 24.597507,5.77044444 24.6920186,5.6497037 C24.4709953,5.19562963 24.9636465,5.55118519 24.545414,5.24303704 C24.597507,5.05118519 24.7240186,5.26525926 24.8549953,5.16896296 C24.6540651,4.90674074 24.4509023,4.12451852 24.5029953,3.93192593 C24.5573209,4.04896296 24.6644837,4.18155556 24.7143442,4.24155556 C24.9837395,4.14748148 25.2263442,4.27785185 25.4592744,4.15637037 C25.5389023,4.25266667 25.7219721,4.32303704 25.7785302,4.53933333 C25.7688558,4.44303704 25.7167628,4.27562963 25.7822512,4.22674074 C26.1290419,4.53562963 25.6564837,4.37192593 26.0129488,4.77711111 C25.8812279,4.51414815 26.0025302,4.32081481 26.0166698,4.10525926 C25.7681116,3.72377778 25.7405767,4.15562963 25.7264372,4.37118519 C25.4265302,3.8222963 25.2903442,3.15118519 25.3930419,2.76674074 C25.5106233,2.52674074 25.6698791,3.07711111 25.6602047,2.98081481 C26.0732279,2.8822963 25.4443907,1.85562963 25.9601116,2.09118519 C26.2689488,2.37637037 26.3441116,2.78377778 26.5085767,3.0222963 C26.4244837,3.23933333 26.1476465,2.9297037 26.049414,3.00081481 L26.269693,3.09637037 C26.2838326,3.24007407 26.2272744,3.38377778 26.1156465,3.31414815 C26.385786,3.57414815 26.7571349,3.04525926 27.1932279,3.18525926 C27.1790884,3.04155556 27.197693,2.87414815 27.0808558,2.75488889 L27.0190884,2.85118519 C26.7846698,2.61266667 26.9722047,2.37118519 26.7891349,2.30007407 C26.7988093,2.03785185 26.7608558,1.65414815 27.0138791,1.72451852 L27.2624372,2.10674074 C27.1954605,1.99192593 27.0250419,1.92748148 27.0443907,2.07414815 C27.0168558,1.86007407 27.5936,2.47711111 27.3844837,1.91340741 L27.1173209,1.70007407 C27.1262512,1.43488889 27.0421581,0.931925926 27.2579721,0.978592593 C26.9759256,0.620814815 27.2482977,1.0422963 26.8925767,0.637111111 C27.2959256,1.1622963 26.5026233,0.81637037 26.9766698,1.34081481 C26.577786,0.863777778 26.6678326,1.21414815 26.2786233,0.833407407 C26.3545302,0.963037037 26.465414,1.05859259 26.3061581,1.06007407 C26.321786,1.10155556 26.3351814,1.15785185 26.3426233,1.19118519 C26.3366698,1.1897037 26.3344372,1.18822222 26.3292279,1.18525926 C26.3344372,1.1897037 26.3389023,1.19414815 26.3441116,1.19785185 C26.3493209,1.22007407 26.3515535,1.22451852 26.3493209,1.20155556 C26.4103442,1.24377778 26.4721116,1.30007407 26.5219721,1.36748148 C26.625414,1.70303704 26.4237395,1.80007407 26.4423442,1.99266667 C26.3351814,1.96896296 26.3902512,1.82451852 26.2741581,1.706 L26.3024372,1.99340741 C26.133507,1.70674074 25.8425302,1.61266667 25.9221581,1.34822222 L25.7591814,1.41859259 C25.5790884,1.30451852 25.4168558,1.30674074 25.4064372,1.47192593 C25.2992744,1.44822222 25.397507,1.89562963 25.3372279,1.63192593 L25.1913674,1.94525926 L25.149693,1.87340741 C24.8892279,1.966 24.9182512,2.62525926 24.3556465,2.24525926 C24.3147163,2.36303704 24.2804837,2.49859259 24.0996465,2.48896296 L23.9351814,2.2497037 C23.8793674,2.39414815 23.4849488,2.16525926 23.5839256,2.45266667 C23.1009488,1.83266667 22.9982512,2.57637037 22.749693,2.55488889 L22.9230884,2.88896296 C22.7869023,2.93785185 22.717693,3.09711111 22.6336,3.31414815 L22.801786,3.60081481 C22.7973209,3.91266667 22.3426233,3.58007407 22.145414,3.72525926 C22.0992744,3.60525926 22.1692279,3.60525926 22.2443907,3.65266667 C21.6304372,3.13044444 21.9682977,4.4222963 21.4756465,4.066 C21.4763907,4.20377778 21.4146233,4.1897037 21.3342512,4.13859259 C21.3394605,4.13414815 21.3409488,4.12674074 21.3402047,4.11488889 C21.3327628,4.11488889 21.3230884,4.11859259 21.3149023,4.12377778 C21.2620651,4.08748148 21.2040186,4.04377778 21.1504372,4.01192593 C21.2129488,4.0697037 21.2680186,4.11562963 21.3022512,4.13192593 C21.2613209,4.1622963 21.213693,4.23414815 21.1876465,4.34377778 L20.9889488,4.04525926 C20.9859721,4.05192593 20.981507,4.05414815 20.9785302,4.0622963 C20.8505302,3.98155556 21.0075535,4.23859259 21.1705302,4.45637037 C21.1653209,4.52525926 21.1690419,4.60377778 21.1861581,4.69192593 C20.8579721,4.21414815 21.105786,4.95637037 20.7403907,4.45488889 C20.8393674,4.7422963 20.5163907,4.83192593 20.7835535,5.40525926 C20.7418791,5.33414815 20.7031814,5.31044444 20.7366698,5.28674074 C20.6287628,5.26303704 20.5208558,5.23933333 20.5402047,5.43118519 L20.2916465,5.0497037 L20.4226233,5.67192593 C20.1926698,5.4822963 20.0750884,5.3622963 20.0051349,5.00377778 C20.0289488,5.6022963 19.9121116,5.28377778 19.9679256,5.85859259 L19.837693,5.59562963 C19.7714605,5.64377778 19.8466233,6.05118519 19.6873674,5.86081481 C19.2609488,5.45637037 18.8635535,6.21785185 18.2071814,5.98303704 C18.6998326,6.69933333 17.8321116,5.74525926 18.1364837,6.3422963 C18.0144372,6.17562963 17.9028093,6.10525926 17.8834605,5.91340741 C17.7710884,6.20155556 17.4153674,5.79711111 17.5418791,6.37118519 C17.4198326,6.20377778 17.4429023,6.08451852 17.3632744,5.98896296 C17.3684837,6.03711111 17.3826233,6.18081481 17.3022512,6.08525926 C17.2233674,5.9897037 17.2509023,5.91785185 17.2412279,5.8222963 C17.0447628,5.96748148 17.3245767,6.53192593 17.5924837,7.05933333 C17.3506233,6.87192593 17.3156465,6.93562963 17.4228093,7.31859259 C17.2933209,7.16896296 17.1333209,7.02525926 17.2322977,6.89266667 C17.1444837,6.90748148 16.6421581,6.88896296 16.861693,7.30896296 C16.7805767,7.21637037 16.7411349,7.33414815 16.7470884,7.39340741 C16.5669953,7.45859259 16.5320186,7.42896296 16.3891349,7.55711111 L16.4717395,7.60007407 C16.6808558,8.13711111 16.3965767,7.786 16.2976,7.91711111 L16.2730419,7.86451852 C15.7729488,7.66525926 16.2365767,8.10822222 15.7126698,7.85562963 L15.8987163,8.15933333 C16.2373209,8.84674074 15.4179721,7.906 15.3844837,8.25711111 L15.5444837,8.40155556 C15.5749953,8.6822963 14.781693,7.63118519 14.6410419,7.59859259 C14.5882047,7.55118519 14.6224372,7.48748148 14.6283907,7.42822222 C14.1632744,7.166 14.8189023,7.85488889 14.6849488,8.05044444 C14.5301581,7.84822222 14.4229953,7.46451852 14.2756465,7.49118519 C14.1163907,7.34674074 14.3039256,8.40377778 13.9028093,8.07266667 C14.0330419,8.2222963 14.1625302,8.37192593 14.1461581,8.546 C14.0471814,8.67859259 13.4384372,8.09637037 13.6110884,8.69711111 C13.5686698,8.65933333 13.5389023,8.61859259 13.5143442,8.57637037 C13.4890419,8.76896296 13.3111814,8.98303704 13.4086698,9.30674074 C12.7277395,8.27859259 13.0670884,10.1704444 12.5268093,9.17488889 L12.2447628,9.39562963 L12.1978791,9.2897037 C11.9634605,9.33118519 12.0229953,9.60748148 12.0832744,9.88377778 C12.0006698,9.84081481 11.9835535,9.7297037 11.9589953,9.67562963 C11.5593674,9.63192593 11.553414,9.6897037 11.5802047,10.3171111 L11.3792744,10.0082222 C11.4149953,10.2311852 10.6834605,9.72822222 10.6038326,10.2585926 C10.5867163,10.2200741 10.5584372,10.1541481 10.5562047,10.0963704 C10.4423442,10.6482222 9.30225116,9.61562963 9.82466977,10.8541481 L9.77108837,11.2578519 C10.0940651,11.2015556 10.0084837,11.7904444 10.2272744,11.9245185 C10.1573209,12.0511852 9.75620465,11.7200741 9.8551814,11.5882222 L9.9080186,11.6356296 C9.62299535,10.9971111 9.4496,11.6022963 9.23006512,11.1808148 C8.7083907,11.5022963 7.99843721,11.446 7.48048372,11.6919259 L7.79825116,12.1363704 L7.60699535,12.2045185 C7.50132093,12.1185926 7.3428093,11.8652593 7.47825116,11.8171111 C7.26541395,11.583037 7.39192558,12.1571111 7.4440186,12.2622963 C7.09350698,12.2022963 7.23787907,11.6548889 7.1560186,11.6845185 L7.07266977,11.7748889 L7.12625116,11.8185926 C7.14932093,12.0578519 7.25499535,12.2682222 7.09127442,12.326 C6.94392558,12.2815556 6.88215814,12.0585926 6.83453023,12.0608148 C6.81592558,12.026 6.79508837,12.0171111 6.76904186,12.0778519 L6.52569302,12.1571111 L6.81890233,12.4845185 C6.82187907,12.723037 6.60011163,12.5778519 6.93425116,12.9482222 C6.42671628,12.3726667 5.97946047,13.1585926 5.77629767,13.0045185 C5.78820465,13.3526667 5.64978605,13.4208148 5.46373953,13.4785926 C5.54783256,13.5348889 5.80383256,13.9437778 5.63043721,13.9704444 C5.20773953,13.0697037 5.15862326,13.7356296 4.69946047,13.1704444 C5.03062326,13.5304444 4.34299535,13.4963704 4.82894884,13.9985926 C4.66969302,13.9926667 4.64364651,13.6756296 4.44048372,13.5200741 C4.33629767,14.0134074 3.68587907,13.643037 3.39192558,13.9497037 C3.44922791,14.0674815 3.6040186,14.2097037 3.6203907,14.4215556 L3.12029767,13.9504444 C3.08085581,14.0445185 3.41573953,14.646 3.07043721,14.3185926 C3.14113488,14.4052593 3.24755349,14.5348889 3.2200186,14.5971111 C2.21908837,14.4163704 2.04420465,15.8237778 0.764948837,15.1578519 C0.981506977,15.3282222 0.929413953,15.3845185 0.860948837,15.4326667 C0.936855814,15.4593333 1.01350698,15.7156296 1.1080186,15.866 L0.575925581,15.5948889 C0.756762791,16.0548889 0.273786047,15.7956296 0.467274419,16.2245185 L0.520855814,16.0993333 C0.660762791,16.6526667 1.2843907,17.0852593 1.60587907,17.7193333 C1.4443907,17.0904444 2.42076279,18.3385926 2.21908837,17.4237778 C2.33890233,17.5237778 2.28532093,17.6482222 2.39099535,17.7778519 C2.30392558,17.4793333 2.34411163,17.3852593 2.53908837,17.4348889 L2.56066977,17.508963 C2.89034419,17.2467407 3.19099535,17.426 3.69778605,17.3793333 L3.49908837,17.0874815 C3.60997209,17.0808148 3.68066977,17.1674815 3.76476279,17.223037 C3.61071628,16.7000741 3.50206512,17.3297037 3.31378605,16.7645185 C3.77220465,17.328963 3.94113488,16.4378519 4.40848372,17.1082222 C4.54690233,17.0393333 4.1748093,16.7726667 4.31248372,16.7037778 L4.45387907,16.8771111 L4.35266977,16.6104444 C4.46355349,16.603037 4.64066977,16.8200741 4.73294884,16.9815556 C4.70020465,16.9741481 4.69573953,17.0608148 4.68085581,17.0874815 C4.91973953,17.2519259 4.96364651,16.8341481 5.0440186,16.8867407 L4.84829767,16.8378519 C5.12066977,16.4578519 5.71155349,16.4667407 5.8551814,15.8808148 L5.74950698,15.7504444 C5.8760186,15.3334074 6.05536744,15.7919259 6.28755349,15.5052593 L6.29573953,15.5452593 C6.2763907,15.3682222 6.31657674,15.2519259 6.40811163,15.2237778 C6.42522791,15.4356296 6.73108837,15.4778519 6.7348093,15.7208148 C6.87322791,15.2711852 6.75787907,15.4141481 6.65890233,14.7674815 L6.83527442,14.9852593 C6.7831814,14.7304444 6.72587907,14.6119259 6.84197209,14.468963 C6.83155349,14.7422963 7.13815814,14.7852593 7.14932093,15.1334074 C7.75211163,15.4919259 7.32569302,14.3474815 7.89127442,15.0422963 C7.67173953,14.2956296 7.41648372,14.8185926 7.41946047,14.6311852 C7.23266977,14.4497037 7.26690233,14.0674815 7.4016,14.0808148 C7.51099535,14.0422963 8.03936744,14.8445185 8.28494884,14.6948889 C8.25815814,14.7052593 8.28420465,14.7571111 8.25666977,14.7674815 C8.44420465,14.8867407 8.31620465,14.4363704 8.58336744,14.6511852 C8.42857674,14.2111852 8.74634419,14.5926667 8.4843907,14.0674815 L8.31769302,14.3119259 C8.37573953,14.106 8.17034419,13.4363704 8.54690233,13.6119259 C8.58634419,13.7245185 8.5960186,13.8963704 8.59378605,13.9963704 C8.73964651,14.1141481 8.66076279,13.8297037 8.81108837,13.9504444 C9.07378605,14.4763704 8.5908093,14.2148889 8.66373953,14.6845185 C8.85053023,14.8652593 8.72699535,14.1667407 8.96066977,14.7637778 C8.67564651,13.9985926 9.25834419,14.7193333 9.13406512,14.0837778 L9.29108837,14.3993333 C9.29183256,14.3363704 9.26876279,14.1600741 9.32234419,14.1408148 L9.45034419,14.5904444 C9.40346047,14.1734074 9.88122791,14.7452593 9.91248372,14.4874815 C9.63936744,14.6467407 9.6468093,14.1482222 9.40643721,13.986 C9.52476279,13.3874815 10.0442047,14.6882222 10.3478326,14.3319259 C10.3195535,14.4037778 10.0516465,14.2526667 10.0546233,14.0652593 C10.1625302,14.088963 10.3240186,14.1556296 10.4572279,14.2941481 C10.6767628,14.0919259 10.2451349,13.9971111 10.2496,13.7482222 C10.5413209,14.0778519 10.2912744,13.5274815 10.337414,13.3467407 L10.5093209,13.6608148 C10.9089488,13.7052593 10.229507,12.9645185 10.6239256,13.0674815 L10.7504372,13.5622963 L10.8256,13.3763704 L10.9915535,13.748963 C10.9952744,13.4037778 11.0793674,13.4467407 11.2788093,13.468963 C11.1247628,13.2667407 10.9870884,12.888963 11.1106233,12.8097037 C11.2996465,12.948963 11.2237395,13.1348889 11.381507,12.9911852 C11.4477395,13.2097037 11.5370419,13.4808148 11.3003907,13.2348889 C11.3480186,13.3415556 11.3666233,13.4534074 11.4142512,13.5600741 C11.6248558,13.723037 11.677693,13.4800741 11.741693,13.4415556 C11.7104372,13.4437778 11.6702512,13.443037 11.6308093,13.4074815 L11.6576,12.828963 C11.7632744,12.9245185 11.7818791,13.0371111 11.8004837,13.1482222 C11.8347163,13.0845185 11.7930419,12.9200741 11.8570419,12.8504444 C11.9761116,13.1171111 12.1249488,13.3778519 12.0788093,13.5585926 L12.1762977,13.1393333 C12.2529488,13.2408148 12.4717395,13.3748889 12.4896,13.486 C12.7113674,13.5608148 12.561786,12.806 12.8549953,12.9037778 C12.8378791,12.8497037 12.8311814,12.7911852 12.8505302,12.7341481 C13.0559256,12.6978519 13.3803907,12.9274815 13.3960186,12.4667407 L13.7621581,12.8615556 C13.8670884,12.6704444 13.2896,12.3697037 13.4644837,12.0519259 C13.5753674,11.8037778 13.7480186,12.4045185 13.8842047,12.4956296 C13.8529488,12.2141481 13.761414,11.6556296 14.1394605,11.9341481 C14.1290419,12.0511852 14.0464372,12.0082222 14.0107163,12.0711852" id="Fill-118" fill="#31E3B4" mask="url(#mask-8)"></path>
                        </g>
                        <path d="M18.3950884,10.3942963 C18.3549023,10.3468889 18.3206698,10.2905926 18.285693,10.2328148 C18.2990884,10.2935556 18.3325767,10.355037 18.3950884,10.3942963" id="Fill-121" fill="#31E3B4"></path>
                        <path d="M12.863107,14.279037 C12.859386,14.2775556 12.8586419,14.2797778 12.8549209,14.279037 C12.8616186,14.299037 12.8705488,14.3197778 12.8802233,14.339037 L12.863107,14.279037 Z" id="Fill-123" fill="#31E3B4"></path>
                        <path d="M24.6771349,7.23992593 C24.6153674,7.214 24.5640186,7.16881481 24.5178791,7.11622222 C24.5573209,7.194 24.6101581,7.2502963 24.6771349,7.23992593" id="Fill-125" fill="#31E3B4"></path>
                        <path d="M26.648707,2.03792593 L26.5787535,2.18162963 C26.6256372,2.1357037 26.6829395,2.19422222 26.7380093,2.22903704 C26.6955907,2.15718519 26.6159628,2.06237037 26.648707,2.03792593" id="Fill-127" fill="#31E3B4"></path>
                        <path d="M28.7010233,3.44585185 C28.6965581,3.39844444 28.7345116,3.42214815 28.7293023,3.37474074 L28.6452093,3.23103704 C28.5789767,3.27918519 28.5938605,3.42362963 28.7010233,3.44585185" id="Fill-129" fill="#31E3B4"></path>
                        <path d="M27.3233116,3.02451852 C27.476614,3.28377778 27.4989395,3.15562963 27.5525209,3.06303704 C27.5480558,3.06674074 27.5450791,3.07118519 27.5383814,3.07118519 C27.3612651,2.68896296 27.3419163,2.85637037 27.3233116,3.02451852" id="Fill-131" fill="#31E3B4"></path>
                        <path d="M27.5664372,3.04414815 C27.5842977,3.01896296 27.6058791,2.99822222 27.6371349,2.99748148 C27.565693,2.84488889 27.5902512,2.98266667 27.5664372,3.04414815" id="Fill-133" fill="#31E3B4"></path>
                        <path d="M26.1240558,2.78525926 C26.1992186,2.83266667 25.9640558,2.43488889 26.0436837,2.53044444 C25.9030326,2.17118519 26.0124279,3.07414815 26.1240558,2.78525926" id="Fill-135" fill="#31E3B4"></path>
                        <polygon id="Fill-137" fill="#31E3B4" points="27.8625488 3.86007407 27.6564093 3.5497037 27.7546419 3.83637037"></polygon>
                        <path d="M27.0990884,3.96207407 L27.2769488,3.98355556 C27.2449488,3.93022222 27.2434605,3.88948148 27.2501581,3.85392593 C27.1653209,3.88503704 27.0432744,3.86725926 27.0990884,3.96207407" id="Fill-139" fill="#31E3B4"></path>
                        <path d="M27.2504558,3.85407407 C27.2943628,3.83777778 27.3300837,3.80962963 27.3241302,3.7437037 C27.303293,3.75925926 27.2616186,3.7962963 27.2504558,3.85407407" id="Fill-141" fill="#31E3B4"></path>
                        <polygon id="Fill-143" fill="#31E3B4" points="27.7408 4.05251852 27.6656372 4.00511111 27.5621953 4.0302963"></polygon>
                        <path d="M25.6883349,4.64259259 L25.5990326,4.81148148 C25.6459163,4.93074074 25.7218233,4.97888889 25.7493581,4.9062963 C25.7404279,4.81 25.768707,4.73888889 25.6883349,4.64259259" id="Fill-145" fill="#31E3B4"></path>
                        <path d="M26.5977302,5.30785185 C26.5233116,5.26044444 26.480893,5.18933333 26.4012651,5.09303704 L26.6170791,5.4997037 L26.5977302,5.30785185 Z" id="Fill-147" fill="#31E3B4"></path>
                        <path d="M26.2415628,5.62214815 C26.2884465,5.74214815 26.2140279,6.05325926 26.3777488,5.93251852 C26.3308651,5.814 26.4201674,5.64511111 26.2415628,5.62214815" id="Fill-149" fill="#31E3B4"></path>
                        <polygon id="Fill-151" fill="#31E3B4" points="23.8567442 6.24748148 23.8894884 6.22303704 23.5233488 5.56303704"></polygon>
                        <path d="M22.8650419,8.83614815 C23.1173209,8.90577778 22.6812279,8.40577778 22.9387163,8.52281481 C22.8925767,8.34577778 22.7288558,8.42725926 22.6946233,8.27022222 C22.6849488,8.49022222 22.581507,8.42503704 22.8650419,8.83614815" id="Fill-153" fill="#31E3B4"></path>
                        <path d="M22.6945488,8.2702963 C22.6960372,8.23548148 22.6960372,8.19474074 22.6908279,8.14214815 C22.6841302,8.19918519 22.6878512,8.23844444 22.6945488,8.2702963" id="Fill-155" fill="#31E3B4"></path>
                        <polygon id="Fill-157" fill="#31E3B4" points="0.191702326 16.7351111 0.0101209302 16.6543704 0.199888372 16.8402963"></polygon>
                        <path d="M0.255330233,17.3376296 L7.44186047e-05,16.9287407 L0.144446512,17.345037 C0.15784186,17.3139259 0.185376744,17.2517037 0.255330233,17.3376296" id="Fill-159" fill="#31E3B4"></path>
                        <path d="M16.6503442,12.8603704 L16.6027163,12.7544444 C16.5268093,12.652963 16.4970419,12.6588889 16.437507,12.6677778 L16.6503442,12.8603704 Z" id="Fill-161" fill="#31E3B4"></path>
                        <polygon id="Fill-163" fill="#31E3B4" points="15.0335256 13.3239259 15.063293 13.3187407 14.8087814 12.9624444"></polygon>
                        <path d="M14.0867721,14.4657037 C14.1448186,14.4553333 14.1567256,14.3382963 14.2155163,14.3279259 C14.1448186,14.4553333 13.8136558,13.9968148 14.0867721,14.4657037" id="Fill-165" fill="#31E3B4"></path>
                    </g>
                </g>
            </g>
        </g>
    </g>
</svg>