<?xml version="1.0" encoding="UTF-8"?>
<svg width="253px" height="310px" viewBox="0 0 253 310" version="1.1" xmlns="http://www.w3.org/2000/svg" xmlns:xlink="http://www.w3.org/1999/xlink">
    <!-- Generator: Sketch 50.2 (55047) - http://www.bohemiancoding.com/sketch -->
    <title>icon-presentation-bg</title>
    <desc>Created with Sketch.</desc>
    <defs>
        <polygon id="path-1" points="0.0002 0.0004 21.821 0.0004 21.821 21.8204 0.0002 21.8204"></polygon>
        <polygon id="path-3" points="0 -3.55271368e-15 15.8695273 -3.55271368e-15 15.8695273 15.8696727 0 15.8696727"></polygon>
        <polygon id="path-5" points="0.000163636364 0.000327272727 17.8535455 0.000327272727 17.8535455 17.8530545 0.000163636364 17.8530545"></polygon>
    </defs>
    <g id="Page-1" stroke="none" stroke-width="1" fill="none" fill-rule="evenodd">
        <g id="Homepage---PlusDePoint@2x" transform="translate(-54.000000, -1590.000000)">
            <g id="icon-presentation-bg" transform="translate(54.000000, 1590.000000)">
                <g id="Page-1" transform="translate(190.000000, 288.000000)">
                    <mask id="mask-2" fill="white">
                        <use xlink:href="#path-1"></use>
                    </mask>
                    <g id="Clip-2"></g>
                    <path d="M10.9102,4.4004 C7.3202,4.4004 4.4002,7.3204 4.4002,10.9104 C4.4002,14.5004 7.3202,17.4204 10.9102,17.4204 C14.5002,17.4204 17.4202,14.5004 17.4202,10.9104 C17.4202,7.3204 14.5002,4.4004 10.9102,4.4004 M10.9102,21.8204 C4.8942,21.8204 0.0002,16.9264 0.0002,10.9104 C0.0002,4.8944 4.8942,0.0004 10.9102,0.0004 C16.9262,0.0004 21.8212,4.8944 21.8212,10.9104 C21.8212,16.9264 16.9262,21.8204 10.9102,21.8204" id="Fill-1" fill="#6B6BED" mask="url(#mask-2)"></path>
                </g>
                <g id="Page-1" transform="translate(237.000000, 259.000000)">
                    <mask id="mask-4" fill="white">
                        <use xlink:href="#path-3"></use>
                    </mask>
                    <g id="Clip-2"></g>
                    <path d="M14.2695273,6.33454545 L9.53498182,6.33454545 L9.53498182,1.6 C9.53498182,0.716363636 8.81789091,-3.55271368e-15 7.93498182,-3.55271368e-15 C7.05134545,-3.55271368e-15 6.33425455,0.716363636 6.33425455,1.6 L6.33425455,6.33454545 L1.60043636,6.33454545 C0.7168,6.33454545 -0.000290909091,7.05090909 -0.000290909091,7.93454545 C-0.000290909091,8.81818182 0.7168,9.53454545 1.60043636,9.53454545 L6.33425455,9.53454545 L6.33425455,14.2698182 C6.33425455,15.1527273 7.05134545,15.8698182 7.93498182,15.8698182 C8.81789091,15.8698182 9.53498182,15.1527273 9.53498182,14.2698182 L9.53498182,9.53454545 L14.2695273,9.53454545 C15.1531636,9.53454545 15.8695273,8.81818182 15.8695273,7.93454545 C15.8695273,7.05090909 15.1531636,6.33454545 14.2695273,6.33454545" id="Fill-1" fill="#17E0AB" mask="url(#mask-4)"></path>
                </g>
                <g id="Page-1">
                    <mask id="mask-6" fill="white">
                        <use xlink:href="#path-5"></use>
                    </mask>
                    <g id="Clip-2"></g>
                    <path d="M8.92652727,3.60032727 C5.98925455,3.60032727 3.60016364,5.98941818 3.60016364,8.92669091 C3.60016364,11.8639636 5.98925455,14.2530545 8.92652727,14.2530545 C11.8638,14.2530545 14.2528909,11.8639636 14.2528909,8.92669091 C14.2528909,5.98941818 11.8638,3.60032727 8.92652727,3.60032727 M8.92652727,17.8530545 C4.00434545,17.8530545 0.000163636364,13.8488727 0.000163636364,8.92669091 C0.000163636364,4.00450909 4.00434545,0.000327272727 8.92652727,0.000327272727 C13.8487091,0.000327272727 17.8537091,4.00450909 17.8537091,8.92669091 C17.8537091,13.8488727 13.8487091,17.8530545 8.92652727,17.8530545" id="Fill-1" fill="#17E0AB" mask="url(#mask-6)"></path>
                </g>
            </g>
        </g>
    </g>
</svg>