<?xml version="1.0" encoding="UTF-8"?>
<svg width="70px" height="1235px" viewBox="0 0 70 1235" version="1.1" xmlns="http://www.w3.org/2000/svg" xmlns:xlink="http://www.w3.org/1999/xlink">
    <!-- Generator: Sketch 51 (57462) - http://www.bohemiancoding.com/sketch -->
    <title>icon-aside-search-bg</title>
    <desc>Created with Sketch.</desc>
    <defs>
        <polygon id="path-1" points="0.0002 0.0004 21.821 0.0004 21.821 21.8204 0.0002 21.8204"></polygon>
        <polygon id="path-3" points="0.0002 0.0004 21.821 0.0004 21.821 21.8204 0.0002 21.8204"></polygon>
        <polygon id="path-5" points="0.000109090909 0.000218181818 11.9023636 0.000218181818 11.9023636 11.9020364 0.000109090909 11.9020364"></polygon>
        <polygon id="path-7" points="0 -3.55271368e-15 21.8206 -3.55271368e-15 21.8206 21.8208 0 21.8208"></polygon>
        <polygon id="path-9" points="0 -3.55271368e-15 15.8695273 -3.55271368e-15 15.8695273 15.8696727 0 15.8696727"></polygon>
    </defs>
    <g id="Page-1" stroke="none" stroke-width="1" fill="none" fill-rule="evenodd">
        <g id="résultat-de-recherche_design@2x" transform="translate(-1344.000000, -424.000000)">
            <g id="icon-aside-search-bg" transform="translate(1344.000000, 424.000000)">
                <g id="Page-1" transform="translate(0.000000, 93.000000)">
                    <mask id="mask-2" fill="white">
                        <use xlink:href="#path-1"></use>
                    </mask>
                    <g id="Clip-2"></g>
                    <path d="M10.9102,4.4004 C7.3202,4.4004 4.4002,7.3204 4.4002,10.9104 C4.4002,14.5004 7.3202,17.4204 10.9102,17.4204 C14.5002,17.4204 17.4202,14.5004 17.4202,10.9104 C17.4202,7.3204 14.5002,4.4004 10.9102,4.4004 M10.9102,21.8204 C4.8942,21.8204 0.0002,16.9264 0.0002,10.9104 C0.0002,4.8944 4.8942,0.0004 10.9102,0.0004 C16.9262,0.0004 21.8212,4.8944 21.8212,10.9104 C21.8212,16.9264 16.9262,21.8204 10.9102,21.8204" id="Fill-1" fill="#17E0AB" mask="url(#mask-2)"></path>
                </g>
                <g id="Page-1" transform="translate(48.000000, 801.000000)">
                    <mask id="mask-4" fill="white">
                        <use xlink:href="#path-3"></use>
                    </mask>
                    <g id="Clip-2"></g>
                    <path d="M10.9102,4.4004 C7.3202,4.4004 4.4002,7.3204 4.4002,10.9104 C4.4002,14.5004 7.3202,17.4204 10.9102,17.4204 C14.5002,17.4204 17.4202,14.5004 17.4202,10.9104 C17.4202,7.3204 14.5002,4.4004 10.9102,4.4004 M10.9102,21.8204 C4.8942,21.8204 0.0002,16.9264 0.0002,10.9104 C0.0002,4.8944 4.8942,0.0004 10.9102,0.0004 C16.9262,0.0004 21.8212,4.8944 21.8212,10.9104 C21.8212,16.9264 16.9262,21.8204 10.9102,21.8204" id="Fill-1" fill="#17E0AB" mask="url(#mask-4)"></path>
                </g>
                <g id="Page-1-Copy" transform="translate(35.000000, 1223.000000)">
                    <mask id="mask-6" fill="white">
                        <use xlink:href="#path-5"></use>
                    </mask>
                    <g id="Clip-2"></g>
                    <path d="M5.95101818,2.40021818 C3.99283636,2.40021818 2.40010909,3.99294545 2.40010909,5.95112727 C2.40010909,7.90930909 3.99283636,9.50203636 5.95101818,9.50203636 C7.9092,9.50203636 9.50192727,7.90930909 9.50192727,5.95112727 C9.50192727,3.99294545 7.9092,2.40021818 5.95101818,2.40021818 M5.95101818,11.9020364 C2.66956364,11.9020364 0.000109090909,9.23258182 0.000109090909,5.95112727 C0.000109090909,2.66967273 2.66956364,0.000218181818 5.95101818,0.000218181818 C9.23247273,0.000218181818 11.9024727,2.66967273 11.9024727,5.95112727 C11.9024727,9.23258182 9.23247273,11.9020364 5.95101818,11.9020364" id="Fill-1" fill="#17E0AB" mask="url(#mask-6)"></path>
                </g>
                <g id="Page-1" transform="translate(48.000000, 0.000000)">
                    <mask id="mask-8" fill="white">
                        <use xlink:href="#path-7"></use>
                    </mask>
                    <g id="Clip-2"></g>
                    <path d="M19.6206,8.71 L13.1106,8.71 L13.1106,2.2 C13.1106,0.985 12.1246,-3.55271368e-15 10.9106,-3.55271368e-15 C9.6956,-3.55271368e-15 8.7096,0.985 8.7096,2.2 L8.7096,8.71 L2.2006,8.71 C0.9856,8.71 -0.0004,9.695 -0.0004,10.91 C-0.0004,12.125 0.9856,13.11 2.2006,13.11 L8.7096,13.11 L8.7096,19.621 C8.7096,20.835 9.6956,21.821 10.9106,21.821 C12.1246,21.821 13.1106,20.835 13.1106,19.621 L13.1106,13.11 L19.6206,13.11 C20.8356,13.11 21.8206,12.125 21.8206,10.91 C21.8206,9.695 20.8356,8.71 19.6206,8.71" id="Fill-1" fill="#17E0AB" mask="url(#mask-8)"></path>
                </g>
                <g id="Page-1-Copy-2" transform="translate(17.000000, 489.000000)">
                    <mask id="mask-10" fill="white">
                        <use xlink:href="#path-9"></use>
                    </mask>
                    <g id="Clip-2"></g>
                    <path d="M14.2695273,6.33454545 L9.53498182,6.33454545 L9.53498182,1.6 C9.53498182,0.716363636 8.81789091,-3.55271368e-15 7.93498182,-3.55271368e-15 C7.05134545,-3.55271368e-15 6.33425455,0.716363636 6.33425455,1.6 L6.33425455,6.33454545 L1.60043636,6.33454545 C0.7168,6.33454545 -0.000290909091,7.05090909 -0.000290909091,7.93454545 C-0.000290909091,8.81818182 0.7168,9.53454545 1.60043636,9.53454545 L6.33425455,9.53454545 L6.33425455,14.2698182 C6.33425455,15.1527273 7.05134545,15.8698182 7.93498182,15.8698182 C8.81789091,15.8698182 9.53498182,15.1527273 9.53498182,14.2698182 L9.53498182,9.53454545 L14.2695273,9.53454545 C15.1531636,9.53454545 15.8695273,8.81818182 15.8695273,7.93454545 C15.8695273,7.05090909 15.1531636,6.33454545 14.2695273,6.33454545" id="Fill-1" fill="#17E0AB" mask="url(#mask-10)"></path>
                </g>
            </g>
        </g>
    </g>
</svg>