<?xml version="1.0" encoding="UTF-8"?>
<svg width="413px" height="122px" viewBox="0 0 413 122" version="1.1" xmlns="http://www.w3.org/2000/svg" xmlns:xlink="http://www.w3.org/1999/xlink">
    <!-- Generator: Sketch 50.2 (55047) - http://www.bohemiancoding.com/sketch -->
    <title>Page 1</title>
    <desc>Created with Sketch.</desc>
    <defs>
        <polygon id="path-1" points="0 122 412.191 122 412.191 0.921 0 0.921"></polygon>
    </defs>
    <g id="Page-1" stroke="none" stroke-width="1" fill="none" fill-rule="evenodd">
        <g id="Page-404_design@2x" transform="translate(-514.000000, -321.000000)">
            <g id="Group-2" transform="translate(141.000000, 219.000000)">
                <g id="Page-1" transform="translate(373.000000, 101.000000)">
                    <polygon id="Fill-1" fill="#22232B" points="387.368 122.079 405.709 122.079 405.709 119.59 387.368 119.59"></polygon>
                    <polygon id="Fill-2" fill="#22232B" points="408.587 122.079 412.191 122.079 412.191 119.59 408.587 119.59"></polygon>
                    <polygon id="Fill-3" fill="#22232B" points="384.511 122.079 386.113 122.079 386.113 119.59 384.511 119.59"></polygon>
                    <polygon id="Fill-4" fill="#22232B" points="373.055 122.079 381.862 122.079 381.862 119.59 373.055 119.59"></polygon>
                    <polygon id="Fill-5" fill="#22232B" points="357.806 122.079 361.41 122.079 361.41 119.59 357.806 119.59"></polygon>
                    <polygon id="Fill-6" fill="#22232B" points="309.295 122.079 314.499 122.079 314.499 119.59 309.295 119.59"></polygon>
                    <polygon id="Fill-7" fill="#22232B" points="265.318 122.079 270.522 122.079 270.522 119.59 265.318 119.59"></polygon>
                    <polygon id="Fill-8" fill="#22232B" points="318.37 122.079 354.533 122.079 354.533 119.59 318.37 119.59"></polygon>
                    <polygon id="Fill-9" fill="#22232B" points="273.292 122.079 296.431 122.079 296.431 119.59 273.292 119.59"></polygon>
                    <polygon id="Fill-10" fill="#22232B" points="34.2477 2.1693 -0.0003 71.3323 -0.0003 96.7253 55.1297 96.7253 55.1297 119.2783 91.0477 119.2783 91.0477 96.7253 105.9177 96.7253 105.9177 68.9933 91.0477 68.9933 91.0477 46.6073 55.1297 46.6073 55.1297 68.9933 39.2597 68.9933 71.1687 2.1693"></polygon>
                    <g id="Group-36" transform="translate(0.000000, 0.079000)">
                        <path d="M154.6408,60.5615 C154.6408,84.2845 158.1488,92.3025 168.6748,92.3025 C179.0308,92.3025 182.5418,84.2845 182.5418,60.5615 C182.5418,36.8385 179.0308,28.9865 168.6748,28.9865 C158.1488,28.9865 154.6408,36.8385 154.6408,60.5615 M222.2998,60.5615 C222.2998,98.9855 203.0898,120.3685 168.6748,120.3685 C133.9258,120.3685 114.8798,98.9855 114.8798,60.5615 C114.8798,22.1375 133.9258,0.9215 168.6748,0.9215 C203.0898,0.9215 222.2998,22.1375 222.2998,60.5615" id="Fill-11" fill="#22232B"></path>
                        <polygon id="Fill-13" fill="#6B6BED" points="263.0286 70.7023 257.2576 49.0733 291.9606 39.8133 297.7326 61.4423 312.0996 57.6083 319.2486 84.4033 304.8816 88.2373 310.6966 110.0273 275.9926 119.2873 270.1786 97.4973 216.9126 111.7103 210.3656 87.1753 225.6246 11.5213 261.2966 2.0023 247.6956 74.7933"></polygon>
                        <path d="M308.1898,108.6945 L311.6568,106.3175 L310.6828,102.4715 L313.3048,98.4405 C317.1408,98.3555 324.9248,97.1925 326.9318,88.7255 L393.8748,88.7255 C396.4488,95.8555 400.8488,97.1565 403.5778,97.2045 L405.6348,109.1375 C405.8878,110.6055 404.7578,111.9475 403.2678,111.9475 L393.6558,111.9475 C393.5848,107.2185 389.7308,103.4065 384.9848,103.4065 C380.2388,103.4065 376.3848,107.2185 376.3128,111.9475 L342.0558,111.9475 C341.9848,107.2185 338.1308,103.4065 333.3848,103.4065 C328.6388,103.4065 324.7848,107.2185 324.7138,111.9475 L310.4608,111.8795 C308.8108,111.8795 307.6518,110.2545 308.1898,108.6945" id="Fill-15" fill="#17E0AB"></path>
                        <path d="M403.2682,113.1927 L393.5752,113.1927 L393.5752,110.7037 L403.2682,110.7037 C403.7362,110.7037 404.0232,110.4447 404.1532,110.2917 C404.2822,110.1377 404.4872,109.8107 404.4082,109.3507 L402.2652,96.9137 C401.5702,92.8907 398.1042,89.9697 394.0212,89.9697 L318.5482,89.9697 C316.7512,89.9697 316.4092,90.2257 316.3762,90.2537 C316.3242,90.3997 316.4092,91.0827 316.4722,91.5797 C316.6462,92.9627 316.9082,95.0537 316.0112,97.6527 L315.9142,97.9387 L312.0442,101.6317 C311.8982,101.7687 311.8412,101.9737 311.8892,102.1667 L313.0542,106.7577 L309.9382,109.4437 C309.9122,109.7157 309.9852,109.9877 310.1492,110.2167 C310.3702,110.5257 310.7132,110.7037 311.0912,110.7037 L324.8432,110.7037 L324.8432,113.1927 L311.0912,113.1927 C309.9152,113.1927 308.8062,112.6217 308.1222,111.6637 C307.4392,110.7067 307.2602,109.4687 307.6422,108.3567 L307.7512,108.0387 L310.2602,105.8767 L309.4762,102.7777 C309.2052,101.7137 309.5322,100.5847 310.3252,99.8287 L313.7502,96.5617 C314.3472,94.6417 314.1552,93.1217 314.0022,91.8897 C313.8482,90.6717 313.7042,89.5197 314.5142,88.6017 C315.2182,87.8057 316.3852,87.4807 318.5482,87.4807 L394.0212,87.4807 C399.3202,87.4807 403.8182,91.2697 404.7182,96.4917 L406.8612,108.9267 C407.0452,109.9877 406.7512,111.0707 406.0572,111.8947 C405.3622,112.7197 404.3462,113.1927 403.2682,113.1927" id="Fill-17" fill="#22232B"></path>
                        <mask id="mask-2" fill="white">
                            <use xlink:href="#path-1"></use>
                        </mask>
                        <g id="Clip-20"></g>
                        <polygon id="Fill-19" fill="#36363C" mask="url(#mask-2)" points="342.06 112.95 376.313 112.95 376.313 110.947 342.06 110.947"></polygon>
                        <path d="M333.3842,104.6514 C329.2882,104.6514 325.9552,107.9844 325.9552,112.0814 C325.9552,116.1774 329.2882,119.5104 333.3842,119.5104 C337.4812,119.5104 340.8142,116.1774 340.8142,112.0814 C340.8142,107.9844 337.4812,104.6514 333.3842,104.6514 M333.3842,122.0004 C327.9142,122.0004 323.4662,117.5514 323.4662,112.0814 C323.4662,106.6124 327.9142,102.1624 333.3842,102.1624 C338.8542,102.1624 343.3042,106.6124 343.3042,112.0814 C343.3042,117.5514 338.8542,122.0004 333.3842,122.0004" id="Fill-21" fill="#22232B" mask="url(#mask-2)"></path>
                        <path d="M333.3842,117.1442 C330.5922,117.1442 328.3222,114.8732 328.3222,112.0822 C328.3222,111.0092 328.6532,109.9832 329.2812,109.1162 L331.2992,110.5752 C330.9802,111.0162 330.8112,111.5362 330.8112,112.0822 C330.8112,113.4992 331.9662,114.6552 333.3842,114.6552 C334.8022,114.6552 335.9572,113.4992 335.9572,112.0822 L338.4462,112.0822 C338.4462,114.8732 336.1762,117.1442 333.3842,117.1442" id="Fill-22" fill="#22232B" mask="url(#mask-2)"></path>
                        <path d="M334.9557,110.0452 C334.5027,109.6942 333.9587,109.5092 333.3847,109.5092 L333.3847,107.0192 C334.5147,107.0192 335.5837,107.3842 336.4787,108.0722 L334.9557,110.0452 Z" id="Fill-23" fill="#22232B" mask="url(#mask-2)"></path>
                        <path d="M384.9848,104.4082 C380.7538,104.4082 377.3108,107.8502 377.3108,112.0822 C377.3108,116.3132 380.7538,119.7542 384.9848,119.7542 C389.2158,119.7542 392.6588,116.3132 392.6588,112.0822 C392.6588,107.8502 389.2158,104.4082 384.9848,104.4082 M384.9848,121.7572 C379.6488,121.7572 375.3078,117.4162 375.3078,112.0822 C375.3078,106.7452 379.6488,102.4052 384.9848,102.4052 C390.3208,102.4052 394.6618,106.7452 394.6618,112.0822 C394.6618,117.4162 390.3208,121.7572 384.9848,121.7572" id="Fill-24" fill="#36363C" mask="url(#mask-2)"></path>
                        <path d="M389.3847,114.5864 L387.2207,113.3554 C387.4407,112.9674 387.5577,112.5274 387.5577,112.0814 C387.5577,110.6634 386.4027,109.5084 384.9847,109.5084 C383.5667,109.5084 382.4117,110.6634 382.4117,112.0814 L379.9227,112.0814 C379.9227,109.2894 382.1927,107.0194 384.9847,107.0194 C387.7767,107.0194 390.0477,109.2894 390.0477,112.0814 C390.0477,112.9584 389.8177,113.8254 389.3847,114.5864" id="Fill-25" fill="#22232B" mask="url(#mask-2)"></path>
                        <path d="M384.9848,117.1442 L384.9848,114.6552 C385.3308,114.6552 385.6668,114.5862 385.9878,114.4512 L386.9548,116.7462 C386.3288,117.0102 385.6658,117.1442 384.9848,117.1442" id="Fill-26" fill="#22232B" mask="url(#mask-2)"></path>
                        <path d="M339.8419,87.4805 L392.0289,87.4805 L387.4529,78.0985 C386.1069,75.3375 383.2519,73.5525 380.1789,73.5525 L354.1389,73.5525 C351.5669,73.5525 349.1249,74.7915 347.6069,76.8675 L339.8419,87.4805 Z M396.0139,89.9695 L334.9359,89.9695 L345.5979,75.3965 C347.5839,72.6835 350.7769,71.0635 354.1389,71.0635 L380.1789,71.0635 C384.1979,71.0635 387.9319,73.3965 389.6899,77.0075 L396.0139,89.9695 Z" id="Fill-27" fill="#22232B" mask="url(#mask-2)"></path>
                        <polygon id="Fill-28" fill="#22232B" mask="url(#mask-2)" points="367.641 95.268 370.13 95.268 370.13 72.308 367.641 72.308"></polygon>
                        <path d="M313.3045,99.6861 L313.3045,97.1971 C316.6905,97.1971 319.4775,96.4661 321.5875,95.0251 L322.9915,97.0831 C320.4595,98.8111 317.1995,99.6861 313.3045,99.6861" id="Fill-29" fill="#22232B" mask="url(#mask-2)"></path>
                        <path d="M327.0846,92.347 L324.8476,91.253 C325.5636,89.789 325.6906,88.617 325.6926,88.607 L328.1696,88.844 C328.1636,88.909 328.0076,90.456 327.0846,92.347" id="Fill-30" fill="#22232B" mask="url(#mask-2)"></path>
                        <polygon id="Fill-31" fill="#22232B" mask="url(#mask-2)" points="356.073 94.827 361.944 94.827 361.944 92.338 356.073 92.338"></polygon>
                        <path d="M326.9615,76.9118 L324.9705,75.4168 C325.3005,74.9758 332.9935,64.4598 326.9205,52.8788 C321.3595,42.2788 323.1345,30.9698 331.0485,26.5728 L332.2585,28.7488 C325.5555,32.4728 324.2095,42.3498 329.1245,51.7238 C335.9425,64.7218 327.3305,76.4208 326.9615,76.9118" id="Fill-32" fill="#22232B" mask="url(#mask-2)"></path>
                        <path d="M322.2075,59.0965 C321.7785,58.7565 311.7785,50.5685 316.6905,34.7815 L319.0675,35.5195 C314.6575,49.6995 323.6665,57.0755 323.7575,57.1485 L322.2075,59.0965 Z" id="Fill-33" fill="#22232B" mask="url(#mask-2)"></path>
                        <path d="M337.895,64.1909 C337.643,63.8659 331.772,56.1279 335.515,48.1619 L337.767,49.2189 C334.665,55.8239 339.813,62.5999 339.865,62.6679 L337.895,64.1909 Z" id="Fill-34" fill="#22232B" mask="url(#mask-2)"></path>
                        <path d="M402.142,98.9232 C401.394,98.9232 400.461,98.7862 399.431,98.3332 C396.736,97.1492 394.525,94.3242 392.857,89.9332 L395.186,89.0492 C396.587,92.7392 398.402,95.1612 400.432,96.0542 C401.906,96.7042 403.022,96.3172 403.03,96.3122 L403.954,98.6252 C403.834,98.6722 403.159,98.9232 402.142,98.9232" id="Fill-35" fill="#22232B" mask="url(#mask-2)"></path>
                    </g>
                </g>
            </g>
        </g>
    </g>
</svg>