<?xml version="1.0" encoding="UTF-8"?>
<svg width="60px" height="85px" viewBox="0 0 60 85" version="1.1" xmlns="http://www.w3.org/2000/svg" xmlns:xlink="http://www.w3.org/1999/xlink">
    <!-- Generator: Sketch 51 (57462) - http://www.bohemiancoding.com/sketch -->
    <title>old permis</title>
    <desc>Created with Sketch.</desc>
    <defs>
        <polygon id="path-1" points="0 85 60 85 60 0 0 0"></polygon>
    </defs>
    <g id="Page-1" stroke="none" stroke-width="1" fill="none" fill-rule="evenodd">
        <g id="Tunnel-de-commande02_design@2x" transform="translate(-219.000000, -1416.000000)">
            <g id="old-permis" transform="translate(219.000000, 1416.000000)">
                <path d="M58.0952381,85 L1.9047619,85 C0.852698413,85 0,84.1449064 0,83.0898876 L0,1.91011236 C0,0.855093633 0.852698413,0 1.9047619,0 L58.0952381,0 C59.1473016,0 60,0.855093633 60,1.91011236 L60,83.0898876 C60,84.1449064 59.1473016,85 58.0952381,85" id="Fill-1" fill="#ED83A6" fill-rule="evenodd"></path>
                <path d="M3.49206349,2.38760861 C2.87936508,2.38760861 2.38095238,2.88742135 2.38095238,3.50184082 L2.38095238,81.4980955 C2.38095238,82.112515 2.87936508,82.6123277 3.49206349,82.6123277 L56.5079365,82.6123277 C57.1206349,82.6123277 57.6190476,82.112515 57.6190476,81.4980955 L57.6190476,3.50184082 C57.6190476,2.88742135 57.1206349,2.38760861 56.5079365,2.38760861 L3.49206349,2.38760861 Z M56.5079365,82.9306798 L3.49206349,82.9306798 C2.70444444,82.9306798 2.06349206,82.287927 2.06349206,81.4980955 L2.06349206,3.50184082 C2.06349206,2.71200936 2.70444444,2.06925655 3.49206349,2.06925655 L56.5079365,2.06925655 C57.2955556,2.06925655 57.9365079,2.71200936 57.9365079,3.50184082 L57.9365079,81.4980955 C57.9365079,82.287927 57.2955556,82.9306798 56.5079365,82.9306798 Z" id="Fill-3" fill="#6D3548" fill-rule="evenodd"></path>
                <path d="M11.2729524,6.40868165 L11.6481905,6.40868165 C11.7650159,6.40868165 11.8551746,6.37875655 11.9193016,6.31922472 C11.9834286,6.25969288 12.0154921,6.17755805 12.0154921,6.07282022 C12.0154921,5.96617228 11.9853333,5.88212734 11.9246984,5.82100375 C11.864381,5.75988015 11.7713651,5.72931835 11.6466032,5.72931835 L11.2729524,5.72931835 L11.2729524,6.40868165 Z M11.6434286,6.78656554 L11.2729524,6.78656554 L11.2729524,7.6149176 L10.807873,7.6149176 L10.807873,5.35175281 L11.6466032,5.35175281 C11.9132698,5.35175281 12.1186667,5.41128464 12.2634286,5.53034831 C12.4081905,5.64973034 12.4805714,5.81813858 12.4805714,6.03557303 C12.4805714,6.18997378 12.4472381,6.31890637 12.380254,6.42205243 C12.3139048,6.52488015 12.2129524,6.60733333 12.0773968,6.66813858 L12.5656508,7.59326966 L12.5656508,7.6149176 L12.0666032,7.6149176 L11.6434286,6.78656554 Z" id="Fill-5" fill="#6D3548" fill-rule="evenodd"></path>
                <path d="M13.8337143,4.7407397 L14.3219683,4.7407397 L13.8927619,5.22272472 L13.5283175,5.22272472 L13.8337143,4.7407397 Z M14.3187937,6.63079588 L13.4260952,6.63079588 L13.4260952,7.24044007 L14.4740317,7.24044007 L14.4740317,7.6148221 L12.9610159,7.6148221 L12.9610159,5.3516573 L14.4708571,5.3516573 L14.4708571,5.72922285 L13.4260952,5.72922285 L13.4260952,6.26882959 L14.3187937,6.26882959 L14.3187937,6.63079588 Z" id="Fill-7" fill="#6D3548" fill-rule="evenodd"></path>
                <path d="M15.3385714,6.43978464 L15.754127,6.43978464 C15.8769841,6.43978464 15.9706349,6.41081461 16.0353968,6.35287453 C16.0998413,6.2946161 16.1322222,6.21184457 16.1322222,6.10392322 C16.1322222,5.9931367 16.0995238,5.90336142 16.0344444,5.83523408 C15.9693651,5.76678839 15.8795238,5.73145131 15.7649206,5.7295412 L15.3385714,5.7295412 L15.3385714,6.43978464 Z M15.3385714,6.81766854 L15.3385714,7.6148221 L14.8734921,7.6148221 L14.8734921,5.3516573 L15.754127,5.3516573 C15.9236508,5.3516573 16.0728571,5.38285581 16.2011111,5.44493446 C16.33,5.50701311 16.4290476,5.59551498 16.4979365,5.71012172 C16.5671429,5.82441011 16.601746,5.95493446 16.601746,6.10105805 C16.601746,6.32263109 16.5261905,6.49772472 16.3747619,6.6253839 C16.2233333,6.75336142 16.0138095,6.81766854 15.7461905,6.81766854 L15.3385714,6.81766854 Z" id="Fill-9" fill="#6D3548" fill-rule="evenodd"></path>
                <path d="M18.7565397,5.3516573 L18.7565397,6.8425 C18.7565397,7.08985955 18.6793968,7.28596442 18.5247937,7.42985955 C18.3701905,7.57407303 18.1590794,7.6460206 17.8914603,7.6460206 C17.6279683,7.6460206 17.4187619,7.57598315 17.2638413,7.43622659 C17.1089206,7.29615169 17.029873,7.10386704 17.0266984,6.85937266 L17.0266984,5.3516573 L17.4917778,5.3516573 L17.4917778,6.84536517 C17.4917778,6.99371723 17.5270159,7.10163858 17.5978095,7.16944757 C17.6686032,7.23757491 17.7666984,7.27132022 17.8914603,7.27132022 C18.1530476,7.27132022 18.2860635,7.13347378 18.289873,6.8577809 L18.289873,5.3516573 L18.7565397,5.3516573 Z" id="Fill-11" fill="#6D3548" fill-rule="evenodd"></path>
                <path d="M19.7296825,6.43978464 L20.1452381,6.43978464 C20.2680952,6.43978464 20.361746,6.41081461 20.4265079,6.35287453 C20.4909524,6.2946161 20.5233333,6.21184457 20.5233333,6.10392322 C20.5233333,5.9931367 20.4906349,5.90336142 20.4255556,5.83523408 C20.3604762,5.76678839 20.2706349,5.73145131 20.1560317,5.7295412 L19.7296825,5.7295412 L19.7296825,6.43978464 Z M19.7296825,6.81766854 L19.7296825,7.6148221 L19.2646032,7.6148221 L19.2646032,5.3516573 L20.1452381,5.3516573 C20.3147619,5.3516573 20.4639683,5.38285581 20.5922222,5.44493446 C20.7211111,5.50701311 20.8201587,5.59551498 20.8890476,5.71012172 C20.958254,5.82441011 20.9928571,5.95493446 20.9928571,6.10105805 C20.9928571,6.32263109 20.9173016,6.49772472 20.765873,6.6253839 C20.6144444,6.75336142 20.4049206,6.81766854 20.1373016,6.81766854 L19.7296825,6.81766854 Z" id="Fill-13" fill="#6D3548" fill-rule="evenodd"></path>
                <polygon id="Fill-15" fill="#6D3548" fill-rule="evenodd" points="21.9044762 7.24031273 22.8917778 7.24031273 22.8917778 7.61501311 21.4393968 7.61501311 21.4393968 5.35152996 21.9044762 5.35152996"></polygon>
                <mask id="mask-2" fill="white">
                    <use xlink:href="#path-1"></use>
                </mask>
                <g id="Clip-18"></g>
                <polygon id="Fill-17" fill="#6D3548" fill-rule="evenodd" mask="url(#mask-2)" points="23.3149206 7.61498127 23.8149206 7.61498127 23.8149206 5.35181648 23.3149206 5.35181648"></polygon>
                <path d="M25.7173968,6.43198502 C25.7173968,6.19449438 25.6748571,6.01430712 25.5904127,5.89110487 C25.5056508,5.76790262 25.3846984,5.70614232 25.2275556,5.70614232 C25.0716825,5.70614232 24.9510476,5.76694757 24.8662857,5.88855805 C24.7818413,6.01048689 24.7386667,6.1890824 24.7377143,6.42434457 L24.7377143,6.53449438 C24.7377143,6.76561798 24.780254,6.94485019 24.8646984,7.07250936 C24.9494603,7.19985019 25.0716825,7.2635206 25.2307302,7.2635206 C25.3866032,7.2635206 25.5066032,7.20207865 25.5904127,7.07951311 C25.6739048,6.95662921 25.7164444,6.777397 25.7173968,6.54245318 L25.7173968,6.43198502 Z M26.1885079,6.53449438 C26.1885079,6.74588015 26.1545397,6.92956929 26.0862857,7.0855618 C26.0180317,7.24155431 25.9234286,7.36666667 25.8027937,7.46089888 L26.1777143,7.75632959 L25.8818413,8.01897004 L25.4012063,7.63217228 C25.3462857,7.64140449 25.2894603,7.64586142 25.2307302,7.64586142 C25.043746,7.64586142 24.8767619,7.60097378 24.7300952,7.51088015 C24.5834286,7.42046816 24.4694603,7.29185393 24.3888254,7.12440075 C24.3085079,6.95694757 24.2675556,6.76466292 24.2666032,6.54691011 L24.2666032,6.43516854 C24.2666032,6.2123221 24.3066032,6.01621723 24.3869206,5.84685393 C24.4669206,5.67717228 24.5799365,5.54728464 24.7259683,5.45655431 C24.8723175,5.36582397 25.0393016,5.32061798 25.2275556,5.32061798 C25.4158095,5.32061798 25.5827937,5.36582397 25.7291429,5.45655431 C25.8751746,5.54728464 25.9885079,5.67717228 26.0681905,5.84685393 C26.1485079,6.01621723 26.1885079,6.21168539 26.1885079,6.43357678 L26.1885079,6.53449438 Z" id="Fill-19" fill="#6D3548" fill-rule="evenodd" mask="url(#mask-2)"></path>
                <path d="M28.3649841,5.3516573 L28.3649841,6.8425 C28.3649841,7.08985955 28.2878413,7.28596442 28.1332381,7.42985955 C27.9786349,7.57407303 27.7675238,7.6460206 27.4999048,7.6460206 C27.2364127,7.6460206 27.0272063,7.57598315 26.8722857,7.43622659 C26.7173651,7.29615169 26.6383175,7.10386704 26.6351429,6.85937266 L26.6351429,5.3516573 L27.1002222,5.3516573 L27.1002222,6.84536517 C27.1002222,6.99371723 27.1354603,7.10163858 27.206254,7.16944757 C27.2770476,7.23757491 27.3751429,7.27132022 27.4999048,7.27132022 C27.7614921,7.27132022 27.8945079,7.13347378 27.8983175,6.8577809 L27.8983175,5.3516573 L28.3649841,5.3516573 Z" id="Fill-20" fill="#6D3548" fill-rule="evenodd" mask="url(#mask-2)"></path>
                <polygon id="Fill-21" fill="#6D3548" fill-rule="evenodd" mask="url(#mask-2)" points="30.2309841 6.63095506 29.3379683 6.63095506 29.3379683 7.2402809 30.3859048 7.2402809 30.3859048 7.61498127 28.8732063 7.61498127 28.8732063 5.35149813 30.3830476 5.35149813 30.3830476 5.72938202 29.3379683 5.72938202 29.3379683 6.26867041 30.2309841 6.26867041"></polygon>
                <polygon id="Fill-22" fill="#6D3548" fill-rule="evenodd" mask="url(#mask-2)" points="33.0614603 6.6900412 32.1684444 6.6900412 32.1684444 7.61485393 31.7036825 7.61485393 31.7036825 5.35168914 33.1732063 5.35168914 33.1732063 5.72925468 32.1684444 5.72925468 32.1684444 6.31374906 33.0614603 6.31374906"></polygon>
                <path d="M34.0346032,6.40868165 L34.4098413,6.40868165 C34.5266667,6.40868165 34.6168254,6.37875655 34.6809524,6.31922472 C34.7450794,6.25969288 34.7771429,6.17755805 34.7771429,6.07282022 C34.7771429,5.96617228 34.7469841,5.88212734 34.6863492,5.82100375 C34.6260317,5.75988015 34.5330159,5.72931835 34.408254,5.72931835 L34.0346032,5.72931835 L34.0346032,6.40868165 Z M34.4050794,6.78656554 L34.0346032,6.78656554 L34.0346032,7.6149176 L33.5695238,7.6149176 L33.5695238,5.35175281 L34.408254,5.35175281 C34.6749206,5.35175281 34.8803175,5.41128464 35.0250794,5.53034831 C35.1698413,5.64973034 35.2422222,5.81813858 35.2422222,6.03557303 C35.2422222,6.18997378 35.2088889,6.31890637 35.1419048,6.42205243 C35.0755556,6.52488015 34.9746032,6.60733333 34.8390476,6.66813858 L35.3273016,7.59326966 L35.3273016,7.6149176 L34.828254,7.6149176 L34.4050794,6.78656554 Z" id="Fill-23" fill="#6D3548" fill-rule="evenodd" mask="url(#mask-2)"></path>
                <path d="M36.3070476,6.77087079 L36.8711746,6.77087079 L36.5876825,5.92373596 L36.3070476,6.77087079 Z M36.9968889,7.14875468 L36.1813333,7.14875468 L36.0264127,7.6148221 L35.532127,7.6148221 L36.372127,5.3516573 L36.8029206,5.3516573 L37.648,7.6148221 L37.1533968,7.6148221 L36.9968889,7.14875468 Z" id="Fill-24" fill="#6D3548" fill-rule="evenodd" mask="url(#mask-2)"></path>
                <polygon id="Fill-25" fill="#6D3548" fill-rule="evenodd" mask="url(#mask-2)" points="39.8208254 7.61494944 39.355746 7.61494944 38.4506667 6.1256985 38.4506667 7.61494944 37.9855873 7.61494944 37.9855873 5.35178464 38.4506667 5.35178464 39.3573333 6.84390075 39.3573333 5.35178464 39.8208254 5.35178464"></polygon>
                <path d="M41.3879683,7.60562172 L41.3708254,7.69571536 C41.5260635,7.72373034 41.6035238,7.81350562 41.6035238,7.96472285 C41.6035238,8.07869288 41.5562222,8.16878652 41.4613016,8.2353221 C41.3673333,8.30153933 41.234,8.33464794 41.0625714,8.33464794 L41.0514603,8.07519101 C41.1673333,8.07519101 41.2251111,8.03316854 41.2251111,7.9491236 C41.2251111,7.90550936 41.2079683,7.87590262 41.1730476,7.85966667 C41.1387619,7.84374906 41.0825714,7.83292509 41.0051111,7.82783146 L41.0530476,7.60562172 L41.3879683,7.60562172 Z M42.125746,6.86099625 C42.1082857,7.10453558 42.0184444,7.29618352 41.8571746,7.43625843 C41.6952698,7.57601498 41.4819365,7.64605243 41.2174921,7.64605243 C40.9282857,7.64605243 40.7006667,7.54831835 40.5346349,7.35316854 C40.3689206,7.15770037 40.285746,6.88932959 40.285746,6.54869288 L40.285746,6.41020974 C40.285746,6.19277528 40.3238413,6.00080899 40.4006667,5.83494757 C40.4771746,5.66908614 40.586381,5.54206367 40.7286032,5.4535618 C40.8705079,5.36474157 41.0355873,5.32049064 41.2235238,5.32049064 C41.4841587,5.32049064 41.694,5.39052809 41.8530476,5.53028464 C42.0120952,5.67035955 42.1041587,5.86678277 42.1289206,6.11955431 L41.6638413,6.11955431 C41.6524127,5.97343071 41.6120952,5.86741948 41.5419365,5.8015206 C41.4727302,5.73594007 41.366381,5.70283146 41.2235238,5.70283146 C41.0686032,5.70283146 40.9527302,5.75854307 40.8755873,5.86996629 C40.7987619,5.98138951 40.7593968,6.15425468 40.7571746,6.3885618 L40.7571746,6.55951685 C40.7571746,6.80401124 40.794,6.98260674 40.8679683,7.09562172 C40.9419365,7.2086367 41.0584444,7.26530337 41.2174921,7.26530337 C41.3609841,7.26530337 41.4682857,7.23219476 41.5390794,7.16661423 C41.609873,7.10071536 41.6505079,6.9988427 41.6606667,6.86099625 L42.125746,6.86099625 Z" id="Fill-26" fill="#6D3548" fill-rule="evenodd" mask="url(#mask-2)"></path>
                <path d="M43.1426984,6.77087079 L43.7068254,6.77087079 L43.4233333,5.92373596 L43.1426984,6.77087079 Z M43.8325397,7.14875468 L43.0169841,7.14875468 L42.8620635,7.6148221 L42.3677778,7.6148221 L43.2077778,5.3516573 L43.6385714,5.3516573 L44.4836508,7.6148221 L43.9890476,7.6148221 L43.8325397,7.14875468 Z" id="Fill-27" fill="#6D3548" fill-rule="evenodd" mask="url(#mask-2)"></path>
                <polygon id="Fill-28" fill="#6D3548" fill-rule="evenodd" mask="url(#mask-2)" points="44.8504762 7.61498127 45.3504762 7.61498127 45.3504762 5.35181648 44.8504762 5.35181648"></polygon>
                <path d="M47.0439683,7.02112734 C47.0439683,6.93294382 47.0128571,6.86545318 46.9509524,6.81833708 C46.8890476,6.77122097 46.7773016,6.72155805 46.6160317,6.66902996 C46.4550794,6.61650187 46.3271429,6.56524719 46.2331746,6.51431086 C45.9769841,6.37550936 45.8487302,6.18831835 45.8487302,5.95337453 C45.8487302,5.83080899 45.8833333,5.72193258 45.9519048,5.62610861 C46.0204762,5.52996629 46.1192063,5.45547191 46.2480952,5.40135206 C46.3763492,5.34755056 46.5211111,5.32049064 46.6811111,5.32049064 C46.842381,5.32049064 46.985873,5.34977903 47.1122222,5.40835581 C47.238254,5.46693258 47.3363492,5.54938577 47.405873,5.65635206 C47.4757143,5.763 47.5106349,5.88429213 47.5106349,6.01991011 L47.0455556,6.01991011 C47.0455556,5.91644569 47.0128571,5.83590262 46.9477778,5.7782809 C46.8826984,5.72097753 46.7912698,5.69200749 46.6734921,5.69200749 C46.5598413,5.69200749 46.4712698,5.71620225 46.4084127,5.76427341 C46.3455556,5.81266292 46.3138095,5.87601498 46.3138095,5.95464794 C46.3138095,6.02818727 46.3506349,6.08994757 46.4249206,6.13961049 C46.4985714,6.18959176 46.6074603,6.23607116 46.7509524,6.27968539 C47.0153968,6.35927341 47.2084127,6.4582809 47.3290476,6.57670787 C47.45,6.69481648 47.5106349,6.84189513 47.5106349,7.01794382 C47.5106349,7.21373034 47.4366667,7.36749438 47.2887302,7.4789176 C47.1411111,7.59034082 46.942381,7.64605243 46.6922222,7.64605243 C46.5185714,7.64605243 46.3604762,7.61421723 46.217619,7.55054682 C46.0750794,7.48655805 45.9661905,7.39932959 45.8915873,7.28854307 C45.8166667,7.17775655 45.7792063,7.04914232 45.7792063,6.90301873 L46.2455556,6.90301873 C46.2455556,7.15292509 46.3944444,7.2777191 46.6922222,7.2777191 C46.8026984,7.2777191 46.8890476,7.2551161 46.9509524,7.20991011 C47.0128571,7.16502247 47.0439683,7.10198876 47.0439683,7.02112734" id="Fill-29" fill="#6D3548" fill-rule="evenodd" mask="url(#mask-2)"></path>
                <polygon id="Fill-30" fill="#6D3548" fill-rule="evenodd" mask="url(#mask-2)" points="49.3099048 6.63095506 48.4168889 6.63095506 48.4168889 7.2402809 49.4648254 7.2402809 49.4648254 7.61498127 47.952127 7.61498127 47.952127 5.35149813 49.4619683 5.35149813 49.4619683 5.72938202 48.4168889 5.72938202 48.4168889 6.26867041 49.3099048 6.26867041"></polygon>
                <path d="M6.14990476,57.1625318 L6.64387302,57.1625318 C6.78990476,57.1625318 6.90069841,57.1259213 6.97720635,57.0527004 C7.05403175,56.9794794 7.09212698,56.8763333 7.09212698,56.7429438 C7.09212698,56.5965019 7.0527619,56.4796667 6.97403175,56.3921199 C6.89530159,56.304573 6.788,56.2600037 6.65244444,56.2587303 L6.14990476,56.2587303 L6.14990476,57.1625318 Z M6.14990476,57.7457528 L6.14990476,58.8087303 L5.39688889,58.8087303 L5.39688889,55.6755094 L6.64387302,55.6755094 C6.88260317,55.6755094 7.09371429,55.7194419 7.27784127,55.8079438 C7.46165079,55.895809 7.60387302,56.0215581 7.7048254,56.184236 C7.80577778,56.3472322 7.85625397,56.5318764 7.85625397,56.7384869 C7.85625397,57.0441049 7.74704762,57.2885993 7.52895238,57.4713333 C7.31085714,57.6543858 7.0111746,57.7457528 6.63053968,57.7457528 L6.14990476,57.7457528 Z" id="Fill-31" fill="#6D3548" fill-rule="evenodd" mask="url(#mask-2)"></path>
                <polygon id="Fill-32" fill="#6D3548" fill-rule="evenodd" mask="url(#mask-2)" points="10.4587937 57.4788783 9.27403175 57.4788783 9.27403175 58.2276423 10.6733968 58.2276423 10.6733968 58.8089532 8.52101587 58.8089532 8.52101587 55.6754139 10.6781587 55.6754139 10.6781587 56.2586348 9.27403175 56.2586348 9.27403175 56.9192154 10.4587937 56.9192154"></polygon>
                <path d="M11.9973333,57.1194906 L12.4741587,57.1194906 C12.6170159,57.1194906 12.7246349,57.0816067 12.7970159,57.0061573 C12.8693968,56.9307079 12.9052698,56.8253333 12.9052698,56.6903521 C12.9052698,56.5550524 12.8690794,56.4487228 12.795746,56.372 C12.7230476,56.2949588 12.6154286,56.2564382 12.4741587,56.2564382 L11.9973333,56.2564382 L11.9973333,57.1194906 Z M12.4052698,57.7004831 L11.9973333,57.7004831 L11.9973333,58.808985 L11.2443175,58.808985 L11.2443175,55.6754457 L12.4741587,55.6754457 C12.8446349,55.6754457 13.1341587,55.7578989 13.3430476,55.9224869 C13.5519365,56.0873933 13.656381,56.320427 13.656381,56.6212697 C13.656381,56.8393408 13.6125714,57.0198464 13.5243175,57.1631049 C13.436381,57.3063633 13.2989206,57.4225618 13.1113016,57.511382 L13.7636825,58.7765131 L13.7636825,58.808985 L12.9566984,58.808985 L12.4052698,57.7004831 Z" id="Fill-33" fill="#6D3548" fill-rule="evenodd" mask="url(#mask-2)"></path>
                <polygon id="Fill-34" fill="#6D3548" fill-rule="evenodd" mask="url(#mask-2)" points="15.3646032 55.6754775 16.061746 57.8555524 16.7573016 55.6754775 17.7487302 55.6754775 17.7487302 58.8090169 16.9931746 58.8090169 16.9931746 58.0771255 17.0661905 56.579279 16.3109524 58.8090169 15.8128571 58.8090169 15.0557143 56.5770506 15.1280952 58.0771255 15.1280952 58.8090169 14.3750794 58.8090169 14.3750794 55.6754775"></polygon>
                <polygon id="Fill-35" fill="#6D3548" fill-rule="evenodd" mask="url(#mask-2)" points="18.5422222 58.8088577 19.2933333 58.8088577 19.2933333 55.6753184 18.5422222 55.6753184"></polygon>
                <path d="M21.6924127,57.9760169 C21.6924127,57.8655487 21.6533651,57.7795936 21.5755873,57.7178333 C21.4974921,57.656073 21.3606667,57.5924026 21.1647937,57.5261854 C20.9686032,57.4602865 20.8082857,57.3962978 20.6841587,57.3348558 C20.2790794,57.1352491 20.0765397,56.8611479 20.0765397,56.5125524 C20.0765397,56.3390506 20.1270159,56.1859232 20.2279683,56.0531704 C20.3289206,55.9204176 20.4714603,55.8172715 20.6559048,55.7434139 C20.8406667,55.6692378 21.0479683,55.632309 21.2784444,55.632309 C21.5028889,55.632309 21.7041587,55.6727397 21.8825714,55.7529644 C22.0606667,55.8331891 22.1987619,55.9474775 22.2978095,56.0961479 C22.3962222,56.2445 22.445746,56.4141816 22.445746,56.6051929 L21.6946349,56.6051929 C21.6946349,56.4775337 21.6559048,56.3785262 21.5778095,56.3081704 C21.5000317,56.2378146 21.3943175,56.2027959 21.2613016,56.2027959 C21.1266984,56.2027959 21.0206667,56.2324026 20.9425714,56.2919345 C20.8647937,56.3514663 20.8254286,56.4272341 20.8254286,56.5189195 C20.8254286,56.5994625 20.8682857,56.6720468 20.9543175,56.7376273 C21.0400317,56.8028895 21.1911429,56.8700618 21.4070159,56.9397809 C21.6232063,57.0095 21.8006667,57.0843127 21.9393968,57.1645375 C22.2771746,57.3600056 22.445746,57.6290131 22.445746,57.9715599 C22.445746,58.245661 22.3428889,58.460867 22.1368571,58.6171779 C21.9308254,58.7738071 21.6482857,58.8518034 21.2889206,58.8518034 C21.0359048,58.8518034 20.8066984,58.806279 20.6013016,58.7152303 C20.3959048,58.6241816 20.2413016,58.4993876 20.1378095,58.3408483 C20.034,58.182309 19.982254,57.9995749 19.982254,57.7929644 L20.7374921,57.7929644 C20.7374921,57.9610543 20.7809841,58.0848933 20.8673333,58.1641629 C20.954,58.2440693 21.0946349,58.2838633 21.2889206,58.2838633 C21.4136825,58.2838633 21.5117778,58.2568034 21.5841587,58.2030019 C21.6565397,58.1492004 21.6924127,58.0734326 21.6924127,57.9760169" id="Fill-36" fill="#6D3548" fill-rule="evenodd" mask="url(#mask-2)"></path>
                <path d="M25.2069524,56.2586667 L25.2069524,58.2276742 L25.4691746,58.2276742 C25.6850476,58.2276742 25.8507619,58.150633 25.9669524,57.9962322 C26.0825079,57.8421498 26.1406032,57.6129363 26.1406032,57.3089101 L26.1406032,57.1732921 C26.1406032,56.8705393 26.0825079,56.6422809 25.9669524,56.4888352 C25.8507619,56.3353895 25.6821905,56.2586667 25.4606032,56.2586667 L25.2069524,56.2586667 Z M24.4539365,58.808985 L24.4539365,55.6754457 L25.4606032,55.6754457 C25.7364762,55.6754457 25.9847302,55.738161 26.2050476,55.8639101 C26.4253651,55.9893408 26.5971111,56.1663446 26.7209206,56.3952397 C26.8447302,56.6241348 26.9075873,56.8807266 26.9088571,57.1646966 L26.9088571,57.3089101 C26.9088571,57.5957453 26.8485397,57.8529738 26.7275873,58.0805955 C26.6069524,58.3078989 26.4364762,58.4858577 26.2167937,58.6141536 C25.9974286,58.7424494 25.7523492,58.8073933 25.4815556,58.808985 L24.4539365,58.808985 Z" id="Fill-37" fill="#6D3548" fill-rule="evenodd" mask="url(#mask-2)"></path>
                <polygon id="Fill-38" fill="#6D3548" fill-rule="evenodd" mask="url(#mask-2)" points="29.4966667 57.4788783 28.3119048 57.4788783 28.3119048 58.2276423 29.7112698 58.2276423 29.7112698 58.8089532 27.5588889 58.8089532 27.5588889 55.6754139 29.7160317 55.6754139 29.7160317 56.2586348 28.3119048 56.2586348 28.3119048 56.9192154 29.4966667 56.9192154"></polygon>
                <path d="M34.1680635,57.7478858 C34.1582222,57.9659569 34.0994921,58.1585599 33.9921905,58.3256948 C33.8848889,58.4928296 33.7340952,58.6223989 33.5404444,58.7140843 C33.3464762,58.806088 33.1252063,58.8519307 32.876,58.8519307 C32.4655238,58.8519307 32.1423492,58.7179045 31.9061587,58.4495337 C31.6699683,58.1811629 31.551873,57.802324 31.551873,57.3130169 L31.551873,57.1582978 C31.551873,56.851088 31.6055238,56.5827172 31.711873,56.3522303 C31.8185397,56.1220618 31.971873,55.944103 32.1721905,55.8183539 C32.3725079,55.6929232 32.6045714,55.6302079 32.8674286,55.6302079 C33.2464762,55.6302079 33.5512381,55.7304888 33.7817143,55.9304139 C34.0121905,56.1306573 34.1429841,56.4063502 34.1747302,56.7578109 L33.4233016,56.7578109 C33.4175873,56.567118 33.3696508,56.4302266 33.2794921,56.3468184 C33.1893333,56.2637285 33.0521905,56.2220243 32.8674286,56.2220243 C32.680127,56.2220243 32.5426667,56.2923801 32.4556825,56.4330918 C32.368381,56.573485 32.3223492,56.7982416 32.3182222,57.1067247 L32.3182222,57.3282978 C32.3182222,57.6625674 32.360127,57.9013315 32.443619,58.0449082 C32.5274286,58.188485 32.6715556,58.2601142 32.876,58.2601142 C33.0490159,58.2601142 33.1813968,58.2190468 33.2734603,58.1375487 C33.3648889,58.0557322 33.4134603,57.9258446 33.4191746,57.7478858 L34.1680635,57.7478858 Z" id="Fill-39" fill="#6D3548" fill-rule="evenodd" mask="url(#mask-2)"></path>
                <path d="M36.6680317,57.1754569 C36.6680317,56.8641086 36.6162857,56.627573 36.5124762,56.4664869 C36.4089841,56.304764 36.2604127,56.224221 36.0670794,56.224221 C35.6893016,56.224221 35.489619,56.508191 35.4686667,57.0764494 L35.466127,57.306618 C35.466127,57.6138277 35.5172381,57.8497266 35.6185079,58.014633 C35.7200952,58.1798577 35.8708889,58.2623109 36.0715238,58.2623109 C36.2616825,58.2623109 36.4083492,58.1811311 36.5112063,58.0190899 C36.6140635,57.8570487 36.6667619,57.6236966 36.6680317,57.3196704 L36.6680317,57.1754569 Z M37.434381,57.306618 C37.434381,57.612236 37.3775556,57.8828352 37.2645397,58.1180974 C37.1518413,58.3533596 36.9908889,58.5345019 36.7829524,58.6615243 C36.5746984,58.7882285 36.3375556,58.8518989 36.0715238,58.8518989 C35.8051746,58.8518989 35.5693016,58.7907753 35.3632698,58.6678914 C35.1572381,58.5453258 34.9969206,58.3699139 34.8816825,58.1416554 C34.7664444,57.9137154 34.7058095,57.6517116 34.7000952,57.3562809 L34.7000952,57.1799139 C34.7000952,56.8727041 34.7562857,56.6017865 34.8686667,56.3674794 C34.9810476,56.1328539 35.1416825,55.9517116 35.3512063,55.8240524 C35.5610476,55.6963933 35.7997778,55.6324045 36.0670794,55.6324045 C36.3318413,55.6324045 36.5680317,55.6954382 36.7753333,55.821824 C36.9826349,55.9482097 37.1442222,56.1277603 37.2594603,56.360794 C37.3746984,56.5941461 37.4327937,56.8612434 37.434381,57.1624045 L37.434381,57.306618 Z" id="Fill-40" fill="#6D3548" fill-rule="evenodd" mask="url(#mask-2)"></path>
                <polygon id="Fill-41" fill="#6D3548" fill-rule="evenodd" mask="url(#mask-2)" points="40.6959365 58.8088577 39.9467302 58.8088577 38.8394286 56.8589513 38.8394286 58.8088577 38.0864127 58.8088577 38.0864127 55.6753184 38.8394286 55.6753184 39.9448254 57.6252247 39.9448254 55.6753184 40.6959365 55.6753184"></polygon>
                <path d="M42.1889206,56.2586667 L42.1889206,58.2276742 L42.4511429,58.2276742 C42.6670159,58.2276742 42.8327302,58.150633 42.9489206,57.9962322 C43.0644762,57.8421498 43.1225714,57.6129363 43.1225714,57.3089101 L43.1225714,57.1732921 C43.1225714,56.8705393 43.0644762,56.6422809 42.9489206,56.4888352 C42.8327302,56.3353895 42.6641587,56.2586667 42.4425714,56.2586667 L42.1889206,56.2586667 Z M41.4359048,58.808985 L41.4359048,55.6754457 L42.4425714,55.6754457 C42.7184444,55.6754457 42.9666984,55.738161 43.1870159,55.8639101 C43.4073333,55.9893408 43.5790794,56.1663446 43.7028889,56.3952397 C43.8266984,56.6241348 43.8895556,56.8807266 43.8908254,57.1646966 L43.8908254,57.3089101 C43.8908254,57.5957453 43.8305079,57.8529738 43.7095556,58.0805955 C43.5889206,58.3078989 43.4184444,58.4858577 43.1987619,58.6141536 C42.9793968,58.7424494 42.7343175,58.8073933 42.4635238,58.808985 L41.4359048,58.808985 Z" id="Fill-42" fill="#6D3548" fill-rule="evenodd" mask="url(#mask-2)"></path>
                <path d="M46.9917143,55.6754775 L46.9917143,57.7263015 C46.9917143,57.9586985 46.9421905,58.159897 46.8437778,58.3302154 C46.7447302,58.499897 46.6034603,58.6294663 46.4186984,58.7186049 C46.234254,58.8074251 46.0161587,58.8519944 45.7640952,58.8519944 C45.3834603,58.8519944 45.0840952,58.7529869 44.8647302,58.5549719 C44.6463175,58.3569569 44.5345714,58.085721 44.530127,57.7415824 L44.530127,55.6754775 L45.2879048,55.6754775 L45.2879048,57.7565449 C45.2964762,58.0994101 45.4552063,58.2710019 45.7640952,58.2710019 C45.9199683,58.2710019 46.0380635,58.227706 46.1180635,58.1417509 C46.198381,58.0557959 46.238381,57.915721 46.238381,57.7221629 L46.238381,55.6754775 L46.9917143,55.6754775 Z" id="Fill-43" fill="#6D3548" fill-rule="evenodd" mask="url(#mask-2)"></path>
                <polygon id="Fill-44" fill="#6D3548" fill-rule="evenodd" mask="url(#mask-2)" points="47.7768254 58.8088577 48.5279365 58.8088577 48.5279365 55.6753184 47.7768254 55.6753184"></polygon>
                <path d="M50.0684762,57.1194906 L50.5453016,57.1194906 C50.6881587,57.1194906 50.7957778,57.0816067 50.8681587,57.0061573 C50.9405397,56.9307079 50.9764127,56.8253333 50.9764127,56.6903521 C50.9764127,56.5550524 50.9402222,56.4487228 50.8668889,56.372 C50.7941905,56.2949588 50.6865714,56.2564382 50.5453016,56.2564382 L50.0684762,56.2564382 L50.0684762,57.1194906 Z M50.4764127,57.7004831 L50.0684762,57.7004831 L50.0684762,58.808985 L49.3154603,58.808985 L49.3154603,55.6754457 L50.5453016,55.6754457 C50.9157778,55.6754457 51.2053016,55.7578989 51.4141905,55.9224869 C51.6230794,56.0873933 51.7275238,56.320427 51.7275238,56.6212697 C51.7275238,56.8393408 51.6837143,57.0198464 51.5954603,57.1631049 C51.5075238,57.3063633 51.3700635,57.4225618 51.1824444,57.511382 L51.8348254,58.7765131 L51.8348254,58.808985 L51.0278413,58.808985 L50.4764127,57.7004831 Z" id="Fill-45" fill="#6D3548" fill-rule="evenodd" mask="url(#mask-2)"></path>
                <polygon id="Fill-46" fill="#6D3548" fill-rule="evenodd" mask="url(#mask-2)" points="54.3839365 57.4788783 53.1991746 57.4788783 53.1991746 58.2276423 54.5985397 58.2276423 54.5985397 58.8089532 52.4461587 58.8089532 52.4461587 55.6754139 54.6033016 55.6754139 54.6033016 56.2586348 53.1991746 56.2586348 53.1991746 56.9192154 54.3839365 56.9192154"></polygon>
                <polygon id="Fill-47" fill="#6D3548" fill-rule="evenodd" mask="url(#mask-2)" points="33.9990794 27.8740468 33.9990794 25.6599082 28.5320952 25.6599082 26.0009841 25.6599082 26.0009841 27.8740468 26.0009841 30.8713315 26.0009841 32.7613876 26.0009841 37.9731292 28.5320952 37.9731292 28.5320952 32.7613876 33.1793968 32.7613876 33.1793968 30.8713315 28.5320952 30.8713315 28.5320952 27.8740468"></polygon>
                <path d="M30.4302222,14.3338652 L30.9473651,15.3847453 C30.9924444,15.4761124 31.0794286,15.5394644 31.1800635,15.554427 L32.3365714,15.7228352 C32.5899048,15.759764 32.6911746,16.0720674 32.5076825,16.2512996 L31.6708571,17.0694644 C31.5981587,17.1404569 31.5648254,17.2429663 31.5819683,17.3435655 L31.779746,18.4985468 C31.8229206,18.7519551 31.5581587,18.9448764 31.3311746,18.8254944 L30.2968889,18.2801573 C30.2070476,18.2324045 30.0994286,18.2324045 30.0092698,18.2801573 L28.9749841,18.8254944 C28.7483175,18.9448764 28.4832381,18.7519551 28.5267302,18.4985468 L28.7241905,17.3435655 C28.7413333,17.2429663 28.708,17.1404569 28.6353016,17.0694644 L27.7984762,16.2512996 C27.6149841,16.0720674 27.716254,15.759764 27.9695873,15.7228352 L29.1260952,15.554427 C29.2267302,15.5394644 29.3137143,15.4761124 29.3587937,15.3847453 L29.8759365,14.3338652 C29.9892698,14.1036966 30.3168889,14.1036966 30.4302222,14.3338652" id="Fill-48" fill="#6D3548" fill-rule="evenodd" mask="url(#mask-2)"></path>
                <path d="M41.9906984,19.9292846 L42.5078413,20.9801648 C42.5529206,21.0715318 42.6399048,21.1348839 42.7405397,21.1498464 L43.8970476,21.3182547 C44.150381,21.3551835 44.2516508,21.6674869 44.0681587,21.8467191 L43.2313333,22.6648839 C43.1586349,22.7358764 43.1253016,22.8383858 43.1424444,22.938985 L43.3402222,24.0939663 C43.3833968,24.3473745 43.1186349,24.5402959 42.8916508,24.4209139 L41.8573651,23.8755768 C41.7675238,23.827824 41.6599048,23.827824 41.569746,23.8755768 L40.5354603,24.4209139 C40.3087937,24.5402959 40.0437143,24.3473745 40.0872063,24.0939663 L40.2846667,22.938985 C40.3018095,22.8383858 40.2684762,22.7358764 40.1957778,22.6648839 L39.3589524,21.8467191 C39.1754603,21.6674869 39.2767302,21.3551835 39.5300635,21.3182547 L40.6865714,21.1498464 C40.7872063,21.1348839 40.8741905,21.0715318 40.9192698,20.9801648 L41.4364127,19.9292846 C41.549746,19.6991161 41.8773651,19.6991161 41.9906984,19.9292846" id="Fill-49" fill="#6D3548" fill-rule="evenodd" mask="url(#mask-2)"></path>
                <path d="M18.4825079,19.9292846 L18.9996508,20.9801648 C19.0447302,21.0715318 19.1317143,21.1348839 19.2323492,21.1498464 L20.3888571,21.3182547 C20.6421905,21.3551835 20.7434603,21.6674869 20.5599683,21.8467191 L19.7231429,22.6648839 C19.6504444,22.7358764 19.6171111,22.8383858 19.634254,22.938985 L19.8320317,24.0939663 C19.8752063,24.3473745 19.6104444,24.5402959 19.3834603,24.4209139 L18.3491746,23.8755768 C18.2593333,23.827824 18.1517143,23.827824 18.0615556,23.8755768 L17.0272698,24.4209139 C16.8006032,24.5402959 16.5355238,24.3473745 16.5790159,24.0939663 L16.7764762,22.938985 C16.793619,22.8383858 16.7602857,22.7358764 16.6875873,22.6648839 L15.8507619,21.8467191 C15.6672698,21.6674869 15.7685397,21.3551835 16.021873,21.3182547 L17.178381,21.1498464 C17.2790159,21.1348839 17.366,21.0715318 17.4110794,20.9801648 L17.9282222,19.9292846 C18.0415556,19.6991161 18.3691746,19.6991161 18.4825079,19.9292846" id="Fill-50" fill="#6D3548" fill-rule="evenodd" mask="url(#mask-2)"></path>
                <path d="M41.9906984,39.3485056 L42.5078413,40.3993858 C42.5529206,40.4907528 42.6399048,40.5541049 42.7405397,40.5690674 L43.8970476,40.7374757 C44.150381,40.7744045 44.2516508,41.0867079 44.0681587,41.2659401 L43.2313333,42.0841049 C43.1586349,42.1550974 43.1253016,42.2576067 43.1424444,42.358206 L43.3402222,43.5131873 C43.3833968,43.7665955 43.1186349,43.9595169 42.8916508,43.8401348 L41.8573651,43.2947978 C41.7675238,43.2470449 41.6599048,43.2470449 41.569746,43.2947978 L40.5354603,43.8401348 C40.3087937,43.9595169 40.0437143,43.7665955 40.0872063,43.5131873 L40.2846667,42.358206 C40.3018095,42.2576067 40.2684762,42.1550974 40.1957778,42.0841049 L39.3589524,41.2659401 C39.1754603,41.0867079 39.2767302,40.7744045 39.5300635,40.7374757 L40.6865714,40.5690674 C40.7872063,40.5541049 40.8741905,40.4907528 40.9192698,40.3993858 L41.4364127,39.3485056 C41.549746,39.1183371 41.8773651,39.1183371 41.9906984,39.3485056" id="Fill-51" fill="#6D3548" fill-rule="evenodd" mask="url(#mask-2)"></path>
                <path d="M18.4825079,39.3485056 L18.9996508,40.3993858 C19.0447302,40.4907528 19.1317143,40.5541049 19.2323492,40.5690674 L20.3888571,40.7374757 C20.6421905,40.7744045 20.7434603,41.0867079 20.5599683,41.2659401 L19.7231429,42.0841049 C19.6504444,42.1550974 19.6171111,42.2576067 19.634254,42.358206 L19.8320317,43.5131873 C19.8752063,43.7665955 19.6104444,43.9595169 19.3834603,43.8401348 L18.3491746,43.2947978 C18.2593333,43.2470449 18.1517143,43.2470449 18.0615556,43.2947978 L17.0272698,43.8401348 C16.8006032,43.9595169 16.5355238,43.7665955 16.5790159,43.5131873 L16.7764762,42.358206 C16.793619,42.2576067 16.7602857,42.1550974 16.6875873,42.0841049 L15.8507619,41.2659401 C15.6672698,41.0867079 15.7685397,40.7744045 16.021873,40.7374757 L17.178381,40.5690674 C17.2790159,40.5541049 17.366,40.4907528 17.4110794,40.3993858 L17.9282222,39.3485056 C18.0415556,39.1183371 18.3691746,39.1183371 18.4825079,39.3485056" id="Fill-52" fill="#6D3548" fill-rule="evenodd" mask="url(#mask-2)"></path>
                <path d="M45.5392698,29.6388951 L46.0564127,30.6897753 C46.1014921,30.7811423 46.1884762,30.8444944 46.2891111,30.8594569 L47.445619,31.0278652 C47.6989524,31.064794 47.8002222,31.3770974 47.6167302,31.5563296 L46.7799048,32.3744944 C46.7072063,32.4454869 46.673873,32.5479963 46.6910159,32.6485955 L46.8887937,33.8035768 C46.9319683,34.056985 46.6672063,34.2499064 46.4402222,34.1305243 L45.4059365,33.5851873 C45.3160952,33.5374345 45.2084762,33.5374345 45.1183175,33.5851873 L44.0840317,34.1305243 C43.8573651,34.2499064 43.5922857,34.056985 43.6357778,33.8035768 L43.8332381,32.6485955 C43.850381,32.5479963 43.8170476,32.4454869 43.7443492,32.3744944 L42.9075238,31.5563296 C42.7240317,31.3770974 42.8253016,31.064794 43.0786349,31.0278652 L44.2351429,30.8594569 C44.3357778,30.8444944 44.4227619,30.7811423 44.4678413,30.6897753 L44.9849841,29.6388951 C45.0983175,29.4087266 45.4259365,29.4087266 45.5392698,29.6388951" id="Fill-53" fill="#6D3548" fill-rule="evenodd" mask="url(#mask-2)"></path>
                <path d="M30.2770794,44.9439251 L30.7942222,45.9948052 C30.8393016,46.0861723 30.9262857,46.1495243 31.0269206,46.1644869 L32.1834286,46.3328951 C32.4367619,46.369824 32.5380317,46.6821273 32.3545397,46.8613596 L31.5177143,47.6795243 C31.4450159,47.7505169 31.4116825,47.8530262 31.4288254,47.9536255 L31.6266032,49.1086067 C31.6697778,49.362015 31.4050159,49.5549363 31.1780317,49.4355543 L30.143746,48.8902172 C30.0539048,48.8424644 29.9462857,48.8424644 29.856127,48.8902172 L28.8218413,49.4355543 C28.5951746,49.5549363 28.3300952,49.362015 28.3735873,49.1086067 L28.5710476,47.9536255 C28.5881905,47.8530262 28.5548571,47.7505169 28.4821587,47.6795243 L27.6453333,46.8613596 C27.4618413,46.6821273 27.5631111,46.369824 27.8164444,46.3328951 L28.9729524,46.1644869 C29.0735873,46.1495243 29.1605714,46.0861723 29.2056508,45.9948052 L29.7227937,44.9439251 C29.836127,44.7137566 30.163746,44.7137566 30.2770794,44.9439251" id="Fill-54" fill="#6D3548" fill-rule="evenodd" mask="url(#mask-2)"></path>
                <path d="M15.0149206,29.6388951 L15.5320635,30.6897753 C15.5771429,30.7811423 15.664127,30.8444944 15.7647619,30.8594569 L16.9212698,31.0278652 C17.1746032,31.064794 17.275873,31.3770974 17.092381,31.5563296 L16.2555556,32.3744944 C16.1828571,32.4454869 16.1495238,32.5479963 16.1666667,32.6485955 L16.3644444,33.8035768 C16.407619,34.056985 16.1428571,34.2499064 15.915873,34.1305243 L14.8815873,33.5851873 C14.791746,33.5374345 14.684127,33.5374345 14.5939683,33.5851873 L13.5596825,34.1305243 C13.3330159,34.2499064 13.0679365,34.056985 13.1114286,33.8035768 L13.3088889,32.6485955 C13.3260317,32.5479963 13.2926984,32.4454869 13.22,32.3744944 L12.3831746,31.5563296 C12.1996825,31.3770974 12.3009524,31.064794 12.5542857,31.0278652 L13.7107937,30.8594569 C13.8114286,30.8444944 13.8984127,30.7811423 13.9434921,30.6897753 L14.4606349,29.6388951 C14.5739683,29.4087266 14.9015873,29.4087266 15.0149206,29.6388951" id="Fill-55" fill="#6D3548" fill-rule="evenodd" mask="url(#mask-2)"></path>
                <path d="M5.55555556,79.5816479 L54.4444444,79.5816479 L54.4444444,62.3069101 L5.55555556,62.3069101 L5.55555556,79.5816479 Z M5.23809524,79.9 L54.7619048,79.9 L54.7619048,61.9885581 L5.23809524,61.9885581 L5.23809524,79.9 Z" id="Fill-56" fill="#6D3548" fill-rule="evenodd" mask="url(#mask-2)"></path>
                <polygon id="Fill-57" fill="#6D3548" fill-rule="evenodd" mask="url(#mask-2)" points="8.49111111 67.5724532 51.2101587 67.5724532 51.2101587 65.6623408 8.49111111 65.6623408"></polygon>
                <polygon id="Fill-58" fill="#6D3548" fill-rule="evenodd" mask="url(#mask-2)" points="11.6657143 76.2262172 48.0355556 76.2262172 48.0355556 74.3161049 11.6657143 74.3161049"></polygon>
                <polygon id="Fill-59" fill="#6D3548" fill-rule="evenodd" mask="url(#mask-2)" points="15.4752381 71.71103 44.2260317 71.71103 44.2260317 69.8009176 15.4752381 69.8009176"></polygon>
            </g>
        </g>
    </g>
</svg>