<svg xmlns="http://www.w3.org/2000/svg" xmlns:xlink="http://www.w3.org/1999/xlink" viewBox="0 0 278 375.26"><defs><style>.cls-1,.cls-225,.cls-237{fill:none;}.cls-2{clip-path:url(#clip-path);}.cls-3{fill:#eecfd5;}.cls-4{fill:#eeced4;}.cls-5{fill:#efcdd4;}.cls-6{fill:#efccd3;}.cls-7{fill:#efcbd3;}.cls-8{fill:#efcad2;}.cls-9{fill:#f0c9d1;}.cls-10{fill:#f0c8d1;}.cls-11{fill:#f0c7d0;}.cls-12{fill:#f0c6d0;}.cls-13{fill:#f1c5cf;}.cls-14{fill:#f1c4ce;}.cls-15{fill:#f1c3ce;}.cls-16{fill:#f1c2cd;}.cls-17{fill:#f2c1cd;}.cls-18{fill:#f2c0cc;}.cls-19{fill:#f2bfcb;}.cls-20{fill:#f2becb;}.cls-21{fill:#f3bdca;}.cls-22{fill:#f3bcca;}.cls-23{fill:#f3bbc9;}.cls-24{fill:#f4bac9;}.cls-25{fill:#f4b8c8;}.cls-26{fill:#f4b7c7;}.cls-27{fill:#f4b6c7;}.cls-28{fill:#f5b5c6;}.cls-29{fill:#f5b4c6;}.cls-30{fill:#f5b3c5;}.cls-31{fill:#f5b2c4;}.cls-32{fill:#f6b1c4;}.cls-33{fill:#f6b0c3;}.cls-34{fill:#f6afc3;}.cls-35{fill:#f6aec2;}.cls-36{fill:#f7adc1;}.cls-37{fill:#f7acc1;}.cls-38{fill:#f7abc0;}.cls-39{fill:#f7aac0;}.cls-40{fill:#f8a9bf;}.cls-41{fill:#f8a8be;}.cls-42{fill:#f8a7be;}.cls-43{fill:#f8a6bd;}.cls-44{fill:#f9a5bd;}.cls-45{fill:#f9a4bc;}.cls-46{fill:#f7a8be;}.cls-47{fill:#f7a9bf;}.cls-48{fill:#f6aabf;}.cls-49{fill:#f6abc0;}.cls-50{fill:#f5acc0;}.cls-51{fill:#f5adc1;}.cls-52{fill:#f4aec1;}.cls-53{fill:#f4afc2;}.cls-54{fill:#f4b0c3;}.cls-55{fill:#f3b1c3;}.cls-56{fill:#f3b2c4;}.cls-57{fill:#f2b3c4;}.cls-58{fill:#f2b4c5;}.cls-59{fill:#f1b5c5;}.cls-60{fill:#f1b7c6;}.cls-61{fill:#f0b8c6;}.cls-62{fill:#f0b9c7;}.cls-63{fill:#efbac7;}.cls-64{fill:#efbbc8;}.cls-65{fill:#eebcc8;}.cls-66{fill:#eebdc9;}.cls-67{fill:#eebeca;}.cls-68{fill:#edbfca;}.cls-69{fill:#edc0cb;}.cls-70{fill:#ecc1cb;}.cls-71{fill:#ecc2cc;}.cls-72{fill:#ebc3cc;}.cls-73{fill:#ebc4cd;}.cls-74{fill:#eac5cd;}.cls-75{fill:#eac6ce;}.cls-76{fill:#e9c7ce;}.cls-77{fill:#e9c8cf;}.cls-78{fill:#eedadb;}.cls-79{clip-path:url(#clip-path-2);}.cls-80{fill:#f7a5bc;}.cls-81{fill:#f6a5bc;}.cls-82{fill:#f5a5bd;}.cls-83{fill:#f4a5bd;}.cls-84{fill:#f3a5bd;}.cls-85{fill:#f2a5be;}.cls-86{fill:#f1a6be;}.cls-87{fill:#f0a6be;}.cls-88{fill:#efa6bf;}.cls-89{fill:#eea6bf;}.cls-90{fill:#eda6bf;}.cls-91{fill:#eca6c0;}.cls-92{fill:#eba6c0;}.cls-93{fill:#eaa6c0;}.cls-94{fill:#e9a6c1;}.cls-95{fill:#e8a6c1;}.cls-96{fill:#e7a6c1;}.cls-97{fill:#e6a7c2;}.cls-98{fill:#e5a7c2;}.cls-99{fill:#e4a7c2;}.cls-100{fill:#e3a7c3;}.cls-101{fill:#e2a7c3;}.cls-102{fill:#e1a7c3;}.cls-103{fill:#e0a7c4;}.cls-104{fill:#dfa7c4;}.cls-105{fill:#dea7c4;}.cls-106{fill:#dda7c5;}.cls-107{fill:#dca7c5;}.cls-108{fill:#dba8c5;}.cls-109{fill:#daa8c6;}.cls-110{fill:#d9a8c6;}.cls-111{fill:#d8a8c6;}.cls-112{fill:#d7a8c7;}.cls-113{fill:#d6a8c7;}.cls-114{fill:#d5a8c7;}.cls-115{fill:#d4a8c8;}.cls-116{fill:#d3a8c8;}.cls-117{fill:#d2a8c8;}.cls-118{fill:#d1a9c9;}.cls-119{fill:#cfa9c9;}.cls-120{fill:#cea9c9;}.cls-121{fill:#cda9c9;}.cls-122{fill:#cca9ca;}.cls-123{fill:#cba9ca;}.cls-124{fill:#caa9ca;}.cls-125{fill:#c9a9cb;}.cls-126{fill:#c8a9cb;}.cls-127{fill:#c7a9cb;}.cls-128{fill:#c6a9cc;}.cls-129{fill:#c5aacc;}.cls-130{fill:#c4aacc;}.cls-131{fill:#c3aacd;}.cls-132{fill:#c2aacd;}.cls-133{fill:#c1aacd;}.cls-134{fill:#c0aace;}.cls-135{fill:#bfaace;}.cls-136{fill:#beaace;}.cls-137{fill:#bdaacf;}.cls-138{fill:#bcaacf;}.cls-139{fill:#bbaacf;}.cls-140{fill:#baabd0;}.cls-141{fill:#b9abd0;}.cls-142{fill:#b8abd0;}.cls-143{fill:#b7abd1;}.cls-144{fill:#b6abd1;}.cls-145{fill:#b5abd1;}.cls-146{fill:#b4abd2;}.cls-147{fill:#b3abd2;}.cls-148{fill:#b2abd2;}.cls-149{fill:#b1abd3;}.cls-150{fill:#b0abd3;}.cls-151{fill:#afacd3;}.cls-152{fill:#aeacd4;}.cls-153{fill:#adacd4;}.cls-154{fill:#acacd4;}.cls-155{fill:#abacd5;}.cls-156{fill:#aaacd5;}.cls-157{opacity:0.6;}.cls-158{clip-path:url(#clip-path-3);}.cls-159{fill:#ed8cad;}.cls-160{fill:#ec8cae;}.cls-161{fill:#eb8cae;}.cls-162{fill:#ea8caf;}.cls-163{fill:#e98caf;}.cls-164{fill:#e88db0;}.cls-165{fill:#e78db0;}.cls-166{fill:#e68db1;}.cls-167{fill:#e58db1;}.cls-168{fill:#e48db2;}.cls-169{fill:#e38db2;}.cls-170{fill:#e28db3;}.cls-171{fill:#e18db3;}.cls-172{fill:#e08db4;}.cls-173{fill:#df8eb4;}.cls-174{fill:#de8eb5;}.cls-175{fill:#dd8eb5;}.cls-176{fill:#dc8eb6;}.cls-177{fill:#db8eb6;}.cls-178{fill:#da8eb7;}.cls-179{fill:#d98eb7;}.cls-180{fill:#d88eb8;}.cls-181{fill:#d78eb8;}.cls-182{fill:#d68fb9;}.cls-183{fill:#d48fb9;}.cls-184{fill:#d38fba;}.cls-185{fill:#d28fba;}.cls-186{fill:#d18fbb;}.cls-187{fill:#d08fbb;}.cls-188{fill:#cf8fbc;}.cls-189{fill:#ce8fbc;}.cls-190{fill:#cd8fbd;}.cls-191{fill:#cc8fbd;}.cls-192{fill:#cb90be;}.cls-193{fill:#ca90be;}.cls-194{fill:#c990bf;}.cls-195{fill:#c890bf;}.cls-196{fill:#c790c0;}.cls-197{fill:#c690c0;}.cls-198{fill:#c590c1;}.cls-199{fill:#c490c1;}.cls-200{fill:#c390c2;}.cls-201{fill:#c291c2;}.cls-202{fill:#c191c3;}.cls-203{fill:#c091c3;}.cls-204{fill:#bf91c4;}.cls-205{fill:#be91c4;}.cls-206{font-size:9px;letter-spacing:0.06em;}.cls-206,.cls-207,.cls-209{fill:#00189e;}.cls-206,.cls-207,.cls-212,.cls-213,.cls-236{font-family:Roboto-Bold, Roboto;font-weight:700;}.cls-207,.cls-212,.cls-229{font-size:6px;}.cls-207{letter-spacing:0.06em;}.cls-208{fill:#cebabd;}.cls-210{fill:#fff;}.cls-211{fill:#e1e54e;}.cls-212,.cls-213,.cls-224,.cls-236{fill:#8c5d70;}.cls-212{letter-spacing:0.06em;}.cls-213,.cls-235{font-size:7.4px;letter-spacing:0.06em;}.cls-214{letter-spacing:0.07em;}.cls-215{letter-spacing:0.06em;}.cls-216{letter-spacing:0.05em;}.cls-217{letter-spacing:0.03em;}.cls-218{letter-spacing:0.05em;}.cls-219{letter-spacing:0.03em;}.cls-220{letter-spacing:0.05em;}.cls-221{letter-spacing:0.06em;}.cls-222{letter-spacing:0.05em;}.cls-223{letter-spacing:0.05em;}.cls-224{font-size:17px;font-family:Roboto-Light, Roboto;font-weight:300;}.cls-225{stroke:#00189e;stroke-width:0.6px;}.cls-225,.cls-237{stroke-miterlimit:10;}.cls-226{font-size:8px;letter-spacing:0.85em;}.cls-226,.cls-229,.cls-230,.cls-235,.cls-238{fill:#6e3549;}.cls-226,.cls-229,.cls-230,.cls-235{font-family:Roboto-Regular, Roboto;}.cls-227{clip-path:url(#clip-path-4);}.cls-228{fill:url(#Dégradé_sans_nom_25);}.cls-230{font-size:5.04px;}.cls-231{letter-spacing:-0.01em;}.cls-232{letter-spacing:-0.01em;}.cls-233{letter-spacing:-0.01em;}.cls-234{letter-spacing:-0.02em;}.cls-236{font-size:7px;letter-spacing:0.06em;}.cls-237{stroke:#6f3549;stroke-width:0.5px;}</style><clipPath id="clip-path"><rect class="cls-1" width="278" height="174.15" rx="6"/></clipPath><clipPath id="clip-path-2"><path class="cls-1" d="M227.36,174.16a73.77,73.77,0,1,0-80.06,0Z"/></clipPath><clipPath id="clip-path-3"><circle class="cls-1" cx="189.37" cy="112.19" r="31.96"/></clipPath><clipPath id="clip-path-4"><rect class="cls-1" y="201.11" width="278" height="174.15" rx="6"/></clipPath><linearGradient id="Dégradé_sans_nom_25" x1="69.07" y1="287.93" x2="260.42" y2="287.93" gradientUnits="userSpaceOnUse"><stop offset="0" stop-color="#aaacd5"/><stop offset="0.48" stop-color="#f58ebd"/><stop offset="1" stop-color="#aaacd5"/></linearGradient></defs><title>Fichier 1</title><g id="Calque_2" data-name="Calque 2"><g id="Calque_2-2" data-name="Calque 2"><g class="cls-2"><rect class="cls-3" width="0.11" height="174.15"/><rect class="cls-3" x="0.11" width="3.23" height="174.15"/><rect class="cls-4" x="3.34" width="3.23" height="174.15"/><rect class="cls-5" x="6.57" width="3.23" height="174.15"/><rect class="cls-6" x="9.8" width="3.23" height="174.15"/><rect class="cls-7" x="13.03" width="3.23" height="174.15"/><rect class="cls-8" x="16.26" width="3.23" height="174.15"/><rect class="cls-9" x="19.49" width="3.23" height="174.15"/><rect class="cls-10" x="22.72" width="3.23" height="174.15"/><rect class="cls-11" x="25.95" width="3.23" height="174.15"/><rect class="cls-12" x="29.18" width="3.23" height="174.15"/><rect class="cls-13" x="32.41" width="3.23" height="174.15"/><rect class="cls-14" x="35.64" width="3.23" height="174.15"/><rect class="cls-15" x="38.87" width="3.23" height="174.15"/><rect class="cls-16" x="42.1" width="3.23" height="174.15"/><rect class="cls-17" x="45.33" width="3.23" height="174.15"/><rect class="cls-18" x="48.56" width="3.23" height="174.15"/><rect class="cls-19" x="51.79" width="3.23" height="174.15"/><rect class="cls-20" x="55.02" width="3.23" height="174.15"/><rect class="cls-21" x="58.25" width="3.23" height="174.15"/><rect class="cls-22" x="61.48" width="3.23" height="174.15"/><rect class="cls-23" x="64.71" width="3.23" height="174.15"/><rect class="cls-24" x="67.94" width="3.23" height="174.15"/><rect class="cls-25" x="71.17" width="3.23" height="174.15"/><rect class="cls-26" x="74.4" width="3.23" height="174.15"/><rect class="cls-27" x="77.63" width="3.23" height="174.15"/><rect class="cls-28" x="80.86" width="3.23" height="174.15"/><rect class="cls-29" x="84.09" width="3.23" height="174.15"/><rect class="cls-30" x="87.32" width="3.23" height="174.15"/><rect class="cls-31" x="90.55" width="3.23" height="174.15"/><rect class="cls-32" x="93.78" width="3.23" height="174.15"/><rect class="cls-33" x="97.01" width="3.23" height="174.15"/><rect class="cls-34" x="100.24" width="3.23" height="174.15"/><rect class="cls-35" x="103.47" width="3.23" height="174.15"/><rect class="cls-36" x="106.7" width="3.23" height="174.15"/><rect class="cls-37" x="109.93" width="3.23" height="174.15"/><rect class="cls-38" x="113.16" width="3.23" height="174.15"/><rect class="cls-39" x="116.39" width="3.23" height="174.15"/><rect class="cls-40" x="119.62" width="3.23" height="174.15"/><rect class="cls-41" x="122.85" width="3.23" height="174.15"/><rect class="cls-42" x="126.08" width="3.23" height="174.15"/><rect class="cls-43" x="129.31" width="3.23" height="174.15"/><rect class="cls-44" x="132.54" width="3.23" height="174.15"/><rect class="cls-45" x="135.77" width="3.23" height="174.15"/><rect class="cls-45" x="139" width="3.86" height="174.15"/><rect class="cls-44" x="142.86" width="3.86" height="174.15"/><rect class="cls-43" x="146.72" width="3.86" height="174.15"/><rect class="cls-42" x="150.58" width="3.86" height="174.15"/><rect class="cls-46" x="154.44" width="3.86" height="174.15"/><rect class="cls-47" x="158.31" width="3.86" height="174.15"/><rect class="cls-48" x="162.17" width="3.86" height="174.15"/><rect class="cls-49" x="166.03" width="3.86" height="174.15"/><rect class="cls-50" x="169.89" width="3.86" height="174.15"/><rect class="cls-51" x="173.75" width="3.86" height="174.15"/><rect class="cls-52" x="177.61" width="3.86" height="174.15"/><rect class="cls-53" x="181.47" width="3.86" height="174.15"/><rect class="cls-54" x="185.33" width="3.86" height="174.15"/><rect class="cls-55" x="189.19" width="3.86" height="174.15"/><rect class="cls-56" x="193.06" width="3.86" height="174.15"/><rect class="cls-57" x="196.92" width="3.86" height="174.15"/><rect class="cls-58" x="200.78" width="3.86" height="174.15"/><rect class="cls-59" x="204.64" width="3.86" height="174.15"/><rect class="cls-60" x="208.5" width="3.86" height="174.15"/><rect class="cls-61" x="212.36" width="3.86" height="174.15"/><rect class="cls-62" x="216.22" width="3.86" height="174.15"/><rect class="cls-63" x="220.08" width="3.86" height="174.15"/><rect class="cls-64" x="223.94" width="3.86" height="174.15"/><rect class="cls-65" x="227.81" width="3.86" height="174.15"/><rect class="cls-66" x="231.67" width="3.86" height="174.15"/><rect class="cls-67" x="235.53" width="3.86" height="174.15"/><rect class="cls-68" x="239.39" width="3.86" height="174.15"/><rect class="cls-69" x="243.25" width="3.86" height="174.15"/><rect class="cls-70" x="247.11" width="3.86" height="174.15"/><rect class="cls-71" x="250.97" width="3.86" height="174.15"/><rect class="cls-72" x="254.83" width="3.86" height="174.15"/><rect class="cls-73" x="258.69" width="3.86" height="174.15"/><rect class="cls-74" x="262.56" width="3.86" height="174.15"/><rect class="cls-75" x="266.42" width="3.86" height="174.15"/><rect class="cls-76" x="270.28" width="3.86" height="174.15"/><rect class="cls-77" x="274.14" width="3.86" height="174.15"/><path class="cls-77" d="M278,174.15v0Z"/></g><path class="cls-78" d="M0,148.37v19.78a6,6,0,0,0,6,6H272a6,6,0,0,0,6-6V148.37Z"/><g class="cls-79"><rect class="cls-80" x="113.56" y="38.42" width="0.06" height="135.74"/><rect class="cls-80" x="113.62" y="38.42" width="1.92" height="135.74"/><rect class="cls-81" x="115.53" y="38.42" width="1.92" height="135.74"/><rect class="cls-82" x="117.45" y="38.42" width="1.92" height="135.74"/><rect class="cls-83" x="119.36" y="38.42" width="1.92" height="135.74"/><rect class="cls-84" x="121.28" y="38.42" width="1.92" height="135.74"/><rect class="cls-85" x="123.19" y="38.42" width="1.92" height="135.74"/><rect class="cls-86" x="125.11" y="38.42" width="1.92" height="135.74"/><rect class="cls-87" x="127.03" y="38.42" width="1.92" height="135.74"/><rect class="cls-88" x="128.94" y="38.42" width="1.92" height="135.74"/><rect class="cls-89" x="130.86" y="38.42" width="1.92" height="135.74"/><rect class="cls-90" x="132.77" y="38.42" width="1.92" height="135.74"/><rect class="cls-91" x="134.69" y="38.42" width="1.92" height="135.74"/><rect class="cls-92" x="136.6" y="38.42" width="1.92" height="135.74"/><rect class="cls-93" x="138.52" y="38.42" width="1.92" height="135.74"/><rect class="cls-94" x="140.43" y="38.42" width="1.92" height="135.74"/><rect class="cls-95" x="142.35" y="38.42" width="1.92" height="135.74"/><rect class="cls-96" x="144.26" y="38.42" width="1.92" height="135.74"/><rect class="cls-97" x="146.18" y="38.42" width="1.92" height="135.74"/><rect class="cls-98" x="148.09" y="38.42" width="1.92" height="135.74"/><rect class="cls-99" x="150.01" y="38.42" width="1.92" height="135.74"/><rect class="cls-100" x="151.92" y="38.42" width="1.92" height="135.74"/><rect class="cls-101" x="153.84" y="38.42" width="1.92" height="135.74"/><rect class="cls-102" x="155.75" y="38.42" width="1.92" height="135.74"/><rect class="cls-103" x="157.67" y="38.42" width="1.92" height="135.74"/><rect class="cls-104" x="159.58" y="38.42" width="1.92" height="135.74"/><rect class="cls-105" x="161.5" y="38.42" width="1.92" height="135.74"/><rect class="cls-106" x="163.42" y="38.42" width="1.92" height="135.74"/><rect class="cls-107" x="165.33" y="38.42" width="1.92" height="135.74"/><rect class="cls-108" x="167.25" y="38.42" width="1.92" height="135.74"/><rect class="cls-109" x="169.16" y="38.42" width="1.92" height="135.74"/><rect class="cls-110" x="171.08" y="38.42" width="1.92" height="135.74"/><rect class="cls-111" x="172.99" y="38.42" width="1.92" height="135.74"/><rect class="cls-112" x="174.91" y="38.42" width="1.92" height="135.74"/><rect class="cls-113" x="176.82" y="38.42" width="1.92" height="135.74"/><rect class="cls-114" x="178.74" y="38.42" width="1.92" height="135.74"/><rect class="cls-115" x="180.65" y="38.42" width="1.92" height="135.74"/><rect class="cls-116" x="182.57" y="38.42" width="1.92" height="135.74"/><rect class="cls-117" x="184.48" y="38.42" width="1.92" height="135.74"/><rect class="cls-118" x="186.4" y="38.42" width="1.92" height="135.74"/><rect class="cls-119" x="188.31" y="38.42" width="1.92" height="135.74"/><rect class="cls-120" x="190.23" y="38.42" width="1.92" height="135.74"/><rect class="cls-121" x="192.14" y="38.42" width="1.92" height="135.74"/><rect class="cls-122" x="194.06" y="38.42" width="1.92" height="135.74"/><rect class="cls-123" x="195.97" y="38.42" width="1.92" height="135.74"/><rect class="cls-124" x="197.89" y="38.42" width="1.92" height="135.74"/><rect class="cls-125" x="199.81" y="38.42" width="1.92" height="135.74"/><rect class="cls-126" x="201.72" y="38.42" width="1.92" height="135.74"/><rect class="cls-127" x="203.64" y="38.42" width="1.92" height="135.74"/><rect class="cls-128" x="205.55" y="38.42" width="1.92" height="135.74"/><rect class="cls-129" x="207.47" y="38.42" width="1.92" height="135.74"/><rect class="cls-130" x="209.38" y="38.42" width="1.92" height="135.74"/><rect class="cls-131" x="211.3" y="38.42" width="1.92" height="135.74"/><rect class="cls-132" x="213.21" y="38.42" width="1.92" height="135.74"/><rect class="cls-133" x="215.13" y="38.42" width="1.92" height="135.74"/><rect class="cls-134" x="217.04" y="38.42" width="1.92" height="135.74"/><rect class="cls-135" x="218.96" y="38.42" width="1.92" height="135.74"/><rect class="cls-136" x="220.87" y="38.42" width="1.92" height="135.74"/><rect class="cls-137" x="222.79" y="38.42" width="1.92" height="135.74"/><rect class="cls-138" x="224.7" y="38.42" width="1.92" height="135.74"/><rect class="cls-139" x="226.62" y="38.42" width="1.92" height="135.74"/><rect class="cls-140" x="228.53" y="38.42" width="1.92" height="135.74"/><rect class="cls-141" x="230.45" y="38.42" width="1.92" height="135.74"/><rect class="cls-142" x="232.36" y="38.42" width="1.92" height="135.74"/><rect class="cls-143" x="234.28" y="38.42" width="1.92" height="135.74"/><rect class="cls-144" x="236.19" y="38.42" width="1.92" height="135.74"/><rect class="cls-145" x="238.11" y="38.42" width="1.92" height="135.74"/><rect class="cls-146" x="240.03" y="38.42" width="1.92" height="135.74"/><rect class="cls-147" x="241.94" y="38.42" width="1.92" height="135.74"/><rect class="cls-148" x="243.86" y="38.42" width="1.92" height="135.74"/><rect class="cls-149" x="245.77" y="38.42" width="1.92" height="135.74"/><rect class="cls-150" x="247.69" y="38.42" width="1.92" height="135.74"/><rect class="cls-151" x="249.6" y="38.42" width="1.92" height="135.74"/><rect class="cls-152" x="251.52" y="38.42" width="1.92" height="135.74"/><rect class="cls-153" x="253.43" y="38.42" width="1.92" height="135.74"/><rect class="cls-154" x="255.35" y="38.42" width="1.92" height="135.74"/><rect class="cls-155" x="257.26" y="38.42" width="1.92" height="135.74"/><rect class="cls-156" x="259.18" y="38.42" width="1.92" height="135.74"/><path class="cls-156" d="M261.09,174.16v0Z"/></g><g class="cls-157"><g class="cls-158"><path class="cls-159" d="M157.42,80.23v0Z"/><rect class="cls-159" x="157.42" y="80.23" width="1.36" height="63.91"/><rect class="cls-160" x="158.78" y="80.23" width="1.36" height="63.91"/><rect class="cls-161" x="160.14" y="80.23" width="1.36" height="63.91"/><rect class="cls-162" x="161.5" y="80.23" width="1.36" height="63.91"/><rect class="cls-163" x="162.86" y="80.23" width="1.36" height="63.91"/><rect class="cls-164" x="164.22" y="80.23" width="1.36" height="63.91"/><rect class="cls-165" x="165.58" y="80.23" width="1.36" height="63.91"/><rect class="cls-166" x="166.94" y="80.23" width="1.36" height="63.91"/><rect class="cls-167" x="168.3" y="80.23" width="1.36" height="63.91"/><rect class="cls-168" x="169.66" y="80.23" width="1.36" height="63.91"/><rect class="cls-169" x="171.02" y="80.23" width="1.36" height="63.91"/><rect class="cls-170" x="172.38" y="80.23" width="1.36" height="63.91"/><rect class="cls-171" x="173.74" y="80.23" width="1.36" height="63.91"/><rect class="cls-172" x="175.1" y="80.23" width="1.36" height="63.91"/><rect class="cls-173" x="176.46" y="80.23" width="1.36" height="63.91"/><rect class="cls-174" x="177.82" y="80.23" width="1.36" height="63.91"/><rect class="cls-175" x="179.18" y="80.23" width="1.36" height="63.91"/><rect class="cls-176" x="180.54" y="80.23" width="1.36" height="63.91"/><rect class="cls-177" x="181.9" y="80.23" width="1.36" height="63.91"/><rect class="cls-178" x="183.26" y="80.23" width="1.36" height="63.91"/><rect class="cls-179" x="184.62" y="80.23" width="1.36" height="63.91"/><rect class="cls-180" x="185.98" y="80.23" width="1.36" height="63.91"/><rect class="cls-181" x="187.34" y="80.23" width="1.36" height="63.91"/><rect class="cls-182" x="188.7" y="80.23" width="1.36" height="63.91"/><rect class="cls-183" x="190.05" y="80.23" width="1.36" height="63.91"/><rect class="cls-184" x="191.41" y="80.23" width="1.36" height="63.91"/><rect class="cls-185" x="192.77" y="80.23" width="1.36" height="63.91"/><rect class="cls-186" x="194.13" y="80.23" width="1.36" height="63.91"/><rect class="cls-187" x="195.49" y="80.23" width="1.36" height="63.91"/><rect class="cls-188" x="196.85" y="80.23" width="1.36" height="63.91"/><rect class="cls-189" x="198.21" y="80.23" width="1.36" height="63.91"/><rect class="cls-190" x="199.57" y="80.23" width="1.36" height="63.91"/><rect class="cls-191" x="200.93" y="80.23" width="1.36" height="63.91"/><rect class="cls-192" x="202.29" y="80.23" width="1.36" height="63.91"/><rect class="cls-193" x="203.65" y="80.23" width="1.36" height="63.91"/><rect class="cls-194" x="205.01" y="80.23" width="1.36" height="63.91"/><rect class="cls-195" x="206.37" y="80.23" width="1.36" height="63.91"/><rect class="cls-196" x="207.73" y="80.23" width="1.36" height="63.91"/><rect class="cls-197" x="209.09" y="80.23" width="1.36" height="63.91"/><rect class="cls-198" x="210.45" y="80.23" width="1.36" height="63.91"/><rect class="cls-199" x="211.81" y="80.23" width="1.36" height="63.91"/><rect class="cls-200" x="213.17" y="80.23" width="1.36" height="63.91"/><rect class="cls-201" x="214.53" y="80.23" width="1.36" height="63.91"/><rect class="cls-202" x="215.89" y="80.23" width="1.36" height="63.91"/><rect class="cls-203" x="217.25" y="80.23" width="1.36" height="63.91"/><rect class="cls-204" x="218.61" y="80.23" width="1.36" height="63.91"/><rect class="cls-205" x="219.97" y="80.23" width="1.36" height="63.91"/><path class="cls-205" d="M221.33,144.14v0Z"/></g></g><g class="cls-157"><path class="cls-78" d="M123,148.37a74.13,74.13,0,0,0,24.25,25.78h80.07a74.16,74.16,0,0,0,24.26-25.78Z"/></g><text class="cls-206" transform="translate(69.38 21.93)">PERMIS DE CONDUIRE</text><text class="cls-207" transform="translate(182.42 21.91)">RÉPUBLIQUE FRANÇAISE</text><rect class="cls-78" x="20.38" y="50.67" width="62.84" height="81.06"/><path class="cls-208" d="M51.49,94.4a10.17,10.17,0,0,1-8.77-5.05l-1.85,1.07a12.27,12.27,0,0,0,21.24,0l-1.85-1.07A10.15,10.15,0,0,1,51.49,94.4Z"/><path class="cls-208" d="M59.22,104.63a20.65,20.65,0,1,0-15.46,0c-9.33,1.71-18.65,7.71-19.69,27.05l2.14.11c1.22-22.73,14.15-25.64,25.28-25.64s24.07,2.91,25.29,25.64l2.13-.12C77.87,112.34,68.56,106.34,59.22,104.63ZM33,85.49A18.52,18.52,0,1,1,51.49,104,18.53,18.53,0,0,1,33,85.49Z"/><path class="cls-208" d="M35.66,131.69l2.13.09c.14-3.28.74-5.64,1.7-6.66l-1.55-1.47C36.58,125.08,35.82,127.79,35.66,131.69Z"/><path class="cls-208" d="M63.49,125.12c1,1,1.57,3.38,1.7,6.65l2.14-.08c-.16-3.9-.93-6.61-2.28-8Z"/><rect class="cls-209" x="20.38" y="15" width="39" height="25.67" rx="2"/><polygon class="cls-210" points="42.32 25.44 42.32 24.09 38.99 24.09 37.44 24.09 37.44 25.44 37.44 27.26 37.44 28.41 37.44 31.58 38.99 31.58 38.99 28.41 41.82 28.41 41.82 27.26 38.99 27.26 38.99 25.44 42.32 25.44"/><path class="cls-211" d="M40.14,17.2l.32.64a.19.19,0,0,0,.14.11l.71.1a.19.19,0,0,1,.1.32l-.51.5a.18.18,0,0,0,0,.16l.12.71a.19.19,0,0,1-.28.19l-.63-.33a.17.17,0,0,0-.17,0l-.63.33a.19.19,0,0,1-.28-.19L39.1,19a.18.18,0,0,0-.05-.16l-.51-.5a.19.19,0,0,1,.1-.32l.71-.1a.19.19,0,0,0,.14-.11l.32-.64A.18.18,0,0,1,40.14,17.2Z"/><path class="cls-211" d="M47.19,20.61l.32.63a.19.19,0,0,0,.14.11l.71.1a.19.19,0,0,1,.1.32l-.51.5a.2.2,0,0,0-.05.17l.12.7a.2.2,0,0,1-.28.2L47.11,23a.25.25,0,0,0-.17,0l-.63.34a.2.2,0,0,1-.28-.2l.12-.7a.2.2,0,0,0,0-.17l-.51-.5a.19.19,0,0,1,.1-.32l.71-.1a.19.19,0,0,0,.14-.11l.32-.63A.18.18,0,0,1,47.19,20.61Z"/><path class="cls-211" d="M32.86,20.61l.31.63a.19.19,0,0,0,.15.11l.7.1a.19.19,0,0,1,.11.32l-.51.5a.18.18,0,0,0-.06.17l.12.7a.19.19,0,0,1-.27.2L32.78,23a.28.28,0,0,0-.18,0l-.63.34a.19.19,0,0,1-.27-.2l.12-.7a.18.18,0,0,0-.06-.17l-.51-.5a.19.19,0,0,1,.11-.32l.7-.1a.19.19,0,0,0,.15-.11l.31-.63A.19.19,0,0,1,32.86,20.61Z"/><path class="cls-211" d="M47.19,32.41l.32.64a.19.19,0,0,0,.14.11l.71.1a.19.19,0,0,1,.1.32l-.51.5a.18.18,0,0,0-.05.16L48,35a.19.19,0,0,1-.28.19l-.63-.33a.17.17,0,0,0-.17,0l-.63.33A.19.19,0,0,1,46,35l.12-.71a.18.18,0,0,0,0-.16l-.51-.5a.19.19,0,0,1,.1-.32l.71-.1a.19.19,0,0,0,.14-.11l.32-.64A.18.18,0,0,1,47.19,32.41Z"/><path class="cls-211" d="M32.86,32.41l.31.64a.19.19,0,0,0,.15.11l.7.1a.19.19,0,0,1,.11.32l-.51.5a.17.17,0,0,0-.06.16l.12.71a.18.18,0,0,1-.27.19l-.63-.33a.19.19,0,0,0-.18,0l-.63.33A.18.18,0,0,1,31.7,35l.12-.71a.17.17,0,0,0-.06-.16l-.51-.5a.19.19,0,0,1,.11-.32l.7-.1a.19.19,0,0,0,.15-.11l.31-.64A.19.19,0,0,1,32.86,32.41Z"/><path class="cls-211" d="M49.36,26.51l.31.64a.21.21,0,0,0,.14.1l.71.1a.19.19,0,0,1,.1.33l-.51.49a.22.22,0,0,0,0,.17l.12.7a.19.19,0,0,1-.27.2l-.63-.33a.19.19,0,0,0-.18,0l-.63.33a.19.19,0,0,1-.27-.2l.12-.7a.19.19,0,0,0-.06-.17l-.51-.49a.2.2,0,0,1,.11-.33l.7-.1a.19.19,0,0,0,.14-.1l.32-.64A.19.19,0,0,1,49.36,26.51Z"/><path class="cls-211" d="M40.05,35.82l.32.63a.18.18,0,0,0,.14.11l.7.1a.19.19,0,0,1,.11.32l-.51.5a.18.18,0,0,0-.06.17l.12.7a.19.19,0,0,1-.27.2L40,38.21a.28.28,0,0,0-.18,0l-.63.34a.19.19,0,0,1-.27-.2l.12-.7a.2.2,0,0,0,0-.17l-.51-.5a.19.19,0,0,1,.1-.32l.71-.1a.19.19,0,0,0,.14-.11l.31-.63A.19.19,0,0,1,40.05,35.82Z"/><path class="cls-211" d="M30.74,26.51l.32.64a.21.21,0,0,0,.14.1l.71.1a.2.2,0,0,1,.1.33l-.51.49a.22.22,0,0,0-.05.17l.12.7a.19.19,0,0,1-.28.2l-.63-.33a.17.17,0,0,0-.17,0l-.63.33a.19.19,0,0,1-.28-.2l.12-.7a.22.22,0,0,0-.05-.17l-.51-.49a.2.2,0,0,1,.1-.33l.71-.1a.21.21,0,0,0,.14-.1l.32-.64A.18.18,0,0,1,30.74,26.51Z"/><text class="cls-212" transform="translate(19.65 142.14)">9. AM/A1/A2/B1/B</text><text class="cls-213" transform="translate(99.5 55.06)">2. ALEXANDRE STEP<tspan class="cls-214" x="77.44" y="0">H</tspan><tspan class="cls-215" x="83.18" y="0">ANE</tspan></text><text class="cls-213" transform="translate(99.5 41.14)">1. DUPO<tspan class="cls-216" x="30.91" y="0">N</tspan><tspan class="cls-217" x="36.47" y="0">T</tspan></text><text class="cls-213" transform="translate(99.5 68.71)">3. 09.06.1990 (<tspan class="cls-218" x="57.6" y="0">T</tspan><tspan class="cls-215" x="62.52" y="0">OU</tspan><tspan class="cls-219" x="73.39" y="0">L</tspan><tspan class="cls-215" x="77.61" y="0">OUSE)</tspan></text><text class="cls-213" transform="translate(99.5 82.37)">4a. 06.07.2010</text><text class="cls-212" transform="translate(166.1 82.37)">4c. p<tspan class="cls-220" x="14.99" y="0">r</tspan><tspan class="cls-221" x="17.48" y="0">é</tspan><tspan class="cls-222" x="21.08" y="0">f</tspan><tspan x="23.52" y="0">et 31</tspan></text><text class="cls-213" transform="translate(99.5 96.02)">4b. 06.07.2030</text><text class="cls-213" transform="translate(99.5 109.68)">5. 17<tspan class="cls-223" x="18.95" y="0">A</tspan><tspan x="24.3" y="0">G69128</tspan></text><text class="cls-213" transform="translate(99.5 123.33)">7.</text><text class="cls-224" transform="translate(112.18 129.3)">X</text><line class="cls-225" x1="69.95" y1="26.93" x2="257.51" y2="26.93"/><text class="cls-226" transform="translate(13.92 163.96)">D1518DDGJ5PHF8B169HF52</text><g class="cls-227"><rect class="cls-3" y="201.11" width="0.11" height="174.15"/><rect class="cls-3" x="0.11" y="201.11" width="3.23" height="174.15"/><rect class="cls-4" x="3.34" y="201.11" width="3.23" height="174.15"/><rect class="cls-5" x="6.57" y="201.11" width="3.23" height="174.15"/><rect class="cls-6" x="9.8" y="201.11" width="3.23" height="174.15"/><rect class="cls-7" x="13.03" y="201.11" width="3.23" height="174.15"/><rect class="cls-8" x="16.26" y="201.11" width="3.23" height="174.15"/><rect class="cls-9" x="19.49" y="201.11" width="3.23" height="174.15"/><rect class="cls-10" x="22.72" y="201.11" width="3.23" height="174.15"/><rect class="cls-11" x="25.95" y="201.11" width="3.23" height="174.15"/><rect class="cls-12" x="29.18" y="201.11" width="3.23" height="174.15"/><rect class="cls-13" x="32.41" y="201.11" width="3.23" height="174.15"/><rect class="cls-14" x="35.64" y="201.11" width="3.23" height="174.15"/><rect class="cls-15" x="38.87" y="201.11" width="3.23" height="174.15"/><rect class="cls-16" x="42.1" y="201.11" width="3.23" height="174.15"/><rect class="cls-17" x="45.33" y="201.11" width="3.23" height="174.15"/><rect class="cls-18" x="48.56" y="201.11" width="3.23" height="174.15"/><rect class="cls-19" x="51.79" y="201.11" width="3.23" height="174.15"/><rect class="cls-20" x="55.02" y="201.11" width="3.23" height="174.15"/><rect class="cls-21" x="58.25" y="201.11" width="3.23" height="174.15"/><rect class="cls-22" x="61.48" y="201.11" width="3.23" height="174.15"/><rect class="cls-23" x="64.71" y="201.11" width="3.23" height="174.15"/><rect class="cls-24" x="67.94" y="201.11" width="3.23" height="174.15"/><rect class="cls-25" x="71.17" y="201.11" width="3.23" height="174.15"/><rect class="cls-26" x="74.4" y="201.11" width="3.23" height="174.15"/><rect class="cls-27" x="77.63" y="201.11" width="3.23" height="174.15"/><rect class="cls-28" x="80.86" y="201.11" width="3.23" height="174.15"/><rect class="cls-29" x="84.09" y="201.11" width="3.23" height="174.15"/><rect class="cls-30" x="87.32" y="201.11" width="3.23" height="174.15"/><rect class="cls-31" x="90.55" y="201.11" width="3.23" height="174.15"/><rect class="cls-32" x="93.78" y="201.11" width="3.23" height="174.15"/><rect class="cls-33" x="97.01" y="201.11" width="3.23" height="174.15"/><rect class="cls-34" x="100.24" y="201.11" width="3.23" height="174.15"/><rect class="cls-35" x="103.47" y="201.11" width="3.23" height="174.15"/><rect class="cls-36" x="106.7" y="201.11" width="3.23" height="174.15"/><rect class="cls-37" x="109.93" y="201.11" width="3.23" height="174.15"/><rect class="cls-38" x="113.16" y="201.11" width="3.23" height="174.15"/><rect class="cls-39" x="116.39" y="201.11" width="3.23" height="174.15"/><rect class="cls-40" x="119.62" y="201.11" width="3.23" height="174.15"/><rect class="cls-41" x="122.85" y="201.11" width="3.23" height="174.15"/><rect class="cls-42" x="126.08" y="201.11" width="3.23" height="174.15"/><rect class="cls-43" x="129.31" y="201.11" width="3.23" height="174.15"/><rect class="cls-44" x="132.54" y="201.11" width="3.23" height="174.15"/><rect class="cls-45" x="135.77" y="201.11" width="3.23" height="174.15"/><rect class="cls-45" x="139" y="201.11" width="3.86" height="174.15"/><rect class="cls-44" x="142.86" y="201.11" width="3.86" height="174.15"/><rect class="cls-43" x="146.72" y="201.11" width="3.86" height="174.15"/><rect class="cls-42" x="150.58" y="201.11" width="3.86" height="174.15"/><rect class="cls-46" x="154.44" y="201.11" width="3.86" height="174.15"/><rect class="cls-47" x="158.31" y="201.11" width="3.86" height="174.15"/><rect class="cls-48" x="162.17" y="201.11" width="3.86" height="174.15"/><rect class="cls-49" x="166.03" y="201.11" width="3.86" height="174.15"/><rect class="cls-50" x="169.89" y="201.11" width="3.86" height="174.15"/><rect class="cls-51" x="173.75" y="201.11" width="3.86" height="174.15"/><rect class="cls-52" x="177.61" y="201.11" width="3.86" height="174.15"/><rect class="cls-53" x="181.47" y="201.11" width="3.86" height="174.15"/><rect class="cls-54" x="185.33" y="201.11" width="3.86" height="174.15"/><rect class="cls-55" x="189.19" y="201.11" width="3.86" height="174.15"/><rect class="cls-56" x="193.06" y="201.11" width="3.86" height="174.15"/><rect class="cls-57" x="196.92" y="201.11" width="3.86" height="174.15"/><rect class="cls-58" x="200.78" y="201.11" width="3.86" height="174.15"/><rect class="cls-59" x="204.64" y="201.11" width="3.86" height="174.15"/><rect class="cls-60" x="208.5" y="201.11" width="3.86" height="174.15"/><rect class="cls-61" x="212.36" y="201.11" width="3.86" height="174.15"/><rect class="cls-62" x="216.22" y="201.11" width="3.86" height="174.15"/><rect class="cls-63" x="220.08" y="201.11" width="3.86" height="174.15"/><rect class="cls-64" x="223.94" y="201.11" width="3.86" height="174.15"/><rect class="cls-65" x="227.81" y="201.11" width="3.86" height="174.15"/><rect class="cls-66" x="231.67" y="201.11" width="3.86" height="174.15"/><rect class="cls-67" x="235.53" y="201.11" width="3.86" height="174.15"/><rect class="cls-68" x="239.39" y="201.11" width="3.86" height="174.15"/><rect class="cls-69" x="243.25" y="201.11" width="3.86" height="174.15"/><rect class="cls-70" x="247.11" y="201.11" width="3.86" height="174.15"/><rect class="cls-71" x="250.97" y="201.11" width="3.86" height="174.15"/><rect class="cls-72" x="254.83" y="201.11" width="3.86" height="174.15"/><rect class="cls-73" x="258.69" y="201.11" width="3.86" height="174.15"/><rect class="cls-74" x="262.56" y="201.11" width="3.86" height="174.15"/><rect class="cls-75" x="266.42" y="201.11" width="3.86" height="174.15"/><rect class="cls-76" x="270.28" y="201.11" width="3.86" height="174.15"/><rect class="cls-77" x="274.14" y="201.11" width="3.86" height="174.15"/><path class="cls-77" d="M278,375.26v0Z"/></g><path class="cls-228" d="M260.42,218.8h-191v-.6H260.42Zm0-9.3h-191v.6H260.42Zm0,26.1h-191v.6H260.42Zm0-8.7h-191v.6H260.42Zm0,60.89h-191v.6H260.42Zm0-43.49h-191v.6H260.42Zm0,69.59h-191v.6H260.42Zm0-60.89h-191v.6H260.42Zm0,95.68h-191v.6H260.42Zm0-78.29h-191v.6H260.42Zm0,87h-191v.6H260.42Zm0-60.89h-191v.6H260.42Zm0,69.59h-191v.6H260.42Zm0-34.8h-191v.6H260.42Zm0,8.7h-191v.6H260.42Zm0-34.79h-191v.6H260.42ZM69.67,201h-.6v173.8h.6Zm51.21,0h-.6v165.2h.6Zm38.85.15h-.6v165.2h.6Zm38.85,0H198v165.2h.6Zm61.84,121.4h-191v.6H260.42Zm0-60.88h-191v.59H260.42Zm0,17.39h-191v.6H260.42Z"/><text class="cls-229" transform="translate(74.37 208.32)">9.</text><text class="cls-229" transform="translate(74.37 217.02)">AM</text><text class="cls-229" transform="translate(74.37 225.71)">A1</text><text class="cls-229" transform="translate(74.37 234.4)">A2</text><text class="cls-229" transform="translate(74.37 251.79)">B1</text><text class="cls-229" transform="translate(74.37 260.48)">B</text><text class="cls-229" transform="translate(74.37 303.95)">BE</text><text class="cls-229" transform="translate(74.37 269.17)">C1</text><text class="cls-229" transform="translate(74.37 277.87)">C</text><text class="cls-229" transform="translate(74.37 312.64)">C1E</text><text class="cls-229" transform="translate(74.37 321.33)">CE</text><text class="cls-229" transform="translate(74.37 330.03)">D1E</text><text class="cls-229" transform="translate(74.37 338.72)">DE</text><text class="cls-229" transform="translate(74.37 373.26)">01;106.06/07/10 - 06/07/30</text><text class="cls-230" transform="translate(267.82 366.08) rotate(-90)">1. Nom 2. P<tspan class="cls-231" x="26.14" y="0">r</tspan><tspan x="27.8" y="0">énom 3. Date et lieu de naissance 4a. Déliv</tspan><tspan class="cls-232" x="123.37" y="0">r</tspan><tspan x="125.03" y="0">é 4b. Expi</tspan><tspan class="cls-233" x="146.61" y="0">r</tspan><tspan x="148.27" y="0">e le</tspan><tspan x="0" y="6">4c. Déliv</tspan><tspan class="cls-231" x="18.92" y="6">r</tspan><tspan x="20.58" y="6">é par 5. N° de permis 10. Depuis 11. Jusqu</tspan><tspan class="cls-234" x="115.58" y="6">’</tspan><tspan x="116.47" y="6">au 12. Codes</tspan></text><text class="cls-229" transform="translate(74.37 286.56)">D1</text><text class="cls-229" transform="translate(74.37 295.25)">D</text><text class="cls-229" transform="translate(74.37 243.1)">A</text><text class="cls-229" transform="translate(125.58 208.32)">10.</text><text class="cls-229" transform="translate(164.43 208.32)">11.</text><text class="cls-229" transform="translate(203.28 208.32)">12.</text><text class="cls-235" transform="translate(20.46 225.28)">120878</text><text class="cls-235" transform="translate(20.46 235.93)">321878</text><text class="cls-236" transform="translate(11.95 292.3) rotate(-90)">17000865456</text><text class="cls-212" transform="translate(5.97 366.38)">12. </text><text class="cls-229" transform="translate(127.94 217.02)">06.07.10</text><text class="cls-229" transform="translate(127.94 251.79)">06.07.10</text><text class="cls-229" transform="translate(127.94 260.48)">06.07.10</text><line class="cls-237" x1="127.58" y1="225.23" x2="130.39" y2="225.23"/><line class="cls-237" x1="131.83" y1="225.23" x2="134.65" y2="225.23"/><line class="cls-237" x1="136.09" y1="225.23" x2="138.9" y2="225.23"/><line class="cls-237" x1="140.35" y1="225.23" x2="143.16" y2="225.23"/><line class="cls-237" x1="144.61" y1="225.23" x2="147.42" y2="225.23"/><line class="cls-237" x1="148.87" y1="225.23" x2="151.68" y2="225.23"/><line class="cls-237" x1="127.58" y1="234.4" x2="130.39" y2="234.4"/><line class="cls-237" x1="131.83" y1="234.4" x2="134.65" y2="234.4"/><line class="cls-237" x1="136.09" y1="234.4" x2="138.9" y2="234.4"/><line class="cls-237" x1="140.35" y1="234.4" x2="143.16" y2="234.4"/><line class="cls-237" x1="144.61" y1="234.4" x2="147.42" y2="234.4"/><line class="cls-237" x1="148.87" y1="234.4" x2="151.68" y2="234.4"/><line class="cls-237" x1="127.58" y1="243.1" x2="130.39" y2="243.1"/><line class="cls-237" x1="131.83" y1="243.1" x2="134.65" y2="243.1"/><line class="cls-237" x1="136.09" y1="243.1" x2="138.9" y2="243.1"/><line class="cls-237" x1="140.35" y1="243.1" x2="143.16" y2="243.1"/><line class="cls-237" x1="144.61" y1="243.1" x2="147.42" y2="243.1"/><line class="cls-237" x1="148.87" y1="243.1" x2="151.68" y2="243.1"/><line class="cls-237" x1="127.58" y1="277.87" x2="130.39" y2="277.87"/><line class="cls-237" x1="131.83" y1="277.87" x2="134.65" y2="277.87"/><line class="cls-237" x1="136.09" y1="277.87" x2="138.9" y2="277.87"/><line class="cls-237" x1="140.35" y1="277.87" x2="143.16" y2="277.87"/><line class="cls-237" x1="144.61" y1="277.87" x2="147.42" y2="277.87"/><line class="cls-237" x1="148.87" y1="277.87" x2="151.68" y2="277.87"/><line class="cls-237" x1="127.58" y1="287.15" x2="130.39" y2="287.15"/><line class="cls-237" x1="131.83" y1="287.15" x2="134.65" y2="287.15"/><line class="cls-237" x1="136.09" y1="287.15" x2="138.9" y2="287.15"/><line class="cls-237" x1="140.35" y1="287.15" x2="143.16" y2="287.15"/><line class="cls-237" x1="144.61" y1="287.15" x2="147.42" y2="287.15"/><line class="cls-237" x1="148.87" y1="287.15" x2="151.68" y2="287.15"/><line class="cls-237" x1="127.58" y1="295.25" x2="130.39" y2="295.25"/><line class="cls-237" x1="131.83" y1="295.25" x2="134.65" y2="295.25"/><line class="cls-237" x1="136.09" y1="295.25" x2="138.9" y2="295.25"/><line class="cls-237" x1="140.35" y1="295.25" x2="143.16" y2="295.25"/><line class="cls-237" x1="144.61" y1="295.25" x2="147.42" y2="295.25"/><line class="cls-237" x1="148.87" y1="295.25" x2="151.68" y2="295.25"/><line class="cls-237" x1="127.58" y1="303.95" x2="130.39" y2="303.95"/><line class="cls-237" x1="131.83" y1="303.95" x2="134.65" y2="303.95"/><line class="cls-237" x1="136.09" y1="303.95" x2="138.9" y2="303.95"/><line class="cls-237" x1="140.35" y1="303.95" x2="143.16" y2="303.95"/><line class="cls-237" x1="144.61" y1="303.95" x2="147.42" y2="303.95"/><line class="cls-237" x1="148.87" y1="303.95" x2="151.68" y2="303.95"/><line class="cls-237" x1="127.58" y1="312.64" x2="130.39" y2="312.64"/><line class="cls-237" x1="131.83" y1="312.64" x2="134.65" y2="312.64"/><line class="cls-237" x1="136.09" y1="312.64" x2="138.9" y2="312.64"/><line class="cls-237" x1="140.35" y1="312.64" x2="143.16" y2="312.64"/><line class="cls-237" x1="144.61" y1="312.64" x2="147.42" y2="312.64"/><line class="cls-237" x1="148.87" y1="312.64" x2="151.68" y2="312.64"/><line class="cls-237" x1="127.58" y1="321.33" x2="130.39" y2="321.33"/><line class="cls-237" x1="131.83" y1="321.33" x2="134.65" y2="321.33"/><line class="cls-237" x1="136.09" y1="321.33" x2="138.9" y2="321.33"/><line class="cls-237" x1="140.35" y1="321.33" x2="143.16" y2="321.33"/><line class="cls-237" x1="144.61" y1="321.33" x2="147.42" y2="321.33"/><line class="cls-237" x1="148.87" y1="321.33" x2="151.68" y2="321.33"/><line class="cls-237" x1="127.58" y1="330.03" x2="130.39" y2="330.03"/><line class="cls-237" x1="131.83" y1="330.03" x2="134.65" y2="330.03"/><line class="cls-237" x1="136.09" y1="330.03" x2="138.9" y2="330.03"/><line class="cls-237" x1="140.35" y1="330.03" x2="143.16" y2="330.03"/><line class="cls-237" x1="144.61" y1="330.03" x2="147.42" y2="330.03"/><line class="cls-237" x1="148.87" y1="330.03" x2="151.68" y2="330.03"/><line class="cls-237" x1="127.58" y1="338.72" x2="130.39" y2="338.72"/><line class="cls-237" x1="131.83" y1="338.72" x2="134.65" y2="338.72"/><line class="cls-237" x1="136.09" y1="338.72" x2="138.9" y2="338.72"/><line class="cls-237" x1="140.35" y1="338.72" x2="143.16" y2="338.72"/><line class="cls-237" x1="144.61" y1="338.72" x2="147.42" y2="338.72"/><line class="cls-237" x1="148.87" y1="338.72" x2="151.68" y2="338.72"/><line class="cls-237" x1="127.58" y1="269.17" x2="130.39" y2="269.17"/><line class="cls-237" x1="131.83" y1="269.17" x2="134.65" y2="269.17"/><line class="cls-237" x1="136.09" y1="269.17" x2="138.9" y2="269.17"/><line class="cls-237" x1="140.35" y1="269.17" x2="143.16" y2="269.17"/><line class="cls-237" x1="144.61" y1="269.17" x2="147.42" y2="269.17"/><line class="cls-237" x1="148.87" y1="269.17" x2="151.68" y2="269.17"/><line class="cls-237" x1="164.43" y1="225.23" x2="167.24" y2="225.23"/><line class="cls-237" x1="168.69" y1="225.23" x2="171.5" y2="225.23"/><line class="cls-237" x1="172.95" y1="225.23" x2="175.76" y2="225.23"/><line class="cls-237" x1="177.21" y1="225.23" x2="180.02" y2="225.23"/><line class="cls-237" x1="181.46" y1="225.23" x2="184.28" y2="225.23"/><line class="cls-237" x1="185.72" y1="225.23" x2="188.53" y2="225.23"/><line class="cls-237" x1="164.43" y1="217.02" x2="167.24" y2="217.02"/><line class="cls-237" x1="168.69" y1="217.02" x2="171.5" y2="217.02"/><line class="cls-237" x1="172.95" y1="217.02" x2="175.76" y2="217.02"/><line class="cls-237" x1="177.21" y1="217.02" x2="180.02" y2="217.02"/><line class="cls-237" x1="181.46" y1="217.02" x2="184.28" y2="217.02"/><line class="cls-237" x1="185.72" y1="217.02" x2="188.53" y2="217.02"/><line class="cls-237" x1="164.43" y1="251.79" x2="167.24" y2="251.79"/><line class="cls-237" x1="168.69" y1="251.79" x2="171.5" y2="251.79"/><line class="cls-237" x1="172.95" y1="251.79" x2="175.76" y2="251.79"/><line class="cls-237" x1="177.21" y1="251.79" x2="180.02" y2="251.79"/><line class="cls-237" x1="181.46" y1="251.79" x2="184.28" y2="251.79"/><line class="cls-237" x1="185.72" y1="251.79" x2="188.53" y2="251.79"/><line class="cls-237" x1="164.43" y1="260.48" x2="167.24" y2="260.48"/><line class="cls-237" x1="168.69" y1="260.48" x2="171.5" y2="260.48"/><line class="cls-237" x1="172.95" y1="260.48" x2="175.76" y2="260.48"/><line class="cls-237" x1="177.21" y1="260.48" x2="180.02" y2="260.48"/><line class="cls-237" x1="181.46" y1="260.48" x2="184.28" y2="260.48"/><line class="cls-237" x1="185.72" y1="260.48" x2="188.53" y2="260.48"/><line class="cls-237" x1="164.43" y1="234.4" x2="167.24" y2="234.4"/><line class="cls-237" x1="168.69" y1="234.4" x2="171.5" y2="234.4"/><line class="cls-237" x1="172.95" y1="234.4" x2="175.76" y2="234.4"/><line class="cls-237" x1="177.21" y1="234.4" x2="180.02" y2="234.4"/><line class="cls-237" x1="181.46" y1="234.4" x2="184.28" y2="234.4"/><line class="cls-237" x1="185.72" y1="234.4" x2="188.53" y2="234.4"/><line class="cls-237" x1="164.43" y1="243.1" x2="167.24" y2="243.1"/><line class="cls-237" x1="168.69" y1="243.1" x2="171.5" y2="243.1"/><line class="cls-237" x1="172.95" y1="243.1" x2="175.76" y2="243.1"/><line class="cls-237" x1="177.21" y1="243.1" x2="180.02" y2="243.1"/><line class="cls-237" x1="181.46" y1="243.1" x2="184.28" y2="243.1"/><line class="cls-237" x1="185.72" y1="243.1" x2="188.53" y2="243.1"/><line class="cls-237" x1="164.43" y1="277.87" x2="167.24" y2="277.87"/><line class="cls-237" x1="168.69" y1="277.87" x2="171.5" y2="277.87"/><line class="cls-237" x1="172.95" y1="277.87" x2="175.76" y2="277.87"/><line class="cls-237" x1="177.21" y1="277.87" x2="180.02" y2="277.87"/><line class="cls-237" x1="181.46" y1="277.87" x2="184.28" y2="277.87"/><line class="cls-237" x1="185.72" y1="277.87" x2="188.53" y2="277.87"/><line class="cls-237" x1="164.43" y1="287.15" x2="167.24" y2="287.15"/><line class="cls-237" x1="168.69" y1="287.15" x2="171.5" y2="287.15"/><line class="cls-237" x1="172.95" y1="287.15" x2="175.76" y2="287.15"/><line class="cls-237" x1="177.21" y1="287.15" x2="180.02" y2="287.15"/><line class="cls-237" x1="181.46" y1="287.15" x2="184.28" y2="287.15"/><line class="cls-237" x1="185.72" y1="287.15" x2="188.53" y2="287.15"/><line class="cls-237" x1="164.43" y1="295.25" x2="167.24" y2="295.25"/><line class="cls-237" x1="168.69" y1="295.25" x2="171.5" y2="295.25"/><line class="cls-237" x1="172.95" y1="295.25" x2="175.76" y2="295.25"/><line class="cls-237" x1="177.21" y1="295.25" x2="180.02" y2="295.25"/><line class="cls-237" x1="181.46" y1="295.25" x2="184.28" y2="295.25"/><line class="cls-237" x1="185.72" y1="295.25" x2="188.53" y2="295.25"/><line class="cls-237" x1="164.43" y1="303.95" x2="167.24" y2="303.95"/><line class="cls-237" x1="168.69" y1="303.95" x2="171.5" y2="303.95"/><line class="cls-237" x1="172.95" y1="303.95" x2="175.76" y2="303.95"/><line class="cls-237" x1="177.21" y1="303.95" x2="180.02" y2="303.95"/><line class="cls-237" x1="181.46" y1="303.95" x2="184.28" y2="303.95"/><line class="cls-237" x1="185.72" y1="303.95" x2="188.53" y2="303.95"/><line class="cls-237" x1="164.43" y1="312.64" x2="167.24" y2="312.64"/><line class="cls-237" x1="168.69" y1="312.64" x2="171.5" y2="312.64"/><line class="cls-237" x1="172.95" y1="312.64" x2="175.76" y2="312.64"/><line class="cls-237" x1="177.21" y1="312.64" x2="180.02" y2="312.64"/><line class="cls-237" x1="181.46" y1="312.64" x2="184.28" y2="312.64"/><line class="cls-237" x1="185.72" y1="312.64" x2="188.53" y2="312.64"/><line class="cls-237" x1="164.43" y1="321.33" x2="167.24" y2="321.33"/><line class="cls-237" x1="168.69" y1="321.33" x2="171.5" y2="321.33"/><line class="cls-237" x1="172.95" y1="321.33" x2="175.76" y2="321.33"/><line class="cls-237" x1="177.21" y1="321.33" x2="180.02" y2="321.33"/><line class="cls-237" x1="181.46" y1="321.33" x2="184.28" y2="321.33"/><line class="cls-237" x1="185.72" y1="321.33" x2="188.53" y2="321.33"/><line class="cls-237" x1="164.43" y1="330.03" x2="167.24" y2="330.03"/><line class="cls-237" x1="168.69" y1="330.03" x2="171.5" y2="330.03"/><line class="cls-237" x1="172.95" y1="330.03" x2="175.76" y2="330.03"/><line class="cls-237" x1="177.21" y1="330.03" x2="180.02" y2="330.03"/><line class="cls-237" x1="181.46" y1="330.03" x2="184.28" y2="330.03"/><line class="cls-237" x1="185.72" y1="330.03" x2="188.53" y2="330.03"/><line class="cls-237" x1="164.43" y1="338.72" x2="167.24" y2="338.72"/><line class="cls-237" x1="168.69" y1="338.72" x2="171.5" y2="338.72"/><line class="cls-237" x1="172.95" y1="338.72" x2="175.76" y2="338.72"/><line class="cls-237" x1="177.21" y1="338.72" x2="180.02" y2="338.72"/><line class="cls-237" x1="181.46" y1="338.72" x2="184.28" y2="338.72"/><line class="cls-237" x1="185.72" y1="338.72" x2="188.53" y2="338.72"/><line class="cls-237" x1="164.43" y1="269.17" x2="167.24" y2="269.17"/><line class="cls-237" x1="168.69" y1="269.17" x2="171.5" y2="269.17"/><line class="cls-237" x1="172.95" y1="269.17" x2="175.76" y2="269.17"/><line class="cls-237" x1="177.21" y1="269.17" x2="180.02" y2="269.17"/><line class="cls-237" x1="181.46" y1="269.17" x2="184.28" y2="269.17"/><line class="cls-237" x1="185.72" y1="269.17" x2="188.53" y2="269.17"/><path class="cls-238" d="M100.78,240.32a1.66,1.66,0,0,0-.89.05l-.18-.4a1.4,1.4,0,0,1,.52-.07,5.31,5.31,0,0,1,1.35.24c.22.09.31.08.21-.18a5.81,5.81,0,0,0-1-1.79,3.3,3.3,0,0,0-2.14-1.27c-.1,0-.2,0-.24,0s0,.16.06.25l.17.37-.64-.18a.18.18,0,0,0-.22.13.2.2,0,0,0,.14.23l.87.25.13.44a4.09,4.09,0,0,0-2.69-.19,1.39,1.39,0,0,0-.76.71l-1.61-.16v-.21a.2.2,0,0,0-.16-.19l-2.11-.5a.18.18,0,0,0-.19.07.17.17,0,0,0,0,.2l.48.69-.95.32a.18.18,0,0,0-.13.15l-.19,1.35a.2.2,0,0,0,.12.21.21.21,0,0,0,.23-.07,2.19,2.19,0,0,1,1.76-.88,2.12,2.12,0,0,1,2,1.55l-.38.07a1.73,1.73,0,0,0-1.68-1.24A1.76,1.76,0,0,0,91,242a1.74,1.74,0,1,0,3.47.05s0-.08,0-.12l.38-.07a1.15,1.15,0,0,1,0,.19.2.2,0,0,0,.2.19h2.88a.2.2,0,0,0,.2-.19,2.09,2.09,0,0,1,1.22-1.92l.2.43a1.73,1.73,0,1,0,1.24-.21Zm-8.06,3A1.35,1.35,0,1,1,94,241.59l-1.31.24a.21.21,0,0,0-.16.22.2.2,0,0,0,.19.16h0l1.31-.24V242A1.34,1.34,0,0,1,92.72,243.36Zm7.71,0A1.34,1.34,0,0,1,99.08,242a1.36,1.36,0,0,1,.62-1.14l.55,1.22a.19.19,0,0,0,.18.11l.08,0a.19.19,0,0,0,.09-.25l-.55-1.22a1.58,1.58,0,0,1,.38-.05,1.35,1.35,0,0,1,0,2.69Z"/><path class="cls-238" d="M100.92,222.83a1.72,1.72,0,0,0-.75.17l-.71-1.13a1.65,1.65,0,0,1,.94-.4,1.88,1.88,0,0,1,1.35.58.19.19,0,1,0,.26-.28,2.22,2.22,0,0,0-1.64-.68,2,2,0,0,0-1.12.45l-1.06-1.7a.17.17,0,0,0-.16-.09h-.39a.18.18,0,0,0-.19-.19.19.19,0,0,0-.19.19h-.19a.2.2,0,0,0-.2.19.19.19,0,0,0,.2.19h.19a.2.2,0,0,0,.19.2.19.19,0,0,0,.19-.2h.28l.32.51-.12.22-.41-.14H97.6l-2.15.63-4.21-.57a.2.2,0,0,0-.19.1.23.23,0,0,0,.08.23l.74.59a.2.2,0,0,0,.14.06l.29-.14-.08.25a.18.18,0,0,0,0,.16.22.22,0,0,0,.12.11l2.08.66.46,1.23-.38.06a1.75,1.75,0,1,0,.06.47v-.09l1.58-.38,1.61.41c.19.06.25-.19.27-.27l.37-1.3.79-.79.66,1.07a1.71,1.71,0,0,0-.66,1.35,1.74,1.74,0,1,0,1.74-1.73Zm-8.09,3.08a1.35,1.35,0,1,1,1.28-1.76l-1.31.22a.2.2,0,0,0-.16.19v0a.2.2,0,0,0,.19.17h0l1.32-.22v0A1.35,1.35,0,0,1,92.83,225.91Zm4.61-1.9-1.82-.51a.08.08,0,0,1,0-.16l1.7-.44a.17.17,0,0,1,.17.15l.09.81C97.59,224,97.55,224.05,97.44,224Zm3.48,1.9a1.34,1.34,0,0,1-1.35-1.35,1.36,1.36,0,0,1,.48-1l.7,1.13a.21.21,0,0,0,.17.1.19.19,0,0,0,.1,0,.2.2,0,0,0,.06-.27l-.71-1.13a1.43,1.43,0,0,1,.55-.12,1.35,1.35,0,0,1,0,2.7Z"/><path class="cls-238" d="M100.86,231.81a1.75,1.75,0,0,0-.65.13l-.42-.79a2.27,2.27,0,0,1,1.75.06.19.19,0,0,0,.26-.08.2.2,0,0,0-.08-.26,2.19,2.19,0,0,0-.86-.24v-.36a.28.28,0,0,0,0-.12l-.77-1a.21.21,0,0,0-.15-.07h-.26l-.33-.84a.18.18,0,0,0-.18-.12H97.78a.2.2,0,1,0-.39,0H97.2a.18.18,0,0,0-.19.19.19.19,0,0,0,.19.19h.19a.19.19,0,0,0,.2.19.19.19,0,0,0,.19-.19h.58v.58h-.58a.24.24,0,0,0-.14,0l-.7.71-3.12-.37-.33-.34a.24.24,0,0,0-.14,0h-.58a.19.19,0,0,0-.13,0l-.33.33h-.5a.19.19,0,0,0-.19.2v.77a.19.19,0,0,0,.19.19h1.31l2.35,1.22v.75l-1.08.29a1.73,1.73,0,1,0,.12.63,1.09,1.09,0,0,0,0-.26l1-.26,2.89.52a.18.18,0,0,0,.17-.11l1-2,.35.66a1.73,1.73,0,1,0,1-.31Zm-8.09,3.08A1.35,1.35,0,1,1,94,233l-1.29.34a.19.19,0,0,0,0,.38h0l1.29-.34a.81.81,0,0,1,0,.16A1.34,1.34,0,0,1,92.77,234.89Zm5.59-2.27-1.13.22h0a.1.1,0,0,1-.1-.08.11.11,0,0,1,.08-.12l1.13-.22a.1.1,0,0,1,.12.08A.1.1,0,0,1,98.36,232.62Zm.25-.54-1.54.3h0a.1.1,0,0,1-.1-.08.11.11,0,0,1,.08-.12l1.54-.3a.1.1,0,0,1,.12.08A.11.11,0,0,1,98.61,232.08Zm.25-.54L97,231.9h0a.12.12,0,0,1-.1-.09.1.1,0,0,1,.08-.11l1.88-.37a.1.1,0,0,1,.12.08A.11.11,0,0,1,98.86,231.54Zm2,3.35a1.35,1.35,0,0,1-1.35-1.34,1.33,1.33,0,0,1,.55-1.08l.63,1.17a.19.19,0,0,0,.17.1l.09,0a.2.2,0,0,0,.08-.26l-.63-1.18a1.39,1.39,0,0,1,.46-.08,1.35,1.35,0,1,1,0,2.69Z"/><path class="cls-238" d="M99.64,259.5a1,1,0,1,0,1-1A1,1,0,0,0,99.64,259.5Zm.41,0a.62.62,0,1,1,.61.61A.62.62,0,0,1,100.05,259.5Z"/><path class="cls-238" d="M91,258.68v.82a.2.2,0,0,0,.2.2h.82a.19.19,0,0,0,.21-.2,1.44,1.44,0,1,1,2.87,0h0a.2.2,0,0,0,.2.21H99c.12,0,.22-.08.2-.2a1.44,1.44,0,1,1,2.87,0h0a.2.2,0,0,0,.2.21h.82a.21.21,0,0,0,.21-.2v-.82a.21.21,0,0,0-.21-.21l0-.51a1,1,0,0,0-.45-.8,4.8,4.8,0,0,0-2.3-.53c-1.17-1.42-3-2-5.45-1.64h0a3.18,3.18,0,0,0-2.36,1.67l-1.16.39a.21.21,0,0,0-.14.19v1.23A.2.2,0,0,0,91,258.68Zm5.73-3.24a.12.12,0,0,1,.12-.11,4.48,4.48,0,0,1,2.72,1.12.1.1,0,0,1-.06.18H96.88a.11.11,0,0,1-.11-.1Zm-2.46.21a.1.1,0,0,1,.06-.1,4.22,4.22,0,0,1,.59-.15,7.42,7.42,0,0,1,1.3-.09.09.09,0,0,1,.1.1v1.12a.1.1,0,0,1-.1.1H94.42a.11.11,0,0,1-.11-.1Zm-1.15.81a2.8,2.8,0,0,1,.57-.57.11.11,0,0,1,.17.08v.56a.1.1,0,0,1-.1.1h-.56A.11.11,0,0,1,93.16,256.46Z"/><path class="cls-238" d="M92.68,259.5a1,1,0,1,0,1-1A1,1,0,0,0,92.68,259.5Zm.41,0a.61.61,0,0,1,.61-.62.62.62,0,1,1,0,1.23A.61.61,0,0,1,93.09,259.5Z"/><path class="cls-238" d="M99.56,285.92a.92.92,0,1,0,.92-.93A.92.92,0,0,0,99.56,285.92Zm.4,0a.52.52,0,1,1,.52.51A.52.52,0,0,1,100,285.92Z"/><path class="cls-238" d="M91,285.84a.2.2,0,0,0,.2.2h1a.19.19,0,0,0,.18-.11l.12-.24a.1.1,0,0,1,.09-.06h.28a1.07,1.07,0,0,0-.06.31.93.93,0,0,0,.89.92.87.87,0,0,0,.64-.27.84.84,0,0,0,.26-1H95a.11.11,0,0,1,.09.06l.12.24a.19.19,0,0,0,.18.11h3.4a.21.21,0,0,0,.16-.08l.93-1.31a.11.11,0,0,1,.09,0H101a.09.09,0,0,1,.08,0l.93,1.31a.21.21,0,0,0,.17.08h1a.21.21,0,1,0,0-.41,9.28,9.28,0,0,0-.07-1.23l-.06-.57a5.12,5.12,0,0,0-1-2.38,5.4,5.4,0,0,0-3.32-.71s-6.3-.09-7,.19-.51,4.25-.51,4.7A.2.2,0,0,0,91,285.84Zm10.52-4.24h.11a.52.52,0,0,1,.27.15,4.66,4.66,0,0,1,.5,1.39c0,.07,0,.15-.1.15h-.47a.22.22,0,0,1-.2-.16l-.22-1.26C101.39,281.69,101.42,281.6,101.56,281.6Zm-1.79.22a.22.22,0,0,1,.21-.22h.92a.2.2,0,0,1,.2.16l.18,1.25a.22.22,0,0,1-.2.28H100a.22.22,0,0,1-.21-.22Zm-6.89,0a.21.21,0,0,1,.21-.22h1a.22.22,0,0,1,.21.22v1.25a.22.22,0,0,1-.21.22H93a.22.22,0,0,1-.21-.22Zm1.67,0a.21.21,0,0,1,.2-.22h1a.21.21,0,0,1,.21.22v1.25a.21.21,0,0,1-.21.22h-1a.21.21,0,0,1-.2-.22Zm1.75,0a.21.21,0,0,1,.21-.21h1a.2.2,0,0,1,.2.21v1.25a.21.21,0,0,1-.2.22h-1a.21.21,0,0,1-.21-.22Zm1.75,0a.21.21,0,0,1,.2-.22h1a.21.21,0,0,1,.21.22v1.25a.21.21,0,0,1-.21.21h-1a.21.21,0,0,1-.2-.22Zm-4.71,3.88,0-.09h.85l0,.09a.51.51,0,0,1,0,.22.52.52,0,0,1-.68.48.5.5,0,0,1-.34-.39A.54.54,0,0,1,93.34,285.7ZM91.75,283c0-.24,0-1.05,0-1.27a.19.19,0,0,1,.19-.17h.4c.13,0,.18.1.18.25l-.07,1.25a.21.21,0,0,1-.2.19h-.37C91.76,283.29,91.75,283.17,91.75,283Z"/><path class="cls-238" d="M91.24,266.51h8.6a.21.21,0,0,0,.21-.21v-2.63a.23.23,0,0,0-.21-.24h-8.6a.22.22,0,0,0-.2.24v2.63A.21.21,0,0,0,91.24,266.51Z"/><path class="cls-238" d="M103.31,266.63l-.82-2a.2.2,0,0,0-.19-.13h-1.64a.2.2,0,0,0-.2.2v2a.21.21,0,0,1-.21.21h-9a.2.2,0,0,0-.2.2v1.23a.2.2,0,0,0,.2.2h.62a.82.82,0,1,0,1.64,0H94a.82.82,0,0,0,1.63,0h5.23a.82.82,0,0,0,.82.82.8.8,0,0,0,.7-.41h.73a.21.21,0,0,0,.21-.2v-2.05ZM92.68,269a.41.41,0,0,1-.41-.41.41.41,0,0,1,.41-.41.42.42,0,0,1,.41.41A.41.41,0,0,1,92.68,269Zm2.14,0a.4.4,0,0,1-.4-.41.41.41,0,1,1,.81,0A.41.41,0,0,1,94.82,269Zm6.87,0a.41.41,0,0,1-.41-.41.41.41,0,0,1,.41-.41.42.42,0,0,1,.41.41A.41.41,0,0,1,101.69,269Zm1-2.45h-1.07a.11.11,0,0,1-.11-.11v-1a.1.1,0,0,1,.11-.1h.64a.1.1,0,0,1,.1.06l.43,1A.11.11,0,0,1,102.66,266.51Z"/><path class="cls-238" d="M91.24,275.2h11.68a.2.2,0,0,0,.2-.2v-2.63a.22.22,0,0,0-.2-.24H91.24a.22.22,0,0,0-.2.24V275A.2.2,0,0,0,91.24,275.2Z"/><path class="cls-238" d="M106.38,275.33l-.82-2.05a.2.2,0,0,0-.19-.13h-1.63a.21.21,0,0,0-.21.21v2.05a.2.2,0,0,1-.2.2H91.24a.2.2,0,0,0-.2.21V277a.2.2,0,0,0,.2.21h.62a.82.82,0,1,0,1.64,0H94a.82.82,0,1,0,1.63,0h8.3a.81.81,0,0,0,1.52.41h.73a.21.21,0,0,0,.21-.21v-2Zm-13.7,2.33a.41.41,0,0,1,0-.82.41.41,0,0,1,0,.82Zm2.14,0a.41.41,0,1,1,.41-.41A.4.4,0,0,1,94.82,277.66Zm9.94,0a.41.41,0,0,1,0-.82.41.41,0,0,1,0,.82Zm1-2.46h-1.08a.1.1,0,0,1-.11-.1v-1a.11.11,0,0,1,.11-.11h.65a.11.11,0,0,1,.09.07l.43,1A.1.1,0,0,1,105.74,275.2Z"/><path class="cls-238" d="M91.24,315.69h16a.22.22,0,0,1,.21.23v2.75a.21.21,0,0,1-.21.21h-16a.2.2,0,0,1-.2-.21v-2.75A.22.22,0,0,1,91.24,315.69Z"/><path class="cls-238" d="M110.74,319l-1-2.05a.2.2,0,0,0-.19-.13h-1.47a.2.2,0,0,0-.2.21v2a.21.21,0,0,1-.21.21H91.24a.2.2,0,0,0-.2.2v1.23a.21.21,0,0,0,.2.21H92a.82.82,0,1,0,1.64,0h1.23a.82.82,0,1,0,1.64,0h9.37a.82.82,0,1,0,1.64,0h.82a.81.81,0,0,0,1.52.41h.73a.22.22,0,0,0,.21-.21v-2.05Zm-18,2.33a.41.41,0,0,1-.41-.41.41.41,0,0,1,.82,0A.41.41,0,0,1,92.78,321.34Zm2.87,0a.41.41,0,0,1-.41-.41.41.41,0,0,1,.41-.41.41.41,0,0,1,.41.41A.42.42,0,0,1,95.65,321.34Zm11,0a.41.41,0,0,1-.41-.41.41.41,0,0,1,.82,0A.41.41,0,0,1,106.66,321.34Zm2.46,0a.41.41,0,0,1-.41-.41.41.41,0,0,1,.41-.41.41.41,0,0,1,.41.41A.42.42,0,0,1,109.12,321.34Zm.92-2.46h-1a.11.11,0,0,1-.11-.1v-1a.11.11,0,0,1,.11-.1h.54a.1.1,0,0,1,.09.06l.48,1A.1.1,0,0,1,110,318.88Z"/><path class="cls-238" d="M107.87,315.52v.87a.11.11,0,0,0,.11.11h1.24c.12,0,.16-.12,0-.21l-1.2-.85A.11.11,0,0,0,107.87,315.52Z"/><path class="cls-238" d="M91.24,307h19.58a.23.23,0,0,1,.21.24V310a.2.2,0,0,1-.21.2H91.24a.2.2,0,0,1-.2-.2v-2.75A.22.22,0,0,1,91.24,307Z"/><path class="cls-238" d="M91,310.8V312a.2.2,0,0,0,.2.2H92a.82.82,0,1,0,1.64,0h1.23a.82.82,0,1,0,1.64,0H97.8a.21.21,0,0,0,.17-.08.23.23,0,0,0,0-.14V310.8a.21.21,0,0,0-.21-.21H91.24A.2.2,0,0,0,91,310.8Zm4.2,1.43a.41.41,0,0,1,.41-.41.42.42,0,0,1,.41.41.41.41,0,0,1-.41.41A.41.41,0,0,1,95.24,312.23Zm-2.87,0a.41.41,0,1,1,.82,0,.41.41,0,0,1-.82,0Z"/><path class="cls-238" d="M114.29,310.31l-1-2.05a.21.21,0,0,0-.19-.12h-1.47a.2.2,0,0,0-.2.2v2.05a.2.2,0,0,1-.21.2H98.62a.2.2,0,0,0-.2.21V312a.2.2,0,0,0,.2.2h.72a.82.82,0,1,0,1.63,0h1.23a.82.82,0,1,0,1.64,0h5.55a.82.82,0,1,0,1.64,0h.82a.81.81,0,0,0,1.52.41h.73a.2.2,0,0,0,.2-.2v-2.13Zm-14.13,2.33a.41.41,0,0,1-.41-.41.41.41,0,0,1,.41-.41.42.42,0,0,1,.41.41A.41.41,0,0,1,100.16,312.64Zm2.86,0a.41.41,0,0,1-.41-.41.42.42,0,0,1,.41-.41.41.41,0,0,1,.41.41A.41.41,0,0,1,103,312.64Zm7.19,0a.41.41,0,0,1-.41-.41.41.41,0,0,1,.82,0A.41.41,0,0,1,110.21,312.64Zm2.46,0a.41.41,0,0,1-.41-.41.41.41,0,0,1,.41-.41.42.42,0,0,1,.41.41A.41.41,0,0,1,112.67,312.64Zm.92-2.46h-1a.1.1,0,0,1-.1-.1v-1a.11.11,0,0,1,.1-.11h.54a.12.12,0,0,1,.1.07l.48,1A.1.1,0,0,1,113.59,310.18Z"/><path class="cls-238" d="M111.42,306.82v.87a.11.11,0,0,0,.11.11h1.24c.12,0,.16-.12,0-.2l-1.2-.86C111.52,306.68,111.42,306.72,111.42,306.82Z"/><path class="cls-238" d="M107.46,303a1,1,0,1,0,1-1A1,1,0,0,0,107.46,303Zm.41,0a.61.61,0,0,1,.61-.61.61.61,0,0,1,.62.61.62.62,0,0,1-.62.62A.61.61,0,0,1,107.87,303Z"/><path class="cls-238" d="M98.86,302.15V303a.2.2,0,0,0,.2.21h.82a.19.19,0,0,0,.21-.21,1.43,1.43,0,0,1,2.86,0h0a.21.21,0,0,0,.21.21h3.68a.19.19,0,0,0,.21-.21,1.43,1.43,0,1,1,2.86,0h0a.22.22,0,0,0,.21.21h.82a.2.2,0,0,0,.2-.21v-.82a.2.2,0,0,0-.2-.2l0-.51a1,1,0,0,0-.44-.8,4.68,4.68,0,0,0-2.3-.53c-1.18-1.43-3-2-5.45-1.64h0a3.12,3.12,0,0,0-2.35,1.67l-1.16.39a.2.2,0,0,0-.14.19V302A.2.2,0,0,0,98.86,302.15Zm5.73-3.24a.1.1,0,0,1,.11-.1,4.48,4.48,0,0,1,2.73,1.12.1.1,0,0,1-.07.18h-2.67a.11.11,0,0,1-.1-.11Zm-2.47.22a.12.12,0,0,1,.07-.1,3.18,3.18,0,0,1,.59-.15,8.59,8.59,0,0,1,1.3-.1.1.1,0,0,1,.1.11V300a.1.1,0,0,1-.1.11h-1.85a.11.11,0,0,1-.1-.1Zm-1.14.81a2.57,2.57,0,0,1,.57-.57.11.11,0,0,1,.17.08V300a.1.1,0,0,1-.1.11h-.56A.11.11,0,0,1,101,299.94Z"/><path class="cls-238" d="M100.5,303a1,1,0,1,0,1-1A1,1,0,0,0,100.5,303Zm.4,0a.61.61,0,0,1,.62-.61.61.61,0,0,1,.61.61.61.61,0,0,1-.61.62A.62.62,0,0,1,100.9,303Z"/><path class="cls-238" d="M94.85,302a1,1,0,1,0,1,1A1,1,0,0,0,94.85,302Zm0,1.64a.62.62,0,0,1-.62-.62.61.61,0,0,1,.62-.61.61.61,0,0,1,.61.61A.61.61,0,0,1,94.85,303.59Z"/><path class="cls-238" d="M99.07,302.36H97.74c-.4-2.38-.42-3.89-1.38-3.89H91.65a.61.61,0,0,0-.61.61V303a.2.2,0,0,0,.2.21h2a.19.19,0,0,0,.21-.21,1.43,1.43,0,0,1,1.43-1.43A1.44,1.44,0,0,1,96.27,303h0a.21.21,0,0,0,.2.21h1.08a.21.21,0,0,0,.21-.21c0-.07,0-.13,0-.2h1.32Zm-6.19-.21a.2.2,0,0,1-.2.21h-.82a.21.21,0,0,1-.21-.21v-2.66a.21.21,0,0,1,.21-.2h.82a.2.2,0,0,1,.2.2Zm3.79-2a.21.21,0,0,1-.21.21h-.82a.2.2,0,0,1-.2-.21v-.68a.2.2,0,0,1,.2-.2h.68a.2.2,0,0,1,.2.2Z"/><path class="cls-238" d="M107.41,329.4a.92.92,0,1,0,.92-.92A.92.92,0,0,0,107.41,329.4Zm.41,0a.5.5,0,0,1,.51-.51.51.51,0,0,1,.51.51.51.51,0,0,1-.51.51A.51.51,0,0,1,107.82,329.4Z"/><path class="cls-238" d="M98.89,329.32a.2.2,0,0,0,.2.2h1a.19.19,0,0,0,.18-.11l.12-.24a.11.11,0,0,1,.09-.06h.28a1.07,1.07,0,0,0-.06.31.92.92,0,0,0,.89.92.87.87,0,0,0,.64-.27.84.84,0,0,0,.26-1h.28a.13.13,0,0,1,.09.06l.12.24a.19.19,0,0,0,.18.11h3.4a.21.21,0,0,0,.16-.08l.94-1.31a.1.1,0,0,1,.08,0h1.12a.12.12,0,0,1,.08,0l.93,1.31a.21.21,0,0,0,.17.08h1a.21.21,0,0,0,.21-.2.22.22,0,0,0-.21-.21,9.12,9.12,0,0,0-.07-1.22l-.06-.58a5.22,5.22,0,0,0-1-2.38,5.53,5.53,0,0,0-3.33-.7s-6.3-.1-7,.18-.51,4.25-.51,4.7A.21.21,0,0,0,98.89,329.32Zm10.52-4.23h.11a.5.5,0,0,1,.27.14,4.66,4.66,0,0,1,.5,1.39c0,.07,0,.15-.1.15h-.47a.21.21,0,0,1-.2-.16l-.22-1.26C109.24,325.17,109.27,325.09,109.41,325.09Zm-1.79.21a.21.21,0,0,1,.21-.21h.92a.2.2,0,0,1,.2.15l.18,1.25a.22.22,0,0,1-.2.28h-1.1a.22.22,0,0,1-.21-.22Zm-6.89,0a.21.21,0,0,1,.21-.21h1a.21.21,0,0,1,.21.21v1.25a.22.22,0,0,1-.21.22h-1a.22.22,0,0,1-.21-.22Zm1.67,0a.2.2,0,0,1,.2-.21h1a.2.2,0,0,1,.2.21v1.25a.21.21,0,0,1-.2.22h-1a.21.21,0,0,1-.2-.22Zm1.75,0a.21.21,0,0,1,.21-.21h1a.2.2,0,0,1,.2.21v1.25a.21.21,0,0,1-.2.22h-1a.21.21,0,0,1-.21-.21Zm1.75,0a.2.2,0,0,1,.2-.21h1a.21.21,0,0,1,.21.22v1.25a.21.21,0,0,1-.2.22h-1a.21.21,0,0,1-.2-.22Zm-4.71,3.88,0-.09h.85l0,.09a.54.54,0,0,1,0,.22.52.52,0,0,1-.68.48.5.5,0,0,1-.34-.39A.54.54,0,0,1,101.19,329.18Zm-1.59-2.66c0-.24,0-1,.05-1.26a.19.19,0,0,1,.19-.17h.4c.13,0,.18.09.18.24l-.06,1.25a.22.22,0,0,1-.21.19h-.37C99.61,326.77,99.6,326.65,99.6,326.52Z"/><path class="cls-238" d="M91.24,324.2h6.29a.22.22,0,0,1,.2.24v2.75a.2.2,0,0,1-.2.2H91.24a.2.2,0,0,1-.2-.2v-2.75A.22.22,0,0,1,91.24,324.2Z"/><path class="cls-238" d="M97.73,329.22V328a.2.2,0,0,0-.2-.21H91.27a.2.2,0,0,0-.2.21v1.23a.2.2,0,0,0,.2.2h.78a.93.93,0,0,0,1.85,0h.94a.92.92,0,0,0,1.84,0h.85a.21.21,0,0,0,.16-.08A.23.23,0,0,0,97.73,329.22Zm-4.75.71a.52.52,0,0,1-.52-.49v0a.52.52,0,0,1,1,0v0A.52.52,0,0,1,93,329.93Zm2.78,0a.5.5,0,0,1-.51-.49v0a.51.51,0,0,1,1,0v0A.51.51,0,0,1,95.76,329.93Z"/><rect class="cls-238" x="97.27" y="328.42" width="1.86" height="0.41"/><path class="cls-238" d="M99.05,250.41a1,1,0,0,0,0,1.93,1,1,0,1,0,0-1.93Zm0,1.63a.67.67,0,1,1,.67-.67A.67.67,0,0,1,99.05,252Z"/><path class="cls-238" d="M100,250.19l-1.14-1.83c-.15-.75-.64-2-1.44-2h-1.7a1.28,1.28,0,0,0-1.12-.7H92.09a.67.67,0,0,0-.67.67v2.39h4.29v.38H91.48a.07.07,0,0,0-.07.08v.16h-.22a.15.15,0,0,0-.15.15v.59a.15.15,0,0,0,.15.15h.22v1a.15.15,0,0,0,.15.15h.16a1,1,0,0,0,2,0h3.87a.15.15,0,0,0,.15-.15,1.1,1.1,0,0,1,.3-.82,1.22,1.22,0,0,1,1.68-.07.15.15,0,1,0,.2-.22ZM92.74,252a.75.75,0,0,1-.72-.59h1.45A.75.75,0,0,1,92.74,252Zm3.37-5.17a.13.13,0,0,1,.12-.13c.31,0,1,0,1.06,0,.3,0,.58.29.77.65a2.58,2.58,0,0,1,.29.79.12.12,0,0,1-.08.16l-.46.15H96.22a.12.12,0,0,1-.13-.12ZM99,249.75a1.61,1.61,0,0,0-1,.21,1.24,1.24,0,0,0-.54.9.13.13,0,0,1-.12.12H96.24a.13.13,0,0,1-.13-.13V249a.12.12,0,0,1,.13-.12h1.62l.48-.14a.23.23,0,0,1,.26.1l.49.8C99.14,249.69,99.07,249.76,99,249.75Z"/><path class="cls-238" d="M97.09,249.09h-.6a.13.13,0,1,0,0,.26h.6a.13.13,0,0,0,0-.26Z"/><path class="cls-238" d="M101,214.13a1.68,1.68,0,0,0-.74.18l-.71-1.14a1.62,1.62,0,0,1,.94-.39,1.84,1.84,0,0,1,1.35.58.19.19,0,0,0,.27,0,.2.2,0,0,0,0-.27,2.27,2.27,0,0,0-1.64-.68,2,2,0,0,0-1.12.45l-1.06-1.7a.22.22,0,0,0-.16-.09h-.39a.2.2,0,0,0-.19-.19.19.19,0,0,0-.19.19h-.2a.2.2,0,0,0-.19.2.2.2,0,0,0,.19.19h.2a.19.19,0,0,0,.19.19.2.2,0,0,0,.19-.19H98l.43.69-.18.15c-1.42,1.1-1.9,1.5-2.51,1.44s-1.67-1.2-2.67-1.31a5.41,5.41,0,0,1-1.39-.28,2,2,0,0,0,1.27.81c.83.13,2.11.65,2.16,1.15s.4.56.4.56a1.34,1.34,0,0,0,.12.31l-1.06.43a1.72,1.72,0,1,0,.07.48v-.1l1.27-.48a1,1,0,0,0,.27.14c1.15.37,1.42-.44,1.69-1.24a6.52,6.52,0,0,1,.88-1.55l1.17,1.87a1.73,1.73,0,1,0,1.07-.38Zm-8.08,3.08a1.35,1.35,0,1,1,1.28-1.75l-1.31.22a.19.19,0,0,0-.17.19s0,0,0,0a.19.19,0,0,0,.19.16h0l1.31-.22v0A1.34,1.34,0,0,1,92.91,217.21Zm8.08,0a1.34,1.34,0,0,1-1.34-1.34,1.36,1.36,0,0,1,.47-1l.71,1.13a.19.19,0,0,0,.16.09.23.23,0,0,0,.11,0,.2.2,0,0,0,.06-.27l-.71-1.13a1.41,1.41,0,0,1,.54-.11,1.35,1.35,0,1,1,0,2.69Z"/><path class="cls-238" d="M106,293.69a.92.92,0,1,0,.93.92A.92.92,0,0,0,106,293.69Zm0,1.43a.51.51,0,1,1,.52-.51A.51.51,0,0,1,106,295.12Z"/><path class="cls-238" d="M108.76,294.33a9.28,9.28,0,0,0-.07-1.23l-.06-.58a5.18,5.18,0,0,0-1-2.37,5.41,5.41,0,0,0-3.33-.71s-11.81-.09-12.5.19-.51,4.24-.51,4.7a.2.2,0,0,0-.2.2.2.2,0,0,0,.2.21h1.5a.22.22,0,0,0,.19-.12l.12-.24a.09.09,0,0,1,.09-.05h.28a.8.8,0,0,0-.06.3.93.93,0,0,0,.88.93.87.87,0,0,0,.64-.27.83.83,0,0,0,.26-1h.34a.8.8,0,0,0-.06.3.93.93,0,0,0,.88.93.87.87,0,0,0,.64-.27.83.83,0,0,0,.26-1h.1a.12.12,0,0,1,.1.05l.12.24a.2.2,0,0,0,.18.12h6.55a.2.2,0,0,0,.17-.09l.93-1.3a.11.11,0,0,1,.09-.05h1.11a.11.11,0,0,1,.09.05l.93,1.3a.2.2,0,0,0,.17.09h1a.2.2,0,0,0,.2-.21A.2.2,0,0,0,108.76,294.33ZM93,291.8a.2.2,0,0,1-.2.18h-.85c-.17,0-.18-.11-.18-.25s0-1.05,0-1.26a.19.19,0,0,1,.19-.17h.88c.12,0,.18.09.17.25Zm.53.18a.2.2,0,0,1-.2-.21l0-1.25a.21.21,0,0,1,.2-.22h1a.21.21,0,0,1,.2.22v1.25a.2.2,0,0,1-.2.21Zm.61,3.12a.52.52,0,0,1-.3-.71l0-.09h.84l0,.09a.54.54,0,0,1,.05.22A.51.51,0,0,1,94.12,295.1ZM95.23,292a.21.21,0,0,1-.21-.21v-1.25a.21.21,0,0,1,.21-.22h1a.22.22,0,0,1,.21.22v1.25a.21.21,0,0,1-.21.21Zm1.57,2.41a.42.42,0,0,1,0,.22.51.51,0,0,1-.67.49.52.52,0,0,1-.3-.71l0-.06h.86ZM97.93,292H97a.21.21,0,0,1-.2-.22v-1.25a.22.22,0,0,1,.21-.22h1a.21.21,0,0,1,.2.22v1.25A.2.2,0,0,1,97.93,292Zm1.7,0h-.95a.21.21,0,0,1-.2-.22v-1.25a.21.21,0,0,1,.2-.22h.95a.21.21,0,0,1,.2.22v1.25A.2.2,0,0,1,99.63,292Zm1.71,0h-.94a.21.21,0,0,1-.21-.22v-1.25a.21.21,0,0,1,.21-.22h.94a.22.22,0,0,1,.21.22v1.25A.21.21,0,0,1,101.34,292Zm1.66,0h-.94a.21.21,0,0,1-.21-.22v-1.25a.21.21,0,0,1,.2-.22h1a.22.22,0,0,1,.21.22v1.25A.21.21,0,0,1,103,292Zm1.78,0h-1a.2.2,0,0,1-.2-.21v-1.25a.22.22,0,0,1,.21-.22h1a.21.21,0,0,1,.21.21v1.25A.21.21,0,0,1,104.78,292Zm1.82,0h-1.1a.21.21,0,0,1-.21-.21v-1.25a.21.21,0,0,1,.21-.22h.92a.21.21,0,0,1,.2.16l.18,1.25A.22.22,0,0,1,106.6,292Zm1.26,0h-.47a.2.2,0,0,1-.2-.15l-.22-1.27c-.07-.18,0-.26.11-.26h.1a.53.53,0,0,1,.28.14,4.57,4.57,0,0,1,.49,1.39C108,291.91,107.93,292,107.86,292Z"/><path class="cls-238" d="M112.45,337.17a.92.92,0,1,0,.92.92A.92.92,0,0,0,112.45,337.17Zm0,1.43a.51.51,0,1,1,.51-.51A.51.51,0,0,1,112.45,338.6Z"/><path class="cls-238" d="M115.22,337.81a11.36,11.36,0,0,0-.07-1.23l-.06-.58a5.23,5.23,0,0,0-1-2.37,5.43,5.43,0,0,0-3.33-.71s-11.81-.09-12.51.19-.5,4.24-.5,4.7a.2.2,0,0,0-.2.2.2.2,0,0,0,.2.21h1.5a.19.19,0,0,0,.18-.11l.12-.24a.11.11,0,0,1,.1-.06h.27a1.07,1.07,0,0,0-.06.31.93.93,0,0,0,.89.92.87.87,0,0,0,.64-.27.85.85,0,0,0,.26-1h.33a1.06,1.06,0,0,0-.05.31.92.92,0,0,0,.88.92.87.87,0,0,0,.64-.27.85.85,0,0,0,.26-1h.1a.09.09,0,0,1,.09.06l.12.24a.21.21,0,0,0,.19.11h6.55a.2.2,0,0,0,.17-.09l.93-1.3a.09.09,0,0,1,.08,0H113a.09.09,0,0,1,.08,0l.94,1.3a.18.18,0,0,0,.16.09h1a.2.2,0,0,0,.2-.21A.2.2,0,0,0,115.22,337.81Zm-15.78-2.53a.21.21,0,0,1-.21.18h-.85c-.16,0-.18-.11-.18-.24s0-1.06.06-1.27a.19.19,0,0,1,.19-.17h.87c.13,0,.18.1.18.25Zm.53.18a.2.2,0,0,1-.2-.21l0-1.25a.22.22,0,0,1,.21-.22h1a.21.21,0,0,1,.21.22v1.25a.21.21,0,0,1-.21.21Zm.6,3.12a.5.5,0,0,1-.34-.39.58.58,0,0,1,0-.32l0-.08h.84l0,.08a.59.59,0,0,1,0,.22A.51.51,0,0,1,100.57,338.58Zm1.12-3.12a.21.21,0,0,1-.21-.21V334a.21.21,0,0,1,.21-.22h1a.21.21,0,0,1,.2.22v1.25a.2.2,0,0,1-.2.21Zm1.57,2.41a.59.59,0,0,1,0,.22.51.51,0,0,1-.67.49.51.51,0,0,1-.35-.39.69.69,0,0,1,0-.32l0-.06h.86Zm1.12-2.4h-.94a.22.22,0,0,1-.21-.22V334a.21.21,0,0,1,.21-.22h.94a.21.21,0,0,1,.21.22v1.25A.22.22,0,0,1,104.38,335.47Zm1.71,0h-1a.22.22,0,0,1-.21-.22V334a.21.21,0,0,1,.21-.22h.94a.21.21,0,0,1,.21.22v1.25A.22.22,0,0,1,106.09,335.47Zm1.71,0h-1a.21.21,0,0,1-.2-.22V334a.21.21,0,0,1,.2-.22h1a.21.21,0,0,1,.2.22v1.25A.23.23,0,0,1,107.8,335.47Zm1.66,0h-.95a.21.21,0,0,1-.2-.22V334a.21.21,0,0,1,.2-.22h.95a.21.21,0,0,1,.2.22v1.25A.22.22,0,0,1,109.46,335.47Zm1.78,0h-1a.21.21,0,0,1-.21-.21V334a.21.21,0,0,1,.21-.22h1a.21.21,0,0,1,.2.21v1.26A.21.21,0,0,1,111.24,335.46Zm1.81,0H112a.2.2,0,0,1-.2-.21V334a.21.21,0,0,1,.2-.22h.93a.22.22,0,0,1,.2.16l.17,1.25A.21.21,0,0,1,113.05,335.46Zm1.26,0h-.47a.19.19,0,0,1-.19-.15l-.22-1.27c-.07-.17,0-.26.11-.26h.1a.54.54,0,0,1,.27.14,4.83,4.83,0,0,1,.5,1.4A.1.1,0,0,1,114.31,335.46Z"/><path class="cls-238" d="M89.87,332.9h6.28a.22.22,0,0,1,.21.23v2.75a.21.21,0,0,1-.21.21H89.87a.21.21,0,0,1-.21-.21v-2.75A.22.22,0,0,1,89.87,332.9Z"/><path class="cls-238" d="M96.35,337.92V336.7a.2.2,0,0,0-.2-.2H89.9a.21.21,0,0,0-.21.2v1.23a.21.21,0,0,0,.21.21h.78a.92.92,0,0,0,1.84,0h.94a.92.92,0,0,0,1.84,0h.85a.18.18,0,0,0,.16-.08A.15.15,0,0,0,96.35,337.92Zm-4.75.71a.51.51,0,0,1-.51-.49v0a.51.51,0,1,1,1,0v0A.51.51,0,0,1,91.6,338.63Zm2.78,0a.52.52,0,0,1-.51-.49v0a.51.51,0,0,1,.51-.52.51.51,0,0,1,.51.52v0A.51.51,0,0,1,94.38,338.63Z"/><rect class="cls-238" x="95.9" y="337.11" width="1.86" height="0.41"/></g></g></svg>