<svg xmlns="http://www.w3.org/2000/svg" xmlns:xlink="http://www.w3.org/1999/xlink" viewBox="0 0 490 346"><defs><style>.cls-1,.cls-12,.cls-2,.cls-23,.cls-24,.cls-25{fill:none;}.cls-2{clip-rule:evenodd;}.cls-3{fill:#e088a3;fill-rule:evenodd;}.cls-4{clip-path:url(#clip-path);}.cls-5{clip-path:url(#clip-path-2);}.cls-6{fill:#f2ebeb;}.cls-7{clip-path:url(#clip-path-3);}.cls-8{fill:#bfb0b3;}.cls-9{clip-path:url(#clip-path-5);}.cls-10{clip-path:url(#clip-path-7);}.cls-11{clip-path:url(#clip-path-9);}.cls-12{stroke:#5e3647;stroke-width:0.5px;}.cls-12,.cls-23,.cls-24,.cls-25{stroke-miterlimit:10;}.cls-13,.cls-14,.cls-32{font-size:10px;}.cls-13,.cls-19,.cls-31,.cls-32,.cls-33,.cls-35,.cls-36,.cls-43{fill:#5e3647;}.cls-13,.cls-33,.cls-35,.cls-36{font-family:Roboto-Regular, Roboto;}.cls-14,.cls-42{fill:#3d1d2f;}.cls-14,.cls-26,.cls-32,.cls-42{font-family:Roboto-Medium, Roboto;font-weight:500;}.cls-15{letter-spacing:-0.01em;}.cls-16{letter-spacing:-0.03em;}.cls-17{letter-spacing:-0.01em;}.cls-18{letter-spacing:0.01em;}.cls-19{font-size:20px;font-family:Roboto-Light, Roboto;font-weight:300;}.cls-20{letter-spacing:-0.01em;}.cls-21{letter-spacing:-0.03em;}.cls-22{letter-spacing:0.01em;}.cls-23,.cls-24,.cls-25{stroke:#b53b4e;}.cls-23{stroke-width:1.02px;}.cls-24{stroke-width:3px;}.cls-25{stroke-width:2.5px;}.cls-26{font-size:6.47px;fill:#83273d;}.cls-27{letter-spacing:0.01em;}.cls-28{letter-spacing:-0.03em;}.cls-29{letter-spacing:-0.01em;}.cls-30{letter-spacing:-0.03em;}.cls-31{font-size:18px;font-family:Roboto-Bold, Roboto;font-weight:700;}.cls-33{font-size:6px;}.cls-34{letter-spacing:-0.01em;}.cls-35,.cls-36{font-size:8px;}.cls-36{letter-spacing:0.01em;}.cls-37{letter-spacing:-0.06em;}.cls-38{letter-spacing:-0.01em;}.cls-39{letter-spacing:-0.03em;}.cls-40{letter-spacing:-0.04em;}.cls-41{letter-spacing:0em;}.cls-42{font-size:13px;}</style><clipPath id="clip-path" transform="translate(0 -0.57)"><rect class="cls-1" x="140" y="213" width="94" height="123"/></clipPath><clipPath id="clip-path-2" transform="translate(0 -0.57)"><rect class="cls-1" width="490" height="346"/></clipPath><clipPath id="clip-path-3" transform="translate(0 -0.57)"><path class="cls-2" d="M187.5,281.73A14.73,14.73,0,0,1,174.7,274l-2.7,1.63a17.51,17.51,0,0,0,31,0L200.3,274a14.72,14.72,0,0,1-12.8,7.73"/></clipPath><clipPath id="clip-path-5" transform="translate(0 -0.57)"><path class="cls-2" d="M218.08,268.71a30.58,30.58,0,1,0-42,28.45C162.46,299.66,148.9,308.35,147,336h3.18c2.3-32.37,21.1-36.59,37.32-36.59s35,4.22,37.32,36.59H228c-1.9-27.65-15.46-36.34-29.06-38.84a30.73,30.73,0,0,0,19.14-28.45M187.5,296.23a27.53,27.53,0,1,1,27.41-27.52,27.5,27.5,0,0,1-27.41,27.52"/></clipPath><clipPath id="clip-path-7" transform="translate(0 -0.57)"><path class="cls-2" d="M164,336h3.4c.33-4.25,1.24-7.32,2.6-8.73L167.53,325c-2,2-3.15,5.74-3.53,11"/></clipPath><clipPath id="clip-path-9" transform="translate(0 -0.57)"><path class="cls-2" d="M207.47,325,205,327.27c1.36,1.41,2.27,4.48,2.6,8.73H211c-.38-5.26-1.56-9-3.53-11"/></clipPath></defs><title>Fichier 2</title><g id="Calque_2" data-name="Calque 2"><g id="Calque_2-2" data-name="Calque 2"><path class="cls-3" d="M245,346.57H9a9,9,0,0,1-9-9V9.57a9,9,0,0,1,9-9H481a9,9,0,0,1,9,9v328a9,9,0,0,1-9,9Z" transform="translate(0 -0.57)"/><g class="cls-4"><g class="cls-5"><rect class="cls-6" x="135" y="207.43" width="104" height="133"/></g></g><g class="cls-7"><g class="cls-5"><rect class="cls-8" x="167" y="268.43" width="41" height="21"/></g></g><g class="cls-9"><g class="cls-5"><rect class="cls-8" x="142" y="232.43" width="91" height="108"/></g></g><g class="cls-10"><g class="cls-5"><rect class="cls-8" x="159" y="319.43" width="16" height="21"/></g></g><g class="cls-11"><g class="cls-5"><rect class="cls-8" x="200" y="319.43" width="16" height="21"/></g></g><rect class="cls-12" x="9.7" y="10.61" width="224.73" height="135.72"/><text class="cls-13" transform="translate(22.31 27.87)">1. Nom : </text><text class="cls-14" transform="translate(68.28 27.87)">DUPO<tspan class="cls-15" x="26.35" y="0">N</tspan><tspan class="cls-16" x="33.31" y="0">T</tspan></text><text class="cls-13" transform="translate(9.7 164.21)">4. Déliv<tspan class="cls-17" x="32.28" y="0">r</tspan><tspan x="35.57" y="0">é par :</tspan></text><text class="cls-14" transform="translate(81.94 164.21)">LE SOUS-PREF<tspan class="cls-18" x="66.11" y="0">E</tspan><tspan class="cls-16" x="71.86" y="0">T</tspan><tspan x="77.64" y="0" xml:space="preserve"> (31)</tspan></text><text class="cls-13" transform="translate(9.7 215.09)">5. N° :</text><text class="cls-14" transform="translate(44.7 215.09)">3157963541</text><text class="cls-13" transform="translate(9.7 298.89)">7. Signatu<tspan class="cls-17" x="44.43" y="0">r</tspan><tspan x="47.72" y="0">e du titulai</tspan><tspan class="cls-17" x="93.89" y="0">r</tspan><tspan x="97.18" y="0">e</tspan></text><text class="cls-19" transform="translate(53.76 322.83)">X</text><text class="cls-13" transform="translate(9.7 181.83)">A</text><text class="cls-14" transform="translate(31.4 181.83)"><tspan class="cls-20">T</tspan><tspan x="5.93" y="0">OU</tspan><tspan class="cls-21" x="19.36" y="0">L</tspan><tspan x="24.45" y="0">OUSE(31)</tspan></text><text class="cls-13" transform="translate(9.7 198.13)">LE :</text><text class="cls-14" transform="translate(31.4 198.13)">06 / 07 / 2010</text><text class="cls-13" transform="translate(22.31 59.02)">2. P<tspan class="cls-17" x="17.03" y="0">r</tspan><tspan x="20.32" y="0">énom :</tspan></text><text class="cls-14" transform="translate(83.58 59.02)">ALEXANDRE STÉP<tspan class="cls-22" x="82.87" y="0">H</tspan><tspan x="90.06" y="0">ANE</tspan></text><text class="cls-13" transform="translate(22.31 77.14)">3. Date et lieu de naissance :</text><text class="cls-14" transform="translate(159.73 77.14)">09 / 06 /1990</text><text class="cls-13" transform="translate(22.31 122.03)">8. Domicile :</text><text class="cls-14" transform="translate(87.57 122.03)">17 RUE JEAN MOULIN</text><text class="cls-14" transform="translate(22.31 136)">13800 ISTRES</text><text class="cls-14" transform="translate(22.31 90.94)"><tspan class="cls-20">T</tspan><tspan x="5.93" y="0">OU</tspan><tspan class="cls-21" x="19.36" y="0">L</tspan><tspan x="24.45" y="0">OUSE (31)</tspan></text><circle class="cls-23" cx="64.6" cy="252.57" r="19.33"/><circle class="cls-24" cx="64.6" cy="252.57" r="25.06"/><path class="cls-25" d="M69.35,247.69c8.24,2.88,10.76,4,16.27,1.87s8-.64,16,2.14" transform="translate(0 -0.57)"/><path class="cls-25" d="M69.35,253.13c8.24,2.88,10.76,4,16.27,1.87s8-.63,16,2.14" transform="translate(0 -0.57)"/><path class="cls-25" d="M69.35,258.58c8.24,2.88,10.76,4,16.27,1.87s8-.64,16,2.14" transform="translate(0 -0.57)"/><text class="cls-26" transform="matrix(0.99, -0.16, 0.16, 0.99, 21.29, 255.12)">SOUS-PRÉF<tspan class="cls-27" x="34" y="0">E</tspan><tspan class="cls-28" x="37.72" y="0">T</tspan><tspan x="0" y="7.76">DE</tspan><tspan class="cls-28" x="7.88" y="7.76"> </tspan><tspan class="cls-29" x="9.31" y="7.76">T</tspan><tspan x="13.14" y="7.76">OU</tspan><tspan class="cls-30" x="21.83" y="7.76">L</tspan><tspan x="25.13" y="7.76">OUSE</tspan></text><text class="cls-31" transform="translate(264.61 93.16)">A</text><text class="cls-32" transform="translate(294.97 59.37)">A1</text><text class="cls-32" transform="translate(294.97 103.54)">A</text><text class="cls-32" transform="translate(294.97 147.39)">B1</text><text class="cls-32" transform="translate(293.97 176.92)">B</text><text class="cls-32" transform="translate(294.97 206.46)">C</text><text class="cls-32" transform="translate(294.97 235.99)">D</text><text class="cls-32" transform="translate(294.97 265.52)">B</text><text class="cls-32" transform="translate(294.97 295.05)">C</text><text class="cls-32" transform="translate(294.97 324.59)">D</text><text class="cls-31" transform="translate(264.61 164.21)">B</text><text class="cls-31" transform="translate(264.61 208.99)">C</text><text class="cls-31" transform="translate(264.61 239)">D</text><text class="cls-31" transform="translate(264.61 297.89)">E</text><text class="cls-33" transform="translate(361.03 52.43)">≤ 125 cc<tspan x="0" y="9">≤ 11 kW</tspan></text><text class="cls-33" transform="translate(361.03 81.25)">≤ 25 kW<tspan x="0" y="9">≤ 0,16 kW/</tspan><tspan class="cls-34" x="28.14" y="9">k</tspan><tspan x="31.13" y="9">g</tspan></text><text class="cls-33" transform="translate(361.03 170.15)">≤ 3500 <tspan class="cls-34" x="19.5" y="0">k</tspan><tspan x="22.48" y="0">g</tspan><tspan x="0" y="9" xml:space="preserve">≤ (1+8     )</tspan></text><text class="cls-14" transform="translate(412.59 147.39)">09 / 01 /2010</text><text class="cls-35" transform="translate(423.92 30.17)">DEPUIS LE</text><text class="cls-36" transform="translate(261.61 23.72)">C<tspan class="cls-37" x="5.25" y="0">A</tspan><tspan x="10.02" y="0">TÉGORIES DE VÉHICULES POUR </tspan><tspan class="cls-38"><tspan x="0" y="9.6">LESQUELLES LE PERMIS ES</tspan><tspan class="cls-39" x="97.77" y="9.6">T</tspan><tspan x="102.33" y="9.6"> </tspan><tspan class="cls-40" x="104.24" y="9.6">V</tspan><tspan x="108.98" y="9.6">A</tspan><tspan class="cls-41" x="114.13" y="9.6">L</tspan><tspan x="118.45" y="9.6">ABLE</tspan></tspan></text><text class="cls-42" transform="translate(412.59 61.67)">**********</text><text class="cls-42" transform="translate(412.59 91.2)">**********</text><text class="cls-42" transform="translate(412.59 209.33)">**********</text><text class="cls-42" transform="translate(412.59 238.87)">**********</text><text class="cls-42" transform="translate(412.59 268.4)">**********</text><text class="cls-42" transform="translate(412.59 297.93)">**********</text><text class="cls-42" transform="translate(412.59 327.46)">**********</text><text class="cls-42" transform="translate(412.59 120.73)">**********</text><text class="cls-14" transform="translate(412.59 176.92)">09 / 01 /2010</text><rect class="cls-12" x="255.35" y="10.57" width="224.73" height="324.86"/><line class="cls-12" x1="255.35" y1="40.1" x2="480.08" y2="40.1"/><line class="cls-12" x1="285.01" y1="40.1" x2="285.01" y2="335.43"/><line class="cls-12" x1="405.59" y1="10.57" x2="405.59" y2="335.43"/><line class="cls-12" x1="285.7" y1="69.63" x2="480.08" y2="69.63"/><line class="cls-12" x1="285.7" y1="158.23" x2="480.08" y2="158.23"/><line class="cls-12" x1="285.7" y1="276.37" x2="480.08" y2="276.37"/><line class="cls-12" x1="285.7" y1="305.9" x2="480.08" y2="305.9"/><line class="cls-12" x1="280.7" y1="335.43" x2="480.08" y2="335.43"/><line class="cls-12" x1="255.35" y1="128.7" x2="480.08" y2="128.7"/><line class="cls-12" x1="255.35" y1="187.77" x2="480.08" y2="187.77"/><line class="cls-12" x1="255.35" y1="217.3" x2="480.08" y2="217.3"/><line class="cls-12" x1="255.35" y1="246.83" x2="480.08" y2="246.83"/><line class="cls-12" x1="310.29" y1="99.17" x2="480.08" y2="99.17"/><path class="cls-43" d="M337.6,114.82a3.43,3.43,0,0,0-1.78.1l-.37-.81a3.78,3.78,0,0,1,1.06-.14,10.32,10.32,0,0,1,2.7.5c.43.16.62.14.42-.37a12.43,12.43,0,0,0-2-3.6,6.62,6.62,0,0,0-4.29-2.53c-.2,0-.41-.08-.48,0s0,.31.12.51l.33.73-1.27-.36a.35.35,0,0,0-.44.25.38.38,0,0,0,.28.47l1.73.5.26.88c-1.53-.55-3.8-1-5.39-.38A2.82,2.82,0,0,0,327,112l-3.23-.33v-.42a.39.39,0,0,0-.31-.38l-4.24-1a.38.38,0,0,0-.38.15.36.36,0,0,0,0,.4l1,1.39-1.89.63a.39.39,0,0,0-.26.31l-.39,2.7a.38.38,0,0,0,.69.28,4.44,4.44,0,0,1,3.55-1.77,4.25,4.25,0,0,1,4.08,3.11l-.76.14a3.45,3.45,0,1,0,.15,1c0-.08,0-.15,0-.23l.76-.14c0,.12,0,.25,0,.37a.4.4,0,0,0,.4.39h5.77a.39.39,0,0,0,.39-.38,4.25,4.25,0,0,1,2.45-3.85l.4.87a3.47,3.47,0,1,0,2.48-.42Zm-16.13,6.09a2.7,2.7,0,1,1,2.56-3.55l-2.63.47a.39.39,0,0,0,.07.77h.07l2.62-.47s0,.06,0,.09A2.7,2.7,0,0,1,321.47,120.91Zm15.42,0a2.7,2.7,0,0,1-1.45-5l1.1,2.43a.39.39,0,0,0,.36.23.39.39,0,0,0,.35-.55l-1.11-2.43a2.67,2.67,0,0,1,.75-.11,2.7,2.7,0,0,1,0,5.4Z" transform="translate(0 -0.57)"/><path class="cls-43" d="M337,55a3.45,3.45,0,0,0-1.5.35l-1.42-2.27a3.33,3.33,0,0,1,1.88-.8,3.73,3.73,0,0,1,2.71,1.16.37.37,0,0,0,.54,0,.38.38,0,0,0,0-.55,4.49,4.49,0,0,0-3.28-1.36,4,4,0,0,0-2.24.91L331.55,49a.38.38,0,0,0-.32-.18h-.77a.39.39,0,0,0-.78,0h-.38a.39.39,0,1,0,0,.77h.38a.39.39,0,1,0,.78,0H331l.63,1-.22.45-.84-.28a.38.38,0,0,0-.21,0l-4.32,1.26-8.42-1.13a.38.38,0,0,0-.38.2.46.46,0,0,0,.15.46l1.49,1.19a.41.41,0,0,0,.28.11l.58-.27-.16.48a.38.38,0,0,0,0,.33.35.35,0,0,0,.25.22L324,55l.93,2.46-.77.13a3.47,3.47,0,1,0,.13.94v-.18l3.16-.76,3.24.83c.36.11.48-.39.53-.55l.75-2.61,1.57-1.57,1.33,2.13A3.46,3.46,0,1,0,337,55Zm-16.2,6.17a2.7,2.7,0,1,1,2.58-3.52l-2.64.44a.39.39,0,0,0-.32.38v.07a.4.4,0,0,0,.38.32h.07l2.63-.44v.06A2.7,2.7,0,0,1,320.81,61.19Zm9.23-3.8-3.64-1a.16.16,0,0,1,0-.31l3.39-.88a.31.31,0,0,1,.34.29l.18,1.63C330.35,57.29,330.27,57.46,330,57.39Zm7,3.8a2.7,2.7,0,0,1-1.74-4.76l1.41,2.27a.41.41,0,0,0,.33.18.42.42,0,0,0,.21-.06.39.39,0,0,0,.12-.53L335.92,56a2.84,2.84,0,0,1,1.09-.23,2.7,2.7,0,0,1,0,5.4Z" transform="translate(0 -0.57)"/><path class="cls-43" d="M336.89,85.4a3.49,3.49,0,0,0-1.29.25l-.86-1.59a4.61,4.61,0,0,1,3.52.14.38.38,0,0,0,.36-.68,4.47,4.47,0,0,0-1.73-.5v-.71a.43.43,0,0,0-.08-.24l-1.54-1.93A.41.41,0,0,0,335,80h-.51l-.68-1.69a.4.4,0,0,0-.36-.24h-2.7a.38.38,0,0,0-.38-.38.39.39,0,0,0-.39.38h-.38a.39.39,0,1,0,0,.77H330a.39.39,0,0,0,.39.39.38.38,0,0,0,.38-.39h1.16V80h-1.16a.39.39,0,0,0-.27.11L329,81.52l-6.24-.73-.67-.68a.41.41,0,0,0-.28-.11H320.7a.41.41,0,0,0-.28.11l-.65.66h-1a.39.39,0,0,0-.39.39V82.7a.39.39,0,0,0,.39.38h2.61l4.72,2.45V87l-2.17.58a3.46,3.46,0,1,0,.24,1.26,4.38,4.38,0,0,0,0-.52l2-.52,5.78,1a.39.39,0,0,0,.35-.21l2-4,.71,1.33a3.47,3.47,0,1,0,2-.62ZM320.7,91.57a2.7,2.7,0,1,1,2.48-3.76l-2.58.69a.38.38,0,0,0-.28.47.41.41,0,0,0,.38.29l.1,0,2.58-.69c0,.11,0,.21,0,.32A2.7,2.7,0,0,1,320.7,91.57ZM331.89,87l-2.26.45h0a.19.19,0,0,1-.2-.16.21.21,0,0,1,.16-.24l2.26-.44a.2.2,0,0,1,.24.16A.2.2,0,0,1,331.89,87Zm.5-1.08-3.08.6h0a.2.2,0,0,1-.2-.17.21.21,0,0,1,.16-.24l3.08-.6a.2.2,0,0,1,.08.4Zm.49-1.09-3.75.74h0a.2.2,0,0,1-.2-.16.21.21,0,0,1,.16-.24l3.76-.73a.2.2,0,1,1,.07.39Zm4,6.73a2.7,2.7,0,0,1-1.6-4.87l1.26,2.35a.4.4,0,0,0,.34.21.41.41,0,0,0,.19-.05.38.38,0,0,0,.15-.52L336,86.34a2.59,2.59,0,0,1,.92-.17,2.7,2.7,0,0,1,0,5.4Z" transform="translate(0 -0.57)"/><path class="cls-43" d="M333.42,177.78a1.93,1.93,0,1,0,1.93-1.93A1.93,1.93,0,0,0,333.42,177.78Zm.77,0a1.16,1.16,0,1,1,1.16,1.15A1.16,1.16,0,0,1,334.19,177.78Z" transform="translate(0 -0.57)"/><path class="cls-43" d="M317.23,176.23v1.55a.38.38,0,0,0,.38.38h1.54a.35.35,0,0,0,.39-.38,2.7,2.7,0,0,1,5.4,0h0a.39.39,0,0,0,.38.39h6.95a.34.34,0,0,0,.38-.38,2.7,2.7,0,0,1,5.4,0h0a.39.39,0,0,0,.39.39H340a.39.39,0,0,0,.39-.38v-1.55a.39.39,0,0,0-.39-.38l-.05-1a1.87,1.87,0,0,0-.84-1.51,8.9,8.9,0,0,0-4.32-1c-2.22-2.68-5.67-3.72-10.27-3.09h0a5.9,5.9,0,0,0-4.44,3.14l-2.17.73a.38.38,0,0,0-.27.36v2.32A.38.38,0,0,0,317.23,176.23Zm10.79-6.1a.2.2,0,0,1,.22-.2,8.48,8.48,0,0,1,5.13,2.11.19.19,0,0,1-.12.34h-5a.2.2,0,0,1-.2-.2Zm-4.64.41a.19.19,0,0,1,.12-.19,6.4,6.4,0,0,1,1.11-.29,17.91,17.91,0,0,1,2.45-.18.19.19,0,0,1,.19.2v2.1a.19.19,0,0,1-.19.2h-3.48a.2.2,0,0,1-.19-.19Zm-2.15,1.52A5,5,0,0,1,322.3,171a.2.2,0,0,1,.31.16v1a.2.2,0,0,1-.19.2h-1.05A.2.2,0,0,1,321.23,172.06Z" transform="translate(0 -0.57)"/><path class="cls-43" d="M320.31,177.78a1.93,1.93,0,1,0,1.93-1.93A1.93,1.93,0,0,0,320.31,177.78Zm.77,0a1.16,1.16,0,1,1,1.16,1.15A1.16,1.16,0,0,1,321.08,177.78Z" transform="translate(0 -0.57)"/><path class="cls-43" d="M333.26,238a1.74,1.74,0,1,0,1.74-1.74A1.73,1.73,0,0,0,333.26,238Zm.78,0a1,1,0,1,1,1,1A1,1,0,0,1,334,238Z" transform="translate(0 -0.57)"/><path class="cls-43" d="M317.23,237.85a.39.39,0,0,0,.38.39h1.93a.4.4,0,0,0,.35-.22l.22-.45a.19.19,0,0,1,.17-.1h.53a1.56,1.56,0,0,0-.11.57,1.74,1.74,0,0,0,1.66,1.74,1.65,1.65,0,0,0,1.21-.51,1.58,1.58,0,0,0,.49-1.8h.52a.19.19,0,0,1,.17.1l.23.45a.4.4,0,0,0,.34.22h6.4a.37.37,0,0,0,.31-.16l1.76-2.46a.21.21,0,0,1,.16-.08h2.1a.21.21,0,0,1,.16.08l1.75,2.46a.4.4,0,0,0,.32.16h1.93a.39.39,0,0,0,.38-.39.38.38,0,0,0-.38-.38,20.36,20.36,0,0,0-.13-2.32l-.12-1.09c-.3-1.62-1.21-3.83-2-4.47-1.26-1.05-3.51-1.33-6.27-1.33,0,0-11.85-.18-13.16.35-1.15.47-.95,8-.95,8.86A.38.38,0,0,0,317.23,237.85Zm19.81-8h.2a1,1,0,0,1,.51.27,8.55,8.55,0,0,1,.94,2.62.21.21,0,0,1-.18.28h-.89a.39.39,0,0,1-.37-.3l-.42-2.38C336.71,230,336.78,229.88,337,229.88Zm-3.37.41a.4.4,0,0,1,.39-.41h1.74a.4.4,0,0,1,.38.29l.33,2.36a.41.41,0,0,1-.38.52h-2.07a.4.4,0,0,1-.39-.41Zm-13,0a.4.4,0,0,1,.39-.41h1.82a.39.39,0,0,1,.38.41v2.35a.39.39,0,0,1-.38.41H321a.4.4,0,0,1-.39-.41Zm3.14,0a.4.4,0,0,1,.39-.41h1.9a.4.4,0,0,1,.39.41v2.35a.4.4,0,0,1-.39.41h-1.9a.4.4,0,0,1-.39-.41Zm3.3,0a.41.41,0,0,1,.39-.41h1.9a.4.4,0,0,1,.39.41v2.35a.4.4,0,0,1-.39.41h-1.91a.39.39,0,0,1-.38-.4Zm3.29,0a.4.4,0,0,1,.39-.41h1.9a.39.39,0,0,1,.39.4v2.36a.39.39,0,0,1-.38.4h-1.91a.4.4,0,0,1-.39-.41Zm-8.86,7.3.08-.17h1.59l.07.17a.83.83,0,0,1,.1.41,1,1,0,0,1-1.92.18A1,1,0,0,1,321.56,237.59Zm-3-5c0-.45,0-2,.1-2.38a.36.36,0,0,1,.35-.32h.76c.24,0,.34.18.34.46L320,232.7a.41.41,0,0,1-.39.35h-.7C318.58,233.05,318.56,232.83,318.56,232.58Z" transform="translate(0 -0.57)"/><path class="cls-43" d="M317.61,204.4h16.2a.38.38,0,0,0,.38-.39v-4.95a.42.42,0,0,0-.38-.45h-16.2a.42.42,0,0,0-.38.45V204A.38.38,0,0,0,317.61,204.4Z" transform="translate(0 -0.57)"/><path class="cls-43" d="M340.34,204.64l-1.54-3.85a.4.4,0,0,0-.36-.25h-3.09a.39.39,0,0,0-.38.39v3.85a.39.39,0,0,1-.39.39h-17a.38.38,0,0,0-.38.39v2.31a.39.39,0,0,0,.38.39h1.16a1.54,1.54,0,0,0,3.08,0h1a1.55,1.55,0,0,0,3.09,0h9.84a1.54,1.54,0,0,0,2.87.77H340a.4.4,0,0,0,.39-.39v-3.86Zm-20,4.39a.78.78,0,1,1,.77-.77A.78.78,0,0,1,320.31,209Zm4,0a.78.78,0,1,1,.78-.77A.78.78,0,0,1,324.35,209Zm12.93,0a.78.78,0,1,1,.77-.77A.77.77,0,0,1,337.28,209Zm1.84-4.63h-2a.2.2,0,0,1-.2-.19v-1.93a.19.19,0,0,1,.2-.19h1.22a.19.19,0,0,1,.18.11l.81,1.93A.2.2,0,0,1,339.12,204.4Z" transform="translate(0 -0.57)"/><path class="cls-43" d="M317.61,288.16h30.9a.42.42,0,0,1,.38.44v5.18a.38.38,0,0,1-.38.39h-30.9a.38.38,0,0,1-.38-.39V288.6A.42.42,0,0,1,317.61,288.16Z" transform="translate(0 -0.57)"/><path class="cls-43" d="M317.23,295.33v2.31a.39.39,0,0,0,.38.39H319a1.55,1.55,0,0,0,3.09,0h2.31a1.55,1.55,0,0,0,3.09,0H330a.4.4,0,0,0,.31-.15.37.37,0,0,0,.07-.27v-2.28a.38.38,0,0,0-.38-.39H317.61A.38.38,0,0,0,317.23,295.33Zm7.9,2.7a.77.77,0,1,1,.77.77A.77.77,0,0,1,325.13,298Zm-5.4,0a.78.78,0,0,1,1.55,0,.78.78,0,0,1-1.55,0Z" transform="translate(0 -0.57)"/><path class="cls-43" d="M331.12,295.33v2.31a.39.39,0,0,0,.38.39h14.31a1.54,1.54,0,1,0,3.08,0h1.55a1.54,1.54,0,0,0,2.87.77h1.37a.38.38,0,0,0,.38-.39v-3.85l0-.15-1.87-3.85a.38.38,0,0,0-.35-.25h-2.77a.4.4,0,0,0-.39.39v3.86a.38.38,0,0,1-.38.38H331.5A.38.38,0,0,0,331.12,295.33Zm20.67-1.16a.2.2,0,0,1-.2-.19v-1.93a.19.19,0,0,1,.2-.19h1a.19.19,0,0,1,.18.11l.91,1.93a.2.2,0,0,1-.18.27Zm-.58,3.86a.77.77,0,1,1,1.54,0,.77.77,0,1,1-1.54,0Zm-4.63,0a.77.77,0,1,1,.77.77A.77.77,0,0,1,346.58,298Z" transform="translate(0 -0.57)"/><path class="cls-43" d="M349.64,287.84v1.64a.21.21,0,0,0,.2.21h2.33c.23,0,.3-.23.08-.39L350,287.69C349.81,287.57,349.64,287.66,349.64,287.84Z" transform="translate(0 -0.57)"/><path class="cls-43" d="M348.15,267.17a1.93,1.93,0,1,0,1.92-1.93A1.93,1.93,0,0,0,348.15,267.17Zm.77,0a1.16,1.16,0,1,1,1.15,1.16A1.16,1.16,0,0,1,348.92,267.17Z" transform="translate(0 -0.57)"/><path class="cls-43" d="M332,265.63v1.54a.39.39,0,0,0,.38.39h1.55a.35.35,0,0,0,.38-.39,2.7,2.7,0,0,1,5.4,0h0a.39.39,0,0,0,.39.39H347a.35.35,0,0,0,.38-.39,2.7,2.7,0,0,1,5.4,0h0a.4.4,0,0,0,.39.39h1.54a.39.39,0,0,0,.39-.39v-1.54a.38.38,0,0,0-.39-.39l0-1a1.89,1.89,0,0,0-.85-1.5,8.89,8.89,0,0,0-4.32-1c-2.22-2.68-5.67-3.72-10.27-3.08h0a5.94,5.94,0,0,0-4.44,3.15l-2.17.72a.39.39,0,0,0-.27.37v2.31A.38.38,0,0,0,332,265.63Zm10.8-6.11a.19.19,0,0,1,.21-.19,8.44,8.44,0,0,1,5.14,2.1.2.2,0,0,1-.13.34h-5a.19.19,0,0,1-.19-.19Zm-4.65.41a.19.19,0,0,1,.12-.18,5.7,5.7,0,0,1,1.12-.3,17.69,17.69,0,0,1,2.44-.17.2.2,0,0,1,.2.19v2.11a.2.2,0,0,1-.2.19h-3.47a.19.19,0,0,1-.2-.19ZM336,261.46a5,5,0,0,1,1.07-1.08.19.19,0,0,1,.31.15v1.05a.19.19,0,0,1-.19.19h-1A.19.19,0,0,1,336,261.46Z" transform="translate(0 -0.57)"/><path class="cls-43" d="M335,267.17a1.93,1.93,0,1,0,1.93-1.93A1.94,1.94,0,0,0,335,267.17Zm.78,0a1.16,1.16,0,1,1,1.15,1.16A1.15,1.15,0,0,1,335.81,267.17Z" transform="translate(0 -0.57)"/><path class="cls-43" d="M324.4,265.24a1.93,1.93,0,1,0,1.93,1.93A1.94,1.94,0,0,0,324.4,265.24Zm0,3.09a1.16,1.16,0,1,1,1.16-1.16A1.16,1.16,0,0,1,324.4,268.33Z" transform="translate(0 -0.57)"/><path class="cls-43" d="M332.34,266h-2.5c-.75-4.48-.79-7.32-2.6-7.32h-8.86a1.15,1.15,0,0,0-1.15,1.15v7.33a.39.39,0,0,0,.38.39h3.67a.36.36,0,0,0,.39-.39,2.7,2.7,0,0,1,5.4,0h0a.39.39,0,0,0,.38.39h2a.4.4,0,0,0,.39-.39c0-.13,0-.26,0-.39h2.47Zm-11.64-.38a.39.39,0,0,1-.39.38h-1.54a.39.39,0,0,1-.39-.38v-5a.39.39,0,0,1,.39-.38h1.54a.39.39,0,0,1,.39.38Zm7.13-3.75a.39.39,0,0,1-.39.38H325.9a.39.39,0,0,1-.39-.38v-1.29a.39.39,0,0,1,.39-.38h1.27a.39.39,0,0,1,.39.38Z" transform="translate(0 -0.57)"/><path class="cls-43" d="M348.05,327.4a1.74,1.74,0,1,0,1.73-1.73A1.74,1.74,0,0,0,348.05,327.4Zm.77,0a1,1,0,0,1,1.93,0,1,1,0,1,1-1.93,0Z" transform="translate(0 -0.57)"/><path class="cls-43" d="M332,327.25a.38.38,0,0,0,.39.39h1.92a.39.39,0,0,0,.35-.21l.23-.46a.19.19,0,0,1,.17-.1h.52a1.86,1.86,0,0,0-.11.58,1.74,1.74,0,0,0,1.67,1.73,1.66,1.66,0,0,0,1.21-.51,1.57,1.57,0,0,0,.48-1.8h.53a.19.19,0,0,1,.17.1l.23.46a.37.37,0,0,0,.34.21h6.4a.38.38,0,0,0,.31-.16l1.76-2.46a.18.18,0,0,1,.15-.08h2.11a.18.18,0,0,1,.15.08l1.76,2.46a.38.38,0,0,0,.31.16H355a.39.39,0,1,0,0-.77,18.3,18.3,0,0,0-.13-2.32l-.12-1.08c-.3-1.63-1.21-3.84-2-4.47-1.25-1.05-3.5-1.34-6.26-1.34,0,0-11.86-.17-13.17.36-1.15.46-.94,8-.94,8.85A.38.38,0,0,0,332,327.25Zm19.81-8h.2a1,1,0,0,1,.52.27,8.82,8.82,0,0,1,.93,2.62.21.21,0,0,1-.18.28h-.88a.4.4,0,0,1-.38-.29l-.41-2.38C351.5,319.44,351.57,319.28,351.82,319.28Zm-3.36.41a.4.4,0,0,1,.39-.41h1.74a.39.39,0,0,1,.37.3l.33,2.36a.4.4,0,0,1-.37.51h-2.07a.39.39,0,0,1-.39-.4Zm-13,0a.4.4,0,0,1,.39-.41h1.81a.4.4,0,0,1,.39.41v2.36a.39.39,0,0,1-.39.4h-1.9a.39.39,0,0,1-.39-.4Zm3.14,0a.39.39,0,0,1,.38-.41h1.91a.4.4,0,0,1,.39.41v2.36a.4.4,0,0,1-.39.4H339a.39.39,0,0,1-.38-.4Zm3.3,0a.39.39,0,0,1,.38-.4h1.91a.41.41,0,0,1,.39.41v2.36a.39.39,0,0,1-.39.4h-1.9a.4.4,0,0,1-.39-.41Zm3.29,0a.39.39,0,0,1,.38-.41h1.91a.4.4,0,0,1,.39.4V322a.4.4,0,0,1-.39.41h-1.9a.39.39,0,0,1-.39-.4Zm-8.86,7.3.07-.17H338l.08.17a1,1,0,0,1-1.18,1.33,1,1,0,0,1-.64-.74A.91.91,0,0,1,336.35,327Zm-3-5c0-.46,0-2,.1-2.39a.37.37,0,0,1,.36-.32h.75c.24,0,.34.18.34.47l-.12,2.35a.4.4,0,0,1-.38.35h-.71C333.37,322.45,333.34,322.23,333.34,322Z" transform="translate(0 -0.57)"/><path class="cls-43" d="M317.61,317.62h11.83a.42.42,0,0,1,.39.44v5.18a.39.39,0,0,1-.39.39H317.61a.38.38,0,0,1-.38-.39v-5.18A.42.42,0,0,1,317.61,317.62Z" transform="translate(0 -0.57)"/><path class="cls-43" d="M329.83,327.07v-2.28a.39.39,0,0,0-.39-.39H317.67a.38.38,0,0,0-.39.39v2.31a.39.39,0,0,0,.39.39h1.47a1.74,1.74,0,0,0,3.47,0h1.77a1.74,1.74,0,0,0,3.47,0h1.59a.4.4,0,0,0,.31-.15A.45.45,0,0,0,329.83,327.07Zm-9,1.34a1,1,0,0,1-1-.92v0a1,1,0,1,1,1.93,0s0,0,0,0A1,1,0,0,1,320.87,328.41Zm5.24,0a1,1,0,0,1-1-.92v0a1,1,0,1,1,1.93,0,.08.08,0,0,1,0,0A1,1,0,0,1,326.11,328.41Z" transform="translate(0 -0.57)"/><rect class="cls-43" x="328.96" y="324.99" width="3.51" height="0.77"/><path class="cls-43" d="M332.32,147.24a1.82,1.82,0,1,0,1.82,1.81A1.82,1.82,0,0,0,332.32,147.24Zm0,3.07a1.26,1.26,0,1,1,1.26-1.26A1.26,1.26,0,0,1,332.32,150.31Z" transform="translate(0 -0.57)"/><path class="cls-43" d="M334,146.83l-2.14-3.44c-.29-1.43-1.2-3.7-2.72-3.7H326l0,0a2.42,2.42,0,0,0-2.12-1.31h-4.66a1.25,1.25,0,0,0-1.26,1.26v4.5H326v.72h-8a.14.14,0,0,0-.14.14v.31h-.41a.27.27,0,0,0-.28.28v1.12a.28.28,0,0,0,.28.28h.41v1.95a.28.28,0,0,0,.28.28h.3a2,2,0,0,0,3.87,0h7.29a.27.27,0,0,0,.28-.28,2,2,0,0,1,.56-1.54,2.3,2.3,0,0,1,3.17-.12.28.28,0,0,0,.4,0A.27.27,0,0,0,334,146.83Zm-13.6,3.48a1.4,1.4,0,0,1-1.37-1.12h2.74A1.4,1.4,0,0,1,320.44,150.31Zm6.34-9.74a.22.22,0,0,1,.22-.23c.58,0,1.89,0,2,0,.56,0,1.09.53,1.44,1.21a4.79,4.79,0,0,1,.56,1.5.24.24,0,0,1-.15.3l-.88.27h-3a.23.23,0,0,1-.24-.23Zm5.38,5.42a3.19,3.19,0,0,0-1.79.41,2.34,2.34,0,0,0-1,1.68.23.23,0,0,1-.23.23H327a.23.23,0,0,1-.23-.24v-3.54a.23.23,0,0,1,.23-.23h3.06L331,144a.43.43,0,0,1,.49.18l.91,1.51C332.48,145.88,332.35,146,332.16,146Z" transform="translate(0 -0.57)"/><path class="cls-43" d="M328.61,144.75h-1.13a.25.25,0,0,0,0,.49h1.13a.25.25,0,1,0,0-.49Z" transform="translate(0 -0.57)"/><path class="cls-43" d="M383.87,180.9a13.18,13.18,0,0,0-.69-2.15c-.15-.23-.52-.36-1.09-.4a.16.16,0,0,1-.16-.15l-.12-.67a1.46,1.46,0,0,0,.44.59,1.17,1.17,0,0,0,.79.19c.3,0,.36-.42,0-.45a1.14,1.14,0,0,1-.49-.16c-.31-.27-.37-.7-.51-.93s-.4-.65-.86-.64a.63.63,0,0,0-.18,0c-.47.07-.71.39-.67.72l.22,1.77a.67.67,0,0,0,.72.61l1.34.09s.38,1.05.56,1.78a.41.41,0,0,0,.39.3h.09A.38.38,0,0,0,383.87,180.9Z" transform="translate(0 -0.57)"/><path class="cls-43" d="M381,174.48a.73.73,0,1,1-.72.73.72.72,0,0,1,.72-.73Z" transform="translate(0 -0.57)"/><path class="cls-43" d="M381.32,179.6c-.5,0-1.06-.07-1.22-1.23l-.23-1.67a.3.3,0,0,0-.3-.27h0a.3.3,0,0,0-.29.33l.16,1.58c.11.83.29,1.64,1.14,1.84a3.67,3.67,0,0,0,.76.1h.7a.34.34,0,0,0,.38-.33h0a.35.35,0,0,0-.36-.35Z" transform="translate(0 -0.57)"/></g></g></svg>