<?xml version="1.0" encoding="utf-8"?>
<!-- Generator: Adobe Illustrator 23.0.1, SVG Export Plug-In . SVG Version: 6.00 Build 0)  -->
<svg version="1.1" id="Calque_1" xmlns="http://www.w3.org/2000/svg" xmlns:xlink="http://www.w3.org/1999/xlink" x="0px" y="0px"
	 viewBox="0 0 70.6 70.6" style="enable-background:new 0 0 70.6 70.6;" xml:space="preserve">
<style type="text/css">
	.st0{clip-path:url(#SVGID_2_);}
	.st1{fill:#6B6BED;}
	.st2{clip-path:url(#SVGID_4_);}
	.st3{fill:#17E0AB;}
	.st4{fill:none;stroke:#23242B;stroke-width:1.6;stroke-miterlimit:10;}
	.st5{fill:none;stroke:#23242B;stroke-width:1.6;stroke-linecap:round;stroke-linejoin:round;}
</style>
<title>Fichier 3</title>
<g>
	<g id="Calque_2-2">
		<g>
			<defs>
				<path id="SVGID_1_" d="M53.1,51.3l-7.6-2.9l-3.1-2.7l-7.1,5.5l0,0l-7.1-5.5l-3.1,2.7l-7.6,2.9c-1.8,0.8-2.9,1.8-2.9,3.8v7.7
					C26.9,72,43.7,72,56,62.8v-7.8C56,53.1,54.9,52.1,53.1,51.3"/>
			</defs>
			<clipPath id="SVGID_2_">
				<use xlink:href="#SVGID_1_"  style="overflow:visible;"/>
			</clipPath>
			<g class="st0">
				<rect x="9.6" y="40.7" class="st1" width="51.4" height="34"/>
			</g>
		</g>
		<g>
			<defs>
				<path id="SVGID_3_" d="M35.3,51.2l-3,2.7l1.5,3.2l-0.6,12.6c0.7,0,1.4,0.1,2.1,0.1s1.4,0,2.1-0.1l-0.6-12.6l1.5-3.2L35.3,51.2z"
					/>
			</defs>
			<clipPath id="SVGID_4_">
				<use xlink:href="#SVGID_3_"  style="overflow:visible;"/>
			</clipPath>
			<g class="st2">
				<rect x="27.2" y="46.2" class="st3" width="16.1" height="28.5"/>
			</g>
		</g>
		<circle class="st4" cx="35.3" cy="35.2" r="34.5"/>
		<path class="st4" d="M27.9,15.7c-2.2,0-4.1,1.8-4.1,4.1v11.5c0,6.4,5.2,11.5,11.5,11.5c6.3,0,11.5-5.1,11.5-11.5V19.4"/>
		<path class="st4" d="M27.6,20v-3.8c0-2.2,1.8-4.1,4.1-4.1c0,0,0,0,0,0H48v4.4c0,2.2-1.8,4.1-4.1,4.1H31.6"/>
		<line class="st5" x1="40.9" y1="26.8" x2="40.9" y2="28.7"/>
		<line class="st5" x1="29.6" y1="26.8" x2="29.6" y2="28.7"/>
		<path class="st5" d="M31.9,34.6c1.5,2,4.4,2.4,6.4,0.9c0.3-0.3,0.7-0.6,0.9-0.9"/>
		<line class="st4" x1="28.2" y1="40.2" x2="28.2" y2="46.1"/>
		<line class="st4" x1="42.3" y1="40.2" x2="42.3" y2="46.1"/>
		<path class="st4" d="M25.1,48.3l5.2,7.2l5-4.4l-7.1-5.5L25.1,48.3l-7.6,3c-1.8,0.7-2.9,1.8-2.9,3.8v7.6"/>
		<path class="st4" d="M43.3,51.4l-3,4.2l-5-4.4l7.1-5.5l3.1,2.7l7.6,2.9c1.8,0.8,2.8,1.8,2.8,3.8v7.6"/>
		<polyline class="st4" points="38.4,53.8 36.8,57.1 33.8,57.1 32.2,53.7 		"/>
		<polyline class="st4" points="33.2,69.6 33.8,57.1 36.8,57.1 37.4,69.6 		"/>
	</g>
</g>
</svg>
