<svg xmlns="http://www.w3.org/2000/svg" xmlns:xlink="http://www.w3.org/1999/xlink" viewBox="0 0 70.59 70.59"><defs><style>.cls-1,.cls-6,.cls-7{fill:none;}.cls-1{clip-rule:evenodd;}.cls-2{clip-path:url(#clip-path);}.cls-3{fill:#6b6bed;}.cls-4{clip-path:url(#clip-path-2);}.cls-5{fill:#17e0ab;}.cls-6,.cls-7{stroke:#23242b;stroke-width:1.6px;}.cls-6{stroke-miterlimit:10;}.cls-7{stroke-linecap:round;stroke-linejoin:round;}</style><clipPath id="clip-path"><path class="cls-1" d="M50.34,34.28V27.35A15.34,15.34,0,0,0,36,11.89a15.06,15.06,0,0,0-15.78,15v11.6c0,3.38-3.21,5.15-6.33,4.78a22.53,22.53,0,0,0,12.23,5.88c2.9-1.57,3.45-3.4,3.45-4.6v-3a11.49,11.49,0,0,1-5.79-10L24,27.66c2-1,4.73-2,6.85-4.14C37,26.93,41.18,27.12,47,28l-.24,3.56A11.48,11.48,0,0,1,41,41.6v3a4.14,4.14,0,0,0,.95,2.61,14.15,14.15,0,0,0,8.44-12.92"/></clipPath><clipPath id="clip-path-2"><path class="cls-1" d="M35.3,54.08a17.19,17.19,0,0,1-11-4c-1.21.56-2.15,1-3,1.4a20.28,20.28,0,0,0,28.06,0c-.86-.41-1.8-.84-3-1.39a17.28,17.28,0,0,1-11,4"/></clipPath></defs><title>Fichier 2</title><g id="Calque_2" data-name="Calque 2"><g id="Calque_2-2" data-name="Calque 2"><g class="cls-2"><rect class="cls-3" x="8.91" y="6.88" width="46.44" height="47.32"/></g><g class="cls-4"><rect class="cls-5" x="16.27" y="45.09" width="38.06" height="17.04"/></g><circle class="cls-6" cx="35.29" cy="35.29" r="34.49" transform="translate(-8.23 10.86) rotate(-15.69)"/><path class="cls-6" d="M30.89,23.5c-2.12,2.15-4.82,3.17-6.85,4.14l-.24,3.94a11.49,11.49,0,0,0,23,0L47,28C41.18,27.1,37,26.9,30.89,23.5Z"/><line class="cls-7" x1="40.91" y1="29.88" x2="40.91" y2="30.79"/><line class="cls-7" x1="29.6" y1="29.88" x2="29.6" y2="30.79"/><path class="cls-7" d="M31.92,36.17a4.59,4.59,0,0,0,7.35,0"/><path class="cls-6" d="M41.7,47.28a14.18,14.18,0,0,0,8.64-13V27.33A15.33,15.33,0,0,0,36,11.87a15.05,15.05,0,0,0-15.78,15V38.51c0,3.38-3.21,5.15-6.33,4.77a22.64,22.64,0,0,0,12.51,5.94"/><path class="cls-6" d="M29.59,41.56v3c0,1.29-.63,3.3-4.12,4.94-2.5,1.18-3.92,1.78-5.39,2.55a5,5,0,0,0-3,4.85v7.6"/><path class="cls-6" d="M41,41.56v3c0,1.29.63,3.3,4.12,4.94,2.5,1.18,3.92,1.78,5.39,2.55a5,5,0,0,1,3,4.85v7.6"/><path class="cls-6" d="M46.32,50.09a17.3,17.3,0,0,1-22,0"/><path class="cls-6" d="M49.33,51.5a20.35,20.35,0,0,1-28.09,0"/></g></g></svg>