<?xml version="1.0" encoding="UTF-8"?>
<svg width="52px" height="59px" viewBox="0 0 52 59" version="1.1" xmlns="http://www.w3.org/2000/svg" xmlns:xlink="http://www.w3.org/1999/xlink">
    <!-- Generator: Sketch 51.2 (57519) - http://www.bohemiancoding.com/sketch -->
    <title>Page 1</title>
    <desc>Created with Sketch.</desc>
    <defs></defs>
    <g id="Page-1" stroke="none" stroke-width="1" fill="none" fill-rule="evenodd">
        <g id="Homepage---PlusDePoint@2x" transform="translate(-244.000000, -612.000000)">
            <g id="Page-1" transform="translate(245.000000, 612.000000)">
                <g id="Group-5" transform="translate(0.000000, 20.839778)" stroke="#36363C">
                    <polyline id="Stroke-1" stroke-width="2" points="8.64366667 4.663 0.260333333 2.293 5.08033333 32.4196667 19.297 36.5941111 37.0125556 28.4707778 49.537 32.3074444 40.6225556 1.84188889 35.2525556 0.0218888889"></polyline>
                    <path d="M14.6597778,11.5234444 L19.2975556,36.5945556" id="Stroke-3" stroke-width="1.6"></path>
                </g>
                <path d="M37.0123333,49.3102222 L31.4845556,27.718" id="Stroke-6" stroke="#36363C" stroke-width="2"></path>
                <polyline id="Stroke-7" stroke="#36363C" stroke-width="2.2" points="13.2303333 51.8614444 16.9581111 46.3536667 33.6325556 37.077 39.6092222 28.9547778"></polyline>
                <path d="M13.2303333,42.5194444 L5.56144444,34.6605556" id="Stroke-8" stroke="#36363C" stroke-width="2.2"></path>
                <g id="Group-15" transform="translate(5.555556, 0.839778)">
                    <path d="M15.5077778,20.874 C12.2088889,20.874 9.53555556,18.1995556 9.53555556,14.9017778 C9.53555556,11.6028889 12.2088889,8.92844444 15.5077778,8.92844444 C18.8066667,8.92844444 21.48,11.6028889 21.48,14.9017778 C21.48,18.1995556 18.8066667,20.874 15.5077778,20.874 M15.5077778,0.271777778 C7.26111111,0.271777778 0.575555556,6.95622222 0.575555556,15.204 C0.575555556,23.4506667 6.49333333,29.0006667 15.5077778,38.0151111 C24.4622222,29.0595556 30.44,23.4506667 30.44,15.204 C30.44,6.95622222 23.7544444,0.271777778 15.5077778,0.271777778" id="Fill-9" fill="#17E0AB"></path>
                    <path d="M30.4398889,15.2034444 C30.4398889,23.4501111 24.4621111,29.0601111 15.5076667,38.0145556 C6.49322222,29.0001111 0.575444444,23.4501111 0.575444444,15.2034444 C0.575444444,6.95677778 7.261,0.271222222 15.5076667,0.271222222 C23.7543333,0.271222222 30.4398889,6.95677778 30.4398889,15.2034444 Z" id="Stroke-11" stroke="#36363C" stroke-width="2"></path>
                    <path d="M21.4804444,14.9013333 C21.4804444,18.2002222 18.806,20.8735556 15.5082222,20.8735556 C12.2093333,20.8735556 9.53488889,18.2002222 9.53488889,14.9013333 C9.53488889,11.6024444 12.2093333,8.92911111 15.5082222,8.92911111 C18.806,8.92911111 21.4804444,11.6024444 21.4804444,14.9013333 Z" id="Stroke-13" stroke="#36363C" stroke-width="2"></path>
                </g>
            </g>
        </g>
    </g>
</svg>