<?xml version="1.0" encoding="UTF-8"?>
<svg width="48px" height="66px" viewBox="0 0 48 66" version="1.1" xmlns="http://www.w3.org/2000/svg" xmlns:xlink="http://www.w3.org/1999/xlink">
    <!-- Generator: Sketch 51.2 (57519) - http://www.bohemiancoding.com/sketch -->
    <title>Page 1</title>
    <desc>Created with Sketch.</desc>
    <defs>
        <polygon id="path-1" points="0 65.8604651 47.9910698 65.8604651 47.9910698 0.589395349 0 0.589395349"></polygon>
    </defs>
    <g id="Page-1" stroke="none" stroke-width="1" fill="none" fill-rule="evenodd">
        <g id="Homepage---PlusDePoint@2x" transform="translate(-846.000000, -608.000000)">
            <g id="Page-1" transform="translate(846.000000, 607.000000)">
                <polygon id="Fill-1" fill="#6B6BED" points="28.8849488 50.0797395 28.8849488 64.7911814 34.6840186 61.225786 40.9128558 64.7911814 40.9128558 50.0931349 38.7528558 51.3020651 36.7993674 51.4259721 34.8994605 52.1437395 32.7986233 51.4259721 30.473414 51.4259721"></polygon>
                <g id="Group-31" transform="translate(0.000000, 0.527442)">
                    <path d="M46.1744372,42.9293023 C45.841786,42.1534884 46.0639256,41.043907 46.6555535,40.4891163 C47.2460651,39.8974884 47.2460651,38.9363721 46.6555535,38.3447442 C46.0639256,37.7542326 45.841786,36.6446512 46.1744372,35.9056744 C46.5070884,35.1287442 46.1376,34.2424186 45.3606698,33.9466047 C44.5848558,33.6139535 43.9563907,32.6896744 43.9563907,31.875907 C43.9563907,31.0621395 43.2910884,30.36 42.4404837,30.36 C41.6278326,30.36 40.6667163,29.7315349 40.3709023,28.9557209 C40.0382512,28.1787907 39.1876465,27.8093023 38.4107163,28.1419535 C37.6349023,28.4746047 36.5253209,28.2535814 35.9716465,27.6619535 C35.3800186,27.0703256 34.4189023,27.0703256 33.8272744,27.6619535 C33.2356465,28.2535814 32.1271814,28.4746047 31.3870884,28.1419535 C30.6112744,27.8093023 29.7238326,28.1787907 29.4280186,28.9557209 C29.0953674,29.7315349 28.1710884,30.36 27.3573209,30.36 C26.5446698,30.36 25.8425302,31.0253023 25.8425302,31.875907 C25.8425302,32.6896744 25.2140651,33.6507907 24.4371349,33.9466047 C23.6613209,34.2792558 23.2918326,35.1655814 23.6244837,35.9056744 C23.9571349,36.6814884 23.7349953,37.7910698 23.1433674,38.3447442 C22.5517395,38.9363721 22.5517395,39.8974884 23.1433674,40.4891163 C23.7349953,41.0807442 23.9571349,42.1903256 23.6244837,42.9293023 C23.2918326,43.7051163 23.6613209,44.5925581 24.4371349,44.8883721 C25.2140651,45.2210233 25.8425302,46.1453023 25.8425302,46.9590698 C25.8425302,47.7717209 26.5078326,48.4749767 27.3573209,48.4749767 C28.1710884,48.4749767 29.1322047,49.1034419 29.4280186,49.8792558 C29.7606698,50.6550698 30.6112744,51.0256744 31.3870884,50.6930233 C32.1640186,50.3592558 33.2724837,50.5813953 33.8272744,51.1730233 C34.4189023,51.7646512 35.3800186,51.7646512 35.9716465,51.1730233 C36.5632744,50.5813953 37.6717395,50.3592558 38.4107163,50.6930233 C39.1876465,51.0256744 40.0750884,50.6550698 40.3709023,49.8792558 C40.7035535,49.1034419 41.6278326,48.4749767 42.4404837,48.4749767 C43.2542512,48.4749767 43.9563907,47.8085581 43.9563907,46.9590698 C43.9563907,46.1453023 44.5848558,45.184186 45.3606698,44.8883721 C46.1376,44.5925581 46.4702512,43.7051163 46.1744372,42.9293023 Z" id="Stroke-2" stroke="#22232B" stroke-width="1.6"></path>
                    <polyline id="Stroke-4" stroke="#22232B" stroke-width="1.6" points="40.913414 49.5655814 40.913414 64.2636279 34.6845767 60.6982326 28.885507 64.2636279 28.885507 49.552186"></polyline>
                    <path d="M34.8992372,32.3774512 C38.7872372,32.3774512 41.9396093,35.5298233 41.9396093,39.4178233 C41.9396093,43.3058233 38.7872372,46.4570791 34.8992372,46.4570791 C31.0112372,46.4570791 27.8588651,43.3058233 27.8588651,39.4178233 C27.8588651,35.5298233 31.0112372,32.3774512 34.8992372,32.3774512" id="Fill-6" fill="#17E0AB"></path>
                    <path d="M34.8992372,32.3774512 C38.7872372,32.3774512 41.9396093,35.5298233 41.9396093,39.4178233 C41.9396093,43.3058233 38.7872372,46.4570791 34.8992372,46.4570791 C31.0112372,46.4570791 27.8588651,43.3058233 27.8588651,39.4178233 C27.8588651,35.5298233 31.0112372,32.3774512 34.8992372,32.3774512 Z" id="Stroke-8" stroke="#22232B" stroke-width="1.6"></path>
                    <polyline id="Stroke-10" stroke="#22232B" stroke-width="1.6" points="28.8857302 54.3424744 6.32796279 54.3424744 6.32796279 12.0388465 34.8991256 12.0388465 34.8991256 27.2180093"></polyline>
                    <mask id="mask-2" fill="white">
                        <use xlink:href="#path-1"></use>
                    </mask>
                    <g id="Clip-13"></g>
                    <polygon id="Stroke-12" stroke="#22232B" stroke-width="1.6" mask="url(#mask-2)" points="3.61004651 57.415814 28.8848372 57.415814 28.8848372 54.3426977 3.61004651 54.3426977"></polygon>
                    <polygon id="Stroke-14" stroke="#22232B" stroke-width="1.6" mask="url(#mask-2)" points="0.893023256 60.487814 28.8848372 60.487814 28.8848372 57.4146977 0.893023256 57.4146977"></polygon>
                    <polygon id="Fill-15" fill="#17E0AB" mask="url(#mask-2)" points="15.4604651 54.3426977 20.6132093 54.3426977 20.6132093 45.9315349 15.4604651 45.9315349"></polygon>
                    <polyline id="Fill-16" fill="#17E0AB" mask="url(#mask-2)" points="24.8922419 45.9314233 20.6135442 45.9314233 20.6135442 54.342586 25.7662884 54.342586 25.7662884 46.8210977"></polyline>
                    <polygon id="Stroke-17" stroke="#22232B" stroke-width="1.6" mask="url(#mask-2)" points="15.4604651 54.3426977 20.6132093 54.3426977 20.6132093 45.9315349 15.4604651 45.9315349"></polygon>
                    <polyline id="Stroke-18" stroke="#22232B" stroke-width="1.6" mask="url(#mask-2)" points="24.8922419 45.9314233 20.6135442 45.9314233 20.6135442 54.342586 25.7662884 54.342586 25.7662884 46.8210977"></polyline>
                    <polygon id="Stroke-19" stroke="#22232B" stroke-width="1.6" mask="url(#mask-2)" points="9.95051163 40.4963721 14.0260465 40.4963721 14.0260465 35.5903256 9.95051163 35.5903256"></polygon>
                    <polygon id="Stroke-20" stroke="#22232B" stroke-width="1.6" mask="url(#mask-2)" points="18.576 40.4963721 22.6515349 40.4963721 22.6515349 35.5903256 18.576 35.5903256"></polygon>
                    <polygon id="Stroke-21" stroke="#22232B" stroke-width="1.6" mask="url(#mask-2)" points="9.95051163 31.4388837 14.0260465 31.4388837 14.0260465 26.5328372 9.95051163 26.5328372"></polygon>
                    <polyline id="Stroke-22" stroke="#22232B" stroke-width="1.6" mask="url(#mask-2)" points="27.2004837 30.1357395 27.2004837 26.5323907 31.2760186 26.5323907 31.2760186 28.1041116"></polyline>
                    <polygon id="Stroke-23" stroke="#22232B" stroke-width="1.6" mask="url(#mask-2)" points="18.576 31.4388837 22.6515349 31.4388837 22.6515349 26.5328372 18.576 26.5328372"></polygon>
                    <polygon id="Stroke-24" stroke="#22232B" stroke-width="1.6" mask="url(#mask-2)" points="9.95051163 22.3802791 14.0260465 22.3802791 14.0260465 17.4742326 9.95051163 17.4742326"></polygon>
                    <polygon id="Stroke-25" stroke="#22232B" stroke-width="1.6" mask="url(#mask-2)" points="27.2003721 22.3802791 31.275907 22.3802791 31.275907 17.4742326 27.2003721 17.4742326"></polygon>
                    <polygon id="Stroke-26" stroke="#22232B" stroke-width="1.6" mask="url(#mask-2)" points="18.576 22.3802791 22.6515349 22.3802791 22.6515349 17.4742326 18.576 17.4742326"></polygon>
                    <polygon id="Stroke-27" stroke="#22232B" stroke-width="1.6" mask="url(#mask-2)" points="14.0260465 12.0390698 27.2003721 12.0390698 27.2003721 9.4292093 14.0260465 9.4292093"></polygon>
                    <polygon id="Stroke-28" stroke="#22232B" stroke-width="1.6" mask="url(#mask-2)" points="20.6135442 6.17134884 20.6135442 4.0292093 20.6135442 6.17134884 20.6135442 9.42976744"></polygon>
                    <polygon id="Fill-29" fill="#6B6BED" mask="url(#mask-2)" points="20.6143256 5.33134884 26.7270698 5.33134884 26.7270698 1.48130233 20.6143256 1.48130233"></polygon>
                    <polygon id="Stroke-30" stroke="#22232B" stroke-width="1.6" mask="url(#mask-2)" points="20.6143256 5.33134884 26.7270698 5.33134884 26.7270698 1.48130233 20.6143256 1.48130233"></polygon>
                </g>
            </g>
        </g>
    </g>
</svg>