<?xml version="1.0" encoding="UTF-8"?>
<svg width="60px" height="40px" viewBox="0 0 60 40" version="1.1" xmlns="http://www.w3.org/2000/svg" xmlns:xlink="http://www.w3.org/1999/xlink">
    <!-- Generator: Sketch 51.2 (57519) - http://www.bohemiancoding.com/sketch -->
    <title>Page 1</title>
    <desc>Created with Sketch.</desc>
    <defs>
        <polygon id="path-1" points="0 39.6831111 59.1155556 39.6831111 59.1155556 -0.000222222222 0 -0.000222222222"></polygon>
    </defs>
    <g id="Page-1" stroke="none" stroke-width="1" fill="none" fill-rule="evenodd">
        <g id="Homepage---PlusDePoint@2x" transform="translate(-540.000000, -620.000000)">
            <g id="Page-1" transform="translate(540.000000, 620.000000)">
                <path d="M41.4243333,32.9146667 L2.82766667,32.9146667 C1.75655556,32.9146667 0.888777778,32.0468889 0.888777778,30.9757778 L0.888777778,2.828 C0.888777778,1.75688889 1.75655556,0.889111111 2.82766667,0.889111111 L47.0054444,0.889111111 C48.0765556,0.889111111 48.9443333,1.75688889 48.9443333,2.828 L48.9443333,15.1202222" id="Stroke-1" stroke="#22232B" stroke-width="1.6"></path>
                <g id="Group-6" transform="translate(0.000000, 6.349778)">
                    <polyline id="Fill-3" fill="#6B6BED" points="39.2803333 9.77722222 0.889222222 9.77722222 0.889222222 0.939444444 48.9447778 0.939444444 48.9447778 8.76944444"></polyline>
                    <polyline id="Stroke-5" stroke="#22232B" stroke-width="1.6" points="39.2803333 9.77722222 0.889222222 9.77722222 0.889222222 0.939444444 48.9447778 0.939444444 48.9447778 8.76944444"></polyline>
                </g>
                <mask id="mask-2" fill="white">
                    <use xlink:href="#path-1"></use>
                </mask>
                <g id="Clip-8"></g>
                <polygon id="Fill-7" fill="#22232B" mask="url(#mask-2)" points="7.35222222 23.3008889 24.2544444 23.3008889 24.2544444 20.8864444 7.35222222 20.8864444"></polygon>
                <polygon id="Fill-9" fill="#22232B" mask="url(#mask-2)" points="7.35111111 28.1286667 16.0477778 28.1286667 16.0477778 25.7142222 7.35111111 25.7142222"></polygon>
                <path d="M58.2264444,27.0695556 C58.2264444,33.5673333 48.7531111,38.6906667 48.7531111,38.6906667 C48.7531111,38.6906667 39.2797778,34.3428889 39.2797778,27.0695556 L39.2797778,11.8806667 L48.7531111,15.7451111 L58.2264444,11.8806667 L58.2264444,27.0695556 Z" id="Fill-10" fill="#17E0AB" mask="url(#mask-2)"></path>
                <path d="M58.2264444,27.0695556 C58.2264444,33.5673333 48.7531111,38.6906667 48.7531111,38.6906667 C48.7531111,38.6906667 39.2797778,34.3428889 39.2797778,27.0695556 L39.2797778,11.8806667 L48.7531111,15.7451111 L58.2264444,11.8806667 L58.2264444,27.0695556 Z" id="Stroke-11" stroke="#22232B" stroke-width="1.6" mask="url(#mask-2)"></path>
                <polyline id="Stroke-12" stroke="#22232B" stroke-width="1.6" mask="url(#mask-2)" points="53.2283333 21.7475556 47.5161111 27.4597778 44.6605556 24.6031111"></polyline>
            </g>
        </g>
    </g>
</svg>