<?xml version="1.0" encoding="UTF-8"?>
<svg width="240px" height="28px" viewBox="0 0 240 28" version="1.1" xmlns="http://www.w3.org/2000/svg" xmlns:xlink="http://www.w3.org/1999/xlink">
    <!-- Generator: Sketch 50.2 (55047) - http://www.bohemiancoding.com/sketch -->
    <title>Page 1</title>
    <desc>Created with Sketch.</desc>
    <defs>
        <polygon id="path-1" points="0 28.9855072 240 28.9855072 240 0 0 0"></polygon>
    </defs>
    <g id="Page-1" stroke="none" stroke-width="1" fill="none" fill-rule="evenodd">
        <g id="Homepage---PlusDePoint@2x" transform="translate(-140.000000, -68.000000)">
            <g id="Page-1" transform="translate(140.000000, 68.000000)">
                <path d="M4.9782174,8.93883616 L7.60771358,8.93883616 C7.91373254,8.93883616 8.19862897,8.7864569 8.46291806,8.48113816 C8.72617679,8.17581943 8.85857893,7.62512528 8.85857893,6.8290557 C8.85857893,6.01505915 8.70505427,5.45988325 8.39903532,5.163528 C8.09250118,4.86773298 7.78648223,4.71927524 7.4799481,4.71927524 L4.9782174,4.71927524 L4.9782174,8.93883616 Z M0,19.7101449 L0,0 L7.81172622,0 C8.69629615,0 9.51337706,0.199437558 10.2624538,0.597192238 C11.0110153,0.995507135 11.6539642,1.51314844 12.1902701,2.1517968 C12.7260609,2.78988494 13.1469657,3.52152946 13.4534999,4.3444895 C13.760034,5.16856997 13.9130435,5.99657196 13.9130435,6.8290557 C13.9130435,7.69907403 13.7682769,8.54612344 13.4787439,9.36964369 C13.1892108,10.1926037 12.785307,10.923688 12.2665173,11.5628966 C11.7472124,12.2004245 11.1176582,12.7096626 10.3773397,13.0889301 C9.63702108,13.4687578 8.82406164,13.6581114 7.93949171,13.6581114 L4.9782174,13.6581114 L4.9782174,19.7101449 L0,19.7101449 Z" id="Fill-1" fill="#6B6BED"></path>
                <polygon id="Fill-3" fill="#6B6BED" points="19.7101449 19.7101449 19.7101449 5.79710145 24.9578806 5.79710145 24.9578806 15.0558888 33.6231884 15.0558888 33.6231884 19.7101449"></polygon>
                <polygon id="Fill-5" fill="#171728" points="24.3478261 13.9130435 24.3478261 27.826087 19.1000905 27.826087 19.1000905 18.5672996 10.4347826 18.5672996 10.4347826 13.9130435"></polygon>
                <path d="M45.7834127,14.9480219 C46.3983121,14.9480219 46.9228656,14.810247 47.3570733,14.5352527 C47.791281,14.2602585 48.1439036,13.8974882 48.4154887,13.4480532 C48.6865263,12.9980625 48.8858348,12.4802955 49.012319,11.89253 C49.1382556,11.30532 49.2023191,10.6903328 49.2023191,10.048124 L49.2023191,0 L54.4927536,0 L54.4927536,10.048124 C54.4927536,11.406429 54.3208227,12.6769581 53.9775084,13.8608223 C53.6336466,15.0446866 53.0997847,16.0679986 52.3770178,16.9302028 C51.6531559,17.7929626 50.7442217,18.4718374 49.649668,18.9668271 C48.5551142,19.4629279 47.2661799,19.7101449 45.7834127,19.7101449 C44.2458904,19.7101449 42.9301261,19.4490393 41.8355724,18.9257168 C40.7410186,18.4029499 39.8413928,17.7007423 39.1361476,16.8196496 C38.4303547,15.9391124 37.9151096,14.9163559 37.5893169,13.7508246 C37.2640718,12.5852934 37.1014493,11.3508746 37.1014493,10.048124 L37.1014493,0 L42.3918838,0 L42.3918838,10.048124 C42.3918838,10.6903328 42.4548522,11.3097644 42.5818839,11.9058631 C42.7083681,12.5030729 42.9076766,13.0258397 43.1787142,13.4758304 C43.4502993,13.9252654 43.797994,14.2830358 44.2234408,14.5485858 C44.6483401,14.8152469 45.1679657,14.9480219 45.7834127,14.9480219" id="Fill-7" fill="#6B6BED"></path>
                <path d="M69.2547428,6.47037466 C68.7341332,6.14392058 68.1961874,5.85422688 67.6409054,5.60074489 C67.1723042,5.38292595 66.6469665,5.17882357 66.065943,4.98843775 C65.4843942,4.79860059 64.9159788,4.70313335 64.3606969,4.70313335 C63.9094318,4.70313335 63.5495755,4.77610543 63.2806026,4.92095228 C63.0111043,5.06579913 62.8771432,5.31050253 62.8771432,5.65506246 C62.8771432,5.90909311 62.9548932,6.11703613 63.1114438,6.27998883 C63.2674691,6.4434902 63.492839,6.59272635 63.7880788,6.72879461 C64.0827932,6.86486286 64.4431749,6.99599315 64.8681731,7.12328281 C65.2931713,7.24947514 65.7749059,7.40419791 66.3133771,7.58525648 C67.1633735,7.85739298 67.9308918,8.15641394 68.6169829,8.48231936 C69.3025485,8.80877343 69.8883001,9.19338571 70.3742374,9.63780219 C70.8596495,10.0822187 71.2331646,10.6210051 71.4937321,11.2552587 C71.7537742,11.8895123 71.884058,12.6603829 71.884058,13.5662243 C71.884058,14.7260965 71.6797016,15.7005207 71.2720396,16.4889485 C70.8643775,17.2779249 70.3264317,17.9072406 69.6582022,18.3785415 C68.9899726,18.8498424 68.2350624,19.1894644 67.3934714,19.3979561 C66.551355,19.6064478 65.7055614,19.7101449 64.855565,19.7101449 C64.1784047,19.7101449 63.4844336,19.656376 62.7731264,19.5471922 C62.0612938,19.4391057 61.3541892,19.2849316 60.6512874,19.0857672 C59.9483856,18.8860541 59.2717506,18.650678 58.6208572,18.3785415 C57.9699638,18.106405 57.3668761,17.7986054 56.8115942,17.4540455 L58.998575,12.8046811 C59.6053401,13.2041072 60.2388973,13.5574458 60.8987215,13.865794 C61.4540034,14.1368332 62.083358,14.3820852 62.7862598,14.5999041 C63.4886363,14.8166258 64.2046716,14.9258096 64.9333149,14.9258096 C65.4885969,14.9258096 65.8747201,14.8484482 66.0916846,14.6948227 C66.308649,14.5406486 66.4173939,14.3370949 66.4173939,14.0830642 C66.4173939,13.8109277 66.308649,13.5799409 66.0916846,13.3901037 C65.8747201,13.1991693 65.5752776,13.0318273 65.1938824,12.8864317 C64.8119619,12.7415849 64.3738303,12.5972867 63.8794875,12.4513425 C63.3846194,12.3064957 62.8598071,12.1347644 62.3045251,11.9345026 C61.4881504,11.6453576 60.7852485,11.3326201 60.1958196,10.9968387 C59.6053401,10.6616061 59.1194027,10.2813831 58.7380075,9.85507246 C58.356087,9.42931051 58.0739807,8.94429302 57.8922138,8.40056867 C57.7093963,7.85739298 57.6185129,7.23136928 57.6185129,6.52469222 C57.6185129,5.45534938 57.8050078,4.51274752 58.1785229,3.69743533 C58.5509873,2.88157447 59.0589889,2.20178186 59.7009515,1.65805751 C60.3429142,1.11433316 61.0762856,0.70228776 61.9005404,0.421372656 C62.7247953,0.140457552 63.5968559,0 64.5167222,0 C65.1938824,0 65.8531812,0.0680341268 66.4956692,0.203553718 C67.1371066,0.339621972 67.7580557,0.5124506 68.3569407,0.720393617 C68.9553003,0.928885296 69.5153103,1.15493417 70.03592,1.40018622 C70.5565296,1.64488961 71.0251308,1.87587645 71.4417236,2.09314672 L69.2547428,6.47037466 Z" id="Fill-9" fill="#6B6BED"></path>
                <path d="M95.7764664,9.82734168 C95.7764664,9.0688067 95.6819863,8.37469677 95.4935453,7.7450119 C95.3045851,7.11644746 95.034123,6.57975875 94.683197,6.13550599 C94.3312327,5.69125323 93.8982856,5.34447837 93.3843555,5.09406099 C92.8693872,4.84420383 92.29472,4.71927524 91.6603538,4.71927524 L89.6544692,4.71927524 L89.6544692,14.9908697 L91.6603538,14.9908697 C92.3123701,14.9908697 92.8953433,14.8614594 93.4097925,14.6020785 C93.9242417,14.3432578 94.3571888,13.9819173 94.7086339,13.5191774 C95.060079,13.0575579 95.3263882,12.5113454 95.5060042,11.8816606 C95.6861393,11.2530961 95.7764664,10.5679497 95.7764664,9.82734168 Z M84.6376812,19.7101449 L84.6376812,0 L91.6603538,0 C93.1694393,0 94.4989089,0.259380869 95.6477243,0.777582388 C96.7965397,1.29578391 97.756914,1.99885732 98.5288474,2.88736284 C99.3007807,3.77586837 99.8832348,4.81675315 100.277767,6.01057741 C100.672299,7.20384145 100.869565,8.47665642 100.869565,9.82734168 C100.869565,11.3264847 100.651015,12.6822119 100.213396,13.8945233 C99.7762958,15.1068348 99.1543885,16.1426776 98.3487123,17.0031722 C97.542517,17.8642271 96.5738367,18.5303261 95.4416332,19.0020296 C94.3099488,19.473733 93.0495223,19.7101449 91.6603538,19.7101449 L84.6376812,19.7101449 Z" id="Fill-11" fill="#171728"></path>
                <polygon id="Fill-13" fill="#171728" points="119.42029 14.9907355 119.42029 19.7101449 105.507246 19.7101449 105.507246 0 119.42029 0 119.42029 4.71940938 110.869045 4.71940938 110.869045 7.49536777 118.31608 7.49536777 118.31608 11.8814381 110.869045 11.8814381 110.869045 14.9907355"></polygon>
                <path d="M138.311551,8.93883616 L140.941047,8.93883616 C141.247066,8.93883616 141.531962,8.7864569 141.796251,8.48113816 C142.05951,8.17581943 142.191912,7.62512528 142.191912,6.8290557 C142.191912,6.01505915 142.038388,5.45988325 141.732369,5.163528 C141.425835,4.86773298 141.1193,4.71927524 140.812766,4.71927524 L138.311551,4.71927524 L138.311551,8.93883616 Z M133.333333,19.7101449 L133.333333,0 L141.14506,0 C142.030145,0 142.84671,0.199437558 143.595787,0.597192238 C144.344349,0.995507135 144.987298,1.51314844 145.523088,2.1517968 C146.059394,2.78988494 146.480299,3.52152946 146.786833,4.3444895 C147.093367,5.16856997 147.246377,5.99657196 147.246377,6.8290557 C147.246377,7.69907403 147.10161,8.54612344 146.812592,9.36964369 C146.522544,10.1926037 146.11864,10.923688 145.599851,11.5628966 C145.080546,12.2004245 144.450992,12.7096626 143.710673,13.0889301 C142.970354,13.4687578 142.157395,13.6581114 141.272825,13.6581114 L138.311551,13.6581114 L138.311551,19.7101449 L133.333333,19.7101449 Z" id="Fill-15" fill="#171728"></path>
                <path d="M156.094415,12.7536232 C156.259779,13.221931 156.475448,13.6478283 156.740886,14.0325098 C157.094091,14.5456175 157.540413,14.9607628 158.079852,15.2755565 C158.619292,15.5915448 159.259876,15.7492403 160.002676,15.7492403 C160.745475,15.7492403 161.390341,15.5867661 161.938343,15.2612205 C162.486345,14.9356749 162.933202,14.5115696 163.277844,13.9883072 C163.520271,13.6203511 163.718814,13.2153604 163.87401,12.7739325 L169.275362,12.7739325 C169.162979,13.2756909 169.015275,13.7690866 168.833322,14.2547171 C168.35596,15.5276303 167.692899,16.6524054 166.844139,17.6290423 C165.995913,18.6050818 164.983929,19.3905726 163.807651,19.9819307 C162.631908,20.5738862 161.345923,20.8695652 159.949695,20.8695652 C158.517612,20.8695652 157.218248,20.5643289 156.051603,19.9526615 C154.884423,19.3415914 153.885282,18.5363887 153.055252,17.5400399 C152.223616,16.5436911 151.57875,15.4039827 151.119049,14.1221095 C150.960107,13.6782922 150.828994,13.2302937 150.724638,12.7775164 L156.094415,12.7536232 Z" id="Fill-17" fill="#171728"></path>
                <mask id="mask-2" fill="white">
                    <use xlink:href="#path-1"></use>
                </mask>
                <g id="Clip-20"></g>
                <polygon id="Fill-19" fill="#171728" mask="url(#mask-2)" points="173.913043 19.7101449 178.550725 19.7101449 178.550725 0 173.913043 0"></polygon>
                <polygon id="Fill-21" fill="#171728" mask="url(#mask-2)" points="189.356246 10.0214619 189.356246 19.7101449 184.347826 19.7101449 184.347826 0 188.25173 0 195.57129 10.0214619 195.57129 0 200.57971 0 200.57971 19.7101449 196.599097 19.7101449"></polygon>
                <polygon id="Fill-22" fill="#171728" mask="url(#mask-2)" points="221.449275 4.71940938 215.967422 4.71940938 215.967422 19.7101449 210.726904 19.7101449 210.726904 4.71940938 205.217391 4.71940938 205.217391 0 221.449275 0"></polygon>
                <path d="M237.370685,6.47037466 C236.850075,6.14392058 236.311604,5.85422688 235.756847,5.60074489 C235.288246,5.38292595 234.762909,5.17882357 234.181885,4.98843775 C233.599811,4.79860059 233.031921,4.70313335 232.477164,4.70313335 C232.025374,4.70313335 231.665517,4.77610543 231.396545,4.92095228 C231.127046,5.06579913 230.99256,5.31050253 230.99256,5.65506246 C230.99256,5.90909311 231.071361,6.11703613 231.227386,6.27998883 C231.383936,6.4434902 231.608781,6.59272635 231.904021,6.72879461 C232.198735,6.86486286 232.559117,6.99599315 232.984115,7.12328281 C233.409639,7.24947514 233.890848,7.40419791 234.428794,7.58525648 C235.279315,7.85739298 236.046834,8.15641394 236.732925,8.48231936 C237.418491,8.80877343 238.004242,9.19338571 238.490179,9.63780219 C238.976117,10.0822187 239.349107,10.6210051 239.609674,11.2552587 C239.869716,11.8895123 240,12.6603829 240,13.5662243 C240,14.7260965 239.795644,15.7005207 239.388507,16.4889485 C238.979794,17.2779249 238.441848,17.9072406 237.77467,18.3785415 C237.105915,18.8498424 236.351004,19.1894644 235.509413,19.3979561 C234.667297,19.6064478 233.821503,19.7101449 232.971507,19.7101449 C232.294347,19.7101449 231.600376,19.656376 230.888543,19.5471922 C230.177236,19.4391057 229.470131,19.2849316 228.767229,19.0857672 C228.064328,18.8860541 227.387693,18.650678 226.736799,18.3785415 C226.086431,18.106405 225.482818,17.7986054 224.927536,17.4540455 L227.114517,12.8046811 C227.721807,13.2041072 228.354839,13.5574458 229.014663,13.865794 C229.56942,14.1368332 230.1993,14.3820852 230.902202,14.5999041 C231.604578,14.8166258 232.320614,14.9258096 233.049257,14.9258096 C233.604539,14.9258096 233.990662,14.8484482 234.207627,14.6948227 C234.425116,14.5406486 234.533336,14.3370949 234.533336,14.0830642 C234.533336,13.8109277 234.425116,13.5799409 234.207627,13.3901037 C233.990662,13.1991693 233.69122,13.0318273 233.309824,12.8864317 C232.927904,12.7415849 232.489772,12.5972867 231.99543,12.4513425 C231.500561,12.3064957 230.975224,12.1347644 230.420467,11.9345026 C229.604618,11.6453576 228.901716,11.3326201 228.311762,10.9968387 C227.721807,10.6616061 227.235345,10.2813831 226.85395,9.85507246 C226.472029,9.42931051 226.190448,8.94429302 226.007631,8.40056867 C225.825338,7.85739298 225.73498,7.23136928 225.73498,6.52469222 C225.73498,5.45534938 225.92095,4.51274752 226.294465,3.69743533 C226.667455,2.88157447 227.174931,2.20178186 227.816894,1.65805751 C228.458856,1.11433316 229.192753,0.70228776 230.017008,0.421372656 C230.840737,0.140457552 231.712798,0 232.632664,0 C233.309824,0 233.969123,0.0680341268 234.611086,0.203553718 C235.253574,0.339621972 235.873472,0.5124506 236.472357,0.720393617 C237.071768,0.928885296 237.630727,1.15493417 238.151337,1.40018622 C238.672472,1.64488961 239.140548,1.87587645 239.55714,2.09314672 L237.370685,6.47037466 Z" id="Fill-23" fill="#171728" mask="url(#mask-2)"></path>
                <path d="M166.956522,2.89855072 C166.956522,4.49939954 165.65895,5.79710145 164.058262,5.79710145 C162.456992,5.79710145 161.15942,4.49939954 161.15942,2.89855072 C161.15942,1.29770191 162.456992,0 164.058262,0 C165.65895,0 166.956522,1.29770191 166.956522,2.89855072" id="Fill-24" fill="#17E0AB" mask="url(#mask-2)"></path>
                <path d="M158.84058,2.89855072 C158.84058,4.49939954 157.543008,5.79710145 155.94232,5.79710145 C154.34105,5.79710145 153.043478,4.49939954 153.043478,2.89855072 C153.043478,1.29770191 154.34105,0 155.94232,0 C157.543008,0 158.84058,1.29770191 158.84058,2.89855072" id="Fill-25" fill="#17E0AB" mask="url(#mask-2)"></path>
            </g>
        </g>
    </g>
</svg>