<?xml version="1.0" standalone="no"?>
<!DOCTYPE svg PUBLIC "-//W3C//DTD SVG 20010904//EN"
 "http://www.w3.org/TR/2001/REC-SVG-20010904/DTD/svg10.dtd">
<svg version="1.0" xmlns="http://www.w3.org/2000/svg"
 width="160.000000pt" height="160.000000pt" viewBox="0 0 160.000000 160.000000"
 preserveAspectRatio="xMidYMid meet">
<metadata>
Created by potrace 1.11, written by Peter Selinger 2001-2013
</metadata>
<g transform="translate(0.000000,160.000000) scale(0.100000,-0.100000)"
fill="#000000" stroke="none">
<path d="M670 1545 l0 -55 -230 0 -230 0 0 -475 0 -475 130 0 130 0 0 150 0
150 55 0 55 0 0 -420 0 -420 130 0 130 0 0 144 0 144 113 4 c139 5 196 27 262
100 111 124 115 304 9 444 l-28 36 -13 -26 c-30 -57 -113 -37 -113 27 0 18 5
38 11 44 19 19 -11 27 -116 31 l-101 4 31 61 c26 54 30 72 30 147 0 96 -19
150 -75 213 l-32 37 27 0 c24 0 26 3 23 38 l-3 37 -52 3 -53 3 0 55 0 54 -45
0 -45 0 0 -55z m-40 -288 c46 -23 59 -118 24 -174 -13 -21 -22 -23 -99 -23
l-85 0 0 105 0 105 68 0 c37 0 78 -6 92 -13z m389 -563 c15 -19 21 -41 21 -74
0 -33 -6 -55 -21 -74 -19 -24 -26 -26 -100 -26 l-79 0 0 100 0 100 79 0 c74 0
81 -2 100 -26z"/>
</g>
</svg>
