<?xml version="1.0" encoding="UTF-8"?>
<svg width="25px" height="22px" viewBox="0 0 25 22" version="1.1" xmlns="http://www.w3.org/2000/svg" xmlns:xlink="http://www.w3.org/1999/xlink">
    <!-- Generator: Sketch 51.1 (57501) - http://www.bohemiancoding.com/sketch -->
    <title>Page 1</title>
    <desc>Created with Sketch.</desc>
    <defs>
        <polygon id="path-1" points="0 22 25 22 25 0 0 0"></polygon>
    </defs>
    <g id="Page-1" stroke="none" stroke-width="1" fill="none" fill-rule="evenodd">
        <g id="MO---Liste-des-stages_design@2x" transform="translate(-13.000000, -94.000000)">
            <g id="Page-1" transform="translate(13.000000, 94.000000)">
                <polygon id="Fill-1" fill="#FFFFFF" opacity="0.300000012" points="10 4 25 4 25 22 10 22"></polygon>
                <path d="M2,2.84405881 C1.53542169,2.84405881 1.15662651,2.46420824 1.15662651,1.99951796 C1.15662651,1.53482767 1.53542169,1.15594119 2,1.15594119 C2.46457831,1.15594119 2.84337349,1.53482767 2.84337349,1.99951796 C2.84337349,2.46420824 2.46457831,2.84405881 2,2.84405881 M2,0 C0.897349398,0 0,0.896601591 0,1.99951796 C0,3.10339841 0.897349398,4 2,4 C3.1026506,4 4,3.10339841 4,1.99951796 C4,0.896601591 3.1026506,0 2,0" id="Fill-3" fill="#FFFFFF"></path>
                <mask id="mask-2" fill="white">
                    <use xlink:href="#path-1"></use>
                </mask>
                <g id="Clip-6"></g>
                <polygon id="Fill-5" fill="#FFFFFF" mask="url(#mask-2)" points="7 2 22 2 22 1 7 1"></polygon>
                <path d="M2,8.84433735 C1.53542169,8.84433735 1.15662651,8.46457831 1.15662651,8 C1.15662651,7.53542169 1.53542169,7.15566265 2,7.15566265 C2.46457831,7.15566265 2.84337349,7.53542169 2.84337349,8 C2.84337349,8.46457831 2.46457831,8.84433735 2,8.84433735 M2,6 C0.897349398,6 0,6.89638554 0,8 C0,9.10361446 0.897349398,10 2,10 C3.1026506,10 4,9.10361446 4,8 C4,6.89638554 3.1026506,6 2,6" id="Fill-7" fill="#FFFFFF" mask="url(#mask-2)"></path>
                <polygon id="Fill-8" fill="#FFFFFF" mask="url(#mask-2)" points="7 8 22 8 22 7 7 7"></polygon>
                <path d="M2,13.8440588 C1.53542169,13.8440588 1.15662651,13.4642082 1.15662651,12.999518 C1.15662651,12.5348277 1.53542169,12.1559412 2,12.1559412 C2.46457831,12.1559412 2.84337349,12.5348277 2.84337349,12.999518 C2.84337349,13.4642082 2.46457831,13.8440588 2,13.8440588 M2,11 C0.897349398,11 0,11.8966016 0,12.999518 C0,14.1033984 0.897349398,15 2,15 C3.1026506,15 4,14.1033984 4,12.999518 C4,11.8966016 3.1026506,11 2,11" id="Fill-9" fill="#FFFFFF" mask="url(#mask-2)"></path>
                <polygon id="Fill-10" fill="#FFFFFF" mask="url(#mask-2)" points="7 13 22 13 22 12 7 12"></polygon>
                <path d="M2,19.8443373 C1.53542169,19.8443373 1.15662651,19.4645783 1.15662651,19 C1.15662651,18.5354217 1.53542169,18.1556627 2,18.1556627 C2.46457831,18.1556627 2.84337349,18.5354217 2.84337349,19 C2.84337349,19.4645783 2.46457831,19.8443373 2,19.8443373 M2,17 C0.897349398,17 0,17.8963855 0,19 C0,20.1036145 0.897349398,21 2,21 C3.1026506,21 4,20.1036145 4,19 C4,17.8963855 3.1026506,17 2,17" id="Fill-11" fill="#FFFFFF" mask="url(#mask-2)"></path>
                <polygon id="Fill-12" fill="#FFFFFF" mask="url(#mask-2)" points="7 19 22 19 22 18 7 18"></polygon>
            </g>
        </g>
    </g>
</svg>