<?xml version="1.0" encoding="UTF-8"?>
<svg width="61px" height="49px" viewBox="0 0 61 49" version="1.1" xmlns="http://www.w3.org/2000/svg" xmlns:xlink="http://www.w3.org/1999/xlink">
    <!-- Generator: Sketch 51.1 (57501) - http://www.bohemiancoding.com/sketch -->
    <title>people</title>
    <desc>Created with Sketch.</desc>
    <defs>
        <polygon id="path-1" points="0.7396 0.851805405 3.98064712 0.851805405 3.98064712 9.27027027 0.7396 9.27027027"></polygon>
        <polygon id="path-3" points="0 0.0998540541 60.5344 0.0998540541 60.5344 48.9170973 0 48.9170973"></polygon>
        <polygon id="path-5" points="0.0377333333 0.453448649 2.86820561 0.453448649 2.86820561 6.62162162 0.0377333333 6.62162162"></polygon>
    </defs>
    <g id="Page-1" stroke="none" stroke-width="1" fill="none" fill-rule="evenodd">
        <g id="MO---Dashboard3_design@2x" transform="translate(-927.000000, -382.000000)">
            <g id="people" transform="translate(927.000000, 382.000000)">
                <path d="M22.0154667,30.6003676 C29.4928,30.6003676 35.5528,24.5799892 35.5528,17.1545027 C35.5528,9.72769189 29.4928,3.70731351 22.0154667,3.70731351 L22.0154667,30.6003676 Z" id="Fill-1" fill="#17E0AB"></path>
                <path d="M49.2593333,36.7713216 C54.5246667,36.7713216 58.794,32.5321595 58.794,27.3010784 C58.794,22.0713216 54.5246667,17.8321595 49.2593333,17.8321595 L49.2593333,36.7713216 Z" id="Fill-3" fill="#17E0AB"></path>
                <path d="M9.74026667,40.4824757 C7.67893333,42.6517189 8.05893333,48.2681784 8.1096,48.8998811 L10.2362667,48.7343405 C10.1016,47.0206649 10.1802667,43.1059622 11.2909333,41.9365838 L9.74026667,40.4824757 Z" id="Fill-5" fill="#22232B"></path>
                <g id="Group-9" stroke-width="1" transform="translate(26.666667, 39.630141)">
                    <mask id="mask-2" fill="white">
                        <use xlink:href="#path-1"></use>
                    </mask>
                    <g id="Clip-8"></g>
                    <path d="M0.7396,2.30591351 C1.8076,3.43158919 1.95293333,7.07348108 1.79426667,9.10499459 L3.92093333,9.27053514 C3.9716,8.63750811 4.3516,3.02104865 2.29026667,0.851805405 L0.7396,2.30591351 Z" id="Fill-7" fill="#22232B" mask="url(#mask-2)"></path>
                </g>
                <g id="Group-12" stroke-width="1" transform="translate(0.000000, -0.099589)">
                    <mask id="mask-4" fill="white">
                        <use xlink:href="#path-3"></use>
                    </mask>
                    <g id="Clip-11"></g>
                    <path d="M38.1250667,24.7521514 C38.1250667,20.1143676 41.9237333,16.3413676 46.5930667,16.3413676 C51.2624,16.3413676 55.0610667,20.1143676 55.0610667,24.7521514 C55.0610667,29.3899351 51.2624,33.1642595 46.5930667,33.1642595 C41.9237333,33.1642595 38.1250667,29.3899351 38.1250667,24.7521514 M6.87706667,14.6051784 C6.87706667,7.77563784 12.4730667,2.21744865 19.3490667,2.21744865 C26.2250667,2.21744865 31.8197333,7.77563784 31.8197333,14.6051784 C31.8197333,21.4347189 26.2250667,26.9915838 19.3490667,26.9915838 C12.4730667,26.9915838 6.87706667,21.4347189 6.87706667,14.6051784 M51.9490667,33.823773 C55.0810667,31.9922324 57.1930667,28.6165297 57.1930667,24.7521514 C57.1930667,18.9463135 52.4384,14.223773 46.5930667,14.223773 C40.7477333,14.223773 35.9917333,18.9463135 35.9917333,24.7521514 C35.9917333,28.6165297 38.1050667,31.9922324 41.2370667,33.823773 C39.5864,34.305827 37.9504,35.1308811 36.5530667,36.5214216 C34.1490667,31.0003135 30.0237333,28.6059351 25.7437333,27.6259351 C30.5957333,25.2646649 33.9530667,20.3236108 33.9530667,14.6051784 C33.9530667,6.60625946 27.4024,0.0998540541 19.3490667,0.0998540541 C11.2957333,0.0998540541 4.74506667,6.60625946 4.74506667,14.6051784 C4.74506667,20.3236108 8.1024,25.2646649 12.9544,27.6259351 C6.2944,29.1515568 -0.000266666667,34.0793676 -0.000266666667,48.9170973 L2.13306667,48.9170973 C2.13306667,39.1237189 4.1784,29.1105027 19.3490667,29.1105027 C27.8624,29.1105027 36.5650667,31.463827 36.5650667,48.9170973 L38.6970667,48.9170973 C38.6970667,44.8315568 38.2144,41.5075027 37.3837333,38.7886649 C39.2504,36.4022324 42.1784,35.2818541 46.5930667,35.2818541 C52.4317333,35.2818541 58.4024,36.902827 58.4024,48.9170973 L60.5344,48.9170973 C60.5344,38.813827 56.4584,35.1176378 51.9490667,33.823773" id="Fill-10" fill="#22232B" mask="url(#mask-4)"></path>
                </g>
                <g id="Group-15" stroke-width="1" transform="translate(52.000000, 42.278789)">
                    <mask id="mask-6" fill="white">
                        <use xlink:href="#path-5"></use>
                    </mask>
                    <g id="Clip-14"></g>
                    <path d="M0.0377333333,1.90755676 C0.6764,2.58031351 0.8084,5.01971892 0.6964,6.45661081 L2.82173333,6.62215135 C2.88173333,5.87125946 3.10173333,2.04528649 1.5884,0.453448649 L0.0377333333,1.90755676 Z" id="Fill-13" fill="#22232B" mask="url(#mask-6)"></path>
                </g>
            </g>
        </g>
    </g>
</svg>