<?xml version="1.0" encoding="UTF-8"?>
<svg width="24px" height="29px" viewBox="0 0 24 29" version="1.1" xmlns="http://www.w3.org/2000/svg" xmlns:xlink="http://www.w3.org/1999/xlink">
    <!-- Generator: Sketch 51.1 (57501) - http://www.bohemiancoding.com/sketch -->
    <title>Page 1</title>
    <desc>Created with Sketch.</desc>
    <defs>
        <polygon id="path-1" points="0.7872 0.064 18.155 0.064 18.155 23.432 0.7872 23.432"></polygon>
        <polygon id="path-3" points="0 0.7463 22.9436 0.7463 22.9436 7 0 7"></polygon>
    </defs>
    <g id="Page-1" stroke="none" stroke-width="1" fill="none" fill-rule="evenodd">
        <g id="MO---Ajouter-un-stage_menu_design@2x" transform="translate(-24.000000, -370.000000)">
            <g id="Page-1" transform="translate(24.000000, 370.000000)">
                <g id="Group-3" opacity="0.200000003" transform="translate(5.000000, 3.794900)">
                    <mask id="mask-2" fill="white">
                        <use xlink:href="#path-1"></use>
                    </mask>
                    <g id="Clip-2"></g>
                    <path d="M9.4712,10.985 C7.8312,10.985 6.5022,9.656 6.5022,8.016 C6.5022,6.377 7.8312,5.048 9.4712,5.048 C11.1112,5.048 12.4402,6.377 12.4402,8.016 C12.4402,9.656 11.1112,10.985 9.4712,10.985 M9.4712,0.064 C4.6752,0.064 0.7872,3.952 0.7872,8.748 C0.7872,13.544 4.5892,15.522 9.4712,23.432 C14.6482,15.522 18.1552,13.544 18.1552,8.748 C18.1552,3.952 14.2672,0.064 9.4712,0.064" id="Fill-1" fill="#FFFFFF" mask="url(#mask-2)"></path>
                </g>
                <path d="M11.4717,1.1992 C15.9297,1.1992 19.5557,4.8262 19.5557,9.2832 C19.5557,12.2292 18.1707,13.9972 15.6577,17.2062 C14.4907,18.6952 13.0667,20.5132 11.4857,22.8622 C9.8357,20.2812 8.3137,18.3452 7.0687,16.7622 C4.7737,13.8442 3.3877,12.0812 3.3877,9.2832 C3.3877,4.8262 7.0137,1.1992 11.4717,1.1992 M10.9607,24.2832 L11.4567,25.0862 L11.9737,24.2962 C13.7327,21.6082 15.3237,19.5782 16.6017,17.9462 C19.1027,14.7532 20.7557,12.6432 20.7557,9.2832 C20.7557,4.1642 16.5907,0.0002 11.4717,0.0002 C6.3527,0.0002 2.1877,4.1642 2.1877,9.2832 C2.1877,12.4962 3.7547,14.4882 6.1257,17.5052 C7.4757,19.2212 9.1567,21.3592 10.9607,24.2832" id="Fill-4" fill="#FFFFFF"></path>
                <g id="Group-8" transform="translate(0.000000, 21.794900)">
                    <mask id="mask-4" fill="white">
                        <use xlink:href="#path-3"></use>
                    </mask>
                    <g id="Clip-7"></g>
                    <path d="M18.2886,0.7783 L18.0506,1.9543 C21.0646,2.5663 21.7436,3.3563 21.7436,3.5853 C21.7436,4.3373 18.1176,5.8003 11.4716,5.8003 C4.8256,5.8003 1.2006,4.3373 1.2006,3.5853 C1.2006,3.3483 1.9076,2.5373 5.0496,1.9243 L4.8196,0.7463 C2.6216,1.1743 -0.0004,2.0153 -0.0004,3.5853 C-0.0004,5.9313 5.9466,7.0003 11.4716,7.0003 C16.9966,7.0003 22.9436,5.9313 22.9436,3.5853 C22.9436,2.3493 21.3776,1.4053 18.2886,0.7783" id="Fill-6" fill="#FFFFFF" mask="url(#mask-4)"></path>
                </g>
                <path d="M11.4717,6.1826 C12.7777,6.1826 13.8407,7.2456 13.8407,8.5516 C13.8407,9.8576 12.7777,10.9206 11.4717,10.9206 C10.1657,10.9206 9.1027,9.8576 9.1027,8.5516 C9.1027,7.2456 10.1657,6.1826 11.4717,6.1826 M11.4717,12.1196 C13.4397,12.1196 15.0407,10.5196 15.0407,8.5516 C15.0407,6.5836 13.4397,4.9836 11.4717,4.9836 C9.5037,4.9836 7.9027,6.5836 7.9027,8.5516 C7.9027,10.5196 9.5037,12.1196 11.4717,12.1196" id="Fill-9" fill="#FFFFFF"></path>
            </g>
        </g>
    </g>
</svg>