<?xml version="1.0" encoding="UTF-8"?>
<svg width="69px" height="54px" viewBox="0 0 69 54" version="1.1" xmlns="http://www.w3.org/2000/svg" xmlns:xlink="http://www.w3.org/1999/xlink">
    <!-- Generator: Sketch 51.1 (57501) - http://www.bohemiancoding.com/sketch -->
    <title>Dialog</title>
    <desc>Created with Sketch.</desc>
    <defs>
        <polygon id="path-1" points="0 54.3947368 68.2484082 54.3947368 68.2484082 1.32081579 0 1.32081579"></polygon>
    </defs>
    <g id="Page-1" stroke="none" stroke-width="1" fill="none" fill-rule="evenodd">
        <g id="MO---Dashboard3_design@2x" transform="translate(-920.000000, -640.000000)">
            <g id="Dialog" transform="translate(920.000000, 640.000000)">
                <polygon id="Fill-1" fill="#17E0AB" points="28.9902041 32.0429632 42.8816327 32.0429632 42.8816327 3.90414737 28.9902041 3.90414737"></polygon>
                <polygon id="Fill-2" fill="#17E0AB" points="53.1016163 16.8962605 53.1016163 42.8941553 68.2475755 53.0743395 68.2475755 16.8962605"></polygon>
                <path d="M0,0.000418421053 L0,39.3780237 L13.4445714,30.3680237 L25.3667755,30.3680237 L25.3667755,42.8969447 L53.1371429,42.8969447 L66.5817143,51.9041553 L66.5817143,12.52655 L41.2163265,12.52655 L41.2163265,0.000418421053 L0,0.000418421053 Z M2.21902041,2.23060263 L38.9973061,2.23060263 L38.9973061,28.1378395 L12.7715102,28.1378395 L2.21902041,35.2077605 L2.21902041,2.23060263 Z M41.2163265,14.7567342 L64.3626939,14.7567342 L64.3626939,47.7338921 L53.8102041,40.6653658 L27.5857959,40.6653658 L27.5857959,30.3680237 L41.2163265,30.3680237 L41.2163265,28.8533395 L57.0866939,28.8533395 L57.0866939,26.6203658 L41.2163265,26.6203658 L41.2163265,14.7567342 Z" id="Fill-3" fill="#22232B"></path>
                <polygon id="Fill-4" fill="#22232B" points="43.9071837 22.8223579 57.0866939 22.8223579 57.0866939 20.5907789 43.9071837 20.5907789"></polygon>
                <polygon id="Fill-5" fill="#22232B" points="34.0888163 34.8826474 47.0879184 34.8826474 47.0879184 32.6510684 34.0888163 32.6510684"></polygon>
                <polygon id="Fill-6" fill="#22232B" points="50.0868571 34.8826474 57.0866939 34.8826474 57.0866939 32.6510684 50.0868571 32.6510684"></polygon>
                <g id="Group-11" stroke-width="1" transform="translate(0.000000, -1.320537)">
                    <path d="M22.2233714,11.4167579 C22.6244327,11.4167579 23.0102286,11.4711526 23.3807592,11.5799421 C23.749902,11.6887316 24.1481878,11.8379684 24.5742286,12.0304421 L25.4818204,9.87278421 C24.4687592,9.36370526 23.3835347,9.10986316 22.2233714,9.10986316 C20.7245959,9.10986316 19.4742286,9.54502105 18.4750449,10.4167316 C17.4758612,11.2884421 16.8610857,12.4739684 16.6334939,13.9747053 L15.4025551,13.9747053 L15.4025551,15.6121263 L16.4752898,15.6121263 L16.457249,16.1044684 C16.457249,16.3471526 16.4697388,16.5382316 16.4947184,16.6818895 L15.4025551,16.6818895 L15.4025551,18.3374421 L16.6709633,18.3374421 C16.9235347,19.7949421 17.5369224,20.9358368 18.5125143,21.7601263 C19.4867184,22.5844158 20.7301469,22.9972579 22.2414122,22.9972579 C23.3335755,22.9972579 24.2383918,22.8145474 24.9530857,22.4491263 L24.9530857,20.0669158 C24.1384735,20.4211789 23.2905551,20.5969158 22.4079429,20.5969158 C20.7426367,20.5969158 19.7517796,19.8437579 19.4381469,18.3374421 L22.5661469,18.3374421 L22.5661469,16.6818895 L19.2799429,16.6818895 L19.261902,16.3750474 L19.261902,15.9371 L19.2799429,15.6121263 L23.1490041,15.6121263 L23.1490041,13.9747053 L19.4187184,13.9747053 C19.5616571,13.1434421 19.8752898,12.5102316 20.3623918,12.0722842 C20.8508816,11.6357316 21.4712082,11.4167579 22.2233714,11.4167579" id="Fill-7" fill="#22232B"></path>
                    <mask id="mask-2" fill="white">
                        <use xlink:href="#path-1"></use>
                    </mask>
                    <g id="Clip-10"></g>
                    <polygon id="Fill-9" fill="#22232B" mask="url(#mask-2)" points="3.70946939 29.3954737 5.92987755 29.3954737 5.92987755 6.38231579 3.70946939 6.38231579"></polygon>
                </g>
            </g>
        </g>
    </g>
</svg>