<?xml version="1.0" encoding="UTF-8"?>
<svg width="28px" height="25px" viewBox="0 0 28 25" version="1.1" xmlns="http://www.w3.org/2000/svg" xmlns:xlink="http://www.w3.org/1999/xlink">
    <!-- Generator: Sketch 51.1 (57501) - http://www.bohemiancoding.com/sketch -->
    <title>Page 1</title>
    <desc>Created with Sketch.</desc>
    <defs>
        <polygon id="path-1" points="0 0.067 27.2676 0.067 27.2676 22.1278 0 22.1278"></polygon>
    </defs>
    <g id="Page-1" stroke="none" stroke-width="1" fill="none" fill-rule="evenodd">
        <g id="MO---Liste-des-stages_design@2x" transform="translate(-11.000000, -234.000000)">
            <g id="Page-1" transform="translate(11.000000, 234.000000)">
                <g id="Group-5" transform="translate(3.000000, 3.000000)" fill="#FFFFFF" opacity="0.200000003">
                    <path d="M14.8032,6.5803 C14.8032,3.2433 12.0982,0.5373 8.7602,0.5373 C5.4232,0.5373 2.7182,3.2433 2.7182,6.5803 C2.7182,9.9173 5.4232,12.6233 8.7602,12.6233 C12.0982,12.6233 14.8032,9.9173 14.8032,6.5803" id="Fill-1"></path>
                    <path d="M0.6,22 L16.921,22 C16.921,14.173 13.055,12.623 8.76,12.623 C4.466,12.623 0.6,14.173 0.6,22" id="Fill-3"></path>
                </g>
                <path d="M4.94674733,18 C3.81498385,19.0346806 3.99253906,21.5014342 4.03722983,21.9958279 L5.46250294,22 C5.3731214,21.0007823 5.48666011,19.3288136 6,18.8594524 L4.94674733,18 Z" id="Fill-6" fill="#FFFFFF"></path>
                <path d="M12,18.8596766 C12.5135303,19.3291601 12.5944868,21.0005216 12.5050721,22 L13.9622897,21.9968701 C14.0069971,21.5023474 14.1870347,19.0349504 13.0536433,18 L12,18.8596766 Z" id="Fill-8" fill="#FFFFFF"></path>
                <g id="Group-12">
                    <mask id="mask-2" fill="white">
                        <use xlink:href="#path-1"></use>
                    </mask>
                    <g id="Clip-11"></g>
                    <path d="M17.2656,11.2688 C17.2656,9.2528 18.9056,7.6128 20.9206,7.6128 C22.9366,7.6128 24.5766,9.2528 24.5766,11.2688 C24.5766,13.2848 22.9366,14.9248 20.9206,14.9248 C18.9056,14.9248 17.2656,13.2848 17.2656,11.2688 M3.3176,6.7078 C3.3176,3.7068 5.7596,1.2658 8.7606,1.2658 C11.7616,1.2658 14.2026,3.7068 14.2026,6.7078 C14.2026,9.7088 11.7616,12.1518 8.7606,12.1518 C5.7596,12.1518 3.3176,9.7088 3.3176,6.7078 M23.5756,15.3258 C24.8986,14.4568 25.7766,12.9658 25.7766,11.2688 C25.7766,8.5908 23.5986,6.4138 20.9206,6.4138 C18.2436,6.4138 16.0656,8.5908 16.0656,11.2688 C16.0656,12.9558 16.9326,14.4418 18.2416,15.3118 C17.6226,15.5248 17.0146,15.8488 16.4756,16.3498 C15.4386,14.0758 13.7506,13.0028 11.9646,12.5238 C14.0126,11.3908 15.4036,9.2098 15.4036,6.7078 C15.4036,3.0458 12.4236,0.0668 8.7606,0.0668 C5.0976,0.0668 2.1176,3.0458 2.1176,6.7078 C2.1176,9.2098 3.5086,11.3908 5.5566,12.5238 C2.6586,13.2998 -0.0004,15.6078 -0.0004,22.1278 L1.2006,22.1278 C1.2006,14.3938 5.0216,13.3508 8.7606,13.3508 C12.4986,13.3508 16.3206,14.3938 16.3206,22.1278 L17.5206,22.1278 C17.5206,20.3098 17.3056,18.8318 16.9446,17.6098 C17.7546,16.6008 19.0196,16.1238 20.9206,16.1238 C23.4666,16.1238 26.0676,16.8378 26.0676,22.1278 L27.2676,22.1278 C27.2676,18.4248 26.0516,16.1808 23.5756,15.3258" id="Fill-10" fill="#FFFFFF" mask="url(#mask-2)"></path>
                </g>
                <path d="M23,19.8746015 C23.1524446,20.1253985 23.2205002,21.2221041 23.1817085,22 L23.9847647,21.9957492 C24.0031397,21.6269926 24.0780009,19.8012752 23.5941255,19 L23,19.8746015 Z" id="Fill-13" fill="#FFFFFF"></path>
            </g>
        </g>
    </g>
</svg>