<?xml version="1.0" encoding="utf-8"?>
<!-- Generator: Adobe Illustrator 19.2.1, SVG Export Plug-In . SVG Version: 6.00 Build 0)  -->
<svg version="1.1" id="Calque_1" xmlns="http://www.w3.org/2000/svg" xmlns:xlink="http://www.w3.org/1999/xlink" x="0px" y="0px"
	 width="30.2px" height="35.9px" viewBox="0 0 30.2 35.9" style="enable-background:new 0 0 30.2 35.9;" xml:space="preserve">
<style type="text/css">
	.st0{opacity:0.15;}
	.st1{fill:#FFFFFF;}
</style>
<g class="st0">
	<circle class="st1" cx="21.9" cy="27.6" r="8.3"/>
</g>
<g>
	<path class="st1" d="M4.9,20.4c-1,1.1-0.9,3.8-0.8,4.3l1.2-0.1c-0.1-1.1,0-2.8,0.5-3.4L4.9,20.4z"/>
	<path class="st1" d="M18.9,15.7c-0.7,0-1.4,0.1-2.1,0.2c-1-1-2.2-1.7-3.7-2.1c2.4-1.2,4-3.7,4-6.5c0-4.1-3.3-7.4-7.4-7.4
		C5.7,0,2.4,3.3,2.4,7.4c0,2.8,1.6,5.3,4,6.5C3.1,14.7,0,17.2,0,24.6h1.2c0-8.7,4.3-9.9,8.5-9.9c2.6,0,4.4,0.5,5.8,1.6
		c-3.3,1.3-5.5,4.5-5.5,8.3c0,4.9,4,8.9,8.9,8.9c4.9,0,8.9-4,8.9-8.9S23.8,15.7,18.9,15.7z M3.6,7.4c0-3.4,2.8-6.2,6.2-6.2
		c3.4,0,6.2,2.8,6.2,6.2c0,3.4-2.8,6.2-6.2,6.2C6.3,13.5,3.6,10.8,3.6,7.4z M18.9,32.3c-4.3,0-7.7-3.5-7.7-7.7s3.5-7.7,7.7-7.7
		c4.3,0,7.7,3.5,7.7,7.7S23.1,32.3,18.9,32.3z"/>
	<polygon class="st1" points="19.5,21.4 18.3,21.4 18.3,24 15.7,24 15.7,25.2 18.3,25.2 18.3,27.8 19.5,27.8 19.5,25.2 22,25.2 
		22,24 19.5,24 	"/>
</g>
</svg>
