<?xml version="1.0" encoding="utf-8"?>
<!-- Generator: Adobe Illustrator 19.2.1, SVG Export Plug-In . SVG Version: 6.00 Build 0)  -->
<svg version="1.1" id="Calque_1" xmlns="http://www.w3.org/2000/svg" xmlns:xlink="http://www.w3.org/1999/xlink" x="0px" y="0px"
	 width="30.7px" height="29.9px" viewBox="0 0 30.7 29.9" style="enable-background:new 0 0 30.7 29.9;" xml:space="preserve">
<style type="text/css">
	.st0{opacity:0.15;fill:#FFFFFF;}
	.st1{fill:#FFFFFF;}
</style>
<path class="st0" d="M7.7,15.1v14.8h7v-7.1c0-2,1.6-3.6,3.6-3.6s3.6,1.6,3.6,3.6v7.1h7V15.1v-2.9L18.3,3.8L7.7,12.3V15.1z"/>
<g>
	<path class="st1" d="M25.4,26.3h-5.8v-6.5c0-2.3-1.9-4.2-4.2-4.2s-4.2,1.9-4.2,4.2v6.5H5.3V12.1H4.1v15.4h8.2v-7.7c0-1.7,1.3-3,3-3
		s3,1.3,3,3v7.7h8.2V12.1h-1.2V26.3z"/>
	<polygon class="st1" points="15.3,0 0,12.3 0.7,13.2 15.3,1.5 29.9,13.2 30.7,12.3 	"/>
</g>
</svg>
