<?xml version="1.0" encoding="UTF-8"?>
<svg width="22px" height="28px" viewBox="0 0 22 28" version="1.1" xmlns="http://www.w3.org/2000/svg" xmlns:xlink="http://www.w3.org/1999/xlink">
    <!-- Generator: Sketch 51.1 (57501) - http://www.bohemiancoding.com/sketch -->
    <title>Page 1</title>
    <desc>Created with Sketch.</desc>
    <defs>
        <polygon id="path-1" points="0.0004 0.6142 21.533 0.6142 21.533 27.9532 0.0004 27.9532"></polygon>
        <polygon id="path-3" points="0.476521415 0.2813 2.2905 0.2813 2.2905 5 0.476521415 5"></polygon>
        <polygon id="path-5" points="0.2427 0.2815 2.05686614 0.2815 2.05686614 5 0.2427 5"></polygon>
    </defs>
    <g id="Page-1" stroke="none" stroke-width="1" fill="none" fill-rule="evenodd">
        <g id="MO---Liste-des-stages_design@2x" transform="translate(-14.000000, -302.000000)">
            <g id="Page-1" transform="translate(14.000000, 301.000000)">
                <path d="M10.7666,12.3662 C9.4496,12.3662 8.2206,11.6562 7.5596,10.5142 L6.5216,11.1162 C7.3956,12.6272 9.0226,13.5652 10.7666,13.5652 C12.5116,13.5652 14.1386,12.6272 15.0126,11.1152 L13.9736,10.5132 C13.3136,11.6562 12.0846,12.3662 10.7666,12.3662" id="Fill-1" fill="#FFFFFF"></path>
                <g id="Group-5" transform="translate(0.000000, 0.385700)">
                    <mask id="mask-2" fill="white">
                        <use xlink:href="#path-1"></use>
                    </mask>
                    <g id="Clip-4"></g>
                    <path d="M3.8384,8.7422 C3.8384,4.9222 6.9464,1.8132 10.7664,1.8132 C14.5874,1.8132 17.6944,4.9222 17.6944,8.7422 C17.6944,12.5622 14.5874,15.6712 10.7664,15.6712 C6.9464,15.6712 3.8384,12.5622 3.8384,8.7422 M14.3434,16.0302 C17.0344,14.7032 18.8954,11.9402 18.8954,8.7422 C18.8954,4.2602 15.2484,0.6142 10.7664,0.6142 C6.2844,0.6142 2.6384,4.2602 2.6384,8.7422 C2.6384,11.9402 4.4984,14.7032 7.1894,16.0302 C3.4914,16.8892 0.0004,19.6542 0.0004,27.9532 L1.2004,27.9532 C1.2004,22.4722 2.3374,16.8702 10.7664,16.8702 C19.1964,16.8702 20.3334,22.4722 20.3334,27.9532 L21.5334,27.9532 C21.5334,19.6542 18.0424,16.8892 14.3434,16.0302" id="Fill-3" fill="#FFFFFF" mask="url(#mask-2)"></path>
                </g>
                <g id="Group-8" transform="translate(4.000000, 23.385700)">
                    <mask id="mask-4" fill="white">
                        <use xlink:href="#path-3"></use>
                    </mask>
                    <g id="Clip-7"></g>
                    <path d="M1.4185,0.2813 C0.2705,1.4973 0.4815,4.6453 0.5095,5.0003 L1.7065,4.9063 C1.6305,3.9483 1.6745,1.7583 2.2905,1.1053 L1.4185,0.2813 Z" id="Fill-6" fill="#FFFFFF" mask="url(#mask-4)"></path>
                </g>
                <g id="Group-11" transform="translate(15.000000, 23.385700)">
                    <mask id="mask-6" fill="white">
                        <use xlink:href="#path-5"></use>
                    </mask>
                    <g id="Clip-10"></g>
                    <path d="M0.2427,1.1055 C0.8347,1.7325 0.9157,3.7695 0.8267,4.9065 L2.0237,5.0005 C2.0517,4.6455 2.2637,1.4975 1.1147,0.2815 L0.2427,1.1055 Z" id="Fill-9" fill="#FFFFFF" mask="url(#mask-6)"></path>
                </g>
                <path d="M21.2942,12.0672 C21.2942,16.2232 17.9252,19.5912 13.7702,19.5912 C9.6142,19.5912 6.2452,16.2232 6.2452,12.0672 C6.2452,7.9112 9.6142,4.5432 13.7702,4.5432 C17.9252,4.5432 21.2942,7.9112 21.2942,12.0672" id="Fill-12" fill="#FFFFFF" opacity="0.200000003"></path>
            </g>
        </g>
    </g>
</svg>