<?xml version="1.0" encoding="UTF-8"?>
<svg width="32px" height="21px" viewBox="0 0 32 21" version="1.1" xmlns="http://www.w3.org/2000/svg" xmlns:xlink="http://www.w3.org/1999/xlink">
    <!-- Generator: Sketch 51.1 (57501) - http://www.bohemiancoding.com/sketch -->
    <title>Page 1</title>
    <desc>Created with Sketch.</desc>
    <defs>
        <polygon id="path-1" points="0.0002 0.231 28.6672 0.231 28.6672 18.5997 0.0002 18.5997"></polygon>
        <polygon id="path-3" points="0 21.7693 31.604 21.7693 31.604 1.0003 0 1.0003"></polygon>
    </defs>
    <g id="Page-1" stroke="none" stroke-width="1" fill="none" fill-rule="evenodd">
        <g id="MO---Liste-des-stages_design@2x" transform="translate(-11.000000, -515.000000)">
            <g id="Page-1" transform="translate(11.000000, 514.000000)">
                <g id="Group-3" transform="translate(0.000000, 0.769300)">
                    <mask id="mask-2" fill="white">
                        <use xlink:href="#path-1"></use>
                    </mask>
                    <g id="Clip-2"></g>
                    <path d="M1.2002,3.1487 L1.2002,2.7367 C1.2002,2.0157 1.7862,1.4297 2.5072,1.4297 L26.1602,1.4297 C26.8812,1.4297 27.4672,2.0157 27.4672,2.7367 L27.4672,3.1487 L1.2002,3.1487 Z M27.4672,16.0927 C27.4672,16.8137 26.8812,17.4007 26.1602,17.4007 L2.5072,17.4007 C1.7862,17.4007 1.2002,16.8137 1.2002,16.0927 L1.2002,8.3477 L27.4672,8.3477 L27.4672,16.0927 Z M1.2002,7.1487 L27.4672,7.1487 L27.4672,4.3477 L1.2002,4.3477 L1.2002,7.1487 Z M26.1602,0.2307 L2.5072,0.2307 C1.1242,0.2307 0.0002,1.3547 0.0002,2.7367 L0.0002,3.1487 L0.0002,8.3477 L0.0002,16.0927 C0.0002,17.4757 1.1242,18.5997 2.5072,18.5997 L26.1602,18.5997 C27.5422,18.5997 28.6672,17.4757 28.6672,16.0927 L28.6672,8.3477 L28.6672,3.1487 L28.6672,2.7367 C28.6672,1.3547 27.5422,0.2307 26.1602,0.2307 Z" id="Fill-1" fill="#FFFFFF" mask="url(#mask-2)"></path>
                </g>
                <mask id="mask-4" fill="white">
                    <use xlink:href="#path-3"></use>
                </mask>
                <g id="Clip-5"></g>
                <polygon id="Fill-4" fill="#FFFFFF" mask="url(#mask-4)" points="4.634 13.1173 8.572 13.1173 8.572 11.9183 4.634 11.9183"></polygon>
                <polygon id="Fill-6" fill="#FFFFFF" mask="url(#mask-4)" points="4.635 15.4293 13.26 15.4293 13.26 14.2303 4.635 14.2303"></polygon>
                <path d="M21.7231,12.2403 C22.4441,12.2403 23.0311,12.8273 23.0311,13.5493 C23.0311,14.2693 22.4441,14.8563 21.7231,14.8563 C21.0021,14.8563 20.4151,14.2693 20.4151,13.5493 C20.4151,12.8273 21.0021,12.2403 21.7231,12.2403 M21.7231,16.0553 C23.1061,16.0553 24.2311,14.9313 24.2311,13.5493 C24.2311,12.1663 23.1061,11.0413 21.7231,11.0413 C20.3401,11.0413 19.2151,12.1663 19.2151,13.5493 C19.2151,14.9313 20.3401,16.0553 21.7231,16.0553" id="Fill-7" fill="#FFFFFF" mask="url(#mask-4)"></path>
                <path d="M6.0447,4.5992 C4.9917,4.5992 4.1377,5.4532 4.1377,6.5062 L4.1377,19.8622 C4.1377,20.9152 4.9917,21.7692 6.0447,21.7692 L29.6977,21.7692 C30.7507,21.7692 31.6047,20.9152 31.6047,19.8622 L31.6047,6.5062 C31.6047,5.4532 30.7507,4.5992 29.6977,4.5992 L6.0447,4.5992 Z" id="Fill-8" fill="#FFFFFF" opacity="0.200000003" mask="url(#mask-4)"></path>
            </g>
        </g>
    </g>
</svg>