<?xml version="1.0" encoding="UTF-8"?>
<svg width="28px" height="29px" viewBox="0 0 28 29" version="1.1" xmlns="http://www.w3.org/2000/svg" xmlns:xlink="http://www.w3.org/1999/xlink">
    <!-- Generator: Sketch 51.1 (57501) - http://www.bohemiancoding.com/sketch -->
    <title>Page 1</title>
    <desc>Created with Sketch.</desc>
    <defs>
        <polygon id="path-1" points="0 28.7858 27.576 28.7858 27.576 -0.0002 0 -0.0002"></polygon>
    </defs>
    <g id="Page-1" stroke="none" stroke-width="1" fill="none" fill-rule="evenodd">
        <g id="MO---Liste-des-stages_design@2x" transform="translate(-11.000000, -162.000000)">
            <g id="Page-1" transform="translate(11.000000, 162.000000)">
                <path d="M12.5999,28.7854 C7.2979,28.7854 2.9999,24.4884 2.9999,19.1864 C2.9999,13.8844 7.2979,9.5874 12.5999,9.5874 C17.9009,9.5874 22.1989,13.8844 22.1989,19.1864 C22.1989,24.4884 17.9009,28.7854 12.5999,28.7854 Z" id="Fill-1" fill="#FFFFFF" opacity="0.200000003"></path>
                <path d="M8.1001,1.1992 C8.5831,1.1992 8.9751,1.5932 8.9751,2.0752 C8.9751,2.5572 8.5831,2.9512 8.1001,2.9512 C7.6181,2.9512 7.2251,2.5572 7.2251,2.0752 C7.2251,1.5932 7.6181,1.1992 8.1001,1.1992 M8.1001,4.1502 C9.2451,4.1502 10.1761,3.2202 10.1761,2.0752 C10.1761,0.9302 9.2451,0.0002 8.1001,0.0002 C6.9561,0.0002 6.0251,0.9302 6.0251,2.0752 C6.0251,3.2202 6.9561,4.1502 8.1001,4.1502" id="Fill-3" fill="#FFFFFF"></path>
                <mask id="mask-2" fill="white">
                    <use xlink:href="#path-1"></use>
                </mask>
                <g id="Clip-6"></g>
                <polygon id="Fill-5" fill="#FFFFFF" mask="url(#mask-2)" points="12.576 2.6748 27.576 2.6748 27.576 1.4758 12.576 1.4758"></polygon>
                <polygon id="Fill-7" fill="#FFFFFF" mask="url(#mask-2)" points="16.559 8.1868 27.576 8.1868 27.576 6.9878 16.559 6.9878"></polygon>
                <polygon id="Fill-8" fill="#FFFFFF" mask="url(#mask-2)" points="20.767 13.6968 27.576 13.6968 27.576 12.4978 20.767 12.4978"></polygon>
                <polygon id="Fill-9" fill="#FFFFFF" mask="url(#mask-2)" points="21.35 19.2088 27.576 19.2088 27.576 18.0098 21.35 18.0098"></polygon>
                <path d="M9.8623,25.5107 C5.0863,25.5107 1.2003,21.6247 1.2003,16.8487 C1.2003,12.0727 5.0863,8.1867 9.8623,8.1867 C14.6383,8.1867 18.5243,12.0727 18.5243,16.8487 C18.5243,21.6247 14.6383,25.5107 9.8623,25.5107 M8.1003,6.7107 C8.3773,6.7107 8.6143,6.8487 8.7743,7.0507 C8.2603,7.1077 7.7613,7.2107 7.2743,7.3437 C7.3823,6.9817 7.7043,6.7107 8.1003,6.7107 M10.0803,6.9987 C9.8243,6.1417 9.0393,5.5117 8.1003,5.5117 C6.9563,5.5117 6.0253,6.4427 6.0253,7.5867 C6.0253,7.6447 6.0373,7.7007 6.0423,7.7577 C2.4953,9.2537 0.0003,12.7647 0.0003,16.8487 C0.0003,22.2857 4.4243,26.7097 9.8623,26.7097 C15.3003,26.7097 19.7243,22.2857 19.7243,16.8487 C19.7243,11.4847 15.4173,7.1157 10.0803,6.9987" id="Fill-10" fill="#FFFFFF" mask="url(#mask-2)"></path>
                <polygon id="Fill-11" fill="#FFFFFF" mask="url(#mask-2)" points="10.4624 13.3183 9.2624 13.3183 9.2624 16.2493 6.3324 16.2493 6.3324 17.4483 9.2624 17.4483 9.2624 20.3783 10.4624 20.3783 10.4624 17.4483 13.3924 17.4483 13.3924 16.2493 10.4624 16.2493"></polygon>
            </g>
        </g>
    </g>
</svg>