<?xml version="1.0" encoding="UTF-8"?>
<svg width="32px" height="24px" viewBox="0 0 32 24" version="1.1" xmlns="http://www.w3.org/2000/svg" xmlns:xlink="http://www.w3.org/1999/xlink">
    <!-- Generator: Sketch 51.1 (57501) - http://www.bohemiancoding.com/sketch -->
    <title>Page 1</title>
    <desc>Created with Sketch.</desc>
    <defs>
        <polygon id="path-1" points="0 0.0027 28.6668 0.0027 28.6668 21.4157 0 21.4157"></polygon>
        <polygon id="path-3" points="0 24.9975 31.067 24.9975 31.067 0.9995 0 0.9995"></polygon>
    </defs>
    <g id="Page-1" stroke="none" stroke-width="1" fill="none" fill-rule="evenodd">
        <g id="MO---Liste-des-stages_design@2x" transform="translate(-11.000000, -445.000000)">
            <g id="Page-1" transform="translate(11.000000, 444.000000)">
                <g id="Group-3" transform="translate(0.000000, 0.997500)">
                    <mask id="mask-2" fill="white">
                        <use xlink:href="#path-1"></use>
                    </mask>
                    <g id="Clip-2"></g>
                    <path d="M27.4668,18.9087 C27.4668,19.6297 26.8808,20.2167 26.1598,20.2167 L2.5068,20.2167 C1.7858,20.2167 1.1998,19.6297 1.1998,18.9087 L1.1998,5.5527 C1.1998,4.8317 1.7858,4.2457 2.5068,4.2457 L12.0948,4.2457 L12.0948,4.8877 L11.2348,4.8877 L11.2348,6.0877 L12.0948,6.0877 L16.5718,6.0877 L17.4318,6.0877 L17.4318,4.8877 L16.5718,4.8877 L16.5718,4.2457 L26.1598,4.2457 C26.8808,4.2457 27.4668,4.8317 27.4668,5.5527 L27.4668,18.9087 Z M13.2948,2.2407 C13.2948,1.6687 13.7608,1.2017 14.3338,1.2017 C14.9058,1.2017 15.3718,1.6687 15.3718,2.2407 L15.3718,4.8877 L13.2948,4.8877 L13.2948,2.2407 Z M26.1598,3.0467 L16.5718,3.0467 L16.5718,2.2407 C16.5718,1.0067 15.5678,0.0027 14.3338,0.0027 C13.0988,0.0027 12.0948,1.0067 12.0948,2.2407 L12.0948,3.0467 L2.5068,3.0467 C1.1248,3.0467 -0.0002,4.1707 -0.0002,5.5527 L-0.0002,18.9087 C-0.0002,20.2917 1.1248,21.4157 2.5068,21.4157 L26.1598,21.4157 C27.5428,21.4157 28.6668,20.2917 28.6668,18.9087 L28.6668,5.5527 C28.6668,4.1707 27.5428,3.0467 26.1598,3.0467 Z" id="Fill-1" fill="#FFFFFF" mask="url(#mask-2)"></path>
                </g>
                <path d="M6.0786,11.2324 C6.0786,10.3534 6.7936,9.6384 7.6726,9.6384 C8.5506,9.6384 9.2656,10.3534 9.2656,11.2324 C9.2656,12.1114 8.5506,12.8274 7.6726,12.8274 C6.7936,12.8274 6.0786,12.1114 6.0786,11.2324 M9.4146,13.3994 C10.0506,12.8864 10.4656,12.1114 10.4656,11.2324 C10.4656,9.6924 9.2126,8.4394 7.6726,8.4394 C6.1316,8.4394 4.8786,9.6924 4.8786,11.2324 C4.8786,12.1004 5.2846,12.8684 5.9076,13.3804 C5.0726,13.9634 4.4306,15.0434 4.4306,16.8314 L5.6306,16.8314 C5.6306,14.2284 7.1936,14.0264 7.6726,14.0264 C7.8816,14.0264 9.7136,14.1054 9.7136,16.8314 L10.9136,16.8314 C10.9136,14.9984 10.2246,13.9604 9.4146,13.3994" id="Fill-4" fill="#FFFFFF"></path>
                <mask id="mask-4" fill="white">
                    <use xlink:href="#path-3"></use>
                </mask>
                <g id="Clip-7"></g>
                <polygon id="Fill-6" fill="#FFFFFF" mask="url(#mask-4)" points="14.838 9.6775 19.486 9.6775 19.486 8.4785 14.838 8.4785"></polygon>
                <polygon id="Fill-8" fill="#FFFFFF" mask="url(#mask-4)" points="14.838 11.8815 23.3 11.8815 23.3 10.6825 14.838 10.6825"></polygon>
                <polygon id="Fill-9" fill="#FFFFFF" mask="url(#mask-4)" points="14.838 18.0195 23.3 18.0195 23.3 16.8205 14.838 16.8205"></polygon>
                <path d="M5.5071,7.8274 C4.4541,7.8274 3.6001,8.6814 3.6001,9.7344 L3.6001,23.0904 C3.6001,24.1434 4.4541,24.9974 5.5071,24.9974 L29.1601,24.9974 C30.2131,24.9974 31.0671,24.1434 31.0671,23.0904 L31.0671,9.7344 C31.0671,8.6814 30.2131,7.8274 29.1601,7.8274 L5.5071,7.8274 Z" id="Fill-10" fill="#FFFFFF" opacity="0.200000003" mask="url(#mask-4)"></path>
            </g>
        </g>
    </g>
</svg>