<?xml version="1.0" encoding="UTF-8"?>
<svg width="27px" height="30px" viewBox="0 0 27 30" version="1.1" xmlns="http://www.w3.org/2000/svg" xmlns:xlink="http://www.w3.org/1999/xlink">
    <!-- Generator: Sketch 52.6 (67491) - http://www.bohemiancoding.com/sketch -->
    <title>Group 18</title>
    <desc>Created with Sketch.</desc>
    <g id="Page-1" stroke="none" stroke-width="1" fill="none" fill-rule="evenodd">
        <g id="MO---Dashboard_reporting" transform="translate(-26.000000, -650.000000)" fill="#FEFEFE">
            <g id="Group-18" transform="translate(26.000000, 650.000000)">
                <g id="Group-3" transform="translate(4.000000, 4.247600)" opacity="0.2">
                    <path d="M16.916,24.775 L2,24.775 C0.896,24.775 0,23.879 0,22.775 L0,2 C0,0.895 0.896,0 2,0 L16.916,0 C18.021,0 18.916,0.895 18.916,2 L18.916,22.775 C18.916,23.879 18.021,24.775 16.916,24.775" id="Fill-1"></path>
                </g>
                <path d="M17.5054,24.7754 L2.5894,24.7754 C1.8124,24.7754 1.1794,24.1424 1.1794,23.3654 L1.1794,10.9244 L18.9154,10.9244 L18.9154,23.3654 C18.9154,24.1424 18.2824,24.7754 17.5054,24.7754 M2.5894,1.1794 L17.5054,1.1794 C18.2824,1.1794 18.9154,1.8124 18.9154,2.5894 L18.9154,9.7454 L1.1794,9.7454 L1.1794,2.5894 C1.1794,1.8124 1.8124,1.1794 2.5894,1.1794 M17.5054,0.0004 L2.5894,0.0004 C1.1614,0.0004 0.0004,1.1624 0.0004,2.5894 L0.0004,23.3654 C0.0004,24.7934 1.1614,25.9554 2.5894,25.9554 L17.5054,25.9554 C18.9334,25.9554 20.0954,24.7934 20.0954,23.3654 L20.0954,2.5894 C20.0954,1.1624 18.9334,0.0004 17.5054,0.0004" id="Fill-4"></path>
                <path d="M4.7939,4.458 C4.7939,4.231 4.9779,4.048 5.2039,4.048 L14.8909,4.048 C15.1169,4.048 15.3009,4.231 15.3009,4.458 L15.3009,6.312 C15.3009,6.538 15.1169,6.723 14.8909,6.723 L5.2039,6.723 C4.9779,6.723 4.7939,6.538 4.7939,6.312 L4.7939,4.458 Z M5.2039,7.902 L14.8909,7.902 C15.7679,7.902 16.4809,7.189 16.4809,6.312 L16.4809,4.458 C16.4809,3.581 15.7679,2.868 14.8909,2.868 L5.2039,2.868 C4.3269,2.868 3.6139,3.581 3.6139,4.458 L3.6139,6.312 C3.6139,7.189 4.3269,7.902 5.2039,7.902 Z" id="Fill-6"></path>
                <polygon id="Fill-8" points="7.0547 12.4512 5.8747 12.4512 5.8747 13.8582 4.4677 13.8582 4.4677 15.0382 5.8747 15.0382 5.8747 16.4452 7.0547 16.4452 7.0547 15.0382 8.4617 15.0382 8.4617 13.8582 7.0547 13.8582"></polygon>
                <polygon id="Fill-10" points="12.6348 16.2773 13.6298 15.2823 14.6248 16.2773 15.4588 15.4433 14.4638 14.4483 15.4588 13.4533 14.6248 12.6193 13.6298 13.6143 12.6348 12.6193 11.8008 13.4533 12.7958 14.4483 11.8008 15.4433"></polygon>
                <polygon id="Fill-12" points="4.468 21.2286 8.462 21.2286 8.462 20.0486 4.468 20.0486"></polygon>
                <polygon id="Fill-14" points="11.633 20.1926 15.627 20.1926 15.627 19.0126 11.633 19.0126"></polygon>
                <polygon id="Fill-15" points="11.633 22.5196 15.627 22.5196 15.627 21.3396 11.633 21.3396"></polygon>
                <polygon id="Fill-16" points="25.311 28.4086 26.491 28.4086 26.491 12.7716 25.311 12.7716"></polygon>
                <polygon id="Fill-17" points="25.311 11.3346 26.491 11.3346 26.491 9.6596 25.311 9.6596"></polygon>
            </g>
        </g>
    </g>
</svg>