<?xml version="1.0" encoding="UTF-8"?>
<svg width="33px" height="30px" viewBox="0 0 33 30" version="1.1" xmlns="http://www.w3.org/2000/svg" xmlns:xlink="http://www.w3.org/1999/xlink">
    <!-- Generator: Sketch 52.6 (67491) - http://www.bohemiancoding.com/sketch -->
    <title>Group 12</title>
    <desc>Created with Sketch.</desc>
    <defs>
        <polygon id="path-1" points="0.0944 0.5493 29.448 0.5493 29.448 30 0.0944 30"></polygon>
    </defs>
    <g id="Page-1" stroke="none" stroke-width="1" fill="none" fill-rule="evenodd">
        <g id="MO---Dashboard_reporting" transform="translate(-23.000000, -581.000000)">
            <g id="Group-12" transform="translate(23.000000, 580.000000)">
                <g id="Group-3" transform="translate(0.000000, 4.451200)" fill="#FEFEFE" opacity="0.2">
                    <path d="M16.9158,24.9629 L1.9998,24.9629 C0.8948,24.9629 -0.0002,24.0669 -0.0002,22.9629 L-0.0002,2.1889 C-0.0002,1.0839 0.8948,0.1889 1.9998,0.1889 L16.9158,0.1889 C18.0198,0.1889 18.9158,1.0839 18.9158,2.1889 L18.9158,22.9629 C18.9158,24.0669 18.0198,24.9629 16.9158,24.9629" id="Fill-1"></path>
                </g>
                <polygon id="Fill-4" fill="#FEFEFE" points="7.664 8.5562 17.262 8.5562 17.262 7.3762 7.664 7.3762"></polygon>
                <polygon id="Fill-5" fill="#FEFEFE" points="7.664 10.8622 13.339 10.8622 13.339 9.9062 7.664 9.9062"></polygon>
                <polygon id="Fill-6" fill="#FEFEFE" points="7.664 13.2792 10.888 13.2792 10.888 12.3242 7.664 12.3242"></polygon>
                <polygon id="Fill-7" fill="#FEFEFE" points="18.496 25.1512 26.702 25.1512 26.702 23.9712 18.496 23.9712"></polygon>
                <polygon id="Fill-8" fill="#FEFEFE" points="25.4422 20.0869 24.6082 19.2529 23.1892 20.6709 23.1892 14.5189 22.0092 14.5189 22.0092 20.6729 20.5912 19.2529 19.7562 20.0869 22.5972 22.9299"></polygon>
                <g id="Group-11" transform="translate(3.000000, 0.451200)">
                    <mask id="mask-2" fill="white">
                        <use xlink:href="#path-1"></use>
                    </mask>
                    <g id="Clip-10"></g>
                    <path d="M19.5994,28.8203 C17.3294,28.8203 15.2674,27.9363 13.7204,26.5043 C13.3314,26.1433 12.9774,25.7493 12.6594,25.3243 C11.5784,23.8783 10.9304,22.0913 10.9304,20.1503 C10.9304,15.5693 14.5044,11.8163 19.0094,11.5113 C19.2054,11.4983 19.4004,11.4813 19.5994,11.4813 C19.7984,11.4813 19.9934,11.4983 20.1894,11.5113 C24.6934,11.8163 28.2684,15.5693 28.2684,20.1503 C28.2684,24.9303 24.3794,28.8203 19.5994,28.8203 Z M2.6834,25.3243 C1.9064,25.3243 1.2734,24.6913 1.2734,23.9143 L1.2734,3.1383 C1.2734,2.3613 1.9064,1.7283 2.6834,1.7283 L17.5994,1.7283 C18.3764,1.7283 19.0094,2.3613 19.0094,3.1383 L19.0094,10.3323 C13.8534,10.6393 9.7504,14.9193 9.7504,20.1503 C9.7504,22.0493 10.2994,23.8183 11.2344,25.3243 L2.6834,25.3243 Z M20.1894,10.3323 L20.1894,3.1383 C20.1894,1.7113 19.0274,0.5493 17.5994,0.5493 L2.6834,0.5493 C1.2554,0.5493 0.0944,1.7113 0.0944,3.1383 L0.0944,23.9143 C0.0944,25.3413 1.2554,26.5043 2.6834,26.5043 L12.0854,26.5043 C13.8934,28.6383 16.5884,30.0003 19.5994,30.0003 C25.0304,30.0003 29.4484,25.5823 29.4484,20.1503 C29.4484,14.9193 25.3454,10.6393 20.1894,10.3323 Z" id="Fill-9" fill="#FEFEFE" mask="url(#mask-2)"></path>
                </g>
            </g>
        </g>
    </g>
</svg>