<?xml version="1.0" encoding="UTF-8"?>
<svg width="59px" height="68px" viewBox="0 0 59 68" version="1.1" xmlns="http://www.w3.org/2000/svg" xmlns:xlink="http://www.w3.org/1999/xlink">
    <!-- Generator: Sketch 51.1 (57501) - http://www.bohemiancoding.com/sketch -->
    <title>Telephone</title>
    <desc>Created with Sketch.</desc>
    <defs>
        <polygon id="path-1" points="0 68.5714286 58.6185714 68.5714286 58.6185714 1.19857143 0 1.19857143"></polygon>
    </defs>
    <g id="Page-1" stroke="none" stroke-width="1" fill="none" fill-rule="evenodd">
        <g id="MO---Dashboard3_design@2x" transform="translate(-927.000000, -174.000000)">
            <g id="Telephone" transform="translate(927.000000, 173.000000)">
                <polygon id="Fill-1" fill="#17E0AB" points="23.0862857 1.44014286 23.0862857 68.8015714 41.8648571 68.8015714 41.8648571 34.4515714 38.1891429 34.4515714 29.6191429 40.1901429 29.6191429 34.4515714 29.6191429 14.3687143 41.8648571 14.3687143 41.8648571 1.44014286"></polygon>
                <polygon id="Fill-2" fill="#22232B" points="4.28571429 57.3727143 6.57142857 57.3727143 6.57142857 11.1427143 4.28571429 11.1427143"></polygon>
                <g id="Group-14" stroke-width="1" transform="translate(0.000000, 0.229857)">
                    <path d="M20.0752857,58.6541429 C19.1681429,58.6541429 18.4295714,57.9155714 18.4295714,57.0084286 C18.4295714,56.0998571 19.1681429,55.3598571 20.0752857,55.3598571 C20.9838571,55.3598571 21.7224286,56.0998571 21.7224286,57.0084286 C21.7224286,57.9155714 20.9838571,58.6541429 20.0752857,58.6541429 M20.0752857,53.0755714 C17.9067143,53.0755714 16.1438571,54.8384286 16.1438571,57.0084286 C16.1438571,59.1755714 17.9067143,60.9398571 20.0752857,60.9398571 C22.2438571,60.9398571 24.0067143,59.1755714 24.0067143,57.0084286 C24.0067143,54.8384286 22.2438571,53.0755714 20.0752857,53.0755714" id="Fill-3" fill="#22232B"></path>
                    <mask id="mask-2" fill="white">
                        <use xlink:href="#path-1"></use>
                    </mask>
                    <g id="Clip-6"></g>
                    <polygon id="Fill-5" fill="#22232B" mask="url(#mask-2)" points="18.6628571 9.19857143 24.5671429 9.19857143 24.5671429 6.91285714 18.6628571 6.91285714"></polygon>
                    <polygon id="Fill-7" fill="#22232B" mask="url(#mask-2)" points="15.5842857 9.19857143 17.2028571 9.19857143 17.2028571 6.91285714 15.5842857 6.91285714"></polygon>
                    <path d="M56.333,33.223 L37.8444286,33.223 L30.7615714,37.9444286 L30.7615714,15.5087143 L56.333,15.5087143 L56.333,33.223 Z M2.28585714,64.5715714 L2.28585714,3.48442857 L37.8658571,3.48442857 L37.8658571,13.223 L28.4758571,13.223 L28.4758571,42.2158571 L37.8658571,35.9544286 L37.8658571,64.5715714 L2.28585714,64.5715714 Z M58.6187143,13.223 L40.1515714,13.223 L40.1515714,1.19871429 L0.000142857143,1.19871429 L0.000142857143,66.8572857 L40.1515714,66.8572857 L40.1515714,35.5087143 L58.6187143,35.5087143 L58.6187143,13.223 Z" id="Fill-8" fill="#22232B" mask="url(#mask-2)"></path>
                    <polygon id="Fill-9" fill="#22232B" mask="url(#mask-2)" points="35.3328571 21.2228571 40.3328571 21.2228571 40.3328571 18.9371429 35.3328571 18.9371429"></polygon>
                    <polygon id="Fill-10" fill="#22232B" mask="url(#mask-2)" points="43.9042857 21.2228571 51.7614286 21.2228571 51.7614286 18.9371429 43.9042857 18.9371429"></polygon>
                    <polygon id="Fill-11" fill="#22232B" mask="url(#mask-2)" points="35.3328571 25.5085714 51.7614286 25.5085714 51.7614286 23.2228571 35.3328571 23.2228571"></polygon>
                    <polygon id="Fill-12" fill="#22232B" mask="url(#mask-2)" points="35.3328571 29.7942857 44.6185714 29.7942857 44.6185714 27.5085714 35.3328571 27.5085714"></polygon>
                    <polygon id="Fill-13" fill="#22232B" mask="url(#mask-2)" points="46.7614286 29.7942857 51.7614286 29.7942857 51.7614286 27.5085714 46.7614286 27.5085714"></polygon>
                </g>
            </g>
        </g>
    </g>
</svg>