<svg xmlns="http://www.w3.org/2000/svg" viewBox="0 0 66.4 66.4"><defs><style>.cls-1{fill:#17e0ab;}.cls-2{fill:none;stroke:#fff;stroke-miterlimit:10;stroke-width:2.11px;}</style></defs><title>Fichier 1</title><g id="Calque_2" data-name="Calque 2"><g id="Calque_2-2" data-name="Calque 2"><circle class="cls-1" cx="33.2" cy="33.2" r="33.2"/><line class="cls-2" x1="44.88" y1="18.59" x2="52.62" y2="26.33"/><line class="cls-2" x1="52.62" y1="18.59" x2="44.88" y2="26.33"/><polyline class="cls-2" points="43.56 43.61 47.3 47.34 53.61 41.03"/><path class="cls-2" d="M23.35,13.12a4,4,0,1,1,4,4A4,4,0,0,1,23.35,13.12Z"/><path class="cls-2" d="M31.45,37.7h3.76V25.39a4.61,4.61,0,0,0-4.62-4.61H24a4.6,4.6,0,0,0-4.61,4.61V37.7H23"/><polyline class="cls-2" points="23.59 25.21 23.59 55.12 31.05 55.12 31.05 25.21"/><line class="cls-2" x1="27.32" y1="42.63" x2="27.32" y2="55.12"/></g></g></svg>